M48
; DRILL file {KiCad 9.0.2} date 2026-04-05T15:38:38+0200
; FORMAT={-:-/ absolute / metric / decimal}
; #@! TF.CreationDate,2026-04-05T15:38:38+02:00
; #@! TF.GenerationSoftware,Kicad,Pcbnew,9.0.2
; #@! TF.FileFunction,Plated,1,4,PTH
FMAT,2
METRIC
; #@! TA.AperFunction,Plated,PTH,ViaDrill
T1C0.300
; #@! TA.AperFunction,Plated,PTH,ComponentDrill
T2C0.600
; #@! TA.AperFunction,Plated,PTH,ComponentDrill
T3C0.800
; #@! TA.AperFunction,Plated,PTH,ComponentDrill
T4C0.900
; #@! TA.AperFunction,Plated,PTH,ComponentDrill
T5C1.000
; #@! TA.AperFunction,Plated,PTH,ComponentDrill
T6C1.100
%
G90
G05
T1
X106.419Y-48.755
X111.3Y-53.255
X112.174Y-56.325
X112.936Y-52.203
X115.501Y-52.21
X117.497Y-53.245
X119.032Y-65.545
X121.89Y-68.161
X122.03Y-48.765
X123.71Y-60.299
X125.294Y-68.222
X130.915Y-52.4
X132.9Y-52.389
X142.171Y-53.71
X142.171Y-64.132
X142.171Y-66.325
X147.632Y-71.006
X151.529Y-82.563
X164.599Y-87.719
T3
X111.718Y-60.322
X114.258Y-57.782
X116.798Y-60.322
X128.09Y-51.084
X128.09Y-53.624
X128.09Y-56.164
X128.09Y-58.704
X128.09Y-61.244
X128.09Y-63.784
X128.09Y-66.324
X135.71Y-51.084
X135.71Y-53.624
X135.71Y-56.164
X135.71Y-58.704
X135.71Y-61.244
X135.71Y-63.784
X135.71Y-66.324
T4
X95.03Y-74.446
X97.57Y-74.446
X101.53Y-74.446
X104.07Y-74.446
X108.03Y-74.446
X110.57Y-74.446
X114.53Y-74.446
X117.07Y-74.446
X121.03Y-74.461
X123.57Y-74.461
X127.53Y-74.446
X130.07Y-74.446
X134.03Y-74.446
X136.57Y-74.446
X140.53Y-74.446
X143.07Y-74.446
X147.03Y-74.446
X147.392Y-48.63
X149.57Y-74.446
X149.933Y-48.63
X152.472Y-48.63
X153.53Y-74.476
X156.07Y-74.476
X160.03Y-74.446
X162.57Y-74.446
X166.53Y-53.746
X166.53Y-59.826
X166.53Y-65.906
X166.53Y-74.446
X169.07Y-53.746
X169.07Y-59.826
X169.07Y-65.906
X169.07Y-74.446
T5
X97.008Y-59.306
X103.508Y-59.306
T6
X102.8Y-84.837
X102.8Y-89.337
X109.3Y-84.837
X109.3Y-89.337
X115.8Y-84.837
X115.8Y-89.337
X122.3Y-84.837
X122.3Y-89.337
X128.8Y-84.837
X128.8Y-89.337
X135.3Y-84.837
X135.3Y-89.337
X141.8Y-84.837
X141.8Y-89.337
X148.3Y-84.837
X148.3Y-89.337
X154.8Y-84.837
X154.8Y-89.337
X161.3Y-84.837
X161.3Y-89.337
T2
X109.877Y-44.8G85X109.877Y-45.4
G05
X109.877Y-48.73G85X109.877Y-49.83
G05
X118.517Y-44.8G85X118.517Y-45.4
G05
X118.517Y-48.73G85X118.517Y-49.83
G05
M30
