%TF.GenerationSoftware,KiCad,Pcbnew,9.0.2*%
%TF.CreationDate,2026-04-05T15:37:08+02:00*%
%TF.ProjectId,sotpotatis_pomodoro_timer,736f7470-6f74-4617-9469-735f706f6d6f,rev?*%
%TF.SameCoordinates,Original*%
%TF.FileFunction,Legend,Top*%
%TF.FilePolarity,Positive*%
%FSLAX46Y46*%
G04 Gerber Fmt 4.6, Leading zero omitted, Abs format (unit mm)*
G04 Created by KiCad (PCBNEW 9.0.2) date 2026-04-05 15:37:08*
%MOMM*%
%LPD*%
G01*
G04 APERTURE LIST*
%ADD10C,0.100000*%
%ADD11C,0.400000*%
%ADD12C,0.200000*%
%ADD13C,0.750000*%
%ADD14C,0.300000*%
%ADD15C,0.375000*%
%ADD16C,0.437500*%
%ADD17C,0.250000*%
%ADD18C,0.153000*%
%ADD19C,0.000000*%
%ADD20C,0.120000*%
G04 APERTURE END LIST*
D10*
X164718936Y-59824939D02*
X163190936Y-60808439D01*
X163190936Y-58823439D01*
X164718936Y-59824939D01*
G36*
X164718936Y-59824939D02*
G01*
X163190936Y-60808439D01*
X163190936Y-58823439D01*
X164718936Y-59824939D01*
G37*
D11*
X118676000Y-42995000D02*
X109709799Y-42995000D01*
D10*
X93349986Y-79619978D02*
X170788351Y-79610000D01*
X93349986Y-76987000D02*
X170787300Y-76987000D01*
X170787300Y-79687000D01*
X93349986Y-79687000D01*
X93349986Y-76987000D01*
D11*
X144780000Y-93115000D02*
X138280000Y-93115000D01*
X144780000Y-91465000D02*
X144780000Y-93115000D01*
D10*
X152002858Y-88046011D02*
X150986858Y-88046011D01*
X151494858Y-87284011D01*
X152002858Y-88046011D01*
G36*
X152002858Y-88046011D02*
G01*
X150986858Y-88046011D01*
X151494858Y-87284011D01*
X152002858Y-88046011D01*
G37*
X105749986Y-76987000D02*
X106349986Y-76987000D01*
X106349986Y-79687000D01*
X105749986Y-79687000D01*
X105749986Y-76987000D01*
G36*
X105749986Y-76987000D02*
G01*
X106349986Y-76987000D01*
X106349986Y-79687000D01*
X105749986Y-79687000D01*
X105749986Y-76987000D01*
G37*
X164304000Y-76987000D02*
X164904000Y-76987000D01*
X164904000Y-79687000D01*
X164304000Y-79687000D01*
X164304000Y-76987000D01*
G36*
X164304000Y-76987000D02*
G01*
X164904000Y-76987000D01*
X164904000Y-79687000D01*
X164304000Y-79687000D01*
X164304000Y-76987000D01*
G37*
X164713821Y-65926331D02*
X163185821Y-66909831D01*
X163185821Y-64924831D01*
X164713821Y-65926331D01*
G36*
X164713821Y-65926331D02*
G01*
X163185821Y-66909831D01*
X163185821Y-64924831D01*
X164713821Y-65926331D01*
G37*
X131750000Y-76987000D02*
X132350000Y-76987000D01*
X132350000Y-79687000D01*
X131750000Y-79687000D01*
X131750000Y-76987000D01*
G36*
X131750000Y-76987000D02*
G01*
X132350000Y-76987000D01*
X132350000Y-79687000D01*
X131750000Y-79687000D01*
X131750000Y-76987000D01*
G37*
D12*
X93455676Y-77087608D02*
X170746000Y-77077630D01*
D10*
X138200000Y-76987000D02*
X138927000Y-76987000D01*
X138927000Y-79687000D01*
X138200000Y-79687000D01*
X138200000Y-76987000D01*
G36*
X138200000Y-76987000D02*
G01*
X138927000Y-76987000D01*
X138927000Y-79687000D01*
X138200000Y-79687000D01*
X138200000Y-76987000D01*
G37*
X144746000Y-76987000D02*
X145346000Y-76987000D01*
X145346000Y-79687000D01*
X144746000Y-79687000D01*
X144746000Y-76987000D01*
G36*
X144746000Y-76987000D02*
G01*
X145346000Y-76987000D01*
X145346000Y-79687000D01*
X144746000Y-79687000D01*
X144746000Y-76987000D01*
G37*
D11*
X119050000Y-91485000D02*
X119050000Y-93135000D01*
D10*
X125260000Y-76987000D02*
X125860000Y-76987000D01*
X125860000Y-79687000D01*
X125260000Y-79687000D01*
X125260000Y-76987000D01*
G36*
X125260000Y-76987000D02*
G01*
X125860000Y-76987000D01*
X125860000Y-79687000D01*
X125260000Y-79687000D01*
X125260000Y-76987000D01*
G37*
D11*
X119050000Y-93135000D02*
X125550000Y-93135000D01*
D10*
X157700000Y-76987000D02*
X158300000Y-76987000D01*
X158300000Y-79687000D01*
X157700000Y-79687000D01*
X157700000Y-76987000D01*
G36*
X157700000Y-76987000D02*
G01*
X158300000Y-76987000D01*
X158300000Y-79687000D01*
X157700000Y-79687000D01*
X157700000Y-76987000D01*
G37*
X164716069Y-53753204D02*
X163188069Y-54736704D01*
X163188069Y-52751704D01*
X164716069Y-53753204D01*
G36*
X164716069Y-53753204D02*
G01*
X163188069Y-54736704D01*
X163188069Y-52751704D01*
X164716069Y-53753204D01*
G37*
X118711000Y-76987000D02*
X119438000Y-76987000D01*
X119438000Y-79687000D01*
X118711000Y-79687000D01*
X118711000Y-76987000D01*
G36*
X118711000Y-76987000D02*
G01*
X119438000Y-76987000D01*
X119438000Y-79687000D01*
X118711000Y-79687000D01*
X118711000Y-76987000D01*
G37*
D13*
X123448732Y-96618800D02*
X140456500Y-96618800D01*
X140456500Y-99006400D01*
X123448732Y-99006400D01*
X123448732Y-96618800D01*
D10*
X112284993Y-76987000D02*
X113002007Y-76987000D01*
X113002007Y-79687000D01*
X112284993Y-79687000D01*
X112284993Y-76987000D01*
G36*
X112284993Y-76987000D02*
G01*
X113002007Y-76987000D01*
X113002007Y-79687000D01*
X112284993Y-79687000D01*
X112284993Y-76987000D01*
G37*
D11*
X154918000Y-42995000D02*
X144939600Y-42995000D01*
D10*
X151269000Y-76987000D02*
X151869000Y-76987000D01*
X151869000Y-79687000D01*
X151269000Y-79687000D01*
X151269000Y-76987000D01*
G36*
X151269000Y-76987000D02*
G01*
X151869000Y-76987000D01*
X151869000Y-79687000D01*
X151269000Y-79687000D01*
X151269000Y-76987000D01*
G37*
X99203993Y-76987000D02*
X99921007Y-76987000D01*
X99921007Y-79687000D01*
X99203993Y-79687000D01*
X99203993Y-76987000D01*
G36*
X99203993Y-76987000D02*
G01*
X99921007Y-76987000D01*
X99921007Y-79687000D01*
X99203993Y-79687000D01*
X99203993Y-76987000D01*
G37*
D14*
G36*
X111699074Y-43864861D02*
G01*
X111795651Y-43886282D01*
X111870739Y-43918722D01*
X111928507Y-43960932D01*
X111976066Y-44016291D01*
X112010467Y-44081088D01*
X112031968Y-44157190D01*
X112039561Y-44247154D01*
X112033299Y-44327850D01*
X112014755Y-44404156D01*
X111982335Y-44474665D01*
X111934078Y-44537192D01*
X111894128Y-44572178D01*
X111844944Y-44602899D01*
X111785090Y-44629165D01*
X111722153Y-44647111D01*
X111646333Y-44658776D01*
X111555426Y-44662978D01*
X111441853Y-44662978D01*
X111441853Y-45107500D01*
X111177155Y-45107500D01*
X111177155Y-44446136D01*
X111441853Y-44446136D01*
X111528941Y-44446136D01*
X111600336Y-44440896D01*
X111657855Y-44426444D01*
X111706936Y-44400638D01*
X111742348Y-44364620D01*
X111764308Y-44318272D01*
X111772267Y-44256542D01*
X111765859Y-44196947D01*
X111748417Y-44152257D01*
X111721053Y-44118850D01*
X111684137Y-44095375D01*
X111632739Y-44079718D01*
X111562219Y-44073818D01*
X111441853Y-44073818D01*
X111441853Y-44446136D01*
X111177155Y-44446136D01*
X111177155Y-43856976D01*
X111575881Y-43856976D01*
X111699074Y-43864861D01*
G37*
G36*
X112918060Y-43844233D02*
G01*
X113006733Y-43860009D01*
X113083426Y-43884878D01*
X113149797Y-43918189D01*
X113211116Y-43962028D01*
X113263619Y-44013563D01*
X113307967Y-44073343D01*
X113344428Y-44142282D01*
X113378828Y-44240624D01*
X113400476Y-44353019D01*
X113408084Y-44481780D01*
X113403881Y-44577681D01*
X113391737Y-44665057D01*
X113372211Y-44744799D01*
X113343656Y-44821342D01*
X113307360Y-44889023D01*
X113263370Y-44948818D01*
X113210967Y-45000921D01*
X113149702Y-45044607D01*
X113078509Y-45080099D01*
X113002574Y-45104710D01*
X112914964Y-45120309D01*
X112813811Y-45125818D01*
X112712605Y-45120308D01*
X112624971Y-45104709D01*
X112549036Y-45080099D01*
X112477889Y-45044614D01*
X112416621Y-45000929D01*
X112364175Y-44948818D01*
X112320243Y-44889020D01*
X112283942Y-44821218D01*
X112255334Y-44744417D01*
X112235815Y-44664373D01*
X112223667Y-44576569D01*
X112219534Y-44481780D01*
X112496982Y-44481780D01*
X112500993Y-44568813D01*
X112512273Y-44643448D01*
X112529878Y-44707323D01*
X112556772Y-44767003D01*
X112591033Y-44814956D01*
X112632766Y-44852876D01*
X112681830Y-44880272D01*
X112741337Y-44897592D01*
X112813811Y-44903786D01*
X112887426Y-44897561D01*
X112947446Y-44880211D01*
X112996535Y-44852876D01*
X113038192Y-44814931D01*
X113072144Y-44766983D01*
X113098506Y-44707323D01*
X113115654Y-44643491D01*
X113126650Y-44568854D01*
X113130563Y-44481780D01*
X113125213Y-44381624D01*
X113110339Y-44298268D01*
X113087351Y-44229129D01*
X113057137Y-44171973D01*
X113015886Y-44123738D01*
X112963644Y-44088929D01*
X112898064Y-44066888D01*
X112815490Y-44058934D01*
X112742500Y-44065141D01*
X112682591Y-44082492D01*
X112633224Y-44109920D01*
X112591215Y-44147828D01*
X112556808Y-44195757D01*
X112529878Y-44255397D01*
X112512290Y-44319274D01*
X112501002Y-44394169D01*
X112496982Y-44481780D01*
X112219534Y-44481780D01*
X112219461Y-44480101D01*
X112227057Y-44351853D01*
X112248676Y-44239861D01*
X112283040Y-44141824D01*
X112319547Y-44073200D01*
X112364115Y-44013584D01*
X112417047Y-43962088D01*
X112479045Y-43918189D01*
X112546049Y-43884861D01*
X112623325Y-43859992D01*
X112712509Y-43844226D01*
X112815490Y-43838658D01*
X112918060Y-43844233D01*
G37*
G36*
X115200750Y-43856976D02*
G01*
X114883158Y-45107500D01*
X114581671Y-45107500D01*
X114412609Y-44450639D01*
X114398947Y-44393318D01*
X114381010Y-44309054D01*
X114364371Y-44222653D01*
X114354525Y-44158082D01*
X114344755Y-44222272D01*
X114328498Y-44307757D01*
X114311019Y-44392479D01*
X114297357Y-44452318D01*
X114129135Y-45107500D01*
X113828563Y-45107500D01*
X113510055Y-43856976D01*
X113770479Y-43856976D01*
X113930153Y-44539559D01*
X113945952Y-44613137D01*
X113963889Y-44702514D01*
X113980146Y-44792274D01*
X113990832Y-44867149D01*
X114001899Y-44791434D01*
X114016859Y-44703354D01*
X114033498Y-44620006D01*
X114048840Y-44557495D01*
X114230724Y-43856976D01*
X114480921Y-43856976D01*
X114662805Y-44557495D01*
X114676849Y-44619548D01*
X114693565Y-44703812D01*
X114709364Y-44792274D01*
X114720050Y-44867149D01*
X114736689Y-44763270D01*
X114759739Y-44641377D01*
X114781492Y-44539559D01*
X114940326Y-43856976D01*
X115200750Y-43856976D01*
G37*
G36*
X116077506Y-45107500D02*
G01*
X115358592Y-45107500D01*
X115358592Y-43856976D01*
X116077506Y-43856976D01*
X116077506Y-44073818D01*
X115623290Y-44073818D01*
X115623290Y-44348439D01*
X116045907Y-44348439D01*
X116045907Y-44565280D01*
X115623290Y-44565280D01*
X115623290Y-44888902D01*
X116077506Y-44888902D01*
X116077506Y-45107500D01*
G37*
G36*
X116814946Y-43862166D02*
G01*
X116907353Y-43876429D01*
X116982196Y-43898116D01*
X117051657Y-43931443D01*
X117105668Y-43972820D01*
X117146602Y-44022374D01*
X117175557Y-44080113D01*
X117193880Y-44149231D01*
X117200412Y-44232271D01*
X117191944Y-44314259D01*
X117167974Y-44382251D01*
X117130199Y-44441853D01*
X117082565Y-44491092D01*
X117027315Y-44531685D01*
X116968152Y-44563907D01*
X117335356Y-45107500D01*
X117041578Y-45107500D01*
X116743602Y-44628784D01*
X116602704Y-44628784D01*
X116602704Y-45107500D01*
X116338006Y-45107500D01*
X116338006Y-44413621D01*
X116602704Y-44413621D01*
X116688036Y-44413621D01*
X116775257Y-44407539D01*
X116835703Y-44391863D01*
X116876332Y-44369352D01*
X116907284Y-44336067D01*
X116926304Y-44293584D01*
X116933119Y-44238987D01*
X116925640Y-44182692D01*
X116905166Y-44141558D01*
X116872058Y-44111676D01*
X116829371Y-44092362D01*
X116768237Y-44078962D01*
X116682923Y-44073818D01*
X116602704Y-44073818D01*
X116602704Y-44413621D01*
X116338006Y-44413621D01*
X116338006Y-43856976D01*
X116701699Y-43856976D01*
X116814946Y-43862166D01*
G37*
D15*
G36*
X146389541Y-77901815D02*
G01*
X146383312Y-78019051D01*
X146378550Y-78150820D01*
X146376596Y-78264637D01*
X146376596Y-78604868D01*
X145895682Y-78604868D01*
X146261802Y-78049215D01*
X146328724Y-77938939D01*
X146383435Y-77829763D01*
X146394303Y-77829763D01*
X146389541Y-77901815D01*
G37*
G36*
X151285838Y-79598531D02*
G01*
X145301844Y-79598531D01*
X145301844Y-78639062D01*
X145524066Y-78639062D01*
X145524066Y-78932764D01*
X146376596Y-78932764D01*
X146376596Y-79347000D01*
X146789122Y-79347000D01*
X146789122Y-78932764D01*
X147029579Y-78932764D01*
X147029579Y-78903577D01*
X147213128Y-78903577D01*
X147213128Y-79268353D01*
X147322791Y-79315083D01*
X147455539Y-79349686D01*
X147596899Y-79369474D01*
X147751439Y-79376309D01*
X147925907Y-79366038D01*
X148022592Y-79347000D01*
X148928201Y-79347000D01*
X149306533Y-79347000D01*
X149306533Y-78416312D01*
X149301037Y-78186480D01*
X149289436Y-77946267D01*
X149280643Y-77777251D01*
X149292977Y-77777251D01*
X149773892Y-79347000D01*
X150161871Y-79347000D01*
X150676980Y-77779937D01*
X150689192Y-77779937D01*
X150681010Y-77947610D01*
X150672095Y-78182327D01*
X150668675Y-78399948D01*
X150668675Y-79347000D01*
X151063616Y-79347000D01*
X151063616Y-77346162D01*
X150486959Y-77346162D01*
X149985650Y-78876221D01*
X149977468Y-78876221D01*
X149504736Y-77346162D01*
X148928201Y-77346162D01*
X148928201Y-79347000D01*
X148022592Y-79347000D01*
X148071179Y-79337433D01*
X148191931Y-79293022D01*
X148301873Y-79228081D01*
X148389825Y-79148496D01*
X148458400Y-79053297D01*
X148507021Y-78945647D01*
X148537306Y-78822558D01*
X148547915Y-78680949D01*
X148538035Y-78551064D01*
X148510144Y-78441132D01*
X148465849Y-78347680D01*
X148404306Y-78264599D01*
X148329858Y-78196688D01*
X148241146Y-78142760D01*
X148143734Y-78104691D01*
X148035752Y-78081175D01*
X147915326Y-78073029D01*
X147762308Y-78082676D01*
X147661191Y-78101727D01*
X147698072Y-77704100D01*
X148411261Y-77704100D01*
X148411261Y-77346162D01*
X147327922Y-77346162D01*
X147252695Y-78369540D01*
X147420734Y-78459665D01*
X147560807Y-78429623D01*
X147722740Y-78414602D01*
X147856798Y-78424892D01*
X147954539Y-78452102D01*
X148024624Y-78492516D01*
X148078462Y-78550689D01*
X148111344Y-78623782D01*
X148123054Y-78716487D01*
X148111149Y-78819179D01*
X148078602Y-78896127D01*
X148024596Y-78956565D01*
X147948054Y-78999930D01*
X147856408Y-79024338D01*
X147736418Y-79033392D01*
X147606401Y-79024359D01*
X147462377Y-78995778D01*
X147323293Y-78952415D01*
X147213128Y-78903577D01*
X147029579Y-78903577D01*
X147029579Y-78604868D01*
X146789122Y-78604868D01*
X146789122Y-77346162D01*
X146399799Y-77346162D01*
X145547227Y-78604868D01*
X145524066Y-78639062D01*
X145301844Y-78639062D01*
X145301844Y-77123940D01*
X151285838Y-77123940D01*
X151285838Y-79598531D01*
G37*
D11*
G36*
X154443692Y-58866791D02*
G01*
X154608800Y-58890261D01*
X154739194Y-58925453D01*
X154840936Y-58970025D01*
X154913645Y-59020548D01*
X154969635Y-59082952D01*
X155010603Y-59158743D01*
X155036566Y-59250704D01*
X155045856Y-59362646D01*
X155036470Y-59472196D01*
X155009586Y-59567321D01*
X154964818Y-59651287D01*
X154905050Y-59717286D01*
X154830353Y-59765180D01*
X154738476Y-59793612D01*
X154738476Y-59807290D01*
X154834131Y-59835588D01*
X154918727Y-59877998D01*
X154990322Y-59938329D01*
X155047810Y-60023567D01*
X155073369Y-60089036D01*
X155090228Y-60172142D01*
X155096414Y-60276847D01*
X155085981Y-60395813D01*
X155056064Y-60499173D01*
X155007510Y-60589844D01*
X154941235Y-60668712D01*
X154857627Y-60735184D01*
X154754108Y-60789635D01*
X154642268Y-60826955D01*
X154512768Y-60850629D01*
X154362709Y-60859000D01*
X153615448Y-60859000D01*
X153615448Y-60509244D01*
X154038965Y-60509244D01*
X154314959Y-60509244D01*
X154440831Y-60498999D01*
X154525825Y-60472726D01*
X154581306Y-60434750D01*
X154622234Y-60380859D01*
X154647463Y-60315298D01*
X154656411Y-60234715D01*
X154647929Y-60163646D01*
X154623560Y-60103678D01*
X154581438Y-60054731D01*
X154513651Y-60015385D01*
X154428711Y-59992621D01*
X154301281Y-59983633D01*
X154038965Y-59983633D01*
X154038965Y-60509244D01*
X153615448Y-60509244D01*
X153615448Y-59647433D01*
X154038965Y-59647433D01*
X154284795Y-59647433D01*
X154407722Y-59639233D01*
X154488955Y-59618556D01*
X154540273Y-59589669D01*
X154578824Y-59546447D01*
X154602733Y-59490802D01*
X154611348Y-59418822D01*
X154601265Y-59347378D01*
X154573320Y-59294260D01*
X154527328Y-59254812D01*
X154468698Y-59229641D01*
X154383008Y-59211954D01*
X154261592Y-59205109D01*
X154038965Y-59205109D01*
X154038965Y-59647433D01*
X153615448Y-59647433D01*
X153615448Y-58858162D01*
X154237046Y-58858162D01*
X154443692Y-58866791D01*
G37*
G36*
X156258245Y-58866466D02*
G01*
X156406096Y-58889287D01*
X156525845Y-58923986D01*
X156636983Y-58977309D01*
X156723400Y-59043512D01*
X156788895Y-59122799D01*
X156835223Y-59215181D01*
X156864540Y-59325770D01*
X156874990Y-59458633D01*
X156861442Y-59589815D01*
X156823089Y-59698602D01*
X156762650Y-59793964D01*
X156686435Y-59872747D01*
X156598036Y-59937696D01*
X156503375Y-59989251D01*
X157090901Y-60859000D01*
X156620856Y-60859000D01*
X156144094Y-60093054D01*
X155918658Y-60093054D01*
X155918658Y-60859000D01*
X155495140Y-60859000D01*
X155495140Y-59748794D01*
X155918658Y-59748794D01*
X156055189Y-59748794D01*
X156194742Y-59739063D01*
X156291456Y-59713982D01*
X156356463Y-59677963D01*
X156405986Y-59624708D01*
X156436417Y-59556735D01*
X156447321Y-59469380D01*
X156435354Y-59379308D01*
X156402596Y-59313493D01*
X156349624Y-59265681D01*
X156281324Y-59234779D01*
X156183510Y-59213339D01*
X156047007Y-59205109D01*
X155918658Y-59205109D01*
X155918658Y-59748794D01*
X155495140Y-59748794D01*
X155495140Y-58858162D01*
X156077049Y-58858162D01*
X156258245Y-58866466D01*
G37*
G36*
X158493832Y-60859000D02*
G01*
X157343570Y-60859000D01*
X157343570Y-58858162D01*
X158493832Y-58858162D01*
X158493832Y-59205109D01*
X157767087Y-59205109D01*
X157767087Y-59644502D01*
X158443274Y-59644502D01*
X158443274Y-59991449D01*
X157767087Y-59991449D01*
X157767087Y-60509244D01*
X158493832Y-60509244D01*
X158493832Y-60859000D01*
G37*
G36*
X160589680Y-60859000D02*
G01*
X160133312Y-60859000D01*
X159988476Y-60382237D01*
X159260388Y-60382237D01*
X159115552Y-60859000D01*
X158659184Y-60859000D01*
X158952349Y-60026986D01*
X159366878Y-60026986D01*
X159887482Y-60026986D01*
X159742646Y-59565367D01*
X159706376Y-59446543D01*
X159661313Y-59298532D01*
X159625165Y-59167496D01*
X159587551Y-59305371D01*
X159541756Y-59460831D01*
X159510371Y-59565367D01*
X159366878Y-60026986D01*
X158952349Y-60026986D01*
X159364191Y-58858162D01*
X159881986Y-58858162D01*
X160589680Y-60859000D01*
G37*
G36*
X162447757Y-60859000D02*
G01*
X161966843Y-60859000D01*
X161443553Y-60015995D01*
X161264645Y-60144589D01*
X161264645Y-60859000D01*
X160841128Y-60859000D01*
X160841128Y-58858162D01*
X161264645Y-58858162D01*
X161264645Y-59773706D01*
X161347932Y-59655981D01*
X161431341Y-59538378D01*
X161972339Y-58858162D01*
X162442262Y-58858162D01*
X161745559Y-59743665D01*
X162447757Y-60859000D01*
G37*
D16*
G36*
X109841485Y-81258755D02*
G01*
X109835552Y-81338018D01*
X109818577Y-81407279D01*
X109791262Y-81468193D01*
X109732352Y-81548658D01*
X109655662Y-81613090D01*
X109565739Y-81661552D01*
X109463748Y-81695690D01*
X109463748Y-81702849D01*
X109600217Y-81731231D01*
X109704627Y-81775145D01*
X109783462Y-81832573D01*
X109830654Y-81887545D01*
X109864525Y-81950713D01*
X109885520Y-82023683D01*
X109892883Y-82108689D01*
X109884327Y-82208988D01*
X109859361Y-82300037D01*
X109818190Y-82383630D01*
X109761229Y-82456886D01*
X109685557Y-82520455D01*
X109588022Y-82574583D01*
X109482081Y-82611287D01*
X109350363Y-82635372D01*
X109187631Y-82644146D01*
X109045659Y-82638128D01*
X108918033Y-82620851D01*
X108796036Y-82591163D01*
X108683163Y-82549685D01*
X108683163Y-82235314D01*
X108798121Y-82285653D01*
X108918567Y-82321974D01*
X109040139Y-82344256D01*
X109148201Y-82351253D01*
X109279634Y-82341628D01*
X109368368Y-82317055D01*
X109426134Y-82282010D01*
X109469470Y-82230914D01*
X109496132Y-82167253D01*
X109505636Y-82087211D01*
X109495991Y-82018171D01*
X109468556Y-81963044D01*
X109421375Y-81920572D01*
X109340008Y-81885894D01*
X109239450Y-81866993D01*
X109084836Y-81859394D01*
X108952120Y-81859394D01*
X108952120Y-81576118D01*
X109087186Y-81576118D01*
X109238682Y-81567247D01*
X109332849Y-81545557D01*
X109406525Y-81507199D01*
X109447613Y-81461675D01*
X109470248Y-81405399D01*
X109478067Y-81339966D01*
X109471193Y-81280133D01*
X109451914Y-81232326D01*
X109420685Y-81193786D01*
X109378895Y-81166647D01*
X109317463Y-81148124D01*
X109229412Y-81140999D01*
X109148027Y-81146437D01*
X109077035Y-81161943D01*
X109010636Y-81185369D01*
X108953296Y-81212165D01*
X108856484Y-81268906D01*
X108685514Y-81014268D01*
X108794948Y-80947530D01*
X108926368Y-80891169D01*
X109019672Y-80864910D01*
X109128646Y-80848099D01*
X109255699Y-80842122D01*
X109392564Y-80849963D01*
X109507320Y-80871862D01*
X109603383Y-80905938D01*
X109683658Y-80951116D01*
X109753175Y-81011696D01*
X109801646Y-81081726D01*
X109831176Y-81163036D01*
X109841485Y-81258755D01*
G37*
G36*
X129182331Y-80846290D02*
G01*
X129296561Y-80860074D01*
X129296561Y-81155318D01*
X129194299Y-81138007D01*
X129086161Y-81131382D01*
X128941902Y-81140450D01*
X128832087Y-81164742D01*
X128749563Y-81200946D01*
X128677411Y-81253902D01*
X128622195Y-81317646D01*
X128582227Y-81393501D01*
X128544614Y-81522668D01*
X128525486Y-81679662D01*
X128540980Y-81679662D01*
X128578704Y-81624452D01*
X128625183Y-81575690D01*
X128680565Y-81535422D01*
X128748922Y-81503349D01*
X128825648Y-81483559D01*
X128919999Y-81476421D01*
X129020247Y-81484151D01*
X129107984Y-81506300D01*
X129185323Y-81542031D01*
X129254109Y-81591879D01*
X129311635Y-81654578D01*
X129358644Y-81731701D01*
X129391412Y-81816464D01*
X129412251Y-81916228D01*
X129419659Y-82033783D01*
X129410954Y-82158855D01*
X129386190Y-82267136D01*
X129346676Y-82361298D01*
X129290955Y-82446137D01*
X129222585Y-82515681D01*
X129140444Y-82571377D01*
X129048969Y-82610867D01*
X128944445Y-82635510D01*
X128824363Y-82644146D01*
X128693879Y-82632383D01*
X128574426Y-82597877D01*
X128500568Y-82561766D01*
X128433031Y-82514905D01*
X128371186Y-82456613D01*
X128318624Y-82389735D01*
X128273119Y-82310380D01*
X128234944Y-82216828D01*
X128208719Y-82119036D01*
X128192009Y-82005787D01*
X128552948Y-82005787D01*
X128557097Y-82067144D01*
X128569618Y-82128244D01*
X128590708Y-82186429D01*
X128619840Y-82238520D01*
X128657556Y-82283523D01*
X128702974Y-82318555D01*
X128755561Y-82341032D01*
X128817203Y-82348795D01*
X128886390Y-82340132D01*
X128944458Y-82315219D01*
X128994051Y-82273675D01*
X129029603Y-82219246D01*
X129053292Y-82143189D01*
X129062225Y-82038485D01*
X129054862Y-81953856D01*
X129034601Y-81887035D01*
X129003026Y-81834283D01*
X128958572Y-81793930D01*
X128900476Y-81768799D01*
X128824363Y-81759697D01*
X128746880Y-81769229D01*
X128681496Y-81796669D01*
X128626421Y-81839021D01*
X128586394Y-81890061D01*
X128561108Y-81947850D01*
X128552948Y-82005787D01*
X128192009Y-82005787D01*
X128191953Y-82005408D01*
X128186004Y-81873606D01*
X128191520Y-81722683D01*
X128208016Y-81573660D01*
X128238605Y-81428502D01*
X128285166Y-81293590D01*
X128351276Y-81169380D01*
X128439360Y-81060323D01*
X128509817Y-80998661D01*
X128593340Y-80945336D01*
X128691647Y-80900466D01*
X128795288Y-80869306D01*
X128917779Y-80849276D01*
X129062225Y-80842122D01*
X129182331Y-80846290D01*
G37*
D15*
G36*
X141434390Y-77667244D02*
G01*
X141488738Y-77692846D01*
X141534016Y-77735729D01*
X141568090Y-77790413D01*
X141597470Y-77865561D01*
X141620722Y-77966417D01*
X141639564Y-78129129D01*
X141646734Y-78348535D01*
X141639548Y-78569036D01*
X141620722Y-78731385D01*
X141597444Y-78831732D01*
X141568061Y-78906197D01*
X141534016Y-78960119D01*
X141488849Y-79002115D01*
X141434503Y-79027276D01*
X141368053Y-79036078D01*
X141300707Y-79027151D01*
X141246128Y-79001721D01*
X141201235Y-78959386D01*
X141167625Y-78905140D01*
X141138688Y-78830451D01*
X141115872Y-78730042D01*
X141097567Y-78567861D01*
X141090593Y-78348535D01*
X141097561Y-78129131D01*
X141115872Y-77966417D01*
X141138686Y-77865501D01*
X141167625Y-77790363D01*
X141201235Y-77735729D01*
X141246184Y-77692951D01*
X141300764Y-77667300D01*
X141368053Y-77658304D01*
X141434390Y-77667244D01*
G37*
G36*
X144779476Y-79598531D02*
G01*
X138854223Y-79598531D01*
X138854223Y-78909072D01*
X139076445Y-78909072D01*
X139076445Y-79268353D01*
X139205442Y-79315757D01*
X139344867Y-79349686D01*
X139490726Y-79369431D01*
X139652980Y-79376309D01*
X139838959Y-79366281D01*
X139989493Y-79338756D01*
X140110569Y-79296808D01*
X140222037Y-79234947D01*
X140308520Y-79162297D01*
X140373618Y-79078577D01*
X140420671Y-78983041D01*
X140449204Y-78878985D01*
X140458981Y-78764358D01*
X140450567Y-78667209D01*
X140426573Y-78583813D01*
X140387863Y-78511621D01*
X140333929Y-78448796D01*
X140243832Y-78383164D01*
X140161787Y-78348657D01*
X140671228Y-78348657D01*
X140680272Y-78562685D01*
X140705620Y-78745360D01*
X140744990Y-78900768D01*
X140805686Y-79047389D01*
X140881846Y-79163470D01*
X140973112Y-79253821D01*
X141053022Y-79305987D01*
X141144084Y-79344110D01*
X141248276Y-79367948D01*
X141368053Y-79376309D01*
X141494016Y-79367891D01*
X141588427Y-79347000D01*
X142421839Y-79347000D01*
X142800171Y-79347000D01*
X142800171Y-78416312D01*
X142794675Y-78186480D01*
X142783074Y-77946267D01*
X142774281Y-77777251D01*
X142786615Y-77777251D01*
X143267530Y-79347000D01*
X143655509Y-79347000D01*
X144170618Y-77779937D01*
X144182830Y-77779937D01*
X144174648Y-77947610D01*
X144165733Y-78182327D01*
X144162313Y-78399948D01*
X144162313Y-79347000D01*
X144557254Y-79347000D01*
X144557254Y-77346162D01*
X143980597Y-77346162D01*
X143479288Y-78876221D01*
X143471106Y-78876221D01*
X142998374Y-77346162D01*
X142421839Y-77346162D01*
X142421839Y-79347000D01*
X141588427Y-79347000D01*
X141601388Y-79344132D01*
X141693140Y-79306577D01*
X141776504Y-79253203D01*
X141848369Y-79186096D01*
X141909662Y-79103978D01*
X141958182Y-79012650D01*
X141998539Y-78905760D01*
X142029951Y-78781089D01*
X142057603Y-78584165D01*
X142067565Y-78348657D01*
X142058305Y-78131835D01*
X142032422Y-77947880D01*
X141992338Y-77792394D01*
X141930802Y-77645805D01*
X141853958Y-77529711D01*
X141762139Y-77439341D01*
X141681912Y-77387099D01*
X141590844Y-77348981D01*
X141487018Y-77325186D01*
X141368053Y-77316853D01*
X141239998Y-77325476D01*
X141131177Y-77349790D01*
X141038494Y-77388182D01*
X140959435Y-77440073D01*
X140869462Y-77530843D01*
X140795773Y-77647102D01*
X140738761Y-77793737D01*
X140702819Y-77948849D01*
X140679557Y-78132414D01*
X140671233Y-78348535D01*
X140671228Y-78348657D01*
X140161787Y-78348657D01*
X140124506Y-78332977D01*
X139968542Y-78300541D01*
X139968542Y-78292359D01*
X140085103Y-78253344D01*
X140187872Y-78197959D01*
X140275518Y-78124322D01*
X140342844Y-78032362D01*
X140374060Y-77962747D01*
X140393460Y-77883591D01*
X140400241Y-77793004D01*
X140388460Y-77683611D01*
X140354710Y-77590685D01*
X140299315Y-77510651D01*
X140219867Y-77441417D01*
X140128124Y-77389785D01*
X140018338Y-77350841D01*
X139887188Y-77325813D01*
X139730771Y-77316853D01*
X139585568Y-77323683D01*
X139461026Y-77342896D01*
X139354393Y-77372907D01*
X139204198Y-77437319D01*
X139079131Y-77513591D01*
X139274525Y-77804606D01*
X139385167Y-77739759D01*
X139450699Y-77709135D01*
X139526584Y-77682362D01*
X139607718Y-77664642D01*
X139700729Y-77658427D01*
X139801358Y-77666569D01*
X139871567Y-77687739D01*
X139919327Y-77718755D01*
X139955017Y-77762800D01*
X139977050Y-77817437D01*
X139984906Y-77885817D01*
X139975971Y-77960598D01*
X139950101Y-78024913D01*
X139903144Y-78076940D01*
X139818943Y-78120778D01*
X139711324Y-78145567D01*
X139538186Y-78155705D01*
X139383824Y-78155705D01*
X139383824Y-78479449D01*
X139535499Y-78479449D01*
X139712201Y-78488134D01*
X139827125Y-78509735D01*
X139920115Y-78549367D01*
X139974037Y-78597907D01*
X140005391Y-78660908D01*
X140016413Y-78739812D01*
X140005552Y-78831288D01*
X139975081Y-78904043D01*
X139925555Y-78962439D01*
X139859536Y-79002490D01*
X139758126Y-79030574D01*
X139607917Y-79041574D01*
X139484417Y-79033578D01*
X139345478Y-79008113D01*
X139207825Y-78966602D01*
X139076445Y-78909072D01*
X138854223Y-78909072D01*
X138854223Y-77094631D01*
X144779476Y-77094631D01*
X144779476Y-79598531D01*
G37*
G36*
X128544031Y-92423834D02*
G01*
X128659923Y-92449539D01*
X128750029Y-92488467D01*
X128819350Y-92539118D01*
X128876421Y-92605549D01*
X128917703Y-92683306D01*
X128943503Y-92774628D01*
X128952615Y-92882585D01*
X128945101Y-92979420D01*
X128922848Y-93070988D01*
X128883944Y-93155599D01*
X128826036Y-93230631D01*
X128778096Y-93272614D01*
X128719075Y-93309479D01*
X128647250Y-93340998D01*
X128571725Y-93362534D01*
X128480742Y-93376531D01*
X128371653Y-93381573D01*
X128235365Y-93381573D01*
X128235365Y-93915000D01*
X127917728Y-93915000D01*
X127917728Y-93121363D01*
X128235365Y-93121363D01*
X128339871Y-93121363D01*
X128425545Y-93115076D01*
X128494568Y-93097732D01*
X128553465Y-93066766D01*
X128595959Y-93023544D01*
X128622312Y-92967927D01*
X128631863Y-92893851D01*
X128624173Y-92822337D01*
X128603243Y-92768708D01*
X128570405Y-92728620D01*
X128526107Y-92700450D01*
X128464429Y-92681662D01*
X128379804Y-92674582D01*
X128235365Y-92674582D01*
X128235365Y-93121363D01*
X127917728Y-93121363D01*
X127917728Y-92414371D01*
X128396199Y-92414371D01*
X128544031Y-92423834D01*
G37*
G36*
X129807501Y-92420600D02*
G01*
X129918390Y-92437715D01*
X130008202Y-92463739D01*
X130091555Y-92503731D01*
X130156368Y-92553384D01*
X130205489Y-92612849D01*
X130240235Y-92682135D01*
X130262223Y-92765077D01*
X130270061Y-92864725D01*
X130259899Y-92963111D01*
X130231135Y-93044701D01*
X130185806Y-93116223D01*
X130128644Y-93175310D01*
X130062345Y-93224022D01*
X129991349Y-93262688D01*
X130431994Y-93915000D01*
X130079460Y-93915000D01*
X129721888Y-93340540D01*
X129552811Y-93340540D01*
X129552811Y-93915000D01*
X129235173Y-93915000D01*
X129235173Y-93082345D01*
X129552811Y-93082345D01*
X129655210Y-93082345D01*
X129759875Y-93075047D01*
X129832410Y-93056236D01*
X129881165Y-93029222D01*
X129918307Y-92989281D01*
X129941131Y-92938301D01*
X129949309Y-92872785D01*
X129940334Y-92805231D01*
X129915765Y-92755870D01*
X129876036Y-92720011D01*
X129824811Y-92696834D01*
X129751450Y-92680754D01*
X129649073Y-92674582D01*
X129552811Y-92674582D01*
X129552811Y-93082345D01*
X129235173Y-93082345D01*
X129235173Y-92414371D01*
X129671605Y-92414371D01*
X129807501Y-92420600D01*
G37*
G36*
X131484192Y-93915000D02*
G01*
X130621496Y-93915000D01*
X130621496Y-92414371D01*
X131484192Y-92414371D01*
X131484192Y-92674582D01*
X130939134Y-92674582D01*
X130939134Y-93004126D01*
X131446273Y-93004126D01*
X131446273Y-93264337D01*
X130939134Y-93264337D01*
X130939134Y-93652683D01*
X131484192Y-93652683D01*
X131484192Y-93915000D01*
G37*
G36*
X132681013Y-93499176D02*
G01*
X132673490Y-93586324D01*
X132651801Y-93663108D01*
X132616441Y-93731451D01*
X132567963Y-93791136D01*
X132505997Y-93841749D01*
X132428496Y-93883584D01*
X132344511Y-93912175D01*
X132245459Y-93930464D01*
X132128718Y-93936981D01*
X131976586Y-93926723D01*
X131834162Y-93896498D01*
X131704560Y-93846764D01*
X131704560Y-93551658D01*
X131812644Y-93596323D01*
X131925844Y-93636746D01*
X132041064Y-93665344D01*
X132153356Y-93674665D01*
X132226992Y-93668946D01*
X132278836Y-93654057D01*
X132320859Y-93628723D01*
X132347987Y-93597178D01*
X132363998Y-93558938D01*
X132369511Y-93514563D01*
X132359972Y-93462021D01*
X132331593Y-93418026D01*
X132288678Y-93380708D01*
X132227545Y-93343013D01*
X132078527Y-93268000D01*
X131964770Y-93207916D01*
X131905288Y-93168814D01*
X131847992Y-93121088D01*
X131798087Y-93064770D01*
X131757317Y-92996250D01*
X131731327Y-92917974D01*
X131721963Y-92819937D01*
X131729229Y-92731969D01*
X131749977Y-92655960D01*
X131783420Y-92589768D01*
X131829584Y-92531683D01*
X131887596Y-92483010D01*
X131959092Y-92443314D01*
X132036894Y-92415829D01*
X132126281Y-92398495D01*
X132229194Y-92392390D01*
X132344163Y-92399297D01*
X132452035Y-92419592D01*
X132558437Y-92451990D01*
X132673868Y-92497903D01*
X132571378Y-92744832D01*
X132385906Y-92679802D01*
X132303157Y-92662489D01*
X132218936Y-92656721D01*
X132162211Y-92661821D01*
X132117453Y-92675864D01*
X132080125Y-92699220D01*
X132053980Y-92729536D01*
X132037983Y-92766320D01*
X132032456Y-92809587D01*
X132040481Y-92859437D01*
X132063689Y-92899529D01*
X132100397Y-92933500D01*
X132157936Y-92969963D01*
X132315198Y-93049098D01*
X132424646Y-93106493D01*
X132511386Y-93162670D01*
X132584311Y-93227757D01*
X132636957Y-93301431D01*
X132660600Y-93356193D01*
X132675646Y-93421402D01*
X132681013Y-93499176D01*
G37*
G36*
X133815734Y-93915000D02*
G01*
X132953038Y-93915000D01*
X132953038Y-92414371D01*
X133815734Y-92414371D01*
X133815734Y-92674582D01*
X133270676Y-92674582D01*
X133270676Y-93004126D01*
X133777816Y-93004126D01*
X133777816Y-93264337D01*
X133270676Y-93264337D01*
X133270676Y-93652683D01*
X133815734Y-93652683D01*
X133815734Y-93915000D01*
G37*
G36*
X134706183Y-93915000D02*
G01*
X134388545Y-93915000D01*
X134388545Y-92678703D01*
X133981789Y-92678703D01*
X133981789Y-92414371D01*
X135113030Y-92414371D01*
X135113030Y-92678703D01*
X134706183Y-92678703D01*
X134706183Y-93915000D01*
G37*
G36*
X136227419Y-93499176D02*
G01*
X136219896Y-93586324D01*
X136198207Y-93663108D01*
X136162847Y-93731451D01*
X136114370Y-93791136D01*
X136052403Y-93841749D01*
X135974902Y-93883584D01*
X135890917Y-93912175D01*
X135791866Y-93930464D01*
X135675125Y-93936981D01*
X135522992Y-93926723D01*
X135380568Y-93896498D01*
X135250966Y-93846764D01*
X135250966Y-93551658D01*
X135359051Y-93596323D01*
X135472250Y-93636746D01*
X135587470Y-93665344D01*
X135699763Y-93674665D01*
X135773398Y-93668946D01*
X135825242Y-93654057D01*
X135867265Y-93628723D01*
X135894394Y-93597178D01*
X135910405Y-93558938D01*
X135915917Y-93514563D01*
X135906378Y-93462021D01*
X135877999Y-93418026D01*
X135835085Y-93380708D01*
X135773951Y-93343013D01*
X135624933Y-93268000D01*
X135511177Y-93207916D01*
X135451694Y-93168814D01*
X135394398Y-93121088D01*
X135344493Y-93064770D01*
X135303723Y-92996250D01*
X135277733Y-92917974D01*
X135268369Y-92819937D01*
X135275635Y-92731969D01*
X135296383Y-92655960D01*
X135329826Y-92589768D01*
X135375990Y-92531683D01*
X135434002Y-92483010D01*
X135505498Y-92443314D01*
X135583300Y-92415829D01*
X135672688Y-92398495D01*
X135775600Y-92392390D01*
X135890569Y-92399297D01*
X135998441Y-92419592D01*
X136104843Y-92451990D01*
X136220275Y-92497903D01*
X136117784Y-92744832D01*
X135932312Y-92679802D01*
X135849563Y-92662489D01*
X135765342Y-92656721D01*
X135708617Y-92661821D01*
X135663859Y-92675864D01*
X135626531Y-92699220D01*
X135600386Y-92729536D01*
X135584390Y-92766320D01*
X135578862Y-92809587D01*
X135586887Y-92859437D01*
X135610095Y-92899529D01*
X135646803Y-92933500D01*
X135704342Y-92969963D01*
X135861604Y-93049098D01*
X135971053Y-93106493D01*
X136057792Y-93162670D01*
X136130717Y-93227757D01*
X136183363Y-93301431D01*
X136207006Y-93356193D01*
X136222053Y-93421402D01*
X136227419Y-93499176D01*
G37*
D17*
G36*
X111181015Y-66911371D02*
G01*
X110671677Y-68412000D01*
X110325371Y-68412000D01*
X109817133Y-66911371D01*
X110137884Y-66911371D01*
X110419619Y-67804384D01*
X110443249Y-67889015D01*
X110476497Y-68020448D01*
X110499578Y-68134845D01*
X110521559Y-68020906D01*
X110553342Y-67890022D01*
X110576422Y-67804384D01*
X110860263Y-66911371D01*
X111181015Y-66911371D01*
G37*
G36*
X112141699Y-66896080D02*
G01*
X112248107Y-66915011D01*
X112340138Y-66944854D01*
X112419784Y-66984827D01*
X112493367Y-67037434D01*
X112556371Y-67099275D01*
X112609589Y-67171012D01*
X112653342Y-67253739D01*
X112694622Y-67371749D01*
X112720599Y-67506623D01*
X112729728Y-67661136D01*
X112724685Y-67776218D01*
X112710112Y-67881069D01*
X112686681Y-67976759D01*
X112652415Y-68068611D01*
X112608860Y-68149828D01*
X112556072Y-68221582D01*
X112493188Y-68284105D01*
X112419670Y-68336528D01*
X112334238Y-68379118D01*
X112243116Y-68408653D01*
X112137984Y-68427371D01*
X112016600Y-68433981D01*
X111895154Y-68427370D01*
X111789993Y-68408650D01*
X111698871Y-68379118D01*
X111613495Y-68336536D01*
X111539973Y-68284115D01*
X111477037Y-68221582D01*
X111424319Y-68149825D01*
X111380759Y-68068462D01*
X111346429Y-67976301D01*
X111323005Y-67880247D01*
X111308428Y-67774883D01*
X111303469Y-67661136D01*
X111636406Y-67661136D01*
X111641220Y-67765576D01*
X111654755Y-67855137D01*
X111675882Y-67931788D01*
X111708154Y-68003404D01*
X111749267Y-68060947D01*
X111799346Y-68106452D01*
X111858224Y-68139327D01*
X111929633Y-68160111D01*
X112016600Y-68167543D01*
X112104939Y-68160073D01*
X112176963Y-68139253D01*
X112235869Y-68106452D01*
X112285858Y-68060917D01*
X112326601Y-68003380D01*
X112358235Y-67931788D01*
X112378812Y-67855189D01*
X112392008Y-67765625D01*
X112396703Y-67661136D01*
X112390284Y-67540949D01*
X112372435Y-67440922D01*
X112344849Y-67357955D01*
X112308593Y-67289368D01*
X112259091Y-67231486D01*
X112196401Y-67189715D01*
X112117705Y-67163266D01*
X112018615Y-67153721D01*
X111931027Y-67161169D01*
X111859137Y-67181990D01*
X111799896Y-67214904D01*
X111749486Y-67260393D01*
X111708197Y-67317909D01*
X111675882Y-67389477D01*
X111654776Y-67466128D01*
X111641230Y-67556002D01*
X111636406Y-67661136D01*
X111303469Y-67661136D01*
X111303381Y-67659121D01*
X111312496Y-67505224D01*
X111338439Y-67370833D01*
X111379676Y-67253189D01*
X111423484Y-67170840D01*
X111476966Y-67099301D01*
X111540484Y-67037506D01*
X111614882Y-66984827D01*
X111695286Y-66944833D01*
X111788017Y-66914990D01*
X111895038Y-66896071D01*
X112018615Y-66889390D01*
X112141699Y-66896080D01*
G37*
G36*
X113040680Y-68412000D02*
G01*
X113040680Y-66911371D01*
X113358318Y-66911371D01*
X113358318Y-68149683D01*
X113965933Y-68149683D01*
X113965933Y-68412000D01*
X113040680Y-68412000D01*
G37*
G36*
X115445587Y-66911371D02*
G01*
X115445587Y-67883336D01*
X115437764Y-67984945D01*
X115414938Y-68077727D01*
X115377443Y-68163238D01*
X115325012Y-68239827D01*
X115257015Y-68305536D01*
X115171455Y-68361075D01*
X115076797Y-68400006D01*
X114962508Y-68425006D01*
X114824599Y-68433981D01*
X114703124Y-68426923D01*
X114599526Y-68407048D01*
X114511168Y-68375839D01*
X114435807Y-68334107D01*
X114371682Y-68281940D01*
X114304574Y-68201282D01*
X114256347Y-68108932D01*
X114226451Y-68002615D01*
X114215977Y-67879214D01*
X114215977Y-66911371D01*
X114532607Y-66911371D01*
X114532607Y-67831404D01*
X114538570Y-67927058D01*
X114554498Y-67999355D01*
X114578144Y-68053190D01*
X114608353Y-68092530D01*
X114663528Y-68132434D01*
X114736544Y-68158104D01*
X114832843Y-68167543D01*
X114931217Y-68157729D01*
X115002378Y-68131548D01*
X115041551Y-68103556D01*
X115073328Y-68066991D01*
X115098182Y-68020539D01*
X115120519Y-67939736D01*
X115128956Y-67829389D01*
X115128956Y-66911371D01*
X115445587Y-66911371D01*
G37*
G36*
X116447593Y-68412000D02*
G01*
X116086907Y-67234688D01*
X116077657Y-67234688D01*
X116084251Y-67361450D01*
X116092952Y-67541610D01*
X116097074Y-67713984D01*
X116097074Y-68412000D01*
X115813325Y-68412000D01*
X115813325Y-66911371D01*
X116245726Y-66911371D01*
X116600275Y-68058916D01*
X116606412Y-68058916D01*
X116982393Y-66911371D01*
X117414886Y-66911371D01*
X117414886Y-68412000D01*
X117118681Y-68412000D01*
X117118681Y-67701711D01*
X117121245Y-67538495D01*
X117127932Y-67362457D01*
X117134068Y-67236703D01*
X117124909Y-67236703D01*
X116738578Y-68412000D01*
X116447593Y-68412000D01*
G37*
G36*
X118655854Y-68412000D02*
G01*
X117793157Y-68412000D01*
X117793157Y-66911371D01*
X118655854Y-66911371D01*
X118655854Y-67171582D01*
X118110795Y-67171582D01*
X118110795Y-67501126D01*
X118617935Y-67501126D01*
X118617935Y-67761337D01*
X118110795Y-67761337D01*
X118110795Y-68149683D01*
X118655854Y-68149683D01*
X118655854Y-68412000D01*
G37*
D15*
G36*
X152894027Y-78375912D02*
G01*
X152960423Y-78404634D01*
X153011228Y-78450750D01*
X153047313Y-78511039D01*
X153070468Y-78587405D01*
X153078883Y-78684124D01*
X153068674Y-78803786D01*
X153041601Y-78890708D01*
X153000970Y-78952914D01*
X152944292Y-79000392D01*
X152877929Y-79028864D01*
X152798859Y-79038765D01*
X152728410Y-79029893D01*
X152668311Y-79004205D01*
X152616405Y-78964168D01*
X152573300Y-78912736D01*
X152540007Y-78853204D01*
X152515903Y-78786706D01*
X152501594Y-78716878D01*
X152496852Y-78646755D01*
X152506178Y-78580542D01*
X152535076Y-78514498D01*
X152580821Y-78456165D01*
X152643764Y-78407764D01*
X152718489Y-78376404D01*
X152807041Y-78365510D01*
X152894027Y-78375912D01*
G37*
G36*
X154443615Y-77667244D02*
G01*
X154497963Y-77692846D01*
X154543241Y-77735729D01*
X154577315Y-77790413D01*
X154606695Y-77865561D01*
X154629947Y-77966417D01*
X154648789Y-78129129D01*
X154655959Y-78348535D01*
X154648773Y-78569036D01*
X154629947Y-78731385D01*
X154606669Y-78831732D01*
X154577286Y-78906197D01*
X154543241Y-78960119D01*
X154498074Y-79002115D01*
X154443728Y-79027276D01*
X154377278Y-79036078D01*
X154309932Y-79027151D01*
X154255353Y-79001721D01*
X154210460Y-78959386D01*
X154176850Y-78905140D01*
X154147913Y-78830451D01*
X154125097Y-78730042D01*
X154106792Y-78567861D01*
X154099818Y-78348535D01*
X154106786Y-78129131D01*
X154125097Y-77966417D01*
X154147911Y-77865501D01*
X154176850Y-77790363D01*
X154210460Y-77735729D01*
X154255409Y-77692951D01*
X154309989Y-77667300D01*
X154377278Y-77658304D01*
X154443615Y-77667244D01*
G37*
G36*
X157788701Y-79598531D02*
G01*
X151855265Y-79598531D01*
X151855265Y-78495691D01*
X152077487Y-78495691D01*
X152084287Y-78646322D01*
X152084351Y-78646755D01*
X152103447Y-78776183D01*
X152133419Y-78887945D01*
X152177048Y-78994862D01*
X152229054Y-79085553D01*
X152289124Y-79161986D01*
X152359804Y-79228605D01*
X152436990Y-79282160D01*
X152521399Y-79323430D01*
X152657917Y-79362865D01*
X152807041Y-79376309D01*
X152944278Y-79366439D01*
X153063733Y-79338276D01*
X153168276Y-79293144D01*
X153262152Y-79229492D01*
X153340289Y-79150013D01*
X153403970Y-79053053D01*
X153449129Y-78945440D01*
X153477430Y-78821690D01*
X153487379Y-78678751D01*
X153478913Y-78544402D01*
X153455097Y-78430386D01*
X153423502Y-78348657D01*
X153680453Y-78348657D01*
X153689497Y-78562685D01*
X153714845Y-78745360D01*
X153754215Y-78900768D01*
X153814911Y-79047389D01*
X153891071Y-79163470D01*
X153982337Y-79253821D01*
X154062247Y-79305987D01*
X154153309Y-79344110D01*
X154257501Y-79367948D01*
X154377278Y-79376309D01*
X154503241Y-79367891D01*
X154597652Y-79347000D01*
X155431064Y-79347000D01*
X155809396Y-79347000D01*
X155809396Y-78416312D01*
X155803900Y-78186480D01*
X155792299Y-77946267D01*
X155783506Y-77777251D01*
X155795840Y-77777251D01*
X156276755Y-79347000D01*
X156664734Y-79347000D01*
X157179843Y-77779937D01*
X157192055Y-77779937D01*
X157183873Y-77947610D01*
X157174958Y-78182327D01*
X157171538Y-78399948D01*
X157171538Y-79347000D01*
X157566479Y-79347000D01*
X157566479Y-77346162D01*
X156989822Y-77346162D01*
X156488513Y-78876221D01*
X156480331Y-78876221D01*
X156007599Y-77346162D01*
X155431064Y-77346162D01*
X155431064Y-79347000D01*
X154597652Y-79347000D01*
X154610613Y-79344132D01*
X154702365Y-79306577D01*
X154785729Y-79253203D01*
X154857594Y-79186096D01*
X154918887Y-79103978D01*
X154967407Y-79012650D01*
X155007764Y-78905760D01*
X155039176Y-78781089D01*
X155066828Y-78584165D01*
X155076790Y-78348657D01*
X155067530Y-78131835D01*
X155041647Y-77947880D01*
X155001563Y-77792394D01*
X154940027Y-77645805D01*
X154863183Y-77529711D01*
X154771364Y-77439341D01*
X154691137Y-77387099D01*
X154600069Y-77348981D01*
X154496243Y-77325186D01*
X154377278Y-77316853D01*
X154249223Y-77325476D01*
X154140402Y-77349790D01*
X154047719Y-77388182D01*
X153968660Y-77440073D01*
X153878687Y-77530843D01*
X153804998Y-77647102D01*
X153747986Y-77793737D01*
X153712044Y-77948849D01*
X153688782Y-78132414D01*
X153680458Y-78348535D01*
X153680453Y-78348657D01*
X153423502Y-78348657D01*
X153417648Y-78333514D01*
X153363923Y-78245374D01*
X153298180Y-78173717D01*
X153219567Y-78116748D01*
X153131179Y-78075913D01*
X153030909Y-78050600D01*
X152916339Y-78041766D01*
X152808509Y-78049923D01*
X152720823Y-78072540D01*
X152642700Y-78109196D01*
X152579406Y-78155217D01*
X152526287Y-78210944D01*
X152483175Y-78274041D01*
X152465467Y-78274041D01*
X152487328Y-78094620D01*
X152530314Y-77947000D01*
X152575991Y-77860308D01*
X152639095Y-77787458D01*
X152721556Y-77726937D01*
X152815868Y-77685561D01*
X152941371Y-77657799D01*
X153106238Y-77647436D01*
X153229825Y-77655007D01*
X153346695Y-77674791D01*
X153346695Y-77337369D01*
X153216148Y-77321616D01*
X153078883Y-77316853D01*
X152913802Y-77325028D01*
X152773812Y-77347921D01*
X152655366Y-77383531D01*
X152543015Y-77434811D01*
X152447560Y-77495754D01*
X152367037Y-77566225D01*
X152266370Y-77690862D01*
X152190816Y-77832816D01*
X152137603Y-77987002D01*
X152102644Y-78152896D01*
X152083791Y-78323209D01*
X152077487Y-78495691D01*
X151855265Y-78495691D01*
X151855265Y-77094631D01*
X157788701Y-77094631D01*
X157788701Y-79598531D01*
G37*
D16*
G36*
X167411150Y-82618501D02*
G01*
X167041748Y-82618501D01*
X167041748Y-81604969D01*
X167042923Y-81501318D01*
X167046449Y-81374266D01*
X167051258Y-81256297D01*
X166998044Y-81309405D01*
X166923351Y-81376831D01*
X166722568Y-81537970D01*
X166544439Y-81315602D01*
X167107464Y-80867768D01*
X167411150Y-80867768D01*
X167411150Y-82618501D01*
G37*
G36*
X169119781Y-82618501D02*
G01*
X167897987Y-82618501D01*
X167897987Y-82361511D01*
X168336739Y-81916669D01*
X168550131Y-81688317D01*
X168622641Y-81596424D01*
X168667245Y-81520980D01*
X168694590Y-81443015D01*
X168703790Y-81359093D01*
X168696574Y-81292019D01*
X168676844Y-81241166D01*
X168645767Y-81202655D01*
X168604352Y-81174443D01*
X168553588Y-81156808D01*
X168490932Y-81150509D01*
X168391365Y-81162052D01*
X168293676Y-81197206D01*
X168199065Y-81251595D01*
X168094068Y-81329814D01*
X167893285Y-81091952D01*
X168052822Y-80970029D01*
X168142298Y-80918983D01*
X168248903Y-80877385D01*
X168366807Y-80851621D01*
X168517326Y-80842122D01*
X168630729Y-80849592D01*
X168728515Y-80870778D01*
X168813104Y-80904419D01*
X168890526Y-80951871D01*
X168953533Y-81008240D01*
X169003735Y-81074000D01*
X169040706Y-81147992D01*
X169063079Y-81228354D01*
X169070734Y-81316671D01*
X169064152Y-81412011D01*
X169044913Y-81499911D01*
X169013352Y-81581567D01*
X168944962Y-81697909D01*
X168846550Y-81818788D01*
X168730462Y-81938134D01*
X168583042Y-82078876D01*
X168358324Y-82290986D01*
X168358324Y-82307656D01*
X169119781Y-82307656D01*
X169119781Y-82618501D01*
G37*
D11*
G36*
X145674552Y-64955466D02*
G01*
X145822403Y-64978287D01*
X145942152Y-65012986D01*
X146053290Y-65066309D01*
X146139707Y-65132512D01*
X146205202Y-65211799D01*
X146251530Y-65304181D01*
X146280847Y-65414770D01*
X146291297Y-65547633D01*
X146277749Y-65678815D01*
X146239396Y-65787602D01*
X146178957Y-65882964D01*
X146102742Y-65961747D01*
X146014343Y-66026696D01*
X145919682Y-66078251D01*
X146507208Y-66948000D01*
X146037163Y-66948000D01*
X145560401Y-66182054D01*
X145334965Y-66182054D01*
X145334965Y-66948000D01*
X144911448Y-66948000D01*
X144911448Y-65837794D01*
X145334965Y-65837794D01*
X145471496Y-65837794D01*
X145611049Y-65828063D01*
X145707763Y-65802982D01*
X145772770Y-65766963D01*
X145822293Y-65713708D01*
X145852724Y-65645735D01*
X145863628Y-65558380D01*
X145851661Y-65468308D01*
X145818904Y-65402493D01*
X145765931Y-65354681D01*
X145697631Y-65323779D01*
X145599817Y-65302339D01*
X145463314Y-65294109D01*
X145334965Y-65294109D01*
X145334965Y-65837794D01*
X144911448Y-65837794D01*
X144911448Y-64947162D01*
X145493356Y-64947162D01*
X145674552Y-64955466D01*
G37*
G36*
X147910139Y-66948000D02*
G01*
X146759877Y-66948000D01*
X146759877Y-64947162D01*
X147910139Y-64947162D01*
X147910139Y-65294109D01*
X147183394Y-65294109D01*
X147183394Y-65733502D01*
X147859581Y-65733502D01*
X147859581Y-66080449D01*
X147183394Y-66080449D01*
X147183394Y-66598244D01*
X147910139Y-66598244D01*
X147910139Y-66948000D01*
G37*
G36*
X149162011Y-64959778D02*
G01*
X149316534Y-64994052D01*
X149436675Y-65045956D01*
X149529103Y-65113491D01*
X149605198Y-65202066D01*
X149660240Y-65305742D01*
X149694640Y-65427504D01*
X149706789Y-65571447D01*
X149696770Y-65700561D01*
X149667100Y-65822651D01*
X149615228Y-65935465D01*
X149538018Y-66035508D01*
X149474097Y-66091486D01*
X149395403Y-66140639D01*
X149299637Y-66182665D01*
X149198937Y-66211378D01*
X149077625Y-66230042D01*
X148932173Y-66236764D01*
X148750457Y-66236764D01*
X148750457Y-66948000D01*
X148326939Y-66948000D01*
X148326939Y-65889817D01*
X148750457Y-65889817D01*
X148889797Y-65889817D01*
X149004030Y-65881434D01*
X149096060Y-65858310D01*
X149174589Y-65817021D01*
X149231249Y-65759392D01*
X149266385Y-65685236D01*
X149279120Y-65586468D01*
X149268867Y-65491116D01*
X149240959Y-65419611D01*
X149197177Y-65366161D01*
X149138112Y-65328600D01*
X149055875Y-65303550D01*
X148943042Y-65294109D01*
X148750457Y-65294109D01*
X148750457Y-65889817D01*
X148326939Y-65889817D01*
X148326939Y-64947162D01*
X148964902Y-64947162D01*
X149162011Y-64959778D01*
G37*
G36*
X151233796Y-66948000D02*
G01*
X150083534Y-66948000D01*
X150083534Y-64947162D01*
X151233796Y-64947162D01*
X151233796Y-65294109D01*
X150507051Y-65294109D01*
X150507051Y-65733502D01*
X151183237Y-65733502D01*
X151183237Y-66080449D01*
X150507051Y-66080449D01*
X150507051Y-66598244D01*
X151233796Y-66598244D01*
X151233796Y-66948000D01*
G37*
G36*
X152421060Y-66948000D02*
G01*
X151997543Y-66948000D01*
X151997543Y-65299605D01*
X151455202Y-65299605D01*
X151455202Y-64947162D01*
X152963524Y-64947162D01*
X152963524Y-65299605D01*
X152421060Y-65299605D01*
X152421060Y-66948000D01*
G37*
G36*
X153270415Y-66948000D02*
G01*
X153270415Y-64947162D01*
X153693932Y-64947162D01*
X153693932Y-66948000D01*
X153270415Y-66948000D01*
G37*
G36*
X154967048Y-66948000D02*
G01*
X154543531Y-66948000D01*
X154543531Y-65299605D01*
X154001189Y-65299605D01*
X154001189Y-64947162D01*
X155509511Y-64947162D01*
X155509511Y-65299605D01*
X154967048Y-65299605D01*
X154967048Y-66948000D01*
G37*
G36*
X155816402Y-66948000D02*
G01*
X155816402Y-64947162D01*
X156239919Y-64947162D01*
X156239919Y-66948000D01*
X155816402Y-66948000D01*
G37*
G36*
X157771425Y-64926774D02*
G01*
X157913302Y-64952015D01*
X158036010Y-64991805D01*
X158142205Y-65045103D01*
X158240315Y-65115245D01*
X158324320Y-65197700D01*
X158395277Y-65293349D01*
X158453614Y-65403652D01*
X158508654Y-65560999D01*
X158543291Y-65740831D01*
X158555464Y-65946848D01*
X158548739Y-66100290D01*
X158529308Y-66240092D01*
X158498066Y-66367678D01*
X158452379Y-66490148D01*
X158394305Y-66598438D01*
X158323921Y-66694109D01*
X158240076Y-66777474D01*
X158142052Y-66847371D01*
X158028143Y-66904158D01*
X157906647Y-66943537D01*
X157766471Y-66968495D01*
X157604626Y-66977309D01*
X157442697Y-66968493D01*
X157302483Y-66943534D01*
X157180987Y-66904158D01*
X157067152Y-66847382D01*
X156969123Y-66777486D01*
X156885209Y-66694109D01*
X156814917Y-66598433D01*
X156756837Y-66489949D01*
X156711064Y-66367068D01*
X156679833Y-66238996D01*
X156660396Y-66098510D01*
X156653784Y-65946848D01*
X157097700Y-65946848D01*
X157104118Y-66086101D01*
X157122165Y-66205517D01*
X157150334Y-66307717D01*
X157193364Y-66403206D01*
X157248182Y-66479930D01*
X157314954Y-66540602D01*
X157393457Y-66584436D01*
X157488669Y-66612148D01*
X157604626Y-66622057D01*
X157722411Y-66612097D01*
X157818443Y-66584338D01*
X157896985Y-66540602D01*
X157963636Y-66479890D01*
X158017960Y-66403173D01*
X158060139Y-66307717D01*
X158087575Y-66205586D01*
X158105169Y-66086166D01*
X158111430Y-65946848D01*
X158102870Y-65786599D01*
X158079072Y-65653230D01*
X158042291Y-65542606D01*
X157993949Y-65451157D01*
X157927946Y-65373982D01*
X157844360Y-65318287D01*
X157739432Y-65283021D01*
X157607313Y-65270295D01*
X157490529Y-65280226D01*
X157394675Y-65307987D01*
X157315687Y-65351872D01*
X157248473Y-65412525D01*
X157193421Y-65489212D01*
X157150334Y-65584636D01*
X157122194Y-65686838D01*
X157104133Y-65806670D01*
X157097700Y-65946848D01*
X156653784Y-65946848D01*
X156653667Y-65944161D01*
X156665820Y-65738965D01*
X156700411Y-65559778D01*
X156755394Y-65402919D01*
X156813804Y-65293120D01*
X156885113Y-65197735D01*
X156969804Y-65115342D01*
X157069002Y-65045103D01*
X157176207Y-64991778D01*
X157299849Y-64951987D01*
X157442543Y-64926762D01*
X157607313Y-64917853D01*
X157771425Y-64926774D01*
G37*
G36*
X160742048Y-66948000D02*
G01*
X160203736Y-66948000D01*
X159334842Y-65434427D01*
X159322508Y-65434427D01*
X159332034Y-65624692D01*
X159340216Y-65815568D01*
X159348398Y-66006443D01*
X159348398Y-66948000D01*
X158970066Y-66948000D01*
X158970066Y-64947162D01*
X159504225Y-64947162D01*
X160371775Y-66445714D01*
X160381301Y-66445714D01*
X160374462Y-66260944D01*
X160367013Y-66077640D01*
X160360785Y-65894214D01*
X160360785Y-64947162D01*
X160742048Y-64947162D01*
X160742048Y-66948000D01*
G37*
G36*
X162425369Y-66393568D02*
G01*
X162415339Y-66509765D01*
X162386421Y-66612144D01*
X162339274Y-66703268D01*
X162274637Y-66782848D01*
X162192015Y-66850332D01*
X162088681Y-66906112D01*
X161976700Y-66944234D01*
X161844632Y-66968619D01*
X161688977Y-66977309D01*
X161486133Y-66963631D01*
X161296235Y-66923331D01*
X161123433Y-66857019D01*
X161123433Y-66463544D01*
X161267545Y-66523098D01*
X161418478Y-66576995D01*
X161572105Y-66615126D01*
X161721828Y-66627553D01*
X161820009Y-66619928D01*
X161889134Y-66600076D01*
X161945164Y-66566298D01*
X161981336Y-66524238D01*
X162002684Y-66473251D01*
X162010034Y-66414085D01*
X161997315Y-66344028D01*
X161959476Y-66285369D01*
X161902257Y-66235610D01*
X161820746Y-66185351D01*
X161622055Y-66085334D01*
X161470380Y-66005222D01*
X161391070Y-65953085D01*
X161314675Y-65889451D01*
X161248135Y-65814361D01*
X161193775Y-65723000D01*
X161159121Y-65618633D01*
X161146636Y-65487916D01*
X161156325Y-65370625D01*
X161183988Y-65269280D01*
X161228579Y-65181025D01*
X161290132Y-65103577D01*
X161367480Y-65038680D01*
X161462808Y-64985752D01*
X161566544Y-64949106D01*
X161685728Y-64925993D01*
X161822944Y-64917853D01*
X161976237Y-64927063D01*
X162120066Y-64954123D01*
X162261935Y-64997320D01*
X162415844Y-65058537D01*
X162279190Y-65387776D01*
X162031894Y-65301070D01*
X161921562Y-65277985D01*
X161809267Y-65270295D01*
X161733634Y-65277095D01*
X161673956Y-65295819D01*
X161624186Y-65326960D01*
X161589326Y-65367382D01*
X161567997Y-65416427D01*
X161560628Y-65474116D01*
X161571328Y-65540583D01*
X161602271Y-65594039D01*
X161651215Y-65639334D01*
X161727934Y-65687951D01*
X161937616Y-65793464D01*
X162083548Y-65869991D01*
X162199200Y-65944894D01*
X162296434Y-66031676D01*
X162366629Y-66129908D01*
X162398153Y-66202924D01*
X162418215Y-66289869D01*
X162425369Y-66393568D01*
G37*
D15*
G36*
X107344097Y-77667244D02*
G01*
X107398444Y-77692846D01*
X107443723Y-77735729D01*
X107477797Y-77790413D01*
X107507177Y-77865561D01*
X107530429Y-77966417D01*
X107549271Y-78129129D01*
X107556441Y-78348535D01*
X107549255Y-78569036D01*
X107530429Y-78731385D01*
X107507151Y-78831732D01*
X107477768Y-78906197D01*
X107443723Y-78960119D01*
X107398556Y-79002115D01*
X107344209Y-79027276D01*
X107277760Y-79036078D01*
X107210414Y-79027151D01*
X107155835Y-79001721D01*
X107110942Y-78959386D01*
X107077332Y-78905140D01*
X107048395Y-78830451D01*
X107025579Y-78730042D01*
X107007274Y-78567861D01*
X107000300Y-78348535D01*
X107007268Y-78129131D01*
X107025579Y-77966417D01*
X107048393Y-77865501D01*
X107077331Y-77790363D01*
X107110942Y-77735729D01*
X107155891Y-77692951D01*
X107210471Y-77667300D01*
X107277760Y-77658304D01*
X107344097Y-77667244D01*
G37*
G36*
X112289462Y-79598531D02*
G01*
X106358713Y-79598531D01*
X106358713Y-78348657D01*
X106580935Y-78348657D01*
X106589979Y-78562685D01*
X106615327Y-78745360D01*
X106654696Y-78900768D01*
X106715393Y-79047389D01*
X106791553Y-79163470D01*
X106882819Y-79253821D01*
X106962729Y-79305987D01*
X107053791Y-79344110D01*
X107157983Y-79367948D01*
X107277760Y-79376309D01*
X107403723Y-79367891D01*
X107511095Y-79344132D01*
X107602847Y-79306577D01*
X107686210Y-79253203D01*
X107758076Y-79186096D01*
X107819368Y-79103978D01*
X107867889Y-79012650D01*
X107908246Y-78905760D01*
X107908796Y-78903577D01*
X108216752Y-78903577D01*
X108216752Y-79268353D01*
X108326415Y-79315083D01*
X108459163Y-79349686D01*
X108600523Y-79369474D01*
X108755063Y-79376309D01*
X108929531Y-79366038D01*
X109026216Y-79347000D01*
X109931825Y-79347000D01*
X110310157Y-79347000D01*
X110310157Y-78416312D01*
X110304661Y-78186480D01*
X110293060Y-77946267D01*
X110284267Y-77777251D01*
X110296601Y-77777251D01*
X110777516Y-79347000D01*
X111165495Y-79347000D01*
X111680604Y-77779937D01*
X111692816Y-77779937D01*
X111684634Y-77947610D01*
X111675719Y-78182327D01*
X111672299Y-78399948D01*
X111672299Y-79347000D01*
X112067240Y-79347000D01*
X112067240Y-77346162D01*
X111490583Y-77346162D01*
X110989274Y-78876221D01*
X110981092Y-78876221D01*
X110508360Y-77346162D01*
X109931825Y-77346162D01*
X109931825Y-79347000D01*
X109026216Y-79347000D01*
X109074803Y-79337433D01*
X109195555Y-79293022D01*
X109305497Y-79228081D01*
X109393449Y-79148496D01*
X109462024Y-79053297D01*
X109510645Y-78945647D01*
X109540930Y-78822558D01*
X109551539Y-78680949D01*
X109541659Y-78551064D01*
X109513768Y-78441132D01*
X109469473Y-78347680D01*
X109407930Y-78264599D01*
X109333482Y-78196688D01*
X109244770Y-78142760D01*
X109147358Y-78104691D01*
X109039376Y-78081175D01*
X108918950Y-78073029D01*
X108765932Y-78082676D01*
X108664815Y-78101727D01*
X108701696Y-77704100D01*
X109414885Y-77704100D01*
X109414885Y-77346162D01*
X108331546Y-77346162D01*
X108256319Y-78369540D01*
X108424358Y-78459665D01*
X108564431Y-78429623D01*
X108726364Y-78414602D01*
X108860422Y-78424892D01*
X108958163Y-78452102D01*
X109028248Y-78492516D01*
X109082086Y-78550689D01*
X109114968Y-78623782D01*
X109126678Y-78716487D01*
X109114773Y-78819179D01*
X109082226Y-78896127D01*
X109028220Y-78956565D01*
X108951678Y-78999930D01*
X108860032Y-79024338D01*
X108740042Y-79033392D01*
X108610025Y-79024359D01*
X108466001Y-78995778D01*
X108326917Y-78952415D01*
X108216752Y-78903577D01*
X107908796Y-78903577D01*
X107939658Y-78781089D01*
X107967310Y-78584165D01*
X107977271Y-78348657D01*
X107968012Y-78131835D01*
X107942129Y-77947880D01*
X107902045Y-77792394D01*
X107840509Y-77645805D01*
X107763665Y-77529711D01*
X107671846Y-77439341D01*
X107591619Y-77387099D01*
X107500551Y-77348981D01*
X107396725Y-77325186D01*
X107277760Y-77316853D01*
X107149705Y-77325476D01*
X107040884Y-77349790D01*
X106948201Y-77388182D01*
X106869142Y-77440073D01*
X106779169Y-77530843D01*
X106705480Y-77647102D01*
X106648468Y-77793737D01*
X106612526Y-77948849D01*
X106589263Y-78132414D01*
X106580940Y-78348535D01*
X106580935Y-78348657D01*
X106358713Y-78348657D01*
X106358713Y-77094631D01*
X112289462Y-77094631D01*
X112289462Y-79598531D01*
G37*
G36*
X94351594Y-77667244D02*
G01*
X94405941Y-77692846D01*
X94451220Y-77735729D01*
X94485294Y-77790413D01*
X94514674Y-77865561D01*
X94537926Y-77966417D01*
X94556768Y-78129129D01*
X94563938Y-78348535D01*
X94556752Y-78569036D01*
X94537926Y-78731385D01*
X94514648Y-78831732D01*
X94485265Y-78906197D01*
X94451220Y-78960119D01*
X94406053Y-79002115D01*
X94351706Y-79027276D01*
X94285257Y-79036078D01*
X94217911Y-79027151D01*
X94163332Y-79001721D01*
X94118439Y-78959386D01*
X94084829Y-78905140D01*
X94055892Y-78830451D01*
X94033076Y-78730042D01*
X94014771Y-78567861D01*
X94007797Y-78348535D01*
X94014765Y-78129131D01*
X94033076Y-77966417D01*
X94055890Y-77865501D01*
X94084828Y-77790363D01*
X94118439Y-77735729D01*
X94163388Y-77692951D01*
X94217968Y-77667300D01*
X94285257Y-77658304D01*
X94351594Y-77667244D01*
G37*
G36*
X99296959Y-79598531D02*
G01*
X93366210Y-79598531D01*
X93366210Y-78348657D01*
X93588432Y-78348657D01*
X93597476Y-78562685D01*
X93622824Y-78745360D01*
X93662193Y-78900768D01*
X93722890Y-79047389D01*
X93799050Y-79163470D01*
X93890316Y-79253821D01*
X93970226Y-79305987D01*
X94061288Y-79344110D01*
X94165480Y-79367948D01*
X94285257Y-79376309D01*
X94411220Y-79367891D01*
X94518592Y-79344132D01*
X94610344Y-79306577D01*
X94693707Y-79253203D01*
X94765573Y-79186096D01*
X94826865Y-79103978D01*
X94875386Y-79012650D01*
X94915743Y-78905760D01*
X94947155Y-78781089D01*
X94974807Y-78584165D01*
X94984768Y-78348657D01*
X94975509Y-78131835D01*
X94949626Y-77947880D01*
X94926448Y-77857973D01*
X95252947Y-77857973D01*
X95456523Y-78112108D01*
X95685990Y-77927949D01*
X95771352Y-77850890D01*
X95832169Y-77790196D01*
X95826673Y-77925018D01*
X95822643Y-78070220D01*
X95821300Y-78188678D01*
X95821300Y-79347000D01*
X96243474Y-79347000D01*
X96939322Y-79347000D01*
X97317654Y-79347000D01*
X97317654Y-78416312D01*
X97312158Y-78186480D01*
X97300557Y-77946267D01*
X97291764Y-77777251D01*
X97304098Y-77777251D01*
X97785013Y-79347000D01*
X98172992Y-79347000D01*
X98688101Y-77779937D01*
X98700313Y-77779937D01*
X98692131Y-77947610D01*
X98683216Y-78182327D01*
X98679796Y-78399948D01*
X98679796Y-79347000D01*
X99074737Y-79347000D01*
X99074737Y-77346162D01*
X98498080Y-77346162D01*
X97996771Y-78876221D01*
X97988589Y-78876221D01*
X97515857Y-77346162D01*
X96939322Y-77346162D01*
X96939322Y-79347000D01*
X96243474Y-79347000D01*
X96243474Y-77346162D01*
X95896405Y-77346162D01*
X95252947Y-77857973D01*
X94926448Y-77857973D01*
X94909542Y-77792394D01*
X94848006Y-77645805D01*
X94771162Y-77529711D01*
X94679343Y-77439341D01*
X94599116Y-77387099D01*
X94508048Y-77348981D01*
X94404222Y-77325186D01*
X94285257Y-77316853D01*
X94157202Y-77325476D01*
X94048381Y-77349790D01*
X93955698Y-77388182D01*
X93876639Y-77440073D01*
X93786666Y-77530843D01*
X93712977Y-77647102D01*
X93655965Y-77793737D01*
X93620023Y-77948849D01*
X93596760Y-78132414D01*
X93588437Y-78348535D01*
X93588432Y-78348657D01*
X93366210Y-78348657D01*
X93366210Y-77094631D01*
X99296959Y-77094631D01*
X99296959Y-79598531D01*
G37*
D16*
G36*
X116198689Y-81969135D02*
G01*
X116409089Y-81969135D01*
X116409089Y-82256044D01*
X116198689Y-82256044D01*
X116198689Y-82618501D01*
X115837729Y-82618501D01*
X115837729Y-82256044D01*
X115091765Y-82256044D01*
X115091765Y-81999055D01*
X115112031Y-81969135D01*
X115416929Y-81969135D01*
X115837729Y-81969135D01*
X115837729Y-81671434D01*
X115839438Y-81571844D01*
X115843606Y-81456546D01*
X115849055Y-81353964D01*
X115853223Y-81290919D01*
X115843713Y-81290919D01*
X115795841Y-81386448D01*
X115737284Y-81482939D01*
X115416929Y-81969135D01*
X115112031Y-81969135D01*
X115858031Y-80867768D01*
X116198689Y-80867768D01*
X116198689Y-81969135D01*
G37*
D15*
G36*
X115444376Y-77667244D02*
G01*
X115498724Y-77692846D01*
X115544002Y-77735729D01*
X115578076Y-77790413D01*
X115607456Y-77865561D01*
X115630708Y-77966417D01*
X115649550Y-78129129D01*
X115656720Y-78348535D01*
X115649534Y-78569036D01*
X115630708Y-78731385D01*
X115607430Y-78831732D01*
X115578047Y-78906197D01*
X115544002Y-78960119D01*
X115498835Y-79002115D01*
X115444489Y-79027276D01*
X115378039Y-79036078D01*
X115310693Y-79027151D01*
X115256114Y-79001721D01*
X115211221Y-78959386D01*
X115177611Y-78905140D01*
X115148674Y-78830451D01*
X115125858Y-78730042D01*
X115107553Y-78567861D01*
X115100579Y-78348535D01*
X115107547Y-78129131D01*
X115125858Y-77966417D01*
X115148672Y-77865501D01*
X115177611Y-77790363D01*
X115211221Y-77735729D01*
X115256170Y-77692951D01*
X115310750Y-77667300D01*
X115378039Y-77658304D01*
X115444376Y-77667244D01*
G37*
G36*
X118789462Y-79598531D02*
G01*
X112922949Y-79598531D01*
X112922949Y-77857973D01*
X113145171Y-77857973D01*
X113348747Y-78112108D01*
X113578213Y-77927949D01*
X113663576Y-77850890D01*
X113724393Y-77790196D01*
X113718897Y-77925018D01*
X113714867Y-78070220D01*
X113713524Y-78188678D01*
X113713524Y-79347000D01*
X114135698Y-79347000D01*
X114135698Y-78348657D01*
X114681214Y-78348657D01*
X114690258Y-78562685D01*
X114715606Y-78745360D01*
X114754976Y-78900768D01*
X114815672Y-79047389D01*
X114891832Y-79163470D01*
X114983098Y-79253821D01*
X115063008Y-79305987D01*
X115154070Y-79344110D01*
X115258262Y-79367948D01*
X115378039Y-79376309D01*
X115504002Y-79367891D01*
X115598413Y-79347000D01*
X116431825Y-79347000D01*
X116810157Y-79347000D01*
X116810157Y-78416312D01*
X116804661Y-78186480D01*
X116793060Y-77946267D01*
X116784267Y-77777251D01*
X116796601Y-77777251D01*
X117277516Y-79347000D01*
X117665495Y-79347000D01*
X118180604Y-77779937D01*
X118192816Y-77779937D01*
X118184634Y-77947610D01*
X118175719Y-78182327D01*
X118172299Y-78399948D01*
X118172299Y-79347000D01*
X118567240Y-79347000D01*
X118567240Y-77346162D01*
X117990583Y-77346162D01*
X117489274Y-78876221D01*
X117481092Y-78876221D01*
X117008360Y-77346162D01*
X116431825Y-77346162D01*
X116431825Y-79347000D01*
X115598413Y-79347000D01*
X115611374Y-79344132D01*
X115703126Y-79306577D01*
X115786490Y-79253203D01*
X115858355Y-79186096D01*
X115919648Y-79103978D01*
X115968168Y-79012650D01*
X116008525Y-78905760D01*
X116039937Y-78781089D01*
X116067589Y-78584165D01*
X116077551Y-78348657D01*
X116068291Y-78131835D01*
X116042408Y-77947880D01*
X116002324Y-77792394D01*
X115940788Y-77645805D01*
X115863944Y-77529711D01*
X115772125Y-77439341D01*
X115691898Y-77387099D01*
X115600830Y-77348981D01*
X115497004Y-77325186D01*
X115378039Y-77316853D01*
X115249984Y-77325476D01*
X115141163Y-77349790D01*
X115048480Y-77388182D01*
X114969421Y-77440073D01*
X114879448Y-77530843D01*
X114805759Y-77647102D01*
X114748747Y-77793737D01*
X114712805Y-77948849D01*
X114689543Y-78132414D01*
X114681219Y-78348535D01*
X114681214Y-78348657D01*
X114135698Y-78348657D01*
X114135698Y-77346162D01*
X113788629Y-77346162D01*
X113145171Y-77857973D01*
X112922949Y-77857973D01*
X112922949Y-77094631D01*
X118789462Y-77094631D01*
X118789462Y-79598531D01*
G37*
G36*
X125289462Y-79598531D02*
G01*
X119422949Y-79598531D01*
X119422949Y-77857973D01*
X119645171Y-77857973D01*
X119848747Y-78112108D01*
X120078213Y-77927949D01*
X120163576Y-77850890D01*
X120224393Y-77790196D01*
X120218897Y-77925018D01*
X120214867Y-78070220D01*
X120213524Y-78188678D01*
X120213524Y-79347000D01*
X120635698Y-79347000D01*
X120635698Y-78903577D01*
X121216752Y-78903577D01*
X121216752Y-79268353D01*
X121326415Y-79315083D01*
X121459163Y-79349686D01*
X121600523Y-79369474D01*
X121755063Y-79376309D01*
X121929531Y-79366038D01*
X122026216Y-79347000D01*
X122931825Y-79347000D01*
X123310157Y-79347000D01*
X123310157Y-78416312D01*
X123304661Y-78186480D01*
X123293060Y-77946267D01*
X123284267Y-77777251D01*
X123296601Y-77777251D01*
X123777516Y-79347000D01*
X124165495Y-79347000D01*
X124680604Y-77779937D01*
X124692816Y-77779937D01*
X124684634Y-77947610D01*
X124675719Y-78182327D01*
X124672299Y-78399948D01*
X124672299Y-79347000D01*
X125067240Y-79347000D01*
X125067240Y-77346162D01*
X124490583Y-77346162D01*
X123989274Y-78876221D01*
X123981092Y-78876221D01*
X123508360Y-77346162D01*
X122931825Y-77346162D01*
X122931825Y-79347000D01*
X122026216Y-79347000D01*
X122074803Y-79337433D01*
X122195555Y-79293022D01*
X122305497Y-79228081D01*
X122393449Y-79148496D01*
X122462024Y-79053297D01*
X122510645Y-78945647D01*
X122540930Y-78822558D01*
X122551539Y-78680949D01*
X122541659Y-78551064D01*
X122513768Y-78441132D01*
X122469473Y-78347680D01*
X122407930Y-78264599D01*
X122333482Y-78196688D01*
X122244770Y-78142760D01*
X122147358Y-78104691D01*
X122039376Y-78081175D01*
X121918950Y-78073029D01*
X121765932Y-78082676D01*
X121664815Y-78101727D01*
X121701696Y-77704100D01*
X122414885Y-77704100D01*
X122414885Y-77346162D01*
X121331546Y-77346162D01*
X121256319Y-78369540D01*
X121424358Y-78459665D01*
X121564431Y-78429623D01*
X121726364Y-78414602D01*
X121860422Y-78424892D01*
X121958163Y-78452102D01*
X122028248Y-78492516D01*
X122082086Y-78550689D01*
X122114968Y-78623782D01*
X122126678Y-78716487D01*
X122114773Y-78819179D01*
X122082226Y-78896127D01*
X122028220Y-78956565D01*
X121951678Y-78999930D01*
X121860032Y-79024338D01*
X121740042Y-79033392D01*
X121610025Y-79024359D01*
X121466001Y-78995778D01*
X121326917Y-78952415D01*
X121216752Y-78903577D01*
X120635698Y-78903577D01*
X120635698Y-77346162D01*
X120288629Y-77346162D01*
X119645171Y-77857973D01*
X119422949Y-77857973D01*
X119422949Y-77123940D01*
X125289462Y-77123940D01*
X125289462Y-79598531D01*
G37*
D16*
G36*
X141947040Y-80854128D02*
G01*
X142078360Y-80888925D01*
X142159104Y-80926276D01*
X142226465Y-80973237D01*
X142282135Y-81029976D01*
X142323892Y-81096475D01*
X142349615Y-81174165D01*
X142358644Y-81265914D01*
X142347895Y-81366933D01*
X142317398Y-81450882D01*
X142269114Y-81524837D01*
X142205626Y-81589475D01*
X142131119Y-81644628D01*
X142045448Y-81693339D01*
X142136260Y-81746589D01*
X142222402Y-81807996D01*
X142298742Y-81879293D01*
X142359285Y-81961121D01*
X142388414Y-82021544D01*
X142406302Y-82089033D01*
X142412500Y-82165109D01*
X142403515Y-82260242D01*
X142377522Y-82344155D01*
X142334815Y-82419107D01*
X142277507Y-82484250D01*
X142206421Y-82539591D01*
X142119607Y-82585375D01*
X142026170Y-82617208D01*
X141920429Y-82637162D01*
X141800427Y-82644146D01*
X141670439Y-82637245D01*
X141560193Y-82617900D01*
X141466822Y-82587726D01*
X141380273Y-82543294D01*
X141311383Y-82489533D01*
X141257704Y-82426266D01*
X141218523Y-82353245D01*
X141194407Y-82270172D01*
X141186004Y-82174727D01*
X141188146Y-82153783D01*
X141527837Y-82153783D01*
X141535531Y-82214150D01*
X141557844Y-82265756D01*
X141595370Y-82310755D01*
X141644112Y-82343519D01*
X141709212Y-82364841D01*
X141795619Y-82372731D01*
X141885560Y-82365032D01*
X141952265Y-82344426D01*
X142001210Y-82313212D01*
X142038905Y-82269543D01*
X142061509Y-82218006D01*
X142069384Y-82156134D01*
X142059527Y-82092607D01*
X142030489Y-82038271D01*
X141987412Y-81990904D01*
X141933143Y-81947443D01*
X141814746Y-81872216D01*
X141782475Y-81855333D01*
X141709489Y-81893178D01*
X141649119Y-81933552D01*
X141597818Y-81980298D01*
X141560107Y-82031005D01*
X141536074Y-82088147D01*
X141527837Y-82153783D01*
X141188146Y-82153783D01*
X141197732Y-82060067D01*
X141230776Y-81965929D01*
X141283541Y-81883224D01*
X141352165Y-81812804D01*
X141432268Y-81753414D01*
X141520677Y-81702956D01*
X141446170Y-81650218D01*
X141378986Y-81591291D01*
X141321600Y-81524329D01*
X141277366Y-81448425D01*
X141249539Y-81363839D01*
X141242495Y-81291666D01*
X141587676Y-81291666D01*
X141595200Y-81348815D01*
X141616955Y-81397027D01*
X141650572Y-81438838D01*
X141694639Y-81475887D01*
X141800427Y-81538398D01*
X141903223Y-81479413D01*
X141946854Y-81443340D01*
X141980907Y-81401194D01*
X142003053Y-81352009D01*
X142010827Y-81291666D01*
X142003743Y-81237629D01*
X141983676Y-81194361D01*
X141950453Y-81159272D01*
X141883967Y-81124650D01*
X141798076Y-81112362D01*
X141713215Y-81124634D01*
X141647409Y-81159272D01*
X141614572Y-81194311D01*
X141594699Y-81237578D01*
X141587676Y-81291666D01*
X141242495Y-81291666D01*
X141239752Y-81263563D01*
X141248931Y-81173522D01*
X141275192Y-81096801D01*
X141318078Y-81030617D01*
X141374798Y-80974174D01*
X141443002Y-80927201D01*
X141524311Y-80889566D01*
X141655898Y-80854224D01*
X141800427Y-80842122D01*
X141947040Y-80854128D01*
G37*
D14*
G36*
X156511111Y-52710162D02*
G01*
X156002964Y-54711000D01*
X155520584Y-54711000D01*
X155250085Y-53660023D01*
X155228226Y-53568309D01*
X155199527Y-53433487D01*
X155172905Y-53295246D01*
X155157151Y-53191931D01*
X155141519Y-53294635D01*
X155115508Y-53431411D01*
X155087542Y-53566966D01*
X155065682Y-53662709D01*
X154796526Y-54711000D01*
X154315612Y-54711000D01*
X153806000Y-52710162D01*
X154222678Y-52710162D01*
X154478156Y-53802294D01*
X154503435Y-53920019D01*
X154532133Y-54063023D01*
X154558145Y-54206638D01*
X154575242Y-54326439D01*
X154592950Y-54205295D01*
X154616886Y-54064367D01*
X154643508Y-53931010D01*
X154668055Y-53830993D01*
X154959070Y-52710162D01*
X155359384Y-52710162D01*
X155650399Y-53830993D01*
X155672870Y-53930277D01*
X155699614Y-54065099D01*
X155724893Y-54206638D01*
X155741990Y-54326439D01*
X155768613Y-54160232D01*
X155805494Y-53965204D01*
X155840298Y-53802294D01*
X156094433Y-52710162D01*
X156511111Y-52710162D01*
G37*
G36*
X157792512Y-52689774D02*
G01*
X157934389Y-52715015D01*
X158057097Y-52754805D01*
X158163292Y-52808103D01*
X158261402Y-52878245D01*
X158345407Y-52960700D01*
X158416364Y-53056349D01*
X158474702Y-53166652D01*
X158529742Y-53323999D01*
X158564378Y-53503831D01*
X158576551Y-53709848D01*
X158569827Y-53863290D01*
X158550395Y-54003092D01*
X158519154Y-54130678D01*
X158473466Y-54253148D01*
X158415392Y-54361438D01*
X158345009Y-54457109D01*
X158261163Y-54540474D01*
X158163139Y-54610371D01*
X158049230Y-54667158D01*
X157927735Y-54706537D01*
X157787559Y-54731495D01*
X157625713Y-54740309D01*
X157463785Y-54731493D01*
X157323571Y-54706534D01*
X157202074Y-54667158D01*
X157088239Y-54610382D01*
X156990211Y-54540486D01*
X156906296Y-54457109D01*
X156836005Y-54361433D01*
X156777924Y-54252949D01*
X156732151Y-54130068D01*
X156700920Y-54001996D01*
X156681483Y-53861510D01*
X156674871Y-53709848D01*
X157118787Y-53709848D01*
X157125206Y-53849101D01*
X157143253Y-53968517D01*
X157171422Y-54070717D01*
X157214451Y-54166206D01*
X157269269Y-54242930D01*
X157336041Y-54303602D01*
X157414544Y-54347436D01*
X157509756Y-54375148D01*
X157625713Y-54385057D01*
X157743499Y-54375097D01*
X157839531Y-54347338D01*
X157918072Y-54303602D01*
X157984724Y-54242890D01*
X158039047Y-54166173D01*
X158081226Y-54070717D01*
X158108662Y-53968586D01*
X158126257Y-53849166D01*
X158132517Y-53709848D01*
X158123958Y-53549599D01*
X158100159Y-53416230D01*
X158063378Y-53305606D01*
X158015036Y-53214157D01*
X157949034Y-53136982D01*
X157865448Y-53081287D01*
X157760519Y-53046021D01*
X157628400Y-53033295D01*
X157511616Y-53043226D01*
X157415762Y-53070987D01*
X157336774Y-53114872D01*
X157269560Y-53175525D01*
X157214509Y-53252212D01*
X157171422Y-53347636D01*
X157143281Y-53449838D01*
X157125220Y-53569670D01*
X157118787Y-53709848D01*
X156674871Y-53709848D01*
X156674754Y-53707161D01*
X156686907Y-53501965D01*
X156721498Y-53322778D01*
X156776481Y-53165919D01*
X156834891Y-53056120D01*
X156906201Y-52960735D01*
X156990891Y-52878342D01*
X157090089Y-52808103D01*
X157197295Y-52754778D01*
X157320936Y-52714987D01*
X157463631Y-52689762D01*
X157628400Y-52680853D01*
X157792512Y-52689774D01*
G37*
G36*
X159754257Y-52718466D02*
G01*
X159902109Y-52741287D01*
X160021858Y-52775986D01*
X160132995Y-52829309D01*
X160219412Y-52895512D01*
X160284907Y-52974799D01*
X160331236Y-53067181D01*
X160360552Y-53177770D01*
X160371003Y-53310633D01*
X160357454Y-53441815D01*
X160319101Y-53550602D01*
X160258662Y-53645964D01*
X160182448Y-53724747D01*
X160094048Y-53789696D01*
X159999387Y-53841251D01*
X160586914Y-54711000D01*
X160116868Y-54711000D01*
X159640106Y-53945054D01*
X159414670Y-53945054D01*
X159414670Y-54711000D01*
X158991153Y-54711000D01*
X158991153Y-53600794D01*
X159414670Y-53600794D01*
X159551202Y-53600794D01*
X159690755Y-53591063D01*
X159787469Y-53565982D01*
X159852475Y-53529963D01*
X159901998Y-53476708D01*
X159932430Y-53408735D01*
X159943334Y-53321380D01*
X159931367Y-53231308D01*
X159898609Y-53165493D01*
X159845637Y-53117681D01*
X159777337Y-53086779D01*
X159679522Y-53065339D01*
X159543020Y-53057109D01*
X159414670Y-53057109D01*
X159414670Y-53600794D01*
X158991153Y-53600794D01*
X158991153Y-52710162D01*
X159573062Y-52710162D01*
X159754257Y-52718466D01*
G37*
G36*
X162446212Y-54711000D02*
G01*
X161965298Y-54711000D01*
X161442008Y-53867995D01*
X161263100Y-53996589D01*
X161263100Y-54711000D01*
X160839583Y-54711000D01*
X160839583Y-52710162D01*
X161263100Y-52710162D01*
X161263100Y-53625706D01*
X161346387Y-53507981D01*
X161429796Y-53390378D01*
X161970794Y-52710162D01*
X162440717Y-52710162D01*
X161744014Y-53595665D01*
X162446212Y-54711000D01*
G37*
D15*
G36*
X100845111Y-77667244D02*
G01*
X100899458Y-77692846D01*
X100944737Y-77735729D01*
X100978811Y-77790413D01*
X101008191Y-77865561D01*
X101031443Y-77966417D01*
X101050285Y-78129129D01*
X101057455Y-78348535D01*
X101050269Y-78569036D01*
X101031443Y-78731385D01*
X101008165Y-78831732D01*
X100978782Y-78906197D01*
X100944737Y-78960119D01*
X100899570Y-79002115D01*
X100845223Y-79027276D01*
X100778774Y-79036078D01*
X100711428Y-79027151D01*
X100656849Y-79001721D01*
X100611956Y-78959386D01*
X100578346Y-78905140D01*
X100549409Y-78830451D01*
X100526593Y-78730042D01*
X100508288Y-78567861D01*
X100501314Y-78348535D01*
X100508282Y-78129131D01*
X100526593Y-77966417D01*
X100549407Y-77865501D01*
X100578345Y-77790363D01*
X100611956Y-77735729D01*
X100656905Y-77692951D01*
X100711485Y-77667300D01*
X100778774Y-77658304D01*
X100845111Y-77667244D01*
G37*
G36*
X105790476Y-79598531D02*
G01*
X99859727Y-79598531D01*
X99859727Y-78348657D01*
X100081949Y-78348657D01*
X100090993Y-78562685D01*
X100116341Y-78745360D01*
X100155710Y-78900768D01*
X100216407Y-79047389D01*
X100292567Y-79163470D01*
X100383833Y-79253821D01*
X100463743Y-79305987D01*
X100554805Y-79344110D01*
X100658997Y-79367948D01*
X100778774Y-79376309D01*
X100904737Y-79367891D01*
X101012109Y-79344132D01*
X101103861Y-79306577D01*
X101187224Y-79253203D01*
X101259090Y-79186096D01*
X101320382Y-79103978D01*
X101368903Y-79012650D01*
X101408010Y-78909072D01*
X101687724Y-78909072D01*
X101687724Y-79268353D01*
X101816721Y-79315757D01*
X101956147Y-79349686D01*
X102102005Y-79369431D01*
X102264259Y-79376309D01*
X102450238Y-79366281D01*
X102555686Y-79347000D01*
X103432839Y-79347000D01*
X103811171Y-79347000D01*
X103811171Y-78416312D01*
X103805675Y-78186480D01*
X103794074Y-77946267D01*
X103785281Y-77777251D01*
X103797615Y-77777251D01*
X104278530Y-79347000D01*
X104666509Y-79347000D01*
X105181618Y-77779937D01*
X105193830Y-77779937D01*
X105185648Y-77947610D01*
X105176733Y-78182327D01*
X105173313Y-78399948D01*
X105173313Y-79347000D01*
X105568254Y-79347000D01*
X105568254Y-77346162D01*
X104991597Y-77346162D01*
X104490288Y-78876221D01*
X104482106Y-78876221D01*
X104009374Y-77346162D01*
X103432839Y-77346162D01*
X103432839Y-79347000D01*
X102555686Y-79347000D01*
X102600772Y-79338756D01*
X102721848Y-79296808D01*
X102833317Y-79234947D01*
X102919800Y-79162297D01*
X102984897Y-79078577D01*
X103031950Y-78983041D01*
X103060483Y-78878985D01*
X103070260Y-78764358D01*
X103061846Y-78667209D01*
X103037852Y-78583813D01*
X102999142Y-78511621D01*
X102945208Y-78448796D01*
X102855111Y-78383164D01*
X102735786Y-78332977D01*
X102579821Y-78300541D01*
X102579821Y-78292359D01*
X102696382Y-78253344D01*
X102799151Y-78197959D01*
X102886797Y-78124322D01*
X102954123Y-78032362D01*
X102985339Y-77962747D01*
X103004740Y-77883591D01*
X103011520Y-77793004D01*
X102999739Y-77683611D01*
X102965990Y-77590685D01*
X102910595Y-77510651D01*
X102831147Y-77441417D01*
X102739403Y-77389785D01*
X102629617Y-77350841D01*
X102498467Y-77325813D01*
X102342050Y-77316853D01*
X102196847Y-77323683D01*
X102072305Y-77342896D01*
X101965672Y-77372907D01*
X101815477Y-77437319D01*
X101690410Y-77513591D01*
X101885805Y-77804606D01*
X101996447Y-77739759D01*
X102061978Y-77709135D01*
X102137863Y-77682362D01*
X102218997Y-77664642D01*
X102312008Y-77658427D01*
X102412638Y-77666569D01*
X102482846Y-77687739D01*
X102530606Y-77718755D01*
X102566296Y-77762800D01*
X102588329Y-77817437D01*
X102596185Y-77885817D01*
X102587250Y-77960598D01*
X102561380Y-78024913D01*
X102514423Y-78076940D01*
X102430222Y-78120778D01*
X102322603Y-78145567D01*
X102149465Y-78155705D01*
X101995103Y-78155705D01*
X101995103Y-78479449D01*
X102146778Y-78479449D01*
X102323481Y-78488134D01*
X102438404Y-78509735D01*
X102531394Y-78549367D01*
X102585316Y-78597907D01*
X102616670Y-78660908D01*
X102627692Y-78739812D01*
X102616831Y-78831288D01*
X102586360Y-78904043D01*
X102536834Y-78962439D01*
X102470815Y-79002490D01*
X102369405Y-79030574D01*
X102219196Y-79041574D01*
X102095696Y-79033578D01*
X101956757Y-79008113D01*
X101819104Y-78966602D01*
X101687724Y-78909072D01*
X101408010Y-78909072D01*
X101409260Y-78905760D01*
X101440672Y-78781089D01*
X101468324Y-78584165D01*
X101478285Y-78348657D01*
X101469026Y-78131835D01*
X101443143Y-77947880D01*
X101403059Y-77792394D01*
X101341523Y-77645805D01*
X101264679Y-77529711D01*
X101172860Y-77439341D01*
X101092633Y-77387099D01*
X101001565Y-77348981D01*
X100897739Y-77325186D01*
X100778774Y-77316853D01*
X100650719Y-77325476D01*
X100541898Y-77349790D01*
X100449215Y-77388182D01*
X100370156Y-77440073D01*
X100280183Y-77530843D01*
X100206494Y-77647102D01*
X100149482Y-77793737D01*
X100113540Y-77948849D01*
X100090277Y-78132414D01*
X100081954Y-78348535D01*
X100081949Y-78348657D01*
X99859727Y-78348657D01*
X99859727Y-77094631D01*
X105790476Y-77094631D01*
X105790476Y-79598531D01*
G37*
D16*
G36*
X154411150Y-82618501D02*
G01*
X154041748Y-82618501D01*
X154041748Y-81604969D01*
X154042923Y-81501318D01*
X154046449Y-81374266D01*
X154051258Y-81256297D01*
X153998044Y-81309405D01*
X153923351Y-81376831D01*
X153722568Y-81537970D01*
X153544439Y-81315602D01*
X154107464Y-80867768D01*
X154411150Y-80867768D01*
X154411150Y-82618501D01*
G37*
G36*
X155602293Y-80849414D02*
G01*
X155693141Y-80870234D01*
X155772825Y-80903588D01*
X155843024Y-80949299D01*
X155923365Y-81028373D01*
X155990604Y-81129955D01*
X156044448Y-81258220D01*
X156079522Y-81394271D01*
X156102169Y-81555232D01*
X156110271Y-81744951D01*
X156101554Y-81951020D01*
X156077359Y-82123329D01*
X156049874Y-82232416D01*
X156014562Y-82325944D01*
X155972106Y-82405857D01*
X155918475Y-82477710D01*
X155855593Y-82536429D01*
X155782650Y-82583131D01*
X155702366Y-82615991D01*
X155608416Y-82636780D01*
X155498198Y-82644146D01*
X155393393Y-82636830D01*
X155302226Y-82615972D01*
X155222546Y-82582615D01*
X155152625Y-82536969D01*
X155072767Y-82457912D01*
X155006127Y-82356341D01*
X154953018Y-82228048D01*
X154918570Y-82092066D01*
X154896390Y-81932225D01*
X154888477Y-81744951D01*
X154888481Y-81744844D01*
X155255421Y-81744844D01*
X155261523Y-81936754D01*
X155277540Y-82078663D01*
X155297504Y-82166520D01*
X155322824Y-82231873D01*
X155352233Y-82279339D01*
X155391514Y-82316382D01*
X155439271Y-82338633D01*
X155498198Y-82346444D01*
X155556342Y-82338743D01*
X155603895Y-82316727D01*
X155643416Y-82279980D01*
X155673206Y-82232798D01*
X155698916Y-82167642D01*
X155719284Y-82079838D01*
X155735757Y-81937782D01*
X155742044Y-81744844D01*
X155735771Y-81552864D01*
X155719284Y-81410491D01*
X155698938Y-81322241D01*
X155673231Y-81256488D01*
X155643416Y-81208639D01*
X155603797Y-81171117D01*
X155556243Y-81148714D01*
X155498198Y-81140892D01*
X155439321Y-81148764D01*
X155391563Y-81171208D01*
X155352233Y-81208639D01*
X155322824Y-81256443D01*
X155297502Y-81322189D01*
X155277540Y-81410491D01*
X155261518Y-81552865D01*
X155255421Y-81744844D01*
X154888481Y-81744844D01*
X154895764Y-81555738D01*
X154916119Y-81395119D01*
X154947568Y-81259396D01*
X154997453Y-81131090D01*
X155061931Y-81029364D01*
X155140657Y-80949940D01*
X155209834Y-80904536D01*
X155290932Y-80870942D01*
X155386151Y-80849668D01*
X155498198Y-80842122D01*
X155602293Y-80849414D01*
G37*
D14*
G36*
X147282688Y-43844233D02*
G01*
X147371361Y-43860009D01*
X147448054Y-43884878D01*
X147514426Y-43918189D01*
X147575745Y-43962028D01*
X147628247Y-44013563D01*
X147672596Y-44073343D01*
X147709057Y-44142282D01*
X147743457Y-44240624D01*
X147765105Y-44353019D01*
X147772712Y-44481780D01*
X147768510Y-44577681D01*
X147756365Y-44665057D01*
X147736839Y-44744799D01*
X147708284Y-44821342D01*
X147671988Y-44889023D01*
X147627998Y-44948818D01*
X147575595Y-45000921D01*
X147514330Y-45044607D01*
X147443137Y-45080099D01*
X147367202Y-45104710D01*
X147279592Y-45120309D01*
X147178439Y-45125818D01*
X147077233Y-45120308D01*
X146989600Y-45104709D01*
X146913664Y-45080099D01*
X146842517Y-45044614D01*
X146781250Y-45000929D01*
X146728803Y-44948818D01*
X146684871Y-44889020D01*
X146648571Y-44821218D01*
X146619962Y-44744417D01*
X146600443Y-44664373D01*
X146588295Y-44576569D01*
X146584162Y-44481780D01*
X146861610Y-44481780D01*
X146865622Y-44568813D01*
X146876901Y-44643448D01*
X146894507Y-44707323D01*
X146921400Y-44767003D01*
X146955661Y-44814956D01*
X146997394Y-44852876D01*
X147046458Y-44880272D01*
X147105966Y-44897592D01*
X147178439Y-44903786D01*
X147252055Y-44897561D01*
X147312075Y-44880211D01*
X147361163Y-44852876D01*
X147402820Y-44814931D01*
X147436773Y-44766983D01*
X147463135Y-44707323D01*
X147480282Y-44643491D01*
X147491279Y-44568854D01*
X147495191Y-44481780D01*
X147489842Y-44381624D01*
X147474967Y-44298268D01*
X147451980Y-44229129D01*
X147421766Y-44171973D01*
X147380514Y-44123738D01*
X147328273Y-44088929D01*
X147262692Y-44066888D01*
X147180118Y-44058934D01*
X147107128Y-44065141D01*
X147047220Y-44082492D01*
X146997852Y-44109920D01*
X146955843Y-44147828D01*
X146921436Y-44195757D01*
X146894507Y-44255397D01*
X146876919Y-44319274D01*
X146865631Y-44394169D01*
X146861610Y-44481780D01*
X146584162Y-44481780D01*
X146584089Y-44480101D01*
X146591685Y-44351853D01*
X146613304Y-44239861D01*
X146647669Y-44141824D01*
X146684175Y-44073200D01*
X146728743Y-44013584D01*
X146781675Y-43962088D01*
X146843674Y-43918189D01*
X146910677Y-43884861D01*
X146987953Y-43859992D01*
X147077137Y-43844226D01*
X147180118Y-43838658D01*
X147282688Y-43844233D01*
G37*
G36*
X149139327Y-45107500D02*
G01*
X148802883Y-45107500D01*
X148259824Y-44161516D01*
X148252115Y-44161516D01*
X148258069Y-44280432D01*
X148263183Y-44399730D01*
X148268296Y-44519027D01*
X148268296Y-45107500D01*
X148031839Y-45107500D01*
X148031839Y-43856976D01*
X148365688Y-43856976D01*
X148907907Y-44793571D01*
X148913861Y-44793571D01*
X148909586Y-44678090D01*
X148904931Y-44563525D01*
X148901038Y-44448883D01*
X148901038Y-43856976D01*
X149139327Y-43856976D01*
X149139327Y-45107500D01*
G37*
G36*
X150011274Y-43856976D02*
G01*
X149545915Y-45107500D01*
X149309381Y-45107500D01*
X149774740Y-43856976D01*
X150011274Y-43856976D01*
G37*
G36*
X150819324Y-43844233D02*
G01*
X150907998Y-43860009D01*
X150984690Y-43884878D01*
X151051062Y-43918189D01*
X151112381Y-43962028D01*
X151164884Y-44013563D01*
X151209232Y-44073343D01*
X151245693Y-44142282D01*
X151280093Y-44240624D01*
X151301741Y-44353019D01*
X151309349Y-44481780D01*
X151305146Y-44577681D01*
X151293002Y-44665057D01*
X151273476Y-44744799D01*
X151244921Y-44821342D01*
X151208625Y-44889023D01*
X151164635Y-44948818D01*
X151112231Y-45000921D01*
X151050966Y-45044607D01*
X150979774Y-45080099D01*
X150903839Y-45104710D01*
X150816229Y-45120309D01*
X150715075Y-45125818D01*
X150613870Y-45120308D01*
X150526236Y-45104709D01*
X150450301Y-45080099D01*
X150379154Y-45044614D01*
X150317886Y-45000929D01*
X150265440Y-44948818D01*
X150221507Y-44889020D01*
X150185207Y-44821218D01*
X150156599Y-44744417D01*
X150137080Y-44664373D01*
X150124932Y-44576569D01*
X150120799Y-44481780D01*
X150398247Y-44481780D01*
X150402258Y-44568813D01*
X150413537Y-44643448D01*
X150431143Y-44707323D01*
X150458037Y-44767003D01*
X150492298Y-44814956D01*
X150534030Y-44852876D01*
X150583095Y-44880272D01*
X150642602Y-44897592D01*
X150715075Y-44903786D01*
X150788691Y-44897561D01*
X150848711Y-44880211D01*
X150897800Y-44852876D01*
X150939457Y-44814931D01*
X150973409Y-44766983D01*
X150999771Y-44707323D01*
X151016918Y-44643491D01*
X151027915Y-44568854D01*
X151031828Y-44481780D01*
X151026478Y-44381624D01*
X151011604Y-44298268D01*
X150988616Y-44229129D01*
X150958402Y-44171973D01*
X150917150Y-44123738D01*
X150864909Y-44088929D01*
X150799329Y-44066888D01*
X150716755Y-44058934D01*
X150643765Y-44065141D01*
X150583856Y-44082492D01*
X150534488Y-44109920D01*
X150492480Y-44147828D01*
X150458072Y-44195757D01*
X150431143Y-44255397D01*
X150413555Y-44319274D01*
X150402267Y-44394169D01*
X150398247Y-44481780D01*
X150120799Y-44481780D01*
X150120726Y-44480101D01*
X150128321Y-44351853D01*
X150149941Y-44239861D01*
X150184305Y-44141824D01*
X150220812Y-44073200D01*
X150265380Y-44013584D01*
X150318312Y-43962088D01*
X150380310Y-43918189D01*
X150447314Y-43884861D01*
X150524589Y-43859992D01*
X150613774Y-43844226D01*
X150716755Y-43838658D01*
X150819324Y-43844233D01*
G37*
G36*
X151828899Y-45107500D02*
G01*
X151568475Y-45107500D01*
X151568475Y-43856976D01*
X152284030Y-43856976D01*
X152284030Y-44073818D01*
X151828899Y-44073818D01*
X151828899Y-44398050D01*
X152252431Y-44398050D01*
X152252431Y-44614129D01*
X151828899Y-44614129D01*
X151828899Y-45107500D01*
G37*
G36*
X152788773Y-45107500D02*
G01*
X152528350Y-45107500D01*
X152528350Y-43856976D01*
X153243905Y-43856976D01*
X153243905Y-44073818D01*
X152788773Y-44073818D01*
X152788773Y-44398050D01*
X153212306Y-44398050D01*
X153212306Y-44614129D01*
X152788773Y-44614129D01*
X152788773Y-45107500D01*
G37*
D15*
G36*
X164288504Y-79598531D02*
G01*
X158331743Y-79598531D01*
X158331743Y-77701413D01*
X158553965Y-77701413D01*
X159539119Y-77701413D01*
X158789049Y-79347000D01*
X159231617Y-79347000D01*
X159424628Y-78903577D01*
X160215794Y-78903577D01*
X160215794Y-79268353D01*
X160325457Y-79315083D01*
X160458205Y-79349686D01*
X160599565Y-79369474D01*
X160754105Y-79376309D01*
X160928573Y-79366038D01*
X161025258Y-79347000D01*
X161930867Y-79347000D01*
X162309199Y-79347000D01*
X162309199Y-78416312D01*
X162303703Y-78186480D01*
X162292102Y-77946267D01*
X162283309Y-77777251D01*
X162295643Y-77777251D01*
X162776558Y-79347000D01*
X163164537Y-79347000D01*
X163679646Y-77779937D01*
X163691858Y-77779937D01*
X163683676Y-77947610D01*
X163674761Y-78182327D01*
X163671341Y-78399948D01*
X163671341Y-79347000D01*
X164066282Y-79347000D01*
X164066282Y-77346162D01*
X163489625Y-77346162D01*
X162988316Y-78876221D01*
X162980134Y-78876221D01*
X162507402Y-77346162D01*
X161930867Y-77346162D01*
X161930867Y-79347000D01*
X161025258Y-79347000D01*
X161073845Y-79337433D01*
X161194597Y-79293022D01*
X161304539Y-79228081D01*
X161392491Y-79148496D01*
X161461066Y-79053297D01*
X161509687Y-78945647D01*
X161539972Y-78822558D01*
X161550581Y-78680949D01*
X161540701Y-78551064D01*
X161512810Y-78441132D01*
X161468515Y-78347680D01*
X161406972Y-78264599D01*
X161332524Y-78196688D01*
X161243812Y-78142760D01*
X161146400Y-78104691D01*
X161038418Y-78081175D01*
X160917992Y-78073029D01*
X160764974Y-78082676D01*
X160663857Y-78101727D01*
X160700738Y-77704100D01*
X161413927Y-77704100D01*
X161413927Y-77346162D01*
X160330588Y-77346162D01*
X160255361Y-78369540D01*
X160423400Y-78459665D01*
X160563473Y-78429623D01*
X160725406Y-78414602D01*
X160859464Y-78424892D01*
X160957205Y-78452102D01*
X161027290Y-78492516D01*
X161081128Y-78550689D01*
X161114010Y-78623782D01*
X161125720Y-78716487D01*
X161113815Y-78819179D01*
X161081268Y-78896127D01*
X161027262Y-78956565D01*
X160950720Y-78999930D01*
X160859074Y-79024338D01*
X160739084Y-79033392D01*
X160609067Y-79024359D01*
X160465043Y-78995778D01*
X160325959Y-78952415D01*
X160215794Y-78903577D01*
X159424628Y-78903577D01*
X159987182Y-77611166D01*
X159987182Y-77346162D01*
X158553965Y-77346162D01*
X158553965Y-77701413D01*
X158331743Y-77701413D01*
X158331743Y-77123940D01*
X164288504Y-77123940D01*
X164288504Y-79598531D01*
G37*
D16*
G36*
X134921292Y-82618501D02*
G01*
X135577603Y-81178613D01*
X134715594Y-81178613D01*
X134715594Y-80867768D01*
X135969659Y-80867768D01*
X135969659Y-81099646D01*
X135308539Y-82618501D01*
X134921292Y-82618501D01*
G37*
D15*
G36*
X138289462Y-79598531D02*
G01*
X132364209Y-79598531D01*
X132364209Y-77602373D01*
X132586431Y-77602373D01*
X132815897Y-77874215D01*
X132935894Y-77784821D01*
X133044019Y-77722662D01*
X133155665Y-77682487D01*
X133269456Y-77669295D01*
X133341062Y-77676494D01*
X133399078Y-77696648D01*
X133446410Y-77728891D01*
X133481926Y-77772903D01*
X133504474Y-77831021D01*
X133512722Y-77907676D01*
X133502208Y-78003587D01*
X133470956Y-78092690D01*
X133419980Y-78178913D01*
X133337111Y-78283933D01*
X133093234Y-78544906D01*
X132591804Y-79053297D01*
X132591804Y-79347000D01*
X133988140Y-79347000D01*
X133988140Y-78991748D01*
X133117903Y-78991748D01*
X133117903Y-78972697D01*
X133191132Y-78903577D01*
X134216752Y-78903577D01*
X134216752Y-79268353D01*
X134326415Y-79315083D01*
X134459163Y-79349686D01*
X134600523Y-79369474D01*
X134755063Y-79376309D01*
X134929531Y-79366038D01*
X135026216Y-79347000D01*
X135931825Y-79347000D01*
X136310157Y-79347000D01*
X136310157Y-78416312D01*
X136304661Y-78186480D01*
X136293060Y-77946267D01*
X136284267Y-77777251D01*
X136296601Y-77777251D01*
X136777516Y-79347000D01*
X137165495Y-79347000D01*
X137680604Y-77779937D01*
X137692816Y-77779937D01*
X137684634Y-77947610D01*
X137675719Y-78182327D01*
X137672299Y-78399948D01*
X137672299Y-79347000D01*
X138067240Y-79347000D01*
X138067240Y-77346162D01*
X137490583Y-77346162D01*
X136989274Y-78876221D01*
X136981092Y-78876221D01*
X136508360Y-77346162D01*
X135931825Y-77346162D01*
X135931825Y-79347000D01*
X135026216Y-79347000D01*
X135074803Y-79337433D01*
X135195555Y-79293022D01*
X135305497Y-79228081D01*
X135393449Y-79148496D01*
X135462024Y-79053297D01*
X135510645Y-78945647D01*
X135540930Y-78822558D01*
X135551539Y-78680949D01*
X135541659Y-78551064D01*
X135513768Y-78441132D01*
X135469473Y-78347680D01*
X135407930Y-78264599D01*
X135333482Y-78196688D01*
X135244770Y-78142760D01*
X135147358Y-78104691D01*
X135039376Y-78081175D01*
X134918950Y-78073029D01*
X134765932Y-78082676D01*
X134664815Y-78101727D01*
X134701696Y-77704100D01*
X135414885Y-77704100D01*
X135414885Y-77346162D01*
X134331546Y-77346162D01*
X134256319Y-78369540D01*
X134424358Y-78459665D01*
X134564431Y-78429623D01*
X134726364Y-78414602D01*
X134860422Y-78424892D01*
X134958163Y-78452102D01*
X135028248Y-78492516D01*
X135082086Y-78550689D01*
X135114968Y-78623782D01*
X135126678Y-78716487D01*
X135114773Y-78819179D01*
X135082226Y-78896127D01*
X135028220Y-78956565D01*
X134951678Y-78999930D01*
X134860032Y-79024338D01*
X134740042Y-79033392D01*
X134610025Y-79024359D01*
X134466001Y-78995778D01*
X134326917Y-78952415D01*
X134216752Y-78903577D01*
X133191132Y-78903577D01*
X133374724Y-78730286D01*
X133543204Y-78569437D01*
X133675876Y-78433043D01*
X133788346Y-78294895D01*
X133866507Y-78161933D01*
X133902577Y-78068611D01*
X133924564Y-77968154D01*
X133932086Y-77859194D01*
X133923338Y-77758261D01*
X133897769Y-77666419D01*
X133855516Y-77581856D01*
X133798142Y-77506701D01*
X133726134Y-77442280D01*
X133637652Y-77388050D01*
X133540979Y-77349602D01*
X133429223Y-77325390D01*
X133299620Y-77316853D01*
X133127599Y-77327709D01*
X132992851Y-77357153D01*
X132871016Y-77404693D01*
X132768758Y-77463032D01*
X132586431Y-77602373D01*
X132364209Y-77602373D01*
X132364209Y-77094631D01*
X138289462Y-77094631D01*
X138289462Y-79598531D01*
G37*
D16*
G36*
X148413434Y-80853888D02*
G01*
X148532795Y-80888391D01*
X148606678Y-80924483D01*
X148674398Y-80971341D01*
X148736570Y-81029655D01*
X148789530Y-81096607D01*
X148835249Y-81176163D01*
X148873453Y-81270082D01*
X148899774Y-81368228D01*
X148916557Y-81481682D01*
X148922500Y-81612663D01*
X148916963Y-81763668D01*
X148900380Y-81913249D01*
X148869778Y-82058885D01*
X148823230Y-82193961D01*
X148757181Y-82318159D01*
X148669037Y-82427228D01*
X148598635Y-82488777D01*
X148515152Y-82541888D01*
X148416856Y-82586444D01*
X148313250Y-82617250D01*
X148190724Y-82637066D01*
X148046172Y-82644146D01*
X147925424Y-82639979D01*
X147810767Y-82627370D01*
X147810767Y-82330950D01*
X147912281Y-82349436D01*
X148021167Y-82356062D01*
X148166236Y-82346962D01*
X148276358Y-82322617D01*
X148358833Y-82286391D01*
X148430931Y-82233269D01*
X148486159Y-82169183D01*
X148526170Y-82092768D01*
X148563549Y-81962944D01*
X148581735Y-81806607D01*
X148567416Y-81806607D01*
X148529565Y-81861255D01*
X148485564Y-81910044D01*
X148433131Y-81950564D01*
X148365351Y-81983026D01*
X148287092Y-82002471D01*
X148180062Y-82009847D01*
X148082266Y-82002161D01*
X147996280Y-81980079D01*
X147920081Y-81944344D01*
X147852489Y-81894580D01*
X147795720Y-81831800D01*
X147749111Y-81754354D01*
X147716647Y-81669294D01*
X147696045Y-81569731D01*
X147688737Y-81453019D01*
X147689068Y-81448211D01*
X148046172Y-81448211D01*
X148053423Y-81531869D01*
X148073441Y-81598439D01*
X148104729Y-81651451D01*
X148148901Y-81692032D01*
X148206833Y-81717304D01*
X148282965Y-81726465D01*
X148361382Y-81716905D01*
X148426366Y-81689599D01*
X148481105Y-81647343D01*
X148521361Y-81596421D01*
X148547143Y-81538700D01*
X148555448Y-81480909D01*
X148551270Y-81419584D01*
X148538672Y-81358665D01*
X148517663Y-81300592D01*
X148488556Y-81248603D01*
X148450909Y-81203722D01*
X148405422Y-81168782D01*
X148352695Y-81146337D01*
X148290124Y-81138541D01*
X148221708Y-81147160D01*
X148163969Y-81172009D01*
X148114346Y-81213555D01*
X148078791Y-81267849D01*
X148055103Y-81343729D01*
X148046172Y-81448211D01*
X147689068Y-81448211D01*
X147697401Y-81327260D01*
X147721981Y-81218983D01*
X147761079Y-81125398D01*
X147816463Y-81040991D01*
X147884811Y-80971496D01*
X147967312Y-80915533D01*
X148059223Y-80875628D01*
X148163637Y-80850800D01*
X148282965Y-80842122D01*
X148413434Y-80853888D01*
G37*
D15*
G36*
X165831745Y-77664526D02*
G01*
X165892004Y-77690178D01*
X165943989Y-77730110D01*
X165987015Y-77781403D01*
X166020280Y-77840818D01*
X166044290Y-77907188D01*
X166058688Y-77976810D01*
X166063463Y-78046895D01*
X166053972Y-78112942D01*
X166024506Y-78178908D01*
X165978499Y-78237106D01*
X165915940Y-78285398D01*
X165841673Y-78316605D01*
X165752053Y-78327530D01*
X165665045Y-78317061D01*
X165598837Y-78288179D01*
X165548355Y-78241801D01*
X165512598Y-78181214D01*
X165489720Y-78105135D01*
X165481432Y-78009526D01*
X165491640Y-77890118D01*
X165518711Y-77803398D01*
X165559346Y-77741347D01*
X165616057Y-77693866D01*
X165682045Y-77665467D01*
X165760235Y-77655618D01*
X165831745Y-77664526D01*
G37*
G36*
X167447368Y-77667244D02*
G01*
X167501716Y-77692846D01*
X167546994Y-77735729D01*
X167581068Y-77790413D01*
X167610448Y-77865561D01*
X167633700Y-77966417D01*
X167652542Y-78129129D01*
X167659712Y-78348535D01*
X167652526Y-78569036D01*
X167633700Y-78731385D01*
X167610422Y-78831732D01*
X167581039Y-78906197D01*
X167546994Y-78960119D01*
X167501827Y-79002115D01*
X167447481Y-79027276D01*
X167381031Y-79036078D01*
X167313685Y-79027151D01*
X167259106Y-79001721D01*
X167214213Y-78959386D01*
X167180603Y-78905140D01*
X167151666Y-78830451D01*
X167128850Y-78730042D01*
X167110545Y-78567861D01*
X167103571Y-78348535D01*
X167110539Y-78129131D01*
X167128850Y-77966417D01*
X167151664Y-77865501D01*
X167180603Y-77790363D01*
X167214213Y-77735729D01*
X167259162Y-77692951D01*
X167313742Y-77667300D01*
X167381031Y-77658304D01*
X167447368Y-77667244D01*
G37*
G36*
X170792454Y-79598531D02*
G01*
X164850714Y-79598531D01*
X164850714Y-78015021D01*
X165072936Y-78015021D01*
X165081287Y-78148406D01*
X165104832Y-78262192D01*
X165141935Y-78359404D01*
X165195201Y-78447913D01*
X165260081Y-78519662D01*
X165337329Y-78576535D01*
X165424414Y-78617375D01*
X165522684Y-78642611D01*
X165634450Y-78651396D01*
X165756770Y-78642966D01*
X165846209Y-78620743D01*
X165923671Y-78583643D01*
X165983596Y-78537334D01*
X166033882Y-78481576D01*
X166077141Y-78419121D01*
X166093505Y-78419121D01*
X166072721Y-78597792D01*
X166030002Y-78746162D01*
X165984275Y-78833493D01*
X165921157Y-78906735D01*
X165838760Y-78967446D01*
X165744502Y-79008847D01*
X165618649Y-79036669D01*
X165452856Y-79047069D01*
X165328414Y-79039498D01*
X165212399Y-79018371D01*
X165212399Y-79357136D01*
X165343435Y-79371546D01*
X165481432Y-79376309D01*
X165646636Y-79368218D01*
X165786665Y-79345571D01*
X165905071Y-79310363D01*
X166017410Y-79259443D01*
X166112819Y-79198744D01*
X166193278Y-79128402D01*
X166294015Y-79003752D01*
X166369499Y-78861811D01*
X166422697Y-78707439D01*
X166457671Y-78540998D01*
X166476622Y-78370048D01*
X166477406Y-78348657D01*
X166684206Y-78348657D01*
X166693250Y-78562685D01*
X166718598Y-78745360D01*
X166757968Y-78900768D01*
X166818664Y-79047389D01*
X166894824Y-79163470D01*
X166986090Y-79253821D01*
X167066000Y-79305987D01*
X167157062Y-79344110D01*
X167261254Y-79367948D01*
X167381031Y-79376309D01*
X167506994Y-79367891D01*
X167601405Y-79347000D01*
X168434817Y-79347000D01*
X168813149Y-79347000D01*
X168813149Y-78416312D01*
X168807653Y-78186480D01*
X168796052Y-77946267D01*
X168787259Y-77777251D01*
X168799593Y-77777251D01*
X169280508Y-79347000D01*
X169668487Y-79347000D01*
X170183596Y-77779937D01*
X170195808Y-77779937D01*
X170187626Y-77947610D01*
X170178711Y-78182327D01*
X170175291Y-78399948D01*
X170175291Y-79347000D01*
X170570232Y-79347000D01*
X170570232Y-77346162D01*
X169993575Y-77346162D01*
X169492266Y-78876221D01*
X169484084Y-78876221D01*
X169011352Y-77346162D01*
X168434817Y-77346162D01*
X168434817Y-79347000D01*
X167601405Y-79347000D01*
X167614366Y-79344132D01*
X167706118Y-79306577D01*
X167789482Y-79253203D01*
X167861347Y-79186096D01*
X167922640Y-79103978D01*
X167971160Y-79012650D01*
X168011517Y-78905760D01*
X168042929Y-78781089D01*
X168070581Y-78584165D01*
X168080543Y-78348657D01*
X168071283Y-78131835D01*
X168045400Y-77947880D01*
X168005316Y-77792394D01*
X167943780Y-77645805D01*
X167866936Y-77529711D01*
X167775117Y-77439341D01*
X167694890Y-77387099D01*
X167603822Y-77348981D01*
X167499996Y-77325186D01*
X167381031Y-77316853D01*
X167252976Y-77325476D01*
X167144155Y-77349790D01*
X167051472Y-77388182D01*
X166972413Y-77440073D01*
X166882440Y-77530843D01*
X166808751Y-77647102D01*
X166751739Y-77793737D01*
X166715797Y-77948849D01*
X166692535Y-78132414D01*
X166684211Y-78348535D01*
X166684206Y-78348657D01*
X166477406Y-78348657D01*
X166482950Y-78197471D01*
X166476159Y-78047778D01*
X166456978Y-77918117D01*
X166426896Y-77805949D01*
X166383235Y-77698614D01*
X166330985Y-77607693D01*
X166270459Y-77531176D01*
X166199405Y-77464531D01*
X166122011Y-77410979D01*
X166037573Y-77369732D01*
X165901160Y-77330299D01*
X165752053Y-77316853D01*
X165615678Y-77326771D01*
X165496348Y-77355145D01*
X165391307Y-77400750D01*
X165297021Y-77464708D01*
X165218908Y-77544132D01*
X165155612Y-77640597D01*
X165110928Y-77747550D01*
X165082837Y-77871296D01*
X165073315Y-78009526D01*
X165072936Y-78015021D01*
X164850714Y-78015021D01*
X164850714Y-77094631D01*
X170792454Y-77094631D01*
X170792454Y-79598531D01*
G37*
D16*
G36*
X122333873Y-81503776D02*
G01*
X122439246Y-81510904D01*
X122533730Y-81531481D01*
X122618966Y-81564791D01*
X122696589Y-81611978D01*
X122761730Y-81671400D01*
X122815581Y-81744096D01*
X122854339Y-81825867D01*
X122878744Y-81922057D01*
X122887388Y-82035707D01*
X122878106Y-82159614D01*
X122851606Y-82267317D01*
X122809063Y-82361511D01*
X122749060Y-82444810D01*
X122672102Y-82514446D01*
X122575902Y-82571270D01*
X122470245Y-82610129D01*
X122343132Y-82635159D01*
X122190472Y-82644146D01*
X122055250Y-82638165D01*
X121931559Y-82620851D01*
X121815405Y-82590574D01*
X121719450Y-82549685D01*
X121719450Y-82230505D01*
X121815844Y-82273239D01*
X121937543Y-82311182D01*
X122063564Y-82336190D01*
X122177329Y-82344094D01*
X122282320Y-82336172D01*
X122362511Y-82314815D01*
X122429484Y-82276870D01*
X122476740Y-82223987D01*
X122505219Y-82156658D01*
X122515636Y-82066802D01*
X122505389Y-81985685D01*
X122476618Y-81921729D01*
X122429509Y-81870827D01*
X122368184Y-81835465D01*
X122282661Y-81811656D01*
X122165361Y-81802653D01*
X122023669Y-81815796D01*
X121901105Y-81842083D01*
X121754071Y-81763223D01*
X121819895Y-80867768D01*
X122767816Y-80867768D01*
X122767816Y-81180963D01*
X122143776Y-81180963D01*
X122111505Y-81528887D01*
X122199982Y-81512218D01*
X122333873Y-81503776D01*
G37*
G36*
X160911150Y-82618501D02*
G01*
X160541748Y-82618501D01*
X160541748Y-81604969D01*
X160542923Y-81501318D01*
X160546449Y-81374266D01*
X160551258Y-81256297D01*
X160498044Y-81309405D01*
X160423351Y-81376831D01*
X160222568Y-81537970D01*
X160044439Y-81315602D01*
X160607464Y-80867768D01*
X160911150Y-80867768D01*
X160911150Y-82618501D01*
G37*
G36*
X162311394Y-82618501D02*
G01*
X161941992Y-82618501D01*
X161941992Y-81604969D01*
X161943167Y-81501318D01*
X161946694Y-81374266D01*
X161951502Y-81256297D01*
X161898288Y-81309405D01*
X161823595Y-81376831D01*
X161622812Y-81537970D01*
X161444683Y-81315602D01*
X162007709Y-80867768D01*
X162311394Y-80867768D01*
X162311394Y-82618501D01*
G37*
D14*
G36*
X129626864Y-97554162D02*
G01*
X129670722Y-97577107D01*
X129704646Y-97615299D01*
X129727120Y-97663690D01*
X129742431Y-97730615D01*
X129748228Y-97821455D01*
X129743002Y-97908714D01*
X129728994Y-97975481D01*
X129704013Y-98032546D01*
X129671368Y-98071117D01*
X129628714Y-98095140D01*
X129573213Y-98103632D01*
X129525813Y-98099574D01*
X129488510Y-98088430D01*
X129459182Y-98071117D01*
X129424562Y-98032299D01*
X129400258Y-97975939D01*
X129387535Y-97909689D01*
X129382780Y-97823134D01*
X129382780Y-97795580D01*
X129389181Y-97715185D01*
X129402853Y-97656209D01*
X129427331Y-97607059D01*
X129461319Y-97573548D01*
X129506132Y-97553504D01*
X129569778Y-97545995D01*
X129626864Y-97554162D01*
G37*
G36*
X126749528Y-97529813D02*
G01*
X126792966Y-97548666D01*
X126827733Y-97578861D01*
X126852805Y-97618352D01*
X126867868Y-97664461D01*
X126873719Y-97718720D01*
X126508270Y-97718720D01*
X126519153Y-97653176D01*
X126538770Y-97605032D01*
X126565820Y-97570266D01*
X126601587Y-97544221D01*
X126643045Y-97528440D01*
X126691834Y-97522944D01*
X126749528Y-97529813D01*
G37*
G36*
X127782676Y-97529813D02*
G01*
X127826113Y-97548666D01*
X127860881Y-97578861D01*
X127885953Y-97618352D01*
X127901015Y-97664461D01*
X127906866Y-97718720D01*
X127541418Y-97718720D01*
X127552301Y-97653176D01*
X127571917Y-97605032D01*
X127598967Y-97570266D01*
X127634734Y-97544221D01*
X127676192Y-97528440D01*
X127724981Y-97522944D01*
X127782676Y-97529813D01*
G37*
G36*
X130698035Y-97556027D02*
G01*
X130746189Y-97578662D01*
X130783120Y-97616019D01*
X130809845Y-97670864D01*
X130824409Y-97736391D01*
X130829919Y-97824890D01*
X130824449Y-97912802D01*
X130809845Y-97979373D01*
X130783180Y-98035478D01*
X130746647Y-98073712D01*
X130698861Y-98096937D01*
X130634372Y-98105387D01*
X130569079Y-98096926D01*
X130520799Y-98073712D01*
X130483861Y-98035455D01*
X130456761Y-97979373D01*
X130441876Y-97912781D01*
X130436306Y-97824890D01*
X130442479Y-97733118D01*
X130458784Y-97665696D01*
X130482788Y-97617054D01*
X130518870Y-97579457D01*
X130567431Y-97556204D01*
X130632692Y-97547750D01*
X130698035Y-97556027D01*
G37*
G36*
X132600985Y-97939531D02*
G01*
X132594104Y-97995923D01*
X132574806Y-98040537D01*
X132543358Y-98076154D01*
X132502667Y-98102526D01*
X132456101Y-98118582D01*
X132402079Y-98124163D01*
X132349386Y-98117612D01*
X132310641Y-98099739D01*
X132291948Y-98080825D01*
X132280084Y-98054272D01*
X132275684Y-98017383D01*
X132281294Y-97975523D01*
X132297489Y-97940491D01*
X132324761Y-97910604D01*
X132360284Y-97889954D01*
X132416175Y-97874421D01*
X132500234Y-97866640D01*
X132600985Y-97863358D01*
X132600985Y-97939531D01*
G37*
G36*
X134356793Y-97556027D02*
G01*
X134404947Y-97578662D01*
X134441878Y-97616019D01*
X134468603Y-97670864D01*
X134483167Y-97736391D01*
X134488676Y-97824890D01*
X134483207Y-97912802D01*
X134468603Y-97979373D01*
X134441938Y-98035478D01*
X134405405Y-98073712D01*
X134357618Y-98096937D01*
X134293130Y-98105387D01*
X134227837Y-98096926D01*
X134179557Y-98073712D01*
X134142619Y-98035455D01*
X134115519Y-97979373D01*
X134100634Y-97912781D01*
X134095064Y-97824890D01*
X134101236Y-97733118D01*
X134117542Y-97665696D01*
X134141546Y-97617054D01*
X134177627Y-97579457D01*
X134226189Y-97556204D01*
X134291450Y-97547750D01*
X134356793Y-97556027D01*
G37*
G36*
X138889619Y-97529813D02*
G01*
X138933057Y-97548666D01*
X138967824Y-97578861D01*
X138992896Y-97618352D01*
X139007958Y-97664461D01*
X139013809Y-97718720D01*
X138648361Y-97718720D01*
X138659244Y-97653176D01*
X138678861Y-97605032D01*
X138705911Y-97570266D01*
X138741678Y-97544221D01*
X138783135Y-97528440D01*
X138831925Y-97522944D01*
X138889619Y-97529813D01*
G37*
G36*
X140240462Y-98867597D02*
G01*
X123721669Y-98867597D01*
X123721669Y-97600644D01*
X123871669Y-97600644D01*
X123879161Y-97676276D01*
X123899375Y-97732535D01*
X123933769Y-97779990D01*
X123984784Y-97822295D01*
X124047184Y-97858340D01*
X124132093Y-97897323D01*
X124268716Y-97960139D01*
X124307496Y-97985085D01*
X124325503Y-98003187D01*
X124335447Y-98023227D01*
X124338783Y-98045700D01*
X124330814Y-98077008D01*
X124305887Y-98102487D01*
X124266928Y-98117750D01*
X124197046Y-98124163D01*
X124127346Y-98118970D01*
X124040349Y-98101571D01*
X123953212Y-98075536D01*
X123873424Y-98043869D01*
X123873424Y-98259108D01*
X123946393Y-98284905D01*
X124017299Y-98301774D01*
X124092130Y-98311114D01*
X124188498Y-98314596D01*
X124278222Y-98310342D01*
X124352581Y-98298560D01*
X124413888Y-98280479D01*
X124470993Y-98253087D01*
X124515759Y-98219640D01*
X124550053Y-98180110D01*
X124574910Y-98134015D01*
X124590348Y-98080493D01*
X124595773Y-98017841D01*
X124591766Y-97963002D01*
X124580649Y-97918258D01*
X124563334Y-97881752D01*
X124524736Y-97833894D01*
X124471132Y-97793214D01*
X124408153Y-97759182D01*
X124330235Y-97724521D01*
X124203457Y-97670024D01*
X124164631Y-97647878D01*
X124145373Y-97631327D01*
X124134130Y-97612545D01*
X124130414Y-97591409D01*
X124137550Y-97564723D01*
X124159417Y-97545613D01*
X124192350Y-97534970D01*
X124245666Y-97530653D01*
X124309974Y-97535543D01*
X124373359Y-97550269D01*
X124507006Y-97600644D01*
X124585545Y-97412806D01*
X124499968Y-97378377D01*
X124419460Y-97355562D01*
X124414311Y-97354722D01*
X124679731Y-97354722D01*
X124951222Y-98297500D01*
X125231338Y-98297500D01*
X125308198Y-97971130D01*
X125328654Y-97882210D01*
X125358116Y-97756960D01*
X125386738Y-97633846D01*
X125405514Y-97551185D01*
X125413223Y-97551185D01*
X125432381Y-97633846D01*
X125461461Y-97756578D01*
X125490923Y-97880531D01*
X125510538Y-97967772D01*
X125583964Y-98297500D01*
X125867515Y-98297500D01*
X126002885Y-97833285D01*
X126238382Y-97833285D01*
X126246051Y-97940227D01*
X126267491Y-98029083D01*
X126301122Y-98103021D01*
X126348604Y-98168665D01*
X126406033Y-98221411D01*
X126474458Y-98262390D01*
X126549842Y-98290816D01*
X126634037Y-98308462D01*
X126728547Y-98314596D01*
X126834572Y-98310166D01*
X126915927Y-98298339D01*
X126991631Y-98277449D01*
X127064152Y-98247124D01*
X127064152Y-98045624D01*
X126983699Y-98078923D01*
X126907836Y-98101953D01*
X126829684Y-98115848D01*
X126740530Y-98120729D01*
X126669475Y-98113308D01*
X126613204Y-98092685D01*
X126568415Y-98059821D01*
X126534426Y-98015657D01*
X126512150Y-97960699D01*
X126502241Y-97892056D01*
X127117885Y-97892056D01*
X127117885Y-97833285D01*
X127271529Y-97833285D01*
X127279199Y-97940227D01*
X127300638Y-98029083D01*
X127334269Y-98103021D01*
X127381751Y-98168665D01*
X127439181Y-98221411D01*
X127507605Y-98262390D01*
X127582989Y-98290816D01*
X127667184Y-98308462D01*
X127761694Y-98314596D01*
X127867719Y-98310166D01*
X127949074Y-98298339D01*
X128024779Y-98277449D01*
X128097299Y-98247124D01*
X128097299Y-98045624D01*
X128016846Y-98078923D01*
X127940984Y-98101953D01*
X127862831Y-98115848D01*
X127773677Y-98120729D01*
X127702623Y-98113308D01*
X127646351Y-98092685D01*
X127601562Y-98059821D01*
X127567574Y-98015657D01*
X127545298Y-97960699D01*
X127535388Y-97892056D01*
X128151033Y-97892056D01*
X128151033Y-97766958D01*
X128144747Y-97676319D01*
X128127018Y-97599315D01*
X128098978Y-97533706D01*
X128059247Y-97474846D01*
X128024062Y-97440131D01*
X128266285Y-97440131D01*
X128266285Y-97550269D01*
X128390925Y-97550269D01*
X128390925Y-98003492D01*
X128395959Y-98083728D01*
X128409500Y-98145391D01*
X128429775Y-98192246D01*
X128459383Y-98233435D01*
X128494730Y-98264754D01*
X128536478Y-98287272D01*
X128607309Y-98307501D01*
X128689817Y-98314596D01*
X128761674Y-98311384D01*
X128825143Y-98302232D01*
X128884208Y-98287582D01*
X128928870Y-98271014D01*
X128928870Y-98077223D01*
X128848193Y-98098518D01*
X128764922Y-98107066D01*
X128717507Y-98100093D01*
X128682490Y-98080734D01*
X128659707Y-98049044D01*
X128651349Y-98000897D01*
X128651349Y-97550269D01*
X128918642Y-97550269D01*
X128918642Y-97354722D01*
X129122356Y-97354722D01*
X129122356Y-97795580D01*
X129122356Y-98717597D01*
X129382780Y-98717597D01*
X129382780Y-98332533D01*
X129379345Y-98262466D01*
X129369117Y-98192475D01*
X129382780Y-98192475D01*
X129443382Y-98251857D01*
X129481181Y-98276562D01*
X129527952Y-98297118D01*
X129580277Y-98309909D01*
X129646638Y-98314596D01*
X129716673Y-98308218D01*
X129779676Y-98289634D01*
X129837071Y-98258955D01*
X129887052Y-98217198D01*
X129930270Y-98162952D01*
X129966825Y-98094167D01*
X129991890Y-98019915D01*
X130008047Y-97931012D01*
X130013842Y-97824813D01*
X130170692Y-97824813D01*
X130170696Y-97824890D01*
X130174701Y-97903011D01*
X130186165Y-97972354D01*
X130204428Y-98033946D01*
X130245767Y-98118787D01*
X130300064Y-98187743D01*
X130367336Y-98242751D01*
X130446076Y-98282616D01*
X130533063Y-98306378D01*
X130630937Y-98314596D01*
X130735051Y-98306275D01*
X130824347Y-98282616D01*
X130879303Y-98257567D01*
X130928040Y-98226003D01*
X130971198Y-98187743D01*
X131008200Y-98143412D01*
X131039234Y-98092420D01*
X131064315Y-98033946D01*
X131087943Y-97938806D01*
X131096372Y-97824813D01*
X131089204Y-97721679D01*
X131068981Y-97634042D01*
X131036991Y-97559352D01*
X130991935Y-97491988D01*
X130940590Y-97440131D01*
X131215517Y-97440131D01*
X131215517Y-97550269D01*
X131340157Y-97550269D01*
X131340157Y-98003492D01*
X131345191Y-98083728D01*
X131358732Y-98145391D01*
X131379007Y-98192246D01*
X131408615Y-98233435D01*
X131443962Y-98264754D01*
X131485711Y-98287272D01*
X131556542Y-98307501D01*
X131639049Y-98314596D01*
X131710907Y-98311384D01*
X131774375Y-98302232D01*
X131833440Y-98287582D01*
X131878102Y-98271014D01*
X131878102Y-98077223D01*
X131797426Y-98098518D01*
X131714154Y-98107066D01*
X131666739Y-98100093D01*
X131631722Y-98080734D01*
X131608940Y-98049044D01*
X131603258Y-98016315D01*
X132008390Y-98016315D01*
X132008465Y-98017383D01*
X132013110Y-98083424D01*
X132026256Y-98138781D01*
X132046782Y-98184461D01*
X132075858Y-98225038D01*
X132110821Y-98257508D01*
X132152265Y-98282616D01*
X132222448Y-98306342D01*
X132303848Y-98314596D01*
X132380105Y-98310408D01*
X132438716Y-98299179D01*
X132491492Y-98279351D01*
X132536947Y-98251399D01*
X132578158Y-98215337D01*
X132620677Y-98167669D01*
X132627470Y-98167669D01*
X132677845Y-98297500D01*
X132859729Y-98297500D01*
X132859729Y-97670788D01*
X132852505Y-97587483D01*
X132832387Y-97519851D01*
X132800678Y-97464777D01*
X132776730Y-97440131D01*
X133031463Y-97440131D01*
X133031463Y-97550269D01*
X133156103Y-97550269D01*
X133156103Y-98003492D01*
X133161137Y-98083728D01*
X133174678Y-98145391D01*
X133194953Y-98192246D01*
X133224561Y-98233435D01*
X133259908Y-98264754D01*
X133301656Y-98287272D01*
X133372487Y-98307501D01*
X133454995Y-98314596D01*
X133526852Y-98311384D01*
X133590321Y-98302232D01*
X133649386Y-98287582D01*
X133694048Y-98271014D01*
X133694048Y-98077223D01*
X133613371Y-98098518D01*
X133530100Y-98107066D01*
X133482685Y-98100093D01*
X133447668Y-98080734D01*
X133424885Y-98049044D01*
X133416527Y-98000897D01*
X133416527Y-97824813D01*
X133829450Y-97824813D01*
X133829454Y-97824890D01*
X133833459Y-97903011D01*
X133844923Y-97972354D01*
X133863186Y-98033946D01*
X133904525Y-98118787D01*
X133958822Y-98187743D01*
X134026093Y-98242751D01*
X134104834Y-98282616D01*
X134191820Y-98306378D01*
X134289695Y-98314596D01*
X134393809Y-98306275D01*
X134483105Y-98282616D01*
X134538061Y-98257567D01*
X134586797Y-98226003D01*
X134629956Y-98187743D01*
X134666958Y-98143412D01*
X134697992Y-98092420D01*
X134723073Y-98033946D01*
X134746700Y-97938806D01*
X134755130Y-97824813D01*
X134747962Y-97721679D01*
X134727739Y-97634042D01*
X134695749Y-97559352D01*
X134650693Y-97491988D01*
X134599348Y-97440131D01*
X135328567Y-97440131D01*
X135328567Y-97550269D01*
X135453207Y-97550269D01*
X135453207Y-98003492D01*
X135458241Y-98083728D01*
X135471782Y-98145391D01*
X135492057Y-98192246D01*
X135521665Y-98233435D01*
X135557012Y-98264754D01*
X135598760Y-98287272D01*
X135669591Y-98307501D01*
X135752099Y-98314596D01*
X135823956Y-98311384D01*
X135887425Y-98302232D01*
X135906503Y-98297500D01*
X136184638Y-98297500D01*
X136445062Y-98297500D01*
X136445062Y-97354722D01*
X136718308Y-97354722D01*
X136718308Y-98297500D01*
X136978732Y-98297500D01*
X136978732Y-97855802D01*
X136983500Y-97759813D01*
X136996211Y-97686663D01*
X137020748Y-97623966D01*
X137055134Y-97581715D01*
X137084709Y-97562578D01*
X137122015Y-97550402D01*
X137169165Y-97545995D01*
X137215470Y-97552019D01*
X137250300Y-97568664D01*
X137277211Y-97596104D01*
X137297240Y-97636670D01*
X137308452Y-97684968D01*
X137312658Y-97749174D01*
X137312658Y-98297500D01*
X137573082Y-98297500D01*
X137573082Y-97826416D01*
X137578778Y-97736788D01*
X137593988Y-97669085D01*
X137616588Y-97618657D01*
X137641442Y-97587497D01*
X137673115Y-97565166D01*
X137713030Y-97551077D01*
X137763515Y-97545995D01*
X137809780Y-97552144D01*
X137844993Y-97569243D01*
X137871898Y-97597209D01*
X137890058Y-97633190D01*
X137902313Y-97682543D01*
X137906931Y-97749174D01*
X137906931Y-98297500D01*
X138168195Y-98297500D01*
X138168195Y-97833285D01*
X138378473Y-97833285D01*
X138386142Y-97940227D01*
X138407582Y-98029083D01*
X138441213Y-98103021D01*
X138488695Y-98168665D01*
X138546124Y-98221411D01*
X138614549Y-98262390D01*
X138689933Y-98290816D01*
X138774127Y-98308462D01*
X138868638Y-98314596D01*
X138974662Y-98310166D01*
X139056018Y-98298339D01*
X139131722Y-98277449D01*
X139204243Y-98247124D01*
X139204243Y-98045624D01*
X139123790Y-98078923D01*
X139047927Y-98101953D01*
X138969775Y-98115848D01*
X138880621Y-98120729D01*
X138809566Y-98113308D01*
X138753294Y-98092685D01*
X138708506Y-98059821D01*
X138674517Y-98015657D01*
X138652241Y-97960699D01*
X138642331Y-97892056D01*
X139257976Y-97892056D01*
X139257976Y-97766958D01*
X139251691Y-97676319D01*
X139233961Y-97599315D01*
X139205922Y-97533706D01*
X139166190Y-97474846D01*
X139117258Y-97426567D01*
X139058231Y-97387924D01*
X138992680Y-97360700D01*
X138966276Y-97354722D01*
X139469704Y-97354722D01*
X139469704Y-98297500D01*
X139730128Y-98297500D01*
X139730128Y-97820157D01*
X139735950Y-97757046D01*
X139751881Y-97708111D01*
X139777924Y-97666449D01*
X139811262Y-97634304D01*
X139851045Y-97610200D01*
X139896213Y-97593622D01*
X139944198Y-97584197D01*
X139993987Y-97581028D01*
X140034516Y-97583165D01*
X140070847Y-97589577D01*
X140090462Y-97345334D01*
X140048178Y-97339762D01*
X140002535Y-97337625D01*
X139941135Y-97343803D01*
X139885069Y-97361973D01*
X139833777Y-97390438D01*
X139788594Y-97426926D01*
X139749729Y-97469709D01*
X139718221Y-97516151D01*
X139705398Y-97516151D01*
X139666930Y-97354722D01*
X139469704Y-97354722D01*
X138966276Y-97354722D01*
X138917276Y-97343628D01*
X138830169Y-97337625D01*
X138741658Y-97344111D01*
X138663363Y-97362757D01*
X138593635Y-97392885D01*
X138531355Y-97435367D01*
X138478794Y-97489929D01*
X138435259Y-97558054D01*
X138404920Y-97633481D01*
X138386631Y-97718720D01*
X138385453Y-97724209D01*
X138378473Y-97833285D01*
X138168195Y-97833285D01*
X138168195Y-97683152D01*
X138161925Y-97591168D01*
X138144865Y-97519091D01*
X138118925Y-97463014D01*
X138084923Y-97419828D01*
X138041174Y-97385559D01*
X137987230Y-97359991D01*
X137920918Y-97343555D01*
X137839459Y-97337625D01*
X137758062Y-97345912D01*
X137678488Y-97370980D01*
X137630202Y-97397737D01*
X137590228Y-97433037D01*
X137557664Y-97477683D01*
X137534614Y-97477683D01*
X137504499Y-97433795D01*
X137467331Y-97398785D01*
X137422338Y-97371819D01*
X137372544Y-97353489D01*
X137313758Y-97341791D01*
X137244346Y-97337625D01*
X137190149Y-97341246D01*
X137136727Y-97352127D01*
X137085872Y-97370757D01*
X137039793Y-97397388D01*
X136999870Y-97432511D01*
X136966825Y-97477683D01*
X136952247Y-97477683D01*
X136917290Y-97354722D01*
X136718308Y-97354722D01*
X136445062Y-97354722D01*
X136184638Y-97354722D01*
X136184638Y-98297500D01*
X135906503Y-98297500D01*
X135946490Y-98287582D01*
X135991152Y-98271014D01*
X135991152Y-98077223D01*
X135910475Y-98098518D01*
X135827204Y-98107066D01*
X135779789Y-98100093D01*
X135744772Y-98080734D01*
X135721989Y-98049044D01*
X135713631Y-98000897D01*
X135713631Y-97550269D01*
X135980924Y-97550269D01*
X135980924Y-97354722D01*
X135713631Y-97354722D01*
X135713631Y-97149558D01*
X135547164Y-97149558D01*
X135471983Y-97353043D01*
X135328567Y-97440131D01*
X134599348Y-97440131D01*
X134596570Y-97437325D01*
X134532640Y-97394106D01*
X134461534Y-97363200D01*
X134382760Y-97344197D01*
X134294809Y-97337625D01*
X134200013Y-97344352D01*
X134117879Y-97363503D01*
X134046368Y-97394106D01*
X133982355Y-97437457D01*
X133929112Y-97492120D01*
X133885778Y-97559352D01*
X133855491Y-97633853D01*
X133836274Y-97721501D01*
X133829450Y-97824813D01*
X133416527Y-97824813D01*
X133416527Y-97550269D01*
X133683820Y-97550269D01*
X133683820Y-97354722D01*
X133416527Y-97354722D01*
X133416527Y-97149558D01*
X133250060Y-97149558D01*
X133174879Y-97353043D01*
X133031463Y-97440131D01*
X132776730Y-97440131D01*
X132757224Y-97420057D01*
X132704548Y-97386081D01*
X132639662Y-97360340D01*
X132560051Y-97343656D01*
X132462682Y-97337625D01*
X132363094Y-97343438D01*
X132267517Y-97360676D01*
X132176475Y-97388485D01*
X132097234Y-97423873D01*
X132183482Y-97599805D01*
X132250447Y-97572309D01*
X132316594Y-97550269D01*
X132383905Y-97535496D01*
X132452454Y-97530577D01*
X132497955Y-97534784D01*
X132533654Y-97546358D01*
X132561677Y-97564466D01*
X132582583Y-97589688D01*
X132596012Y-97624136D01*
X132600985Y-97670864D01*
X132600985Y-97711317D01*
X132435357Y-97716354D01*
X132325420Y-97725441D01*
X132237823Y-97742625D01*
X132168808Y-97766258D01*
X132115094Y-97795199D01*
X132069045Y-97834978D01*
X132036211Y-97883706D01*
X132015704Y-97943188D01*
X132008390Y-98016315D01*
X131603258Y-98016315D01*
X131600581Y-98000897D01*
X131600581Y-97550269D01*
X131867874Y-97550269D01*
X131867874Y-97354722D01*
X131600581Y-97354722D01*
X131600581Y-97149558D01*
X131434114Y-97149558D01*
X131358933Y-97353043D01*
X131215517Y-97440131D01*
X130940590Y-97440131D01*
X130937812Y-97437325D01*
X130873882Y-97394106D01*
X130802776Y-97363200D01*
X130724003Y-97344197D01*
X130636051Y-97337625D01*
X130541255Y-97344352D01*
X130459121Y-97363503D01*
X130387610Y-97394106D01*
X130323597Y-97437457D01*
X130270354Y-97492120D01*
X130227020Y-97559352D01*
X130196733Y-97633853D01*
X130177516Y-97721501D01*
X130170692Y-97824813D01*
X130013842Y-97824813D01*
X130006475Y-97703116D01*
X129986196Y-97604587D01*
X129955098Y-97525194D01*
X129914313Y-97461578D01*
X129860156Y-97406895D01*
X129799647Y-97368738D01*
X129731463Y-97345618D01*
X129653508Y-97337625D01*
X129587722Y-97342700D01*
X129533523Y-97356859D01*
X129484948Y-97379771D01*
X129445138Y-97408532D01*
X129410974Y-97442726D01*
X129382780Y-97479439D01*
X129370873Y-97479439D01*
X129334160Y-97354722D01*
X129122356Y-97354722D01*
X128918642Y-97354722D01*
X128651349Y-97354722D01*
X128651349Y-97149558D01*
X128484882Y-97149558D01*
X128409701Y-97353043D01*
X128266285Y-97440131D01*
X128024062Y-97440131D01*
X128010315Y-97426567D01*
X127951288Y-97387924D01*
X127885736Y-97360700D01*
X127810332Y-97343628D01*
X127723226Y-97337625D01*
X127634714Y-97344111D01*
X127556420Y-97362757D01*
X127486692Y-97392885D01*
X127424412Y-97435367D01*
X127371850Y-97489929D01*
X127328316Y-97558054D01*
X127297976Y-97633481D01*
X127279687Y-97718720D01*
X127278509Y-97724209D01*
X127271529Y-97833285D01*
X127117885Y-97833285D01*
X127117885Y-97766958D01*
X127111600Y-97676319D01*
X127093870Y-97599315D01*
X127065831Y-97533706D01*
X127026100Y-97474846D01*
X126977168Y-97426567D01*
X126918140Y-97387924D01*
X126852589Y-97360700D01*
X126777185Y-97343628D01*
X126690079Y-97337625D01*
X126601567Y-97344111D01*
X126523272Y-97362757D01*
X126453545Y-97392885D01*
X126391264Y-97435367D01*
X126338703Y-97489929D01*
X126295168Y-97558054D01*
X126264829Y-97633481D01*
X126246540Y-97718720D01*
X126245362Y-97724209D01*
X126238382Y-97833285D01*
X126002885Y-97833285D01*
X126142440Y-97354722D01*
X125887130Y-97354722D01*
X125772718Y-97772148D01*
X125749209Y-97878012D01*
X125729136Y-97996470D01*
X125717229Y-98081650D01*
X125710360Y-98081650D01*
X125701811Y-97993570D01*
X125684332Y-97884347D01*
X125668533Y-97806724D01*
X125556639Y-97354722D01*
X125269730Y-97354722D01*
X125151883Y-97806724D01*
X125142113Y-97854428D01*
X125128451Y-97932814D01*
X125115628Y-98016773D01*
X125108377Y-98081650D01*
X125101508Y-98081650D01*
X125089143Y-97992730D01*
X125070749Y-97876333D01*
X125049454Y-97772148D01*
X124939315Y-97354722D01*
X124679731Y-97354722D01*
X124414311Y-97354722D01*
X124337489Y-97342189D01*
X124249940Y-97337625D01*
X124136463Y-97345929D01*
X124046174Y-97368715D01*
X123974556Y-97403800D01*
X123929430Y-97441039D01*
X123897854Y-97485218D01*
X123878484Y-97537654D01*
X123871669Y-97600644D01*
X123721669Y-97600644D01*
X123721669Y-97109411D01*
X136173570Y-97109411D01*
X136178911Y-97155788D01*
X136193059Y-97187945D01*
X136214939Y-97209779D01*
X136259697Y-97230264D01*
X136315308Y-97237486D01*
X136370179Y-97230304D01*
X136415142Y-97209779D01*
X136437337Y-97187897D01*
X136451650Y-97155733D01*
X136457045Y-97109411D01*
X136451604Y-97062540D01*
X136437262Y-97030490D01*
X136415142Y-97009118D01*
X136370231Y-96989174D01*
X136315308Y-96982175D01*
X136259644Y-96989213D01*
X136214939Y-97009118D01*
X136193134Y-97030442D01*
X136178957Y-97062483D01*
X136173570Y-97109411D01*
X123721669Y-97109411D01*
X123721669Y-96832175D01*
X140240462Y-96832175D01*
X140240462Y-98867597D01*
G37*
D16*
G36*
X103419645Y-82618501D02*
G01*
X102197851Y-82618501D01*
X102197851Y-82361511D01*
X102636602Y-81916669D01*
X102849994Y-81688317D01*
X102922505Y-81596424D01*
X102967109Y-81520980D01*
X102994454Y-81443015D01*
X103003654Y-81359093D01*
X102996437Y-81292019D01*
X102976708Y-81241166D01*
X102945631Y-81202655D01*
X102904216Y-81174443D01*
X102853451Y-81156808D01*
X102790796Y-81150509D01*
X102691229Y-81162052D01*
X102593539Y-81197206D01*
X102498929Y-81251595D01*
X102393932Y-81329814D01*
X102193149Y-81091952D01*
X102352685Y-80970029D01*
X102442161Y-80918983D01*
X102548767Y-80877385D01*
X102666671Y-80851621D01*
X102817189Y-80842122D01*
X102930593Y-80849592D01*
X103028379Y-80870778D01*
X103112968Y-80904419D01*
X103190389Y-80951871D01*
X103253396Y-81008240D01*
X103303599Y-81074000D01*
X103340570Y-81147992D01*
X103362943Y-81228354D01*
X103370598Y-81316671D01*
X103364016Y-81412011D01*
X103344777Y-81499911D01*
X103313216Y-81581567D01*
X103244825Y-81697909D01*
X103146414Y-81818788D01*
X103030326Y-81938134D01*
X102882906Y-82078876D01*
X102658187Y-82290986D01*
X102658187Y-82307656D01*
X103419645Y-82307656D01*
X103419645Y-82618501D01*
G37*
G36*
X96547563Y-82618501D02*
G01*
X96178161Y-82618501D01*
X96178161Y-81604969D01*
X96179336Y-81501318D01*
X96182862Y-81374266D01*
X96187671Y-81256297D01*
X96134457Y-81309405D01*
X96059764Y-81376831D01*
X95858981Y-81537970D01*
X95680852Y-81315602D01*
X96243877Y-80867768D01*
X96547563Y-80867768D01*
X96547563Y-82618501D01*
G37*
D15*
G36*
X128444376Y-77667244D02*
G01*
X128498724Y-77692846D01*
X128544002Y-77735729D01*
X128578076Y-77790413D01*
X128607456Y-77865561D01*
X128630708Y-77966417D01*
X128649550Y-78129129D01*
X128656720Y-78348535D01*
X128649534Y-78569036D01*
X128630708Y-78731385D01*
X128607430Y-78831732D01*
X128578047Y-78906197D01*
X128544002Y-78960119D01*
X128498835Y-79002115D01*
X128444489Y-79027276D01*
X128378039Y-79036078D01*
X128310693Y-79027151D01*
X128256114Y-79001721D01*
X128211221Y-78959386D01*
X128177611Y-78905140D01*
X128148674Y-78830451D01*
X128125858Y-78730042D01*
X128107553Y-78567861D01*
X128100579Y-78348535D01*
X128107547Y-78129131D01*
X128125858Y-77966417D01*
X128148672Y-77865501D01*
X128177611Y-77790363D01*
X128211221Y-77735729D01*
X128256170Y-77692951D01*
X128310750Y-77667300D01*
X128378039Y-77658304D01*
X128444376Y-77667244D01*
G37*
G36*
X131789462Y-79598531D02*
G01*
X125864209Y-79598531D01*
X125864209Y-77602373D01*
X126086431Y-77602373D01*
X126315897Y-77874215D01*
X126435894Y-77784821D01*
X126544019Y-77722662D01*
X126655665Y-77682487D01*
X126769456Y-77669295D01*
X126841062Y-77676494D01*
X126899078Y-77696648D01*
X126946410Y-77728891D01*
X126981926Y-77772903D01*
X127004474Y-77831021D01*
X127012722Y-77907676D01*
X127002208Y-78003587D01*
X126970956Y-78092690D01*
X126919980Y-78178913D01*
X126837111Y-78283933D01*
X126593234Y-78544906D01*
X126091804Y-79053297D01*
X126091804Y-79347000D01*
X127488140Y-79347000D01*
X127488140Y-78991748D01*
X126617903Y-78991748D01*
X126617903Y-78972697D01*
X126874724Y-78730286D01*
X127043204Y-78569437D01*
X127175876Y-78433043D01*
X127244577Y-78348657D01*
X127681214Y-78348657D01*
X127690258Y-78562685D01*
X127715606Y-78745360D01*
X127754976Y-78900768D01*
X127815672Y-79047389D01*
X127891832Y-79163470D01*
X127983098Y-79253821D01*
X128063008Y-79305987D01*
X128154070Y-79344110D01*
X128258262Y-79367948D01*
X128378039Y-79376309D01*
X128504002Y-79367891D01*
X128598413Y-79347000D01*
X129431825Y-79347000D01*
X129810157Y-79347000D01*
X129810157Y-78416312D01*
X129804661Y-78186480D01*
X129793060Y-77946267D01*
X129784267Y-77777251D01*
X129796601Y-77777251D01*
X130277516Y-79347000D01*
X130665495Y-79347000D01*
X131180604Y-77779937D01*
X131192816Y-77779937D01*
X131184634Y-77947610D01*
X131175719Y-78182327D01*
X131172299Y-78399948D01*
X131172299Y-79347000D01*
X131567240Y-79347000D01*
X131567240Y-77346162D01*
X130990583Y-77346162D01*
X130489274Y-78876221D01*
X130481092Y-78876221D01*
X130008360Y-77346162D01*
X129431825Y-77346162D01*
X129431825Y-79347000D01*
X128598413Y-79347000D01*
X128611374Y-79344132D01*
X128703126Y-79306577D01*
X128786490Y-79253203D01*
X128858355Y-79186096D01*
X128919648Y-79103978D01*
X128968168Y-79012650D01*
X129008525Y-78905760D01*
X129039937Y-78781089D01*
X129067589Y-78584165D01*
X129077551Y-78348657D01*
X129068291Y-78131835D01*
X129042408Y-77947880D01*
X129002324Y-77792394D01*
X128940788Y-77645805D01*
X128863944Y-77529711D01*
X128772125Y-77439341D01*
X128691898Y-77387099D01*
X128600830Y-77348981D01*
X128497004Y-77325186D01*
X128378039Y-77316853D01*
X128249984Y-77325476D01*
X128141163Y-77349790D01*
X128048480Y-77388182D01*
X127969421Y-77440073D01*
X127879448Y-77530843D01*
X127805759Y-77647102D01*
X127748747Y-77793737D01*
X127712805Y-77948849D01*
X127689543Y-78132414D01*
X127681219Y-78348535D01*
X127681214Y-78348657D01*
X127244577Y-78348657D01*
X127288346Y-78294895D01*
X127366507Y-78161933D01*
X127402577Y-78068611D01*
X127424564Y-77968154D01*
X127432086Y-77859194D01*
X127423338Y-77758261D01*
X127397769Y-77666419D01*
X127355516Y-77581856D01*
X127298142Y-77506701D01*
X127226134Y-77442280D01*
X127137652Y-77388050D01*
X127040979Y-77349602D01*
X126929223Y-77325390D01*
X126799620Y-77316853D01*
X126627599Y-77327709D01*
X126492851Y-77357153D01*
X126371016Y-77404693D01*
X126268758Y-77463032D01*
X126086431Y-77602373D01*
X125864209Y-77602373D01*
X125864209Y-77094631D01*
X131789462Y-77094631D01*
X131789462Y-79598531D01*
G37*
D18*
X124134663Y-51832857D02*
X123658472Y-52166190D01*
X124134663Y-52404285D02*
X123134663Y-52404285D01*
X123134663Y-52404285D02*
X123134663Y-52023333D01*
X123134663Y-52023333D02*
X123182282Y-51928095D01*
X123182282Y-51928095D02*
X123229901Y-51880476D01*
X123229901Y-51880476D02*
X123325139Y-51832857D01*
X123325139Y-51832857D02*
X123467996Y-51832857D01*
X123467996Y-51832857D02*
X123563234Y-51880476D01*
X123563234Y-51880476D02*
X123610853Y-51928095D01*
X123610853Y-51928095D02*
X123658472Y-52023333D01*
X123658472Y-52023333D02*
X123658472Y-52404285D01*
X124134663Y-50880476D02*
X124134663Y-51451904D01*
X124134663Y-51166190D02*
X123134663Y-51166190D01*
X123134663Y-51166190D02*
X123277520Y-51261428D01*
X123277520Y-51261428D02*
X123372758Y-51356666D01*
X123372758Y-51356666D02*
X123420377Y-51451904D01*
X123134663Y-49975714D02*
X123134663Y-50451904D01*
X123134663Y-50451904D02*
X123610853Y-50499523D01*
X123610853Y-50499523D02*
X123563234Y-50451904D01*
X123563234Y-50451904D02*
X123515615Y-50356666D01*
X123515615Y-50356666D02*
X123515615Y-50118571D01*
X123515615Y-50118571D02*
X123563234Y-50023333D01*
X123563234Y-50023333D02*
X123610853Y-49975714D01*
X123610853Y-49975714D02*
X123706091Y-49928095D01*
X123706091Y-49928095D02*
X123944186Y-49928095D01*
X123944186Y-49928095D02*
X124039424Y-49975714D01*
X124039424Y-49975714D02*
X124087044Y-50023333D01*
X124087044Y-50023333D02*
X124134663Y-50118571D01*
X124134663Y-50118571D02*
X124134663Y-50356666D01*
X124134663Y-50356666D02*
X124087044Y-50451904D01*
X124087044Y-50451904D02*
X124039424Y-50499523D01*
X139473333Y-55924663D02*
X139140000Y-55448472D01*
X138901905Y-55924663D02*
X138901905Y-54924663D01*
X138901905Y-54924663D02*
X139282857Y-54924663D01*
X139282857Y-54924663D02*
X139378095Y-54972282D01*
X139378095Y-54972282D02*
X139425714Y-55019901D01*
X139425714Y-55019901D02*
X139473333Y-55115139D01*
X139473333Y-55115139D02*
X139473333Y-55257996D01*
X139473333Y-55257996D02*
X139425714Y-55353234D01*
X139425714Y-55353234D02*
X139378095Y-55400853D01*
X139378095Y-55400853D02*
X139282857Y-55448472D01*
X139282857Y-55448472D02*
X138901905Y-55448472D01*
X140330476Y-54924663D02*
X140140000Y-54924663D01*
X140140000Y-54924663D02*
X140044762Y-54972282D01*
X140044762Y-54972282D02*
X139997143Y-55019901D01*
X139997143Y-55019901D02*
X139901905Y-55162758D01*
X139901905Y-55162758D02*
X139854286Y-55353234D01*
X139854286Y-55353234D02*
X139854286Y-55734186D01*
X139854286Y-55734186D02*
X139901905Y-55829424D01*
X139901905Y-55829424D02*
X139949524Y-55877044D01*
X139949524Y-55877044D02*
X140044762Y-55924663D01*
X140044762Y-55924663D02*
X140235238Y-55924663D01*
X140235238Y-55924663D02*
X140330476Y-55877044D01*
X140330476Y-55877044D02*
X140378095Y-55829424D01*
X140378095Y-55829424D02*
X140425714Y-55734186D01*
X140425714Y-55734186D02*
X140425714Y-55496091D01*
X140425714Y-55496091D02*
X140378095Y-55400853D01*
X140378095Y-55400853D02*
X140330476Y-55353234D01*
X140330476Y-55353234D02*
X140235238Y-55305615D01*
X140235238Y-55305615D02*
X140044762Y-55305615D01*
X140044762Y-55305615D02*
X139949524Y-55353234D01*
X139949524Y-55353234D02*
X139901905Y-55400853D01*
X139901905Y-55400853D02*
X139854286Y-55496091D01*
X139488245Y-68457837D02*
X139440626Y-68505457D01*
X139440626Y-68505457D02*
X139297769Y-68553076D01*
X139297769Y-68553076D02*
X139202531Y-68553076D01*
X139202531Y-68553076D02*
X139059674Y-68505457D01*
X139059674Y-68505457D02*
X138964436Y-68410218D01*
X138964436Y-68410218D02*
X138916817Y-68314980D01*
X138916817Y-68314980D02*
X138869198Y-68124504D01*
X138869198Y-68124504D02*
X138869198Y-67981647D01*
X138869198Y-67981647D02*
X138916817Y-67791171D01*
X138916817Y-67791171D02*
X138964436Y-67695933D01*
X138964436Y-67695933D02*
X139059674Y-67600695D01*
X139059674Y-67600695D02*
X139202531Y-67553076D01*
X139202531Y-67553076D02*
X139297769Y-67553076D01*
X139297769Y-67553076D02*
X139440626Y-67600695D01*
X139440626Y-67600695D02*
X139488245Y-67648314D01*
X139869198Y-67648314D02*
X139916817Y-67600695D01*
X139916817Y-67600695D02*
X140012055Y-67553076D01*
X140012055Y-67553076D02*
X140250150Y-67553076D01*
X140250150Y-67553076D02*
X140345388Y-67600695D01*
X140345388Y-67600695D02*
X140393007Y-67648314D01*
X140393007Y-67648314D02*
X140440626Y-67743552D01*
X140440626Y-67743552D02*
X140440626Y-67838790D01*
X140440626Y-67838790D02*
X140393007Y-67981647D01*
X140393007Y-67981647D02*
X139821579Y-68553076D01*
X139821579Y-68553076D02*
X140440626Y-68553076D01*
X151979663Y-89351666D02*
X151503472Y-89684999D01*
X151979663Y-89923094D02*
X150979663Y-89923094D01*
X150979663Y-89923094D02*
X150979663Y-89542142D01*
X150979663Y-89542142D02*
X151027282Y-89446904D01*
X151027282Y-89446904D02*
X151074901Y-89399285D01*
X151074901Y-89399285D02*
X151170139Y-89351666D01*
X151170139Y-89351666D02*
X151312996Y-89351666D01*
X151312996Y-89351666D02*
X151408234Y-89399285D01*
X151408234Y-89399285D02*
X151455853Y-89446904D01*
X151455853Y-89446904D02*
X151503472Y-89542142D01*
X151503472Y-89542142D02*
X151503472Y-89923094D01*
X151979663Y-88875475D02*
X151979663Y-88684999D01*
X151979663Y-88684999D02*
X151932044Y-88589761D01*
X151932044Y-88589761D02*
X151884424Y-88542142D01*
X151884424Y-88542142D02*
X151741567Y-88446904D01*
X151741567Y-88446904D02*
X151551091Y-88399285D01*
X151551091Y-88399285D02*
X151170139Y-88399285D01*
X151170139Y-88399285D02*
X151074901Y-88446904D01*
X151074901Y-88446904D02*
X151027282Y-88494523D01*
X151027282Y-88494523D02*
X150979663Y-88589761D01*
X150979663Y-88589761D02*
X150979663Y-88780237D01*
X150979663Y-88780237D02*
X151027282Y-88875475D01*
X151027282Y-88875475D02*
X151074901Y-88923094D01*
X151074901Y-88923094D02*
X151170139Y-88970713D01*
X151170139Y-88970713D02*
X151408234Y-88970713D01*
X151408234Y-88970713D02*
X151503472Y-88923094D01*
X151503472Y-88923094D02*
X151551091Y-88875475D01*
X151551091Y-88875475D02*
X151598710Y-88780237D01*
X151598710Y-88780237D02*
X151598710Y-88589761D01*
X151598710Y-88589761D02*
X151551091Y-88494523D01*
X151551091Y-88494523D02*
X151503472Y-88446904D01*
X151503472Y-88446904D02*
X151408234Y-88399285D01*
X138979663Y-89327857D02*
X138503472Y-89661190D01*
X138979663Y-89899285D02*
X137979663Y-89899285D01*
X137979663Y-89899285D02*
X137979663Y-89518333D01*
X137979663Y-89518333D02*
X138027282Y-89423095D01*
X138027282Y-89423095D02*
X138074901Y-89375476D01*
X138074901Y-89375476D02*
X138170139Y-89327857D01*
X138170139Y-89327857D02*
X138312996Y-89327857D01*
X138312996Y-89327857D02*
X138408234Y-89375476D01*
X138408234Y-89375476D02*
X138455853Y-89423095D01*
X138455853Y-89423095D02*
X138503472Y-89518333D01*
X138503472Y-89518333D02*
X138503472Y-89899285D01*
X138979663Y-88375476D02*
X138979663Y-88946904D01*
X138979663Y-88661190D02*
X137979663Y-88661190D01*
X137979663Y-88661190D02*
X138122520Y-88756428D01*
X138122520Y-88756428D02*
X138217758Y-88851666D01*
X138217758Y-88851666D02*
X138265377Y-88946904D01*
X137979663Y-87756428D02*
X137979663Y-87661190D01*
X137979663Y-87661190D02*
X138027282Y-87565952D01*
X138027282Y-87565952D02*
X138074901Y-87518333D01*
X138074901Y-87518333D02*
X138170139Y-87470714D01*
X138170139Y-87470714D02*
X138360615Y-87423095D01*
X138360615Y-87423095D02*
X138598710Y-87423095D01*
X138598710Y-87423095D02*
X138789186Y-87470714D01*
X138789186Y-87470714D02*
X138884424Y-87518333D01*
X138884424Y-87518333D02*
X138932044Y-87565952D01*
X138932044Y-87565952D02*
X138979663Y-87661190D01*
X138979663Y-87661190D02*
X138979663Y-87756428D01*
X138979663Y-87756428D02*
X138932044Y-87851666D01*
X138932044Y-87851666D02*
X138884424Y-87899285D01*
X138884424Y-87899285D02*
X138789186Y-87946904D01*
X138789186Y-87946904D02*
X138598710Y-87994523D01*
X138598710Y-87994523D02*
X138360615Y-87994523D01*
X138360615Y-87994523D02*
X138170139Y-87946904D01*
X138170139Y-87946904D02*
X138074901Y-87899285D01*
X138074901Y-87899285D02*
X138027282Y-87851666D01*
X138027282Y-87851666D02*
X137979663Y-87756428D01*
X122654663Y-58876666D02*
X122178472Y-59209999D01*
X122654663Y-59448094D02*
X121654663Y-59448094D01*
X121654663Y-59448094D02*
X121654663Y-59067142D01*
X121654663Y-59067142D02*
X121702282Y-58971904D01*
X121702282Y-58971904D02*
X121749901Y-58924285D01*
X121749901Y-58924285D02*
X121845139Y-58876666D01*
X121845139Y-58876666D02*
X121987996Y-58876666D01*
X121987996Y-58876666D02*
X122083234Y-58924285D01*
X122083234Y-58924285D02*
X122130853Y-58971904D01*
X122130853Y-58971904D02*
X122178472Y-59067142D01*
X122178472Y-59067142D02*
X122178472Y-59448094D01*
X122654663Y-57924285D02*
X122654663Y-58495713D01*
X122654663Y-58209999D02*
X121654663Y-58209999D01*
X121654663Y-58209999D02*
X121797520Y-58305237D01*
X121797520Y-58305237D02*
X121892758Y-58400475D01*
X121892758Y-58400475D02*
X121940377Y-58495713D01*
X113029663Y-89327857D02*
X112553472Y-89661190D01*
X113029663Y-89899285D02*
X112029663Y-89899285D01*
X112029663Y-89899285D02*
X112029663Y-89518333D01*
X112029663Y-89518333D02*
X112077282Y-89423095D01*
X112077282Y-89423095D02*
X112124901Y-89375476D01*
X112124901Y-89375476D02*
X112220139Y-89327857D01*
X112220139Y-89327857D02*
X112362996Y-89327857D01*
X112362996Y-89327857D02*
X112458234Y-89375476D01*
X112458234Y-89375476D02*
X112505853Y-89423095D01*
X112505853Y-89423095D02*
X112553472Y-89518333D01*
X112553472Y-89518333D02*
X112553472Y-89899285D01*
X113029663Y-88375476D02*
X113029663Y-88946904D01*
X113029663Y-88661190D02*
X112029663Y-88661190D01*
X112029663Y-88661190D02*
X112172520Y-88756428D01*
X112172520Y-88756428D02*
X112267758Y-88851666D01*
X112267758Y-88851666D02*
X112315377Y-88946904D01*
X112124901Y-87994523D02*
X112077282Y-87946904D01*
X112077282Y-87946904D02*
X112029663Y-87851666D01*
X112029663Y-87851666D02*
X112029663Y-87613571D01*
X112029663Y-87613571D02*
X112077282Y-87518333D01*
X112077282Y-87518333D02*
X112124901Y-87470714D01*
X112124901Y-87470714D02*
X112220139Y-87423095D01*
X112220139Y-87423095D02*
X112315377Y-87423095D01*
X112315377Y-87423095D02*
X112458234Y-87470714D01*
X112458234Y-87470714D02*
X113029663Y-88042142D01*
X113029663Y-88042142D02*
X113029663Y-87423095D01*
X131138095Y-48108663D02*
X131138095Y-48918186D01*
X131138095Y-48918186D02*
X131185714Y-49013424D01*
X131185714Y-49013424D02*
X131233333Y-49061044D01*
X131233333Y-49061044D02*
X131328571Y-49108663D01*
X131328571Y-49108663D02*
X131519047Y-49108663D01*
X131519047Y-49108663D02*
X131614285Y-49061044D01*
X131614285Y-49061044D02*
X131661904Y-49013424D01*
X131661904Y-49013424D02*
X131709523Y-48918186D01*
X131709523Y-48918186D02*
X131709523Y-48108663D01*
X132709523Y-49108663D02*
X132138095Y-49108663D01*
X132423809Y-49108663D02*
X132423809Y-48108663D01*
X132423809Y-48108663D02*
X132328571Y-48251520D01*
X132328571Y-48251520D02*
X132233333Y-48346758D01*
X132233333Y-48346758D02*
X132138095Y-48394377D01*
X125979663Y-89327857D02*
X125503472Y-89661190D01*
X125979663Y-89899285D02*
X124979663Y-89899285D01*
X124979663Y-89899285D02*
X124979663Y-89518333D01*
X124979663Y-89518333D02*
X125027282Y-89423095D01*
X125027282Y-89423095D02*
X125074901Y-89375476D01*
X125074901Y-89375476D02*
X125170139Y-89327857D01*
X125170139Y-89327857D02*
X125312996Y-89327857D01*
X125312996Y-89327857D02*
X125408234Y-89375476D01*
X125408234Y-89375476D02*
X125455853Y-89423095D01*
X125455853Y-89423095D02*
X125503472Y-89518333D01*
X125503472Y-89518333D02*
X125503472Y-89899285D01*
X125979663Y-88375476D02*
X125979663Y-88946904D01*
X125979663Y-88661190D02*
X124979663Y-88661190D01*
X124979663Y-88661190D02*
X125122520Y-88756428D01*
X125122520Y-88756428D02*
X125217758Y-88851666D01*
X125217758Y-88851666D02*
X125265377Y-88946904D01*
X125979663Y-87423095D02*
X125979663Y-87994523D01*
X125979663Y-87708809D02*
X124979663Y-87708809D01*
X124979663Y-87708809D02*
X125122520Y-87804047D01*
X125122520Y-87804047D02*
X125217758Y-87899285D01*
X125217758Y-87899285D02*
X125265377Y-87994523D01*
X105224663Y-51842857D02*
X104748472Y-52176190D01*
X105224663Y-52414285D02*
X104224663Y-52414285D01*
X104224663Y-52414285D02*
X104224663Y-52033333D01*
X104224663Y-52033333D02*
X104272282Y-51938095D01*
X104272282Y-51938095D02*
X104319901Y-51890476D01*
X104319901Y-51890476D02*
X104415139Y-51842857D01*
X104415139Y-51842857D02*
X104557996Y-51842857D01*
X104557996Y-51842857D02*
X104653234Y-51890476D01*
X104653234Y-51890476D02*
X104700853Y-51938095D01*
X104700853Y-51938095D02*
X104748472Y-52033333D01*
X104748472Y-52033333D02*
X104748472Y-52414285D01*
X105224663Y-50890476D02*
X105224663Y-51461904D01*
X105224663Y-51176190D02*
X104224663Y-51176190D01*
X104224663Y-51176190D02*
X104367520Y-51271428D01*
X104367520Y-51271428D02*
X104462758Y-51366666D01*
X104462758Y-51366666D02*
X104510377Y-51461904D01*
X104557996Y-50033333D02*
X105224663Y-50033333D01*
X104177044Y-50271428D02*
X104891329Y-50509523D01*
X104891329Y-50509523D02*
X104891329Y-49890476D01*
X108853090Y-59917238D02*
X108376899Y-60250571D01*
X108853090Y-60488666D02*
X107853090Y-60488666D01*
X107853090Y-60488666D02*
X107853090Y-60107714D01*
X107853090Y-60107714D02*
X107900709Y-60012476D01*
X107900709Y-60012476D02*
X107948328Y-59964857D01*
X107948328Y-59964857D02*
X108043566Y-59917238D01*
X108043566Y-59917238D02*
X108186423Y-59917238D01*
X108186423Y-59917238D02*
X108281661Y-59964857D01*
X108281661Y-59964857D02*
X108329280Y-60012476D01*
X108329280Y-60012476D02*
X108376899Y-60107714D01*
X108376899Y-60107714D02*
X108376899Y-60488666D01*
X107853090Y-59631523D02*
X108853090Y-59298190D01*
X108853090Y-59298190D02*
X107853090Y-58964857D01*
X108853090Y-58107714D02*
X108853090Y-58679142D01*
X108853090Y-58393428D02*
X107853090Y-58393428D01*
X107853090Y-58393428D02*
X107995947Y-58488666D01*
X107995947Y-58488666D02*
X108091185Y-58583904D01*
X108091185Y-58583904D02*
X108138804Y-58679142D01*
X93004633Y-60186952D02*
X93052252Y-60044095D01*
X93052252Y-60044095D02*
X93099871Y-59996476D01*
X93099871Y-59996476D02*
X93195109Y-59948857D01*
X93195109Y-59948857D02*
X93337966Y-59948857D01*
X93337966Y-59948857D02*
X93433204Y-59996476D01*
X93433204Y-59996476D02*
X93480824Y-60044095D01*
X93480824Y-60044095D02*
X93528443Y-60139333D01*
X93528443Y-60139333D02*
X93528443Y-60520285D01*
X93528443Y-60520285D02*
X92528443Y-60520285D01*
X92528443Y-60520285D02*
X92528443Y-60186952D01*
X92528443Y-60186952D02*
X92576062Y-60091714D01*
X92576062Y-60091714D02*
X92623681Y-60044095D01*
X92623681Y-60044095D02*
X92718919Y-59996476D01*
X92718919Y-59996476D02*
X92814157Y-59996476D01*
X92814157Y-59996476D02*
X92909395Y-60044095D01*
X92909395Y-60044095D02*
X92957014Y-60091714D01*
X92957014Y-60091714D02*
X93004633Y-60186952D01*
X93004633Y-60186952D02*
X93004633Y-60520285D01*
X92528443Y-59615523D02*
X92528443Y-58948857D01*
X92528443Y-58948857D02*
X93528443Y-59615523D01*
X93528443Y-59615523D02*
X93528443Y-58948857D01*
X93528443Y-58044095D02*
X93528443Y-58615523D01*
X93528443Y-58329809D02*
X92528443Y-58329809D01*
X92528443Y-58329809D02*
X92671300Y-58425047D01*
X92671300Y-58425047D02*
X92766538Y-58520285D01*
X92766538Y-58520285D02*
X92814157Y-58615523D01*
X122654663Y-66596666D02*
X122178472Y-66929999D01*
X122654663Y-67168094D02*
X121654663Y-67168094D01*
X121654663Y-67168094D02*
X121654663Y-66787142D01*
X121654663Y-66787142D02*
X121702282Y-66691904D01*
X121702282Y-66691904D02*
X121749901Y-66644285D01*
X121749901Y-66644285D02*
X121845139Y-66596666D01*
X121845139Y-66596666D02*
X121987996Y-66596666D01*
X121987996Y-66596666D02*
X122083234Y-66644285D01*
X122083234Y-66644285D02*
X122130853Y-66691904D01*
X122130853Y-66691904D02*
X122178472Y-66787142D01*
X122178472Y-66787142D02*
X122178472Y-67168094D01*
X121654663Y-65691904D02*
X121654663Y-66168094D01*
X121654663Y-66168094D02*
X122130853Y-66215713D01*
X122130853Y-66215713D02*
X122083234Y-66168094D01*
X122083234Y-66168094D02*
X122035615Y-66072856D01*
X122035615Y-66072856D02*
X122035615Y-65834761D01*
X122035615Y-65834761D02*
X122083234Y-65739523D01*
X122083234Y-65739523D02*
X122130853Y-65691904D01*
X122130853Y-65691904D02*
X122226091Y-65644285D01*
X122226091Y-65644285D02*
X122464186Y-65644285D01*
X122464186Y-65644285D02*
X122559424Y-65691904D01*
X122559424Y-65691904D02*
X122607044Y-65739523D01*
X122607044Y-65739523D02*
X122654663Y-65834761D01*
X122654663Y-65834761D02*
X122654663Y-66072856D01*
X122654663Y-66072856D02*
X122607044Y-66168094D01*
X122607044Y-66168094D02*
X122559424Y-66215713D01*
X139473333Y-62794663D02*
X139140000Y-62318472D01*
X138901905Y-62794663D02*
X138901905Y-61794663D01*
X138901905Y-61794663D02*
X139282857Y-61794663D01*
X139282857Y-61794663D02*
X139378095Y-61842282D01*
X139378095Y-61842282D02*
X139425714Y-61889901D01*
X139425714Y-61889901D02*
X139473333Y-61985139D01*
X139473333Y-61985139D02*
X139473333Y-62127996D01*
X139473333Y-62127996D02*
X139425714Y-62223234D01*
X139425714Y-62223234D02*
X139378095Y-62270853D01*
X139378095Y-62270853D02*
X139282857Y-62318472D01*
X139282857Y-62318472D02*
X138901905Y-62318472D01*
X139806667Y-61794663D02*
X140473333Y-61794663D01*
X140473333Y-61794663D02*
X140044762Y-62794663D01*
D19*
%TO.C,G\u002A\u002A\u002A*%
G36*
X155501379Y-91678297D02*
G01*
X155501379Y-91807395D01*
X155307733Y-91807395D01*
X155114086Y-91807395D01*
X155114086Y-92404473D01*
X155114086Y-93001550D01*
X154960782Y-93001550D01*
X154807478Y-93001550D01*
X154807478Y-92404473D01*
X154807478Y-91807395D01*
X154613832Y-91807395D01*
X154420185Y-91807395D01*
X154420185Y-91678297D01*
X154420185Y-91549199D01*
X154960782Y-91549199D01*
X155501379Y-91549199D01*
X155501379Y-91678297D01*
G37*
G36*
X153936068Y-91670229D02*
G01*
X153936068Y-91791258D01*
X153677872Y-91791258D01*
X153419677Y-91791258D01*
X153419677Y-91984905D01*
X153419677Y-92178551D01*
X153661735Y-92178551D01*
X153903794Y-92178551D01*
X153903794Y-92299581D01*
X153903794Y-92420610D01*
X153661735Y-92420610D01*
X153419677Y-92420610D01*
X153419677Y-92711080D01*
X153419677Y-93001550D01*
X153266373Y-93001550D01*
X153113069Y-93001550D01*
X153113069Y-92275375D01*
X153113069Y-91549199D01*
X153524569Y-91549199D01*
X153936068Y-91549199D01*
X153936068Y-91670229D01*
G37*
G36*
X156487452Y-92275375D02*
G01*
X156138974Y-93211334D01*
X155965412Y-93211334D01*
X155894903Y-93210285D01*
X155838111Y-93207444D01*
X155801638Y-93203272D01*
X155791524Y-93199231D01*
X155796936Y-93182345D01*
X155812645Y-93137850D01*
X155837687Y-93068381D01*
X155871096Y-92976573D01*
X155911909Y-92865063D01*
X155959160Y-92736487D01*
X156011884Y-92593480D01*
X156069117Y-92438678D01*
X156129893Y-92274717D01*
X156134141Y-92263272D01*
X156477083Y-91339415D01*
X156656507Y-91339415D01*
X156835931Y-91339415D01*
X156487452Y-92275375D01*
G37*
G36*
X158244708Y-91791258D02*
G01*
X158244708Y-92065591D01*
X158527110Y-92065591D01*
X158809512Y-92065591D01*
X158809512Y-92275375D01*
X158809512Y-92485159D01*
X158527491Y-92485159D01*
X158245471Y-92485159D01*
X158241055Y-92763526D01*
X158236640Y-93041893D01*
X158030890Y-93046410D01*
X157825140Y-93050926D01*
X157825140Y-92768042D01*
X157825140Y-92485159D01*
X157542739Y-92485159D01*
X157260337Y-92485159D01*
X157260337Y-92275375D01*
X157260337Y-92065591D01*
X157542739Y-92065591D01*
X157825140Y-92065591D01*
X157825140Y-91791258D01*
X157825140Y-91516925D01*
X158034924Y-91516925D01*
X158244708Y-91516925D01*
X158244708Y-91791258D01*
G37*
G36*
X162633709Y-91935523D02*
G01*
X162750398Y-92009721D01*
X162858070Y-92078828D01*
X162953767Y-92140896D01*
X163034530Y-92193977D01*
X163097403Y-92236126D01*
X163139426Y-92265394D01*
X163157643Y-92279835D01*
X163158169Y-92280754D01*
X163145170Y-92291394D01*
X163108452Y-92316917D01*
X163051615Y-92355014D01*
X162978256Y-92403378D01*
X162891972Y-92459703D01*
X162796363Y-92521680D01*
X162695025Y-92587003D01*
X162591558Y-92653363D01*
X162489558Y-92718454D01*
X162392624Y-92779967D01*
X162304354Y-92835597D01*
X162228346Y-92883035D01*
X162168198Y-92919974D01*
X162127507Y-92944106D01*
X162109872Y-92953125D01*
X162109699Y-92953138D01*
X162106802Y-92937947D01*
X162104355Y-92896156D01*
X162102557Y-92833438D01*
X162101606Y-92755467D01*
X162101506Y-92719149D01*
X162101506Y-92485159D01*
X161415674Y-92485159D01*
X160729842Y-92485159D01*
X160729842Y-92275375D01*
X160729842Y-92065591D01*
X161415243Y-92065591D01*
X162100644Y-92065591D01*
X162105109Y-91834665D01*
X162109575Y-91603739D01*
X162633709Y-91935523D01*
G37*
G36*
X160181464Y-91340126D02*
G01*
X160233755Y-91342671D01*
X160263295Y-91347673D01*
X160274835Y-91355752D01*
X160275148Y-91362112D01*
X160268731Y-91380948D01*
X160252051Y-91427340D01*
X160226099Y-91498594D01*
X160191866Y-91592016D01*
X160150343Y-91704914D01*
X160102520Y-91834594D01*
X160049389Y-91978362D01*
X159991938Y-92133525D01*
X159931160Y-92297389D01*
X159931049Y-92297689D01*
X159592167Y-93210568D01*
X159411023Y-93210951D01*
X159229878Y-93211334D01*
X159247016Y-93166957D01*
X159260062Y-93132603D01*
X159282302Y-93073382D01*
X159312553Y-92992483D01*
X159349630Y-92893097D01*
X159392349Y-92778413D01*
X159439527Y-92651622D01*
X159489981Y-92515913D01*
X159542525Y-92374476D01*
X159595977Y-92230501D01*
X159649153Y-92087179D01*
X159700868Y-91947698D01*
X159749940Y-91815249D01*
X159795183Y-91693023D01*
X159835415Y-91584208D01*
X159869452Y-91491994D01*
X159896109Y-91419572D01*
X159914203Y-91370132D01*
X159922551Y-91346864D01*
X159922980Y-91345475D01*
X159938035Y-91343047D01*
X159978871Y-91341083D01*
X160038997Y-91339802D01*
X160101673Y-91339415D01*
X160181464Y-91340126D01*
G37*
D20*
%TO.C,D7*%
X133740000Y-73210000D02*
X133740000Y-73366000D01*
X133740000Y-75526000D02*
X133740000Y-75682000D01*
X133740000Y-73210484D02*
G75*
G02*
X136971437Y-73366000I1560000J-1235516D01*
G01*
X134259039Y-73366000D02*
G75*
G02*
X136340961Y-73366000I1040961J-1080000D01*
G01*
X136340961Y-75526000D02*
G75*
G02*
X134259039Y-75526000I-1040961J1080000D01*
G01*
X136971437Y-75526000D02*
G75*
G02*
X133740000Y-75681516I-1671437J1080000D01*
G01*
%TO.C,R15*%
X121295000Y-50962936D02*
X121295000Y-51417064D01*
X122765000Y-50962936D02*
X122765000Y-51417064D01*
%TO.C,D10*%
X153240000Y-73240000D02*
X153240000Y-73396000D01*
X153240000Y-75556000D02*
X153240000Y-75712000D01*
X153240000Y-73240484D02*
G75*
G02*
X156471437Y-73396000I1560000J-1235516D01*
G01*
X153759039Y-73396000D02*
G75*
G02*
X155840961Y-73396000I1040961J-1080000D01*
G01*
X155840961Y-75556000D02*
G75*
G02*
X153759039Y-75556000I-1040961J1080000D01*
G01*
X156471437Y-75556000D02*
G75*
G02*
X153240000Y-75711516I-1671437J1080000D01*
G01*
%TO.C,D12*%
X166240000Y-73210000D02*
X166240000Y-73366000D01*
X166240000Y-75526000D02*
X166240000Y-75682000D01*
X166240000Y-73210484D02*
G75*
G02*
X169471437Y-73366000I1560000J-1235516D01*
G01*
X166759039Y-73366000D02*
G75*
G02*
X168840961Y-73366000I1040961J-1080000D01*
G01*
X168840961Y-75526000D02*
G75*
G02*
X166759039Y-75526000I-1040961J1080000D01*
G01*
X169471437Y-75526000D02*
G75*
G02*
X166240000Y-75681516I-1671437J1080000D01*
G01*
%TO.C,D6*%
X130360000Y-73366000D02*
X130360000Y-73210000D01*
X130360000Y-75682000D02*
X130360000Y-75526000D01*
X127128563Y-73366000D02*
G75*
G02*
X130360000Y-73210484I1671437J-1080000D01*
G01*
X127759039Y-73366000D02*
G75*
G02*
X129840961Y-73366000I1040961J-1080000D01*
G01*
X129840961Y-75526000D02*
G75*
G02*
X127759039Y-75526000I-1040961J1080000D01*
G01*
X130360000Y-75681516D02*
G75*
G02*
X127128563Y-75526000I-1560000J1235516D01*
G01*
%TO.C,D11*%
X159740000Y-73210000D02*
X159740000Y-73366000D01*
X159740000Y-75526000D02*
X159740000Y-75682000D01*
X159740000Y-73210484D02*
G75*
G02*
X162971437Y-73366000I1560000J-1235516D01*
G01*
X160259039Y-73366000D02*
G75*
G02*
X162340961Y-73366000I1040961J-1080000D01*
G01*
X162340961Y-75526000D02*
G75*
G02*
X160259039Y-75526000I-1040961J1080000D01*
G01*
X162971437Y-75526000D02*
G75*
G02*
X159740000Y-75681516I-1671437J1080000D01*
G01*
%TO.C,D14*%
X169360000Y-58745800D02*
X169360000Y-58589800D01*
X169360000Y-61061800D02*
X169360000Y-60905800D01*
X166128563Y-58745800D02*
G75*
G02*
X169360000Y-58590284I1671437J-1080000D01*
G01*
X166759039Y-58745800D02*
G75*
G02*
X168840961Y-58745800I1040961J-1080000D01*
G01*
X168840961Y-60905800D02*
G75*
G02*
X166759039Y-60905800I-1040961J1080000D01*
G01*
X169360000Y-61061316D02*
G75*
G02*
X166128563Y-60905800I-1560000J1235516D01*
G01*
%TO.C,D4*%
X117360000Y-73366000D02*
X117360000Y-73210000D01*
X117360000Y-75682000D02*
X117360000Y-75526000D01*
X114128563Y-73366000D02*
G75*
G02*
X117360000Y-73210484I1671437J-1080000D01*
G01*
X114759039Y-73366000D02*
G75*
G02*
X116840961Y-73366000I1040961J-1080000D01*
G01*
X116840961Y-75526000D02*
G75*
G02*
X114759039Y-75526000I-1040961J1080000D01*
G01*
X117360000Y-75681516D02*
G75*
G02*
X114128563Y-75526000I-1560000J1235516D01*
G01*
%TO.C,D13*%
X166240000Y-52509800D02*
X166240000Y-52665800D01*
X166240000Y-54825800D02*
X166240000Y-54981800D01*
X166240000Y-52510284D02*
G75*
G02*
X169471437Y-52665800I1560000J-1235516D01*
G01*
X166759039Y-52665800D02*
G75*
G02*
X168840961Y-52665800I1040961J-1080000D01*
G01*
X168840961Y-54825800D02*
G75*
G02*
X166759039Y-54825800I-1040961J1080000D01*
G01*
X169471437Y-54825800D02*
G75*
G02*
X166240000Y-54981316I-1671437J1080000D01*
G01*
D19*
%TO.C,LB2*%
G36*
X100294971Y-68301359D02*
G01*
X100293398Y-68315650D01*
X100290195Y-68329846D01*
X100285440Y-68343782D01*
X100279210Y-68357290D01*
X100271582Y-68370202D01*
X100262634Y-68382352D01*
X100252444Y-68393573D01*
X100251989Y-68394022D01*
X100240173Y-68404493D01*
X100227465Y-68413583D01*
X100213988Y-68421224D01*
X100199864Y-68427351D01*
X100185215Y-68431897D01*
X100179818Y-68433138D01*
X100176748Y-68433684D01*
X100172713Y-68434267D01*
X100168073Y-68434850D01*
X100163188Y-68435396D01*
X100158415Y-68435868D01*
X100154113Y-68436229D01*
X100150643Y-68436443D01*
X100148363Y-68436472D01*
X100147864Y-68436423D01*
X100146585Y-68436290D01*
X100144211Y-68436115D01*
X100142310Y-68435997D01*
X100126514Y-68434258D01*
X100111236Y-68430900D01*
X100096540Y-68425950D01*
X100082488Y-68419438D01*
X100069144Y-68411390D01*
X100056569Y-68401834D01*
X100048011Y-68394022D01*
X100037652Y-68382709D01*
X100028580Y-68370468D01*
X100020865Y-68357449D01*
X100014579Y-68343806D01*
X100009790Y-68329690D01*
X100006570Y-68315255D01*
X100004987Y-68300652D01*
X100004980Y-68300504D01*
X100004484Y-68290464D01*
X100150006Y-68290464D01*
X100295529Y-68290464D01*
X100294971Y-68301359D01*
G37*
G36*
X100158113Y-66905619D02*
G01*
X100173413Y-66907342D01*
X100188668Y-66910722D01*
X100196529Y-66913138D01*
X100211023Y-66918908D01*
X100224659Y-66926111D01*
X100237357Y-66934654D01*
X100249035Y-66944446D01*
X100259611Y-66955396D01*
X100269004Y-66967413D01*
X100277131Y-66980406D01*
X100283913Y-66994283D01*
X100289266Y-67008954D01*
X100292238Y-67020170D01*
X100293241Y-67025048D01*
X100294025Y-67029900D01*
X100294617Y-67035043D01*
X100295044Y-67040797D01*
X100295333Y-67047478D01*
X100295511Y-67055405D01*
X100295562Y-67059486D01*
X100295692Y-67072231D01*
X100302101Y-67074271D01*
X100330580Y-67084200D01*
X100358160Y-67095568D01*
X100384813Y-67108357D01*
X100410512Y-67122546D01*
X100435232Y-67138116D01*
X100458943Y-67155049D01*
X100481621Y-67173324D01*
X100503237Y-67192923D01*
X100523764Y-67213825D01*
X100543176Y-67236012D01*
X100561446Y-67259465D01*
X100562621Y-67261070D01*
X100579113Y-67285141D01*
X100594172Y-67310111D01*
X100607765Y-67335903D01*
X100619863Y-67362443D01*
X100630433Y-67389653D01*
X100639446Y-67417456D01*
X100646871Y-67445777D01*
X100652675Y-67474539D01*
X100654943Y-67488943D01*
X100655409Y-67492163D01*
X100655842Y-67495125D01*
X100656245Y-67497896D01*
X100656618Y-67500541D01*
X100656963Y-67503126D01*
X100657281Y-67505717D01*
X100657573Y-67508378D01*
X100657841Y-67511176D01*
X100658085Y-67514176D01*
X100658306Y-67517443D01*
X100658507Y-67521045D01*
X100658687Y-67525045D01*
X100658849Y-67529510D01*
X100658993Y-67534505D01*
X100659121Y-67540096D01*
X100659234Y-67546348D01*
X100659332Y-67553328D01*
X100659418Y-67561100D01*
X100659492Y-67569731D01*
X100659556Y-67579285D01*
X100659610Y-67589829D01*
X100659657Y-67601429D01*
X100659696Y-67614149D01*
X100659730Y-67628055D01*
X100659759Y-67643214D01*
X100659785Y-67659690D01*
X100659809Y-67677549D01*
X100659832Y-67696857D01*
X100659855Y-67717680D01*
X100659879Y-67740082D01*
X100659906Y-67763260D01*
X100660177Y-67998697D01*
X100733217Y-68071732D01*
X100806256Y-68144768D01*
X100806256Y-68181300D01*
X100806256Y-68217831D01*
X100150000Y-68217831D01*
X99493744Y-68217831D01*
X99493744Y-68181300D01*
X99493744Y-68144768D01*
X99566784Y-68071732D01*
X99639823Y-67998697D01*
X99640095Y-67763260D01*
X99640121Y-67739240D01*
X99640146Y-67716864D01*
X99640168Y-67696066D01*
X99640191Y-67676778D01*
X99640214Y-67658937D01*
X99640240Y-67642477D01*
X99640270Y-67627330D01*
X99640304Y-67613433D01*
X99640345Y-67600718D01*
X99640392Y-67589120D01*
X99640449Y-67578574D01*
X99640515Y-67569014D01*
X99640593Y-67560373D01*
X99640683Y-67552587D01*
X99640787Y-67545589D01*
X99640906Y-67539314D01*
X99641041Y-67533696D01*
X99641194Y-67528669D01*
X99641365Y-67524167D01*
X99641557Y-67520125D01*
X99641769Y-67516477D01*
X99642005Y-67513157D01*
X99642264Y-67510099D01*
X99642549Y-67507238D01*
X99642860Y-67504508D01*
X99643198Y-67501842D01*
X99643566Y-67499177D01*
X99643963Y-67496444D01*
X99644393Y-67493580D01*
X99644855Y-67490518D01*
X99645351Y-67487192D01*
X99645425Y-67486685D01*
X99650554Y-67457612D01*
X99657315Y-67429015D01*
X99665682Y-67400950D01*
X99675632Y-67373469D01*
X99687140Y-67346628D01*
X99700182Y-67320480D01*
X99714733Y-67295079D01*
X99730769Y-67270479D01*
X99748264Y-67246735D01*
X99760857Y-67231255D01*
X99780540Y-67209293D01*
X99801323Y-67188633D01*
X99823179Y-67169294D01*
X99846081Y-67151293D01*
X99870003Y-67134648D01*
X99894918Y-67119377D01*
X99920800Y-67105496D01*
X99947621Y-67093025D01*
X99975354Y-67081980D01*
X99997899Y-67074273D01*
X100004308Y-67072236D01*
X100004796Y-67051797D01*
X100004997Y-67044597D01*
X100005232Y-67038789D01*
X100005528Y-67034054D01*
X100005911Y-67030076D01*
X100006407Y-67026536D01*
X100007042Y-67023117D01*
X100007195Y-67022386D01*
X100011348Y-67006799D01*
X100016992Y-66992030D01*
X100024109Y-66978110D01*
X100032683Y-66965073D01*
X100042695Y-66952949D01*
X100047011Y-66948451D01*
X100058795Y-66937830D01*
X100071395Y-66928663D01*
X100084704Y-66920976D01*
X100098615Y-66914793D01*
X100113019Y-66910141D01*
X100127808Y-66907044D01*
X100142876Y-66905528D01*
X100158113Y-66905619D01*
G37*
D20*
%TO.C,R6*%
X139412936Y-52975000D02*
X139867064Y-52975000D01*
X139412936Y-54445000D02*
X139867064Y-54445000D01*
%TO.C,C2*%
X139393660Y-65603413D02*
X139916164Y-65603413D01*
X139393660Y-67073413D02*
X139916164Y-67073413D01*
%TO.C,R9*%
X150790000Y-84957936D02*
X150790000Y-85412064D01*
X152260000Y-84957936D02*
X152260000Y-85412064D01*
%TO.C,D1*%
X94740000Y-73210000D02*
X94740000Y-73366000D01*
X94740000Y-75526000D02*
X94740000Y-75682000D01*
X94740000Y-73210484D02*
G75*
G02*
X97971437Y-73366000I1560000J-1235516D01*
G01*
X95259039Y-73366000D02*
G75*
G02*
X97340961Y-73366000I1040961J-1080000D01*
G01*
X97340961Y-75526000D02*
G75*
G02*
X95259039Y-75526000I-1040961J1080000D01*
G01*
X97971437Y-75526000D02*
G75*
G02*
X94740000Y-75681516I-1671437J1080000D01*
G01*
%TO.C,D3*%
X110860000Y-73366000D02*
X110860000Y-73210000D01*
X110860000Y-75682000D02*
X110860000Y-75526000D01*
X107628563Y-73366000D02*
G75*
G02*
X110860000Y-73210484I1671437J-1080000D01*
G01*
X108259039Y-73366000D02*
G75*
G02*
X110340961Y-73366000I1040961J-1080000D01*
G01*
X110340961Y-75526000D02*
G75*
G02*
X108259039Y-75526000I-1040961J1080000D01*
G01*
X110860000Y-75681516D02*
G75*
G02*
X107628563Y-75526000I-1560000J1235516D01*
G01*
%TO.C,R10*%
X137790000Y-84957936D02*
X137790000Y-85412064D01*
X139260000Y-84957936D02*
X139260000Y-85412064D01*
%TO.C,R1*%
X124472936Y-57975000D02*
X124927064Y-57975000D01*
X124472936Y-59445000D02*
X124927064Y-59445000D01*
%TO.C,D15*%
X166240000Y-64669800D02*
X166240000Y-64825800D01*
X166240000Y-66985800D02*
X166240000Y-67141800D01*
X166240000Y-64670284D02*
G75*
G02*
X169471437Y-64825800I1560000J-1235516D01*
G01*
X166759039Y-64825800D02*
G75*
G02*
X168840961Y-64825800I1040961J-1080000D01*
G01*
X168840961Y-66985800D02*
G75*
G02*
X166759039Y-66985800I-1040961J1080000D01*
G01*
X169471437Y-66985800D02*
G75*
G02*
X166240000Y-67141316I-1671437J1080000D01*
G01*
%TO.C,R12*%
X111840000Y-84957936D02*
X111840000Y-85412064D01*
X113310000Y-84957936D02*
X113310000Y-85412064D01*
%TO.C,U1*%
X129250000Y-49754000D02*
X129250000Y-67654000D01*
X129250000Y-67654000D02*
X134550000Y-67654000D01*
X130900000Y-49754000D02*
X129250000Y-49754000D01*
X134550000Y-49754000D02*
X132900000Y-49754000D01*
X134550000Y-67654000D02*
X134550000Y-49754000D01*
X126760000Y-49694000D02*
X137040000Y-49694000D01*
X137040000Y-67714000D01*
X126760000Y-67714000D01*
X126760000Y-49694000D01*
X132900000Y-49754000D02*
G75*
G02*
X130900000Y-49754000I-1000000J0D01*
G01*
%TO.C,D5*%
X123860000Y-73381000D02*
X123860000Y-73225000D01*
X123860000Y-75697000D02*
X123860000Y-75541000D01*
X120628563Y-73381000D02*
G75*
G02*
X123860000Y-73225484I1671437J-1080000D01*
G01*
X121259039Y-73381000D02*
G75*
G02*
X123340961Y-73381000I1040961J-1080000D01*
G01*
X123340961Y-75541000D02*
G75*
G02*
X121259039Y-75541000I-1040961J1080000D01*
G01*
X123860000Y-75696516D02*
G75*
G02*
X120628563Y-75541000I-1560000J1235516D01*
G01*
%TO.C,D9*%
X146740000Y-73210000D02*
X146740000Y-73366000D01*
X146740000Y-75526000D02*
X146740000Y-75682000D01*
X146740000Y-73210484D02*
G75*
G02*
X149971437Y-73366000I1560000J-1235516D01*
G01*
X147259039Y-73366000D02*
G75*
G02*
X149340961Y-73366000I1040961J-1080000D01*
G01*
X149340961Y-75526000D02*
G75*
G02*
X147259039Y-75526000I-1040961J1080000D01*
G01*
X149971437Y-75526000D02*
G75*
G02*
X146740000Y-75681516I-1671437J1080000D01*
G01*
%TO.C,R11*%
X124790000Y-84957936D02*
X124790000Y-85412064D01*
X126260000Y-84957936D02*
X126260000Y-85412064D01*
%TO.C,R14*%
X105685000Y-50972936D02*
X105685000Y-51427064D01*
X107155000Y-50972936D02*
X107155000Y-51427064D01*
%TO.C,RV1*%
X109383000Y-55462000D02*
X119133000Y-55462000D01*
X109383000Y-64212000D02*
X109383000Y-55462000D01*
X109383000Y-64212000D02*
X119133000Y-64212000D01*
X119133000Y-64212000D02*
X119133000Y-55462000D01*
D19*
%TO.C,G\u002A\u002A\u002A*%
G36*
X106877921Y-92305929D02*
G01*
X106877921Y-92515713D01*
X106103334Y-92515713D01*
X105328747Y-92515713D01*
X105328747Y-92305929D01*
X105328747Y-92096145D01*
X106103334Y-92096145D01*
X106877921Y-92096145D01*
X106877921Y-92305929D01*
G37*
G36*
X110117470Y-91631462D02*
G01*
X110226396Y-91636234D01*
X110226396Y-92313997D01*
X110226396Y-92991761D01*
X110117470Y-92996533D01*
X110008543Y-93001304D01*
X110008543Y-92313997D01*
X110008543Y-91626690D01*
X110117470Y-91631462D01*
G37*
G36*
X110992914Y-92305929D02*
G01*
X110992914Y-92983692D01*
X110879954Y-92983692D01*
X110766993Y-92983692D01*
X110766993Y-92305929D01*
X110766993Y-91628165D01*
X110879954Y-91628165D01*
X110992914Y-91628165D01*
X110992914Y-92305929D01*
G37*
G36*
X104831901Y-91374200D02*
G01*
X104867689Y-91377653D01*
X104877175Y-91381526D01*
X104871750Y-91398510D01*
X104856018Y-91443097D01*
X104830946Y-91512652D01*
X104797501Y-91604536D01*
X104756647Y-91716111D01*
X104709350Y-91844741D01*
X104656578Y-91987786D01*
X104599295Y-92142611D01*
X104538468Y-92306577D01*
X104534259Y-92317906D01*
X104191072Y-93241638D01*
X104017597Y-93241763D01*
X103947146Y-93241359D01*
X103890455Y-93240169D01*
X103854115Y-93238387D01*
X103844121Y-93236645D01*
X103849601Y-93221008D01*
X103865396Y-93177737D01*
X103890541Y-93109438D01*
X103924072Y-93018715D01*
X103965022Y-92908173D01*
X104012428Y-92780419D01*
X104065323Y-92638056D01*
X104122742Y-92483690D01*
X104183721Y-92319927D01*
X104189387Y-92304719D01*
X104534652Y-91378038D01*
X104705778Y-91373458D01*
X104775717Y-91372697D01*
X104831901Y-91374200D01*
G37*
G36*
X108285268Y-91374200D02*
G01*
X108321056Y-91377653D01*
X108330542Y-91381526D01*
X108325117Y-91398510D01*
X108309385Y-91443097D01*
X108284313Y-91512652D01*
X108250868Y-91604536D01*
X108210014Y-91716111D01*
X108162718Y-91844741D01*
X108109945Y-91987786D01*
X108052662Y-92142611D01*
X107991835Y-92306577D01*
X107987626Y-92317906D01*
X107644439Y-93241638D01*
X107470964Y-93241763D01*
X107400513Y-93241359D01*
X107343823Y-93240169D01*
X107307482Y-93238387D01*
X107297489Y-93236645D01*
X107302968Y-93221008D01*
X107318763Y-93177737D01*
X107343908Y-93109438D01*
X107377439Y-93018715D01*
X107418389Y-92908173D01*
X107465795Y-92780419D01*
X107518690Y-92638056D01*
X107576109Y-92483690D01*
X107637088Y-92319927D01*
X107642754Y-92304719D01*
X107988019Y-91378038D01*
X108159145Y-91373458D01*
X108229085Y-91372697D01*
X108285268Y-91374200D01*
G37*
G36*
X108932983Y-91696751D02*
G01*
X109118558Y-91813508D01*
X109278517Y-91914321D01*
X109414626Y-92000335D01*
X109528648Y-92072696D01*
X109622350Y-92132546D01*
X109697494Y-92181032D01*
X109755845Y-92219297D01*
X109799169Y-92248485D01*
X109829229Y-92269743D01*
X109847790Y-92284213D01*
X109856617Y-92293041D01*
X109857900Y-92296685D01*
X109843880Y-92308009D01*
X109806152Y-92334165D01*
X109748348Y-92372831D01*
X109674097Y-92421682D01*
X109587030Y-92478397D01*
X109490777Y-92540651D01*
X109388968Y-92606123D01*
X109285235Y-92672490D01*
X109183206Y-92737427D01*
X109086513Y-92798613D01*
X108998786Y-92853724D01*
X108923655Y-92900437D01*
X108864751Y-92936430D01*
X108825704Y-92959379D01*
X108810354Y-92966982D01*
X108807776Y-92951526D01*
X108805386Y-92907125D01*
X108803243Y-92837109D01*
X108801406Y-92744809D01*
X108799935Y-92633555D01*
X108798891Y-92506676D01*
X108798331Y-92367501D01*
X108798251Y-92289795D01*
X108798251Y-91612034D01*
X108932983Y-91696751D01*
G37*
G36*
X102022843Y-91634643D02*
G01*
X102029244Y-91648929D01*
X102033392Y-91680671D01*
X102035721Y-91734146D01*
X102036664Y-91813630D01*
X102036752Y-91860428D01*
X102036752Y-92096145D01*
X102722584Y-92096145D01*
X103408416Y-92096145D01*
X103408416Y-92305929D01*
X103408416Y-92515713D01*
X102723015Y-92515713D01*
X102037615Y-92515713D01*
X102033149Y-92749586D01*
X102028683Y-92983458D01*
X101504223Y-92651929D01*
X101387006Y-92577723D01*
X101278307Y-92508701D01*
X101181165Y-92446806D01*
X101098616Y-92393985D01*
X101033700Y-92352182D01*
X100989454Y-92323341D01*
X100968915Y-92309408D01*
X100967961Y-92308624D01*
X100978980Y-92298369D01*
X101013773Y-92273222D01*
X101068792Y-92235472D01*
X101140490Y-92187410D01*
X101225320Y-92131324D01*
X101319735Y-92069506D01*
X101420188Y-92004244D01*
X101523131Y-91937828D01*
X101625018Y-91872549D01*
X101722301Y-91810695D01*
X101811433Y-91754557D01*
X101888868Y-91706425D01*
X101951057Y-91668587D01*
X101994453Y-91643335D01*
X102013755Y-91633537D01*
X102022843Y-91634643D01*
G37*
D20*
%TO.C,BZ1*%
X106358500Y-59306000D02*
G75*
G02*
X94158500Y-59306000I-6100000J0D01*
G01*
X94158500Y-59306000D02*
G75*
G02*
X106358500Y-59306000I6100000J0D01*
G01*
%TO.C,R5*%
X124927064Y-65695000D02*
X124472936Y-65695000D01*
X124927064Y-67165000D02*
X124472936Y-67165000D01*
%TO.C,D8*%
X140240000Y-73210000D02*
X140240000Y-73366000D01*
X140240000Y-75526000D02*
X140240000Y-75682000D01*
X140240000Y-73210484D02*
G75*
G02*
X143471437Y-73366000I1560000J-1235516D01*
G01*
X140759039Y-73366000D02*
G75*
G02*
X142840961Y-73366000I1040961J-1080000D01*
G01*
X142840961Y-75526000D02*
G75*
G02*
X140759039Y-75526000I-1040961J1080000D01*
G01*
X143471437Y-75526000D02*
G75*
G02*
X140240000Y-75681516I-1671437J1080000D01*
G01*
%TO.C,R7*%
X139867064Y-63365000D02*
X139412936Y-63365000D01*
X139867064Y-64835000D02*
X139412936Y-64835000D01*
%TO.C,D2*%
X101240000Y-73210000D02*
X101240000Y-73366000D01*
X101240000Y-75526000D02*
X101240000Y-75682000D01*
X101240000Y-73210484D02*
G75*
G02*
X104471437Y-73366000I1560000J-1235516D01*
G01*
X101759039Y-73366000D02*
G75*
G02*
X103840961Y-73366000I1040961J-1080000D01*
G01*
X103840961Y-75526000D02*
G75*
G02*
X101759039Y-75526000I-1040961J1080000D01*
G01*
X104471437Y-75526000D02*
G75*
G02*
X101240000Y-75681516I-1671437J1080000D01*
G01*
%TD*%
M02*
