%TF.GenerationSoftware,KiCad,Pcbnew,9.0.2*%
%TF.CreationDate,2026-04-05T15:37:08+02:00*%
%TF.ProjectId,sotpotatis_pomodoro_timer,736f7470-6f74-4617-9469-735f706f6d6f,rev?*%
%TF.SameCoordinates,Original*%
%TF.FileFunction,Copper,L1,Top*%
%TF.FilePolarity,Positive*%
%FSLAX46Y46*%
G04 Gerber Fmt 4.6, Leading zero omitted, Abs format (unit mm)*
G04 Created by KiCad (PCBNEW 9.0.2) date 2026-04-05 15:37:08*
%MOMM*%
%LPD*%
G01*
G04 APERTURE LIST*
G04 Aperture macros list*
%AMRoundRect*
0 Rectangle with rounded corners*
0 $1 Rounding radius*
0 $2 $3 $4 $5 $6 $7 $8 $9 X,Y pos of 4 corners*
0 Add a 4 corners polygon primitive as box body*
4,1,4,$2,$3,$4,$5,$6,$7,$8,$9,$2,$3,0*
0 Add four circle primitives for the rounded corners*
1,1,$1+$1,$2,$3*
1,1,$1+$1,$4,$5*
1,1,$1+$1,$6,$7*
1,1,$1+$1,$8,$9*
0 Add four rect primitives between the rounded corners*
20,1,$1+$1,$2,$3,$4,$5,0*
20,1,$1+$1,$4,$5,$6,$7,0*
20,1,$1+$1,$6,$7,$8,$9,0*
20,1,$1+$1,$8,$9,$2,$3,0*%
G04 Aperture macros list end*
%TA.AperFunction,ComponentPad*%
%ADD10R,1.800000X1.800000*%
%TD*%
%TA.AperFunction,ComponentPad*%
%ADD11C,1.800000*%
%TD*%
%TA.AperFunction,ComponentPad*%
%ADD12C,2.000000*%
%TD*%
%TA.AperFunction,SMDPad,CuDef*%
%ADD13RoundRect,0.250000X-0.450000X0.350000X-0.450000X-0.350000X0.450000X-0.350000X0.450000X0.350000X0*%
%TD*%
%TA.AperFunction,SMDPad,CuDef*%
%ADD14RoundRect,0.250000X-0.350000X-0.450000X0.350000X-0.450000X0.350000X0.450000X-0.350000X0.450000X0*%
%TD*%
%TA.AperFunction,SMDPad,CuDef*%
%ADD15RoundRect,0.250000X-0.337500X-0.475000X0.337500X-0.475000X0.337500X0.475000X-0.337500X0.475000X0*%
%TD*%
%TA.AperFunction,ComponentPad*%
%ADD16RoundRect,0.250000X-0.550000X-0.550000X0.550000X-0.550000X0.550000X0.550000X-0.550000X0.550000X0*%
%TD*%
%TA.AperFunction,ComponentPad*%
%ADD17C,1.600000*%
%TD*%
%TA.AperFunction,ComponentPad*%
%ADD18C,1.440000*%
%TD*%
%TA.AperFunction,ComponentPad*%
%ADD19R,2.000000X2.000000*%
%TD*%
%TA.AperFunction,SMDPad,CuDef*%
%ADD20RoundRect,0.250000X0.350000X0.450000X-0.350000X0.450000X-0.350000X-0.450000X0.350000X-0.450000X0*%
%TD*%
%TA.AperFunction,HeatsinkPad*%
%ADD21O,1.000000X1.600000*%
%TD*%
%TA.AperFunction,HeatsinkPad*%
%ADD22O,1.000000X2.100000*%
%TD*%
%TA.AperFunction,ComponentPad*%
%ADD23R,1.700000X1.700000*%
%TD*%
%TA.AperFunction,ViaPad*%
%ADD24C,0.700000*%
%TD*%
%TA.AperFunction,Conductor*%
%ADD25C,0.400000*%
%TD*%
%TA.AperFunction,Conductor*%
%ADD26C,0.300000*%
%TD*%
G04 APERTURE END LIST*
D10*
%TO.P,D7,1,K*%
%TO.N,Net-(D11-A)*%
X134030000Y-74446000D03*
D11*
%TO.P,D7,2,A*%
%TO.N,Net-(D1-K)*%
X136570000Y-74446000D03*
%TD*%
D12*
%TO.P,SW3,1,1*%
%TO.N,Net-(R10-Pad2)*%
X128800000Y-84837000D03*
X135300000Y-84837000D03*
%TO.P,SW3,2,2*%
%TO.N,GND*%
X128800000Y-89337000D03*
X135300000Y-89337000D03*
%TD*%
D13*
%TO.P,R15,1*%
%TO.N,GND*%
X122030000Y-50190000D03*
%TO.P,R15,2*%
%TO.N,Net-(J2-CC2)*%
X122030000Y-52190000D03*
%TD*%
D10*
%TO.P,D10,1,K*%
%TO.N,Net-(D1-K)*%
X153530000Y-74476000D03*
D11*
%TO.P,D10,2,A*%
%TO.N,Net-(D10-A)*%
X156070000Y-74476000D03*
%TD*%
D10*
%TO.P,D12,1,K*%
%TO.N,Net-(D11-A)*%
X166530000Y-74446000D03*
D11*
%TO.P,D12,2,A*%
%TO.N,Net-(D10-A)*%
X169070000Y-74446000D03*
%TD*%
D12*
%TO.P,SW4,1,1*%
%TO.N,Net-(R10-Pad1)*%
X141800000Y-84837000D03*
X148300000Y-84837000D03*
%TO.P,SW4,2,2*%
%TO.N,GND*%
X141800000Y-89337000D03*
X148300000Y-89337000D03*
%TD*%
D10*
%TO.P,D6,1,K*%
%TO.N,Net-(D1-A)*%
X130070000Y-74446000D03*
D11*
%TO.P,D6,2,A*%
%TO.N,Net-(D10-A)*%
X127530000Y-74446000D03*
%TD*%
D10*
%TO.P,D11,1,K*%
%TO.N,Net-(D10-A)*%
X160030000Y-74446000D03*
D11*
%TO.P,D11,2,A*%
%TO.N,Net-(D11-A)*%
X162570000Y-74446000D03*
%TD*%
D10*
%TO.P,D14,1,K*%
%TO.N,Net-(D10-A)*%
X169070000Y-59825800D03*
D11*
%TO.P,D14,2,A*%
%TO.N,Net-(D13-K)*%
X166530000Y-59825800D03*
%TD*%
D10*
%TO.P,D4,1,K*%
%TO.N,Net-(D1-A)*%
X117070000Y-74446000D03*
D11*
%TO.P,D4,2,A*%
%TO.N,Net-(D11-A)*%
X114530000Y-74446000D03*
%TD*%
D10*
%TO.P,D13,1,K*%
%TO.N,Net-(D13-K)*%
X166530000Y-53745800D03*
D11*
%TO.P,D13,2,A*%
%TO.N,Net-(D10-A)*%
X169070000Y-53745800D03*
%TD*%
D12*
%TO.P,SW5,1,1*%
%TO.N,Net-(R8-Pad1)*%
X154800000Y-84837000D03*
X161300000Y-84837000D03*
%TO.P,SW5,2,2*%
%TO.N,GND*%
X154800000Y-89337000D03*
X161300000Y-89337000D03*
%TD*%
%TO.P,SW1,1,1*%
%TO.N,Net-(R12-Pad2)*%
X102800000Y-84837000D03*
X109300000Y-84837000D03*
%TO.P,SW1,2,2*%
%TO.N,GND*%
X102800000Y-89337000D03*
X109300000Y-89337000D03*
%TD*%
D14*
%TO.P,R6,1*%
%TO.N,PA0*%
X138640000Y-53710000D03*
%TO.P,R6,2*%
%TO.N,Net-(D13-K)*%
X140640000Y-53710000D03*
%TD*%
D15*
%TO.P,C2,1*%
%TO.N,PA5*%
X138617412Y-66338413D03*
%TO.P,C2,2*%
%TO.N,GND*%
X140692412Y-66338413D03*
%TD*%
D13*
%TO.P,R9,1*%
%TO.N,PA5*%
X151525000Y-84185000D03*
%TO.P,R9,2*%
%TO.N,Net-(R10-Pad1)*%
X151525000Y-86185000D03*
%TD*%
D10*
%TO.P,D1,1,K*%
%TO.N,Net-(D1-K)*%
X95030000Y-74446000D03*
D11*
%TO.P,D1,2,A*%
%TO.N,Net-(D1-A)*%
X97570000Y-74446000D03*
%TD*%
D10*
%TO.P,D3,1,K*%
%TO.N,Net-(D11-A)*%
X110570000Y-74446000D03*
D11*
%TO.P,D3,2,A*%
%TO.N,Net-(D1-A)*%
X108030000Y-74446000D03*
%TD*%
D13*
%TO.P,R10,1*%
%TO.N,Net-(R10-Pad1)*%
X138525000Y-84185000D03*
%TO.P,R10,2*%
%TO.N,Net-(R10-Pad2)*%
X138525000Y-86185000D03*
%TD*%
D14*
%TO.P,R1,1*%
%TO.N,VCC*%
X123700000Y-58710000D03*
%TO.P,R1,2*%
%TO.N,Net-(U1-~{RESET}{slash}PB3)*%
X125700000Y-58710000D03*
%TD*%
D10*
%TO.P,D15,1,K*%
%TO.N,Net-(D13-K)*%
X166530000Y-65905800D03*
D11*
%TO.P,D15,2,A*%
%TO.N,Net-(D11-A)*%
X169070000Y-65905800D03*
%TD*%
D12*
%TO.P,SW2,1,1*%
%TO.N,Net-(R11-Pad2)*%
X115800000Y-84837000D03*
X122300000Y-84837000D03*
%TO.P,SW2,2,2*%
%TO.N,GND*%
X115800000Y-89337000D03*
X122300000Y-89337000D03*
%TD*%
D13*
%TO.P,R12,1*%
%TO.N,Net-(R11-Pad2)*%
X112575000Y-84185000D03*
%TO.P,R12,2*%
%TO.N,Net-(R12-Pad2)*%
X112575000Y-86185000D03*
%TD*%
D16*
%TO.P,U1,1,VCC*%
%TO.N,VCC*%
X128090000Y-51084000D03*
D17*
%TO.P,U1,2,XTAL1/PB0*%
%TO.N,PB0*%
X128090000Y-53624000D03*
%TO.P,U1,3,XTAL2/PB1*%
%TO.N,PB1*%
X128090000Y-56164000D03*
%TO.P,U1,4,~{RESET}/PB3*%
%TO.N,Net-(U1-~{RESET}{slash}PB3)*%
X128090000Y-58704000D03*
%TO.P,U1,5,PB2*%
%TO.N,PB2*%
X128090000Y-61244000D03*
%TO.P,U1,6,PA7*%
%TO.N,PA7*%
X128090000Y-63784000D03*
%TO.P,U1,7,PA6*%
%TO.N,PA6*%
X128090000Y-66324000D03*
%TO.P,U1,8,PA5*%
%TO.N,PA5*%
X135710000Y-66324000D03*
%TO.P,U1,9,PA4*%
%TO.N,unconnected-(U1-PA4-Pad9)*%
X135710000Y-63784000D03*
%TO.P,U1,10,PA3*%
%TO.N,unconnected-(U1-PA3-Pad10)*%
X135710000Y-61244000D03*
%TO.P,U1,11,PA2*%
%TO.N,unconnected-(U1-PA2-Pad11)*%
X135710000Y-58704000D03*
%TO.P,U1,12,PA1*%
%TO.N,unconnected-(U1-PA1-Pad12)*%
X135710000Y-56164000D03*
%TO.P,U1,13,AREF/PA0*%
%TO.N,PA0*%
X135710000Y-53624000D03*
%TO.P,U1,14,GND*%
%TO.N,GND*%
X135710000Y-51084000D03*
%TD*%
D10*
%TO.P,D5,1,K*%
%TO.N,Net-(D10-A)*%
X123570000Y-74461000D03*
D11*
%TO.P,D5,2,A*%
%TO.N,Net-(D1-A)*%
X121030000Y-74461000D03*
%TD*%
D10*
%TO.P,D9,1,K*%
%TO.N,Net-(D10-A)*%
X147030000Y-74446000D03*
D11*
%TO.P,D9,2,A*%
%TO.N,Net-(D1-K)*%
X149570000Y-74446000D03*
%TD*%
D13*
%TO.P,R11,1*%
%TO.N,Net-(R10-Pad2)*%
X125525000Y-84185000D03*
%TO.P,R11,2*%
%TO.N,Net-(R11-Pad2)*%
X125525000Y-86185000D03*
%TD*%
%TO.P,R14,1*%
%TO.N,GND*%
X106420000Y-50200000D03*
%TO.P,R14,2*%
%TO.N,Net-(J2-CC1)*%
X106420000Y-52200000D03*
%TD*%
D18*
%TO.P,RV1,1,1*%
%TO.N,GND*%
X116798000Y-60322000D03*
%TO.P,RV1,2,2*%
%TO.N,Net-(BZ1-+)*%
X114258000Y-57782000D03*
%TO.P,RV1,3,3*%
%TO.N,PB2*%
X111718000Y-60322000D03*
%TD*%
D19*
%TO.P,BZ1,1,+*%
%TO.N,Net-(BZ1-+)*%
X97008500Y-59306000D03*
D12*
%TO.P,BZ1,2,-*%
%TO.N,GND*%
X103508500Y-59306000D03*
%TD*%
D20*
%TO.P,R5,1*%
%TO.N,PA6*%
X125700000Y-66430000D03*
%TO.P,R5,2*%
%TO.N,Net-(D10-A)*%
X123700000Y-66430000D03*
%TD*%
D10*
%TO.P,D8,1,K*%
%TO.N,Net-(D1-K)*%
X140530000Y-74446000D03*
D11*
%TO.P,D8,2,A*%
%TO.N,Net-(D11-A)*%
X143070000Y-74446000D03*
%TD*%
D20*
%TO.P,R7,1*%
%TO.N,VCC*%
X140640000Y-64100000D03*
%TO.P,R7,2*%
%TO.N,PA5*%
X138640000Y-64100000D03*
%TD*%
D10*
%TO.P,D2,1,K*%
%TO.N,Net-(D1-A)*%
X101530000Y-74446000D03*
D11*
%TO.P,D2,2,A*%
%TO.N,Net-(D1-K)*%
X104070000Y-74446000D03*
%TD*%
D21*
%TO.P,J2,S1,SHIELD*%
%TO.N,GND*%
X109877500Y-45100000D03*
D22*
X109877500Y-49280000D03*
D21*
X118517500Y-45100000D03*
D22*
X118517500Y-49280000D03*
%TD*%
D23*
%TO.P,SW6,1,B*%
%TO.N,+5V*%
X149932500Y-48630000D03*
D11*
%TO.P,SW6,2,C*%
%TO.N,VCC*%
X147392500Y-48630000D03*
%TO.P,SW6,3,A*%
%TO.N,unconnected-(SW6-A-Pad3)*%
X152472500Y-48630000D03*
%TD*%
D24*
%TO.N,GND*%
X117497500Y-53245000D03*
X106419369Y-48754696D03*
X142170613Y-66325420D03*
X111300056Y-53254944D03*
X122029820Y-48764712D03*
X132900000Y-52388883D03*
X112173600Y-56324800D03*
%TO.N,VCC*%
X130915428Y-52399895D03*
X142170613Y-64132000D03*
X123710123Y-60298805D03*
%TO.N,Net-(D1-K)*%
X119031600Y-65545000D03*
X147632000Y-71006000D03*
%TO.N,Net-(D11-A)*%
X121890172Y-68161200D03*
X125294328Y-68221819D03*
%TO.N,Net-(D13-K)*%
X142170613Y-53710000D03*
%TO.N,PA5*%
X151529151Y-82563000D03*
%TO.N,Net-(R8-Pad1)*%
X164599200Y-87719200D03*
%TO.N,Net-(J2-CC2)*%
X115501000Y-52210000D03*
%TO.N,Net-(J2-CC1)*%
X112935600Y-52203000D03*
%TD*%
D25*
%TO.N,GND*%
X106420000Y-50200000D02*
X106420000Y-48755327D01*
X117487556Y-53254944D02*
X111300056Y-53254944D01*
X117497500Y-53345000D02*
X117487556Y-53354944D01*
X140745325Y-66325600D02*
X142170433Y-66325600D01*
X122030000Y-50190000D02*
X122030000Y-48764892D01*
D26*
%TO.N,Net-(BZ1-+)*%
X97008500Y-57494500D02*
X97008500Y-59306000D01*
X105722000Y-57798000D02*
X104833000Y-56909000D01*
X97594000Y-56909000D02*
X97008500Y-57494500D01*
X104833000Y-56909000D02*
X97594000Y-56909000D01*
X114258000Y-57782000D02*
X114242000Y-57798000D01*
X114242000Y-57798000D02*
X105722000Y-57798000D01*
D25*
%TO.N,VCC*%
X123700000Y-60288682D02*
X123710123Y-60298805D01*
X123700000Y-58710000D02*
X123700000Y-60288682D01*
X140610712Y-64132180D02*
X142170433Y-64132180D01*
X128052500Y-51046500D02*
X128090000Y-51084000D01*
X142170433Y-64132180D02*
X142170613Y-64132000D01*
D26*
%TO.N,PA0*%
X135796000Y-53710000D02*
X135710000Y-53624000D01*
X138640000Y-53710000D02*
X135796000Y-53710000D01*
%TO.N,Net-(D1-K)*%
X149600000Y-74476000D02*
X149570000Y-74446000D01*
X104070000Y-71642000D02*
X104070000Y-74446000D01*
X141917000Y-71006000D02*
X140530000Y-72393000D01*
X110167000Y-65545000D02*
X104070000Y-71642000D01*
X140530000Y-72393000D02*
X140530000Y-74446000D01*
X119031600Y-65545000D02*
X110167000Y-65545000D01*
X147632000Y-71006000D02*
X141917000Y-71006000D01*
%TO.N,Net-(D1-A)*%
X121015000Y-74446000D02*
X121030000Y-74461000D01*
X117070000Y-74446000D02*
X121015000Y-74446000D01*
X101530000Y-74446000D02*
X97570000Y-74446000D01*
%TO.N,Net-(D11-A)*%
X162570000Y-72863000D02*
X161856000Y-72149000D01*
X143070000Y-72774000D02*
X143070000Y-74446000D01*
X125294328Y-68221819D02*
X125304147Y-68212000D01*
X129090000Y-68212000D02*
X134030000Y-73152000D01*
X166530000Y-73190000D02*
X166530000Y-74446000D01*
X162570000Y-74446000D02*
X166530000Y-74446000D01*
X110570000Y-74446000D02*
X114530000Y-74446000D01*
X120823372Y-69228000D02*
X116771000Y-69228000D01*
X134030000Y-73152000D02*
X134030000Y-74295000D01*
X121890172Y-68161200D02*
X120823372Y-69228000D01*
X162570000Y-74446000D02*
X162570000Y-72863000D01*
X169070000Y-70650000D02*
X166530000Y-73190000D01*
X116771000Y-69228000D02*
X114530000Y-71469000D01*
X114530000Y-71469000D02*
X114530000Y-74446000D01*
X169070000Y-65905800D02*
X169070000Y-70650000D01*
X143695000Y-72149000D02*
X143070000Y-72774000D01*
X125304147Y-68212000D02*
X129090000Y-68212000D01*
X161856000Y-72149000D02*
X143695000Y-72149000D01*
%TO.N,Net-(D10-A)*%
X123700000Y-66430000D02*
X123700000Y-74331000D01*
X123700000Y-74331000D02*
X123570000Y-74461000D01*
X146284983Y-76544017D02*
X146743000Y-76544017D01*
X147030000Y-74446000D02*
X147030000Y-75799000D01*
X156070000Y-75776000D02*
X156070000Y-74476000D01*
X127530000Y-74446000D02*
X127530000Y-75796000D01*
X155301983Y-76544017D02*
X156070000Y-75776000D01*
X128278017Y-76544017D02*
X146743000Y-76544017D01*
X127515000Y-74461000D02*
X127530000Y-74446000D01*
X147030000Y-75799000D02*
X146284983Y-76544017D01*
X160030000Y-74446000D02*
X156100000Y-74446000D01*
X156070000Y-74476000D02*
X155980000Y-74566000D01*
X156100000Y-74446000D02*
X156070000Y-74476000D01*
X169070000Y-53745800D02*
X169070000Y-59825800D01*
X127530000Y-75796000D02*
X128278017Y-76544017D01*
X146743000Y-76544017D02*
X155301983Y-76544017D01*
%TO.N,Net-(D13-K)*%
X142170613Y-53710000D02*
X140640000Y-53710000D01*
X166494200Y-53710000D02*
X166530000Y-53745800D01*
%TO.N,Net-(U1-~{RESET}{slash}PB3)*%
X125370000Y-58710000D02*
X128084000Y-58710000D01*
X128084000Y-58710000D02*
X128090000Y-58704000D01*
%TO.N,PB0*%
X127944000Y-53770000D02*
X128090000Y-53624000D01*
%TO.N,PA6*%
X125700000Y-66430000D02*
X127984000Y-66430000D01*
X127984000Y-66430000D02*
X128090000Y-66324000D01*
%TO.N,PA5*%
X151529151Y-82563000D02*
X151529151Y-83149849D01*
X135710000Y-66324000D02*
X135916000Y-66324000D01*
X138640000Y-66315825D02*
X138617412Y-66338413D01*
X138117412Y-66338413D02*
X135724413Y-66338413D01*
X138640000Y-64100000D02*
X138640000Y-66315825D01*
X135710000Y-66021000D02*
X135710000Y-66324000D01*
X151525000Y-83154000D02*
X151525000Y-84185000D01*
X135724413Y-66338413D02*
X135710000Y-66324000D01*
X151529151Y-83149849D02*
X151525000Y-83154000D01*
%TO.N,Net-(R10-Pad1)*%
X140381000Y-84837000D02*
X139729000Y-84185000D01*
X151363000Y-87564000D02*
X149585000Y-87564000D01*
X149585000Y-87564000D02*
X148267000Y-86246000D01*
X139729000Y-84185000D02*
X138525000Y-84185000D01*
X141800000Y-84837000D02*
X148300000Y-84837000D01*
X141800000Y-84837000D02*
X140381000Y-84837000D01*
X151544000Y-87383000D02*
X151363000Y-87564000D01*
X148267000Y-86246000D02*
X148267000Y-84885000D01*
X151544000Y-86270000D02*
X151544000Y-87383000D01*
%TO.N,Net-(R10-Pad2)*%
X127300000Y-84837000D02*
X126648000Y-84185000D01*
X126648000Y-84185000D02*
X125457516Y-84185000D01*
X128732516Y-84837000D02*
X127300000Y-84837000D01*
X138578500Y-87298500D02*
X138397500Y-87479500D01*
X128800000Y-84837000D02*
X135300000Y-84837000D01*
X135301500Y-86161500D02*
X135301500Y-84800500D01*
X138397500Y-87479500D02*
X136619500Y-87479500D01*
X136619500Y-87479500D02*
X135301500Y-86161500D01*
X138578500Y-86185500D02*
X138578500Y-87298500D01*
%TO.N,Net-(R11-Pad2)*%
X125576380Y-87296610D02*
X125395380Y-87477610D01*
X115822339Y-84837000D02*
X114374670Y-84837000D01*
X115800000Y-84837000D02*
X122300000Y-84837000D01*
X113722670Y-84185000D02*
X112547339Y-84185000D01*
X123617380Y-87477610D02*
X122299380Y-86159610D01*
X125395380Y-87477610D02*
X123617380Y-87477610D01*
X125576380Y-86183610D02*
X125576380Y-87296610D01*
X114374670Y-84837000D02*
X113722670Y-84185000D01*
X122299380Y-86159610D02*
X122299380Y-84798610D01*
%TO.N,PB2*%
X118168000Y-62370000D02*
X115628000Y-62370000D01*
X115628000Y-62370000D02*
X113580000Y-60322000D01*
X119294000Y-61244000D02*
X118168000Y-62370000D01*
X128090000Y-61244000D02*
X119294000Y-61244000D01*
X113580000Y-60322000D02*
X111718000Y-60322000D01*
%TO.N,Net-(R8-Pad1)*%
X161300000Y-86198000D02*
X161300000Y-84837000D01*
X162821200Y-87719200D02*
X161300000Y-86198000D01*
X154800000Y-84837000D02*
X161300000Y-84837000D01*
X164599200Y-87719200D02*
X162821200Y-87719200D01*
%TO.N,Net-(R12-Pad2)*%
X112429866Y-87446967D02*
X110651866Y-87446967D01*
X110651866Y-87446967D02*
X109333866Y-86128967D01*
X109333866Y-86128967D02*
X109333866Y-84767967D01*
X112610866Y-86152967D02*
X112610866Y-87265967D01*
X102800000Y-84837000D02*
X109300000Y-84837000D01*
X112610866Y-87265967D02*
X112429866Y-87446967D01*
D25*
%TO.N,Net-(J2-CC2)*%
X115501000Y-52210000D02*
X121969000Y-52210000D01*
D26*
X121969000Y-51829000D02*
X122030000Y-51890000D01*
X122030000Y-51890000D02*
X122030000Y-52141000D01*
D25*
%TO.N,Net-(J2-CC1)*%
X112859400Y-52200000D02*
X106420000Y-52200000D01*
X112989400Y-52330000D02*
X112859400Y-52200000D01*
D26*
X106420000Y-51900000D02*
X106491000Y-51829000D01*
%TD*%
M02*
