%TF.GenerationSoftware,KiCad,Pcbnew,9.0.2*%
%TF.CreationDate,2026-04-05T15:37:08+02:00*%
%TF.ProjectId,sotpotatis_pomodoro_timer,736f7470-6f74-4617-9469-735f706f6d6f,rev?*%
%TF.SameCoordinates,Original*%
%TF.FileFunction,Copper,L4,Bot*%
%TF.FilePolarity,Positive*%
%FSLAX46Y46*%
G04 Gerber Fmt 4.6, Leading zero omitted, Abs format (unit mm)*
G04 Created by KiCad (PCBNEW 9.0.2) date 2026-04-05 15:37:08*
%MOMM*%
%LPD*%
G01*
G04 APERTURE LIST*
G04 Aperture macros list*
%AMRoundRect*
0 Rectangle with rounded corners*
0 $1 Rounding radius*
0 $2 $3 $4 $5 $6 $7 $8 $9 X,Y pos of 4 corners*
0 Add a 4 corners polygon primitive as box body*
4,1,4,$2,$3,$4,$5,$6,$7,$8,$9,$2,$3,0*
0 Add four circle primitives for the rounded corners*
1,1,$1+$1,$2,$3*
1,1,$1+$1,$4,$5*
1,1,$1+$1,$6,$7*
1,1,$1+$1,$8,$9*
0 Add four rect primitives between the rounded corners*
20,1,$1+$1,$2,$3,$4,$5,0*
20,1,$1+$1,$4,$5,$6,$7,0*
20,1,$1+$1,$6,$7,$8,$9,0*
20,1,$1+$1,$8,$9,$2,$3,0*%
G04 Aperture macros list end*
%TA.AperFunction,ComponentPad*%
%ADD10R,1.800000X1.800000*%
%TD*%
%TA.AperFunction,ComponentPad*%
%ADD11C,1.800000*%
%TD*%
%TA.AperFunction,ComponentPad*%
%ADD12C,2.000000*%
%TD*%
%TA.AperFunction,ComponentPad*%
%ADD13RoundRect,0.250000X-0.550000X-0.550000X0.550000X-0.550000X0.550000X0.550000X-0.550000X0.550000X0*%
%TD*%
%TA.AperFunction,ComponentPad*%
%ADD14C,1.600000*%
%TD*%
%TA.AperFunction,ComponentPad*%
%ADD15C,1.440000*%
%TD*%
%TA.AperFunction,ComponentPad*%
%ADD16R,2.000000X2.000000*%
%TD*%
%TA.AperFunction,SMDPad,CuDef*%
%ADD17RoundRect,0.250000X0.350000X0.450000X-0.350000X0.450000X-0.350000X-0.450000X0.350000X-0.450000X0*%
%TD*%
%TA.AperFunction,SMDPad,CuDef*%
%ADD18RoundRect,0.250000X0.450000X-0.350000X0.450000X0.350000X-0.450000X0.350000X-0.450000X-0.350000X0*%
%TD*%
%TA.AperFunction,SMDPad,CuDef*%
%ADD19R,0.600000X1.450000*%
%TD*%
%TA.AperFunction,SMDPad,CuDef*%
%ADD20R,0.300000X1.450000*%
%TD*%
%TA.AperFunction,HeatsinkPad*%
%ADD21O,1.000000X1.600000*%
%TD*%
%TA.AperFunction,HeatsinkPad*%
%ADD22O,1.000000X2.100000*%
%TD*%
%TA.AperFunction,SMDPad,CuDef*%
%ADD23RoundRect,0.250000X0.337500X0.475000X-0.337500X0.475000X-0.337500X-0.475000X0.337500X-0.475000X0*%
%TD*%
%TA.AperFunction,SMDPad,CuDef*%
%ADD24RoundRect,0.250000X-0.337500X-0.475000X0.337500X-0.475000X0.337500X0.475000X-0.337500X0.475000X0*%
%TD*%
%TA.AperFunction,ComponentPad*%
%ADD25R,1.700000X1.700000*%
%TD*%
%TA.AperFunction,ViaPad*%
%ADD26C,0.700000*%
%TD*%
%TA.AperFunction,Conductor*%
%ADD27C,0.400000*%
%TD*%
%TA.AperFunction,Conductor*%
%ADD28C,0.300000*%
%TD*%
G04 APERTURE END LIST*
D10*
%TO.P,D7,1,K*%
%TO.N,Net-(D11-A)*%
X134030000Y-74446000D03*
D11*
%TO.P,D7,2,A*%
%TO.N,Net-(D1-K)*%
X136570000Y-74446000D03*
%TD*%
D12*
%TO.P,SW3,1,1*%
%TO.N,Net-(R10-Pad2)*%
X128800000Y-84837000D03*
X135300000Y-84837000D03*
%TO.P,SW3,2,2*%
%TO.N,GND*%
X128800000Y-89337000D03*
X135300000Y-89337000D03*
%TD*%
D10*
%TO.P,D10,1,K*%
%TO.N,Net-(D1-K)*%
X153530000Y-74476000D03*
D11*
%TO.P,D10,2,A*%
%TO.N,Net-(D10-A)*%
X156070000Y-74476000D03*
%TD*%
D10*
%TO.P,D12,1,K*%
%TO.N,Net-(D11-A)*%
X166530000Y-74446000D03*
D11*
%TO.P,D12,2,A*%
%TO.N,Net-(D10-A)*%
X169070000Y-74446000D03*
%TD*%
D12*
%TO.P,SW4,1,1*%
%TO.N,Net-(R10-Pad1)*%
X141800000Y-84837000D03*
X148300000Y-84837000D03*
%TO.P,SW4,2,2*%
%TO.N,GND*%
X141800000Y-89337000D03*
X148300000Y-89337000D03*
%TD*%
D10*
%TO.P,D6,1,K*%
%TO.N,Net-(D1-A)*%
X130070000Y-74446000D03*
D11*
%TO.P,D6,2,A*%
%TO.N,Net-(D10-A)*%
X127530000Y-74446000D03*
%TD*%
D10*
%TO.P,D11,1,K*%
%TO.N,Net-(D10-A)*%
X160030000Y-74446000D03*
D11*
%TO.P,D11,2,A*%
%TO.N,Net-(D11-A)*%
X162570000Y-74446000D03*
%TD*%
D10*
%TO.P,D14,1,K*%
%TO.N,Net-(D10-A)*%
X169070000Y-59825800D03*
D11*
%TO.P,D14,2,A*%
%TO.N,Net-(D13-K)*%
X166530000Y-59825800D03*
%TD*%
D10*
%TO.P,D4,1,K*%
%TO.N,Net-(D1-A)*%
X117070000Y-74446000D03*
D11*
%TO.P,D4,2,A*%
%TO.N,Net-(D11-A)*%
X114530000Y-74446000D03*
%TD*%
D10*
%TO.P,D13,1,K*%
%TO.N,Net-(D13-K)*%
X166530000Y-53745800D03*
D11*
%TO.P,D13,2,A*%
%TO.N,Net-(D10-A)*%
X169070000Y-53745800D03*
%TD*%
D12*
%TO.P,SW5,1,1*%
%TO.N,Net-(R8-Pad1)*%
X154800000Y-84837000D03*
X161300000Y-84837000D03*
%TO.P,SW5,2,2*%
%TO.N,GND*%
X154800000Y-89337000D03*
X161300000Y-89337000D03*
%TD*%
%TO.P,SW1,1,1*%
%TO.N,Net-(R12-Pad2)*%
X102800000Y-84837000D03*
X109300000Y-84837000D03*
%TO.P,SW1,2,2*%
%TO.N,GND*%
X102800000Y-89337000D03*
X109300000Y-89337000D03*
%TD*%
D10*
%TO.P,D1,1,K*%
%TO.N,Net-(D1-K)*%
X95030000Y-74446000D03*
D11*
%TO.P,D1,2,A*%
%TO.N,Net-(D1-A)*%
X97570000Y-74446000D03*
%TD*%
D10*
%TO.P,D3,1,K*%
%TO.N,Net-(D11-A)*%
X110570000Y-74446000D03*
D11*
%TO.P,D3,2,A*%
%TO.N,Net-(D1-A)*%
X108030000Y-74446000D03*
%TD*%
D10*
%TO.P,D15,1,K*%
%TO.N,Net-(D13-K)*%
X166530000Y-65905800D03*
D11*
%TO.P,D15,2,A*%
%TO.N,Net-(D11-A)*%
X169070000Y-65905800D03*
%TD*%
D12*
%TO.P,SW2,1,1*%
%TO.N,Net-(R11-Pad2)*%
X115800000Y-84837000D03*
X122300000Y-84837000D03*
%TO.P,SW2,2,2*%
%TO.N,GND*%
X115800000Y-89337000D03*
X122300000Y-89337000D03*
%TD*%
D13*
%TO.P,U1,1,VCC*%
%TO.N,VCC*%
X128090000Y-51084000D03*
D14*
%TO.P,U1,2,XTAL1/PB0*%
%TO.N,PB0*%
X128090000Y-53624000D03*
%TO.P,U1,3,XTAL2/PB1*%
%TO.N,PB1*%
X128090000Y-56164000D03*
%TO.P,U1,4,~{RESET}/PB3*%
%TO.N,Net-(U1-~{RESET}{slash}PB3)*%
X128090000Y-58704000D03*
%TO.P,U1,5,PB2*%
%TO.N,PB2*%
X128090000Y-61244000D03*
%TO.P,U1,6,PA7*%
%TO.N,PA7*%
X128090000Y-63784000D03*
%TO.P,U1,7,PA6*%
%TO.N,PA6*%
X128090000Y-66324000D03*
%TO.P,U1,8,PA5*%
%TO.N,PA5*%
X135710000Y-66324000D03*
%TO.P,U1,9,PA4*%
%TO.N,unconnected-(U1-PA4-Pad9)*%
X135710000Y-63784000D03*
%TO.P,U1,10,PA3*%
%TO.N,unconnected-(U1-PA3-Pad10)*%
X135710000Y-61244000D03*
%TO.P,U1,11,PA2*%
%TO.N,unconnected-(U1-PA2-Pad11)*%
X135710000Y-58704000D03*
%TO.P,U1,12,PA1*%
%TO.N,unconnected-(U1-PA1-Pad12)*%
X135710000Y-56164000D03*
%TO.P,U1,13,AREF/PA0*%
%TO.N,PA0*%
X135710000Y-53624000D03*
%TO.P,U1,14,GND*%
%TO.N,GND*%
X135710000Y-51084000D03*
%TD*%
D10*
%TO.P,D5,1,K*%
%TO.N,Net-(D10-A)*%
X123570000Y-74461000D03*
D11*
%TO.P,D5,2,A*%
%TO.N,Net-(D1-A)*%
X121030000Y-74461000D03*
%TD*%
D10*
%TO.P,D9,1,K*%
%TO.N,Net-(D10-A)*%
X147030000Y-74446000D03*
D11*
%TO.P,D9,2,A*%
%TO.N,Net-(D1-K)*%
X149570000Y-74446000D03*
%TD*%
D15*
%TO.P,RV1,1,1*%
%TO.N,GND*%
X116798000Y-60322000D03*
%TO.P,RV1,2,2*%
%TO.N,Net-(BZ1-+)*%
X114258000Y-57782000D03*
%TO.P,RV1,3,3*%
%TO.N,PB2*%
X111718000Y-60322000D03*
%TD*%
D16*
%TO.P,BZ1,1,+*%
%TO.N,Net-(BZ1-+)*%
X97008500Y-59306000D03*
D12*
%TO.P,BZ1,2,-*%
%TO.N,GND*%
X103508500Y-59306000D03*
%TD*%
D10*
%TO.P,D8,1,K*%
%TO.N,Net-(D1-K)*%
X140530000Y-74446000D03*
D11*
%TO.P,D8,2,A*%
%TO.N,Net-(D11-A)*%
X143070000Y-74446000D03*
%TD*%
D10*
%TO.P,D2,1,K*%
%TO.N,Net-(D1-A)*%
X101530000Y-74446000D03*
D11*
%TO.P,D2,2,A*%
%TO.N,Net-(D1-K)*%
X104070000Y-74446000D03*
%TD*%
D17*
%TO.P,R3,1*%
%TO.N,PB1*%
X125540000Y-56060000D03*
%TO.P,R3,2*%
%TO.N,Net-(D1-K)*%
X123540000Y-56060000D03*
%TD*%
%TO.P,R2,1*%
%TO.N,PB0*%
X125540000Y-53770000D03*
%TO.P,R2,2*%
%TO.N,Net-(D1-A)*%
X123540000Y-53770000D03*
%TD*%
D18*
%TO.P,R8,1*%
%TO.N,Net-(R8-Pad1)*%
X164577000Y-86222000D03*
%TO.P,R8,2*%
%TO.N,PA5*%
X164577000Y-84222000D03*
%TD*%
D17*
%TO.P,R4,1*%
%TO.N,PA7*%
X125540000Y-63860000D03*
%TO.P,R4,2*%
%TO.N,Net-(D11-A)*%
X123540000Y-63860000D03*
%TD*%
D19*
%TO.P,J2,A1,GND*%
%TO.N,GND*%
X110947500Y-50195000D03*
%TO.P,J2,A4,VBUS*%
%TO.N,+5V*%
X111747500Y-50195000D03*
D20*
%TO.P,J2,A5,CC1*%
%TO.N,Net-(J2-CC1)*%
X112947500Y-50195000D03*
%TO.P,J2,A6,D+*%
%TO.N,unconnected-(J2-D+-PadA6)*%
X113947500Y-50195000D03*
%TO.P,J2,A7,D-*%
%TO.N,unconnected-(J2-D--PadA7)*%
X114447500Y-50195000D03*
%TO.P,J2,A8,SBU1*%
%TO.N,unconnected-(J2-SBU1-PadA8)*%
X115447500Y-50195000D03*
D19*
%TO.P,J2,A9,VBUS*%
%TO.N,+5V*%
X116647500Y-50195000D03*
%TO.P,J2,A12,GND*%
%TO.N,GND*%
X117447500Y-50195000D03*
%TO.P,J2,B1,GND*%
X117447500Y-50195000D03*
%TO.P,J2,B4,VBUS*%
%TO.N,+5V*%
X116647500Y-50195000D03*
D20*
%TO.P,J2,B5,CC2*%
%TO.N,Net-(J2-CC2)*%
X115947500Y-50195000D03*
%TO.P,J2,B6,D+*%
%TO.N,unconnected-(J2-D+-PadB6)*%
X114947500Y-50195000D03*
%TO.P,J2,B7,D-*%
%TO.N,unconnected-(J2-D--PadB7)*%
X113447500Y-50195000D03*
%TO.P,J2,B8,SBU2*%
%TO.N,unconnected-(J2-SBU2-PadB8)*%
X112447500Y-50195000D03*
D19*
%TO.P,J2,B9,VBUS*%
%TO.N,+5V*%
X111747500Y-50195000D03*
%TO.P,J2,B12,GND*%
%TO.N,GND*%
X110947500Y-50195000D03*
D21*
%TO.P,J2,S1,SHIELD*%
X109877500Y-45100000D03*
D22*
X109877500Y-49280000D03*
D21*
X118517500Y-45100000D03*
D22*
X118517500Y-49280000D03*
%TD*%
D23*
%TO.P,C3,1*%
%TO.N,+5V*%
X115336000Y-54484000D03*
%TO.P,C3,2*%
%TO.N,GND*%
X113261000Y-54484000D03*
%TD*%
D24*
%TO.P,C1,1*%
%TO.N,VCC*%
X130873997Y-51079021D03*
%TO.P,C1,2*%
%TO.N,GND*%
X132948997Y-51079021D03*
%TD*%
D25*
%TO.P,SW6,1,B*%
%TO.N,+5V*%
X149932500Y-48630000D03*
D11*
%TO.P,SW6,2,C*%
%TO.N,VCC*%
X147392500Y-48630000D03*
%TO.P,SW6,3,A*%
%TO.N,unconnected-(SW6-A-Pad3)*%
X152472500Y-48630000D03*
%TD*%
D26*
%TO.N,GND*%
X117497500Y-53245000D03*
X106419369Y-48754696D03*
X142170613Y-66325420D03*
X111300056Y-53254944D03*
X122029820Y-48764712D03*
X132900000Y-52388883D03*
X112173600Y-56324800D03*
%TO.N,VCC*%
X130915428Y-52399895D03*
X142170613Y-64132000D03*
X123710123Y-60298805D03*
%TO.N,Net-(D1-K)*%
X119031600Y-65545000D03*
X147632000Y-71006000D03*
%TO.N,Net-(D11-A)*%
X121890172Y-68161200D03*
X125294328Y-68221819D03*
%TO.N,Net-(D13-K)*%
X142170613Y-53710000D03*
%TO.N,PA5*%
X151529151Y-82563000D03*
%TO.N,Net-(R8-Pad1)*%
X164599200Y-87719200D03*
%TO.N,Net-(J2-CC2)*%
X115501000Y-52210000D03*
%TO.N,Net-(J2-CC1)*%
X112935600Y-52203000D03*
%TD*%
D27*
%TO.N,GND*%
X112173600Y-56324800D02*
X112224400Y-56274000D01*
D28*
X117497500Y-53245000D02*
X117447500Y-53195000D01*
D27*
X112920464Y-56274000D02*
X113314232Y-55880232D01*
X112449000Y-54384000D02*
X113261000Y-54384000D01*
X113314232Y-55880232D02*
X113314232Y-54367792D01*
X132948997Y-51079021D02*
X135705021Y-51079021D01*
X112224400Y-56274000D02*
X112920464Y-56274000D01*
X117447500Y-53295000D02*
X117497500Y-53345000D01*
X111319944Y-53254944D02*
X112449000Y-54384000D01*
X132899820Y-50963595D02*
X132899820Y-52388703D01*
X110947500Y-52902388D02*
X110947500Y-50195000D01*
X135705021Y-51079021D02*
X135710000Y-51084000D01*
X117447500Y-53195000D02*
X117447500Y-50195000D01*
X111300056Y-53254944D02*
X110947500Y-52902388D01*
%TO.N,VCC*%
X130873997Y-51079021D02*
X128094979Y-51079021D01*
X130915248Y-50974607D02*
X130915248Y-52399715D01*
X128094979Y-51079021D02*
X128090000Y-51084000D01*
D28*
%TO.N,Net-(D1-K)*%
X148599497Y-71006000D02*
X149570000Y-71976503D01*
X119082400Y-67385132D02*
X121331668Y-69634400D01*
X95030000Y-75698500D02*
X95927423Y-76595923D01*
X95030000Y-74446000D02*
X95030000Y-75698500D01*
X149570000Y-71976503D02*
X149570000Y-74446000D01*
X119031600Y-65545000D02*
X121622400Y-62954200D01*
X133306400Y-69634400D02*
X136570000Y-72898000D01*
X122395200Y-56060000D02*
X123540000Y-56060000D01*
X121622400Y-62954200D02*
X121622400Y-56832800D01*
X104071000Y-75705000D02*
X104071000Y-74447000D01*
X95927423Y-76595923D02*
X103180077Y-76595923D01*
X103180077Y-76595923D02*
X104071000Y-75705000D01*
X119031600Y-65545000D02*
X119082400Y-65595800D01*
X121331668Y-69634400D02*
X133306400Y-69634400D01*
X136570000Y-74446000D02*
X140530000Y-74446000D01*
X104071000Y-74447000D02*
X104070000Y-74446000D01*
X121622400Y-56832800D02*
X122395200Y-56060000D01*
X147632000Y-71006000D02*
X148599497Y-71006000D01*
X136570000Y-72898000D02*
X136570000Y-74446000D01*
X119082400Y-65595800D02*
X119082400Y-67385132D01*
X153530000Y-74476000D02*
X149600000Y-74476000D01*
%TO.N,Net-(D1-A)*%
X120200000Y-62370000D02*
X120200000Y-56020000D01*
X117070000Y-74446000D02*
X117070000Y-65503000D01*
X108030000Y-74446000D02*
X108030000Y-71080000D01*
X104861000Y-71082000D02*
X104871000Y-71092000D01*
X117052000Y-71092000D02*
X117040000Y-71080000D01*
X122450000Y-53770000D02*
X123500000Y-53770000D01*
X111945000Y-71080000D02*
X104863000Y-71080000D01*
X129619000Y-76594000D02*
X121597000Y-76594000D01*
X103616000Y-71080000D02*
X101530000Y-73166000D01*
X104871000Y-71092000D02*
X110042000Y-71092000D01*
X130106000Y-76107000D02*
X129619000Y-76594000D01*
X117040000Y-71080000D02*
X111945000Y-71080000D01*
X117070000Y-65503000D02*
X117068500Y-65501500D01*
X121597000Y-76594000D02*
X121030000Y-76027000D01*
X130106000Y-74541000D02*
X130106000Y-76107000D01*
X121030000Y-76027000D02*
X121030000Y-74461000D01*
X120200000Y-56020000D02*
X122450000Y-53770000D01*
X104849000Y-71080000D02*
X103616000Y-71080000D01*
X104863000Y-71080000D02*
X104861000Y-71082000D01*
X108030000Y-71080000D02*
X111945000Y-71080000D01*
X117068500Y-65501500D02*
X120200000Y-62370000D01*
X101530000Y-73166000D02*
X101530000Y-74446000D01*
%TO.N,Net-(D11-A)*%
X125233709Y-68161200D02*
X125294328Y-68221819D01*
X143070000Y-74446000D02*
X143070000Y-75822000D01*
X143070000Y-75822000D02*
X142298000Y-76594000D01*
X142298000Y-76594000D02*
X134805000Y-76594000D01*
X121890172Y-68161200D02*
X121165200Y-67436228D01*
X121165200Y-67436228D02*
X121165200Y-65214800D01*
X134030000Y-75819000D02*
X134030000Y-74446000D01*
X134805000Y-76594000D02*
X134030000Y-75819000D01*
X121165200Y-65214800D02*
X122520000Y-63860000D01*
X121890172Y-68161200D02*
X125233709Y-68161200D01*
X122520000Y-63860000D02*
X123700000Y-63860000D01*
%TO.N,Net-(D10-A)*%
X160030000Y-75911000D02*
X160688369Y-76569369D01*
X169070000Y-75797227D02*
X169070000Y-74446000D01*
X169070000Y-74446000D02*
X169070000Y-73126500D01*
X171235381Y-63240381D02*
X169070000Y-61075000D01*
X168297858Y-76569369D02*
X169070000Y-75797227D01*
X123585000Y-74446000D02*
X123570000Y-74461000D01*
X171235381Y-70961119D02*
X171235381Y-63240381D01*
X127530000Y-74446000D02*
X123585000Y-74446000D01*
X169070000Y-74446000D02*
X169070000Y-73825000D01*
X169070000Y-73126500D02*
X171235381Y-70961119D01*
X169070000Y-61075000D02*
X169070000Y-59825800D01*
X160030000Y-74446000D02*
X160030000Y-75911000D01*
X160688369Y-76569369D02*
X168297858Y-76569369D01*
%TO.N,Net-(D13-K)*%
X142170613Y-53710000D02*
X166494200Y-53710000D01*
X166530000Y-59825800D02*
X166530000Y-65905800D01*
X166530000Y-53745800D02*
X166530000Y-59825800D01*
%TO.N,PB0*%
X127944000Y-53770000D02*
X128090000Y-53624000D01*
X125540000Y-53770000D02*
X127944000Y-53770000D01*
%TO.N,PB1*%
X127986000Y-56060000D02*
X128090000Y-56164000D01*
X125540000Y-56060000D02*
X127986000Y-56060000D01*
%TO.N,PA7*%
X128014000Y-63860000D02*
X128090000Y-63784000D01*
X125540000Y-63860000D02*
X128014000Y-63860000D01*
%TO.N,PA5*%
X164167400Y-82563000D02*
X164577000Y-82972600D01*
X150896462Y-82563000D02*
X151529151Y-82563000D01*
X145085000Y-72396000D02*
X145085000Y-76751538D01*
X135710000Y-66324000D02*
X135710000Y-67593000D01*
X164577000Y-82972600D02*
X164577000Y-84222000D01*
X145085000Y-76751538D02*
X150896462Y-82563000D01*
X135710000Y-67593000D02*
X139123000Y-71006000D01*
X139123000Y-71006000D02*
X143695000Y-71006000D01*
X143695000Y-71006000D02*
X145085000Y-72396000D01*
X151529151Y-82563000D02*
X164167400Y-82563000D01*
%TO.N,Net-(R8-Pad1)*%
X164599200Y-87542046D02*
X164577000Y-87519846D01*
X164599200Y-87719200D02*
X164599200Y-87542046D01*
X164577000Y-87519846D02*
X164577000Y-86222000D01*
%TO.N,Net-(J2-CC2)*%
X115947500Y-51128499D02*
X115947500Y-50195000D01*
X115501000Y-51574999D02*
X115947500Y-51128499D01*
X115501000Y-52210000D02*
X115501000Y-51574999D01*
%TO.N,Net-(J2-CC1)*%
X112935600Y-51192400D02*
X112947500Y-51180500D01*
X113062600Y-52330000D02*
X112935600Y-52203000D01*
X112935600Y-52203000D02*
X112935600Y-51192400D01*
X112947500Y-51180500D02*
X112947500Y-50195000D01*
D27*
%TO.N,+5V*%
X111767811Y-52520616D02*
X112327195Y-53080000D01*
X149410000Y-46749000D02*
X149932500Y-47271500D01*
X111747500Y-50195000D02*
X111767811Y-50215311D01*
X115336000Y-53334000D02*
X115336000Y-54369000D01*
X125280000Y-46749000D02*
X149410000Y-46749000D01*
X117660000Y-54369000D02*
X125280000Y-46749000D01*
X112327195Y-53080000D02*
X115082000Y-53080000D01*
X115336000Y-54369000D02*
X117660000Y-54369000D01*
X111767811Y-50215311D02*
X111767811Y-52520616D01*
X115082000Y-53080000D02*
X115336000Y-53334000D01*
X149932500Y-47271500D02*
X149932500Y-48630000D01*
X116647500Y-53903500D02*
X116186000Y-54365000D01*
X116647500Y-50195000D02*
X116647500Y-53903500D01*
%TD*%
M02*
