%TF.GenerationSoftware,KiCad,Pcbnew,9.0.2*%
%TF.CreationDate,2026-05-28T17:54:45+02:00*%
%TF.ProjectId,sotpotatis_pomodoro_timer,736f7470-6f74-4617-9469-735f706f6d6f,rev?*%
%TF.SameCoordinates,Original*%
%TF.FileFunction,Legend,Bot*%
%TF.FilePolarity,Positive*%
%FSLAX46Y46*%
G04 Gerber Fmt 4.6, Leading zero omitted, Abs format (unit mm)*
G04 Created by KiCad (PCBNEW 9.0.2) date 2026-05-28 17:54:45*
%MOMM*%
%LPD*%
G01*
G04 APERTURE LIST*
%ADD10C,0.200000*%
%ADD11C,0.153000*%
%ADD12C,0.120000*%
G04 APERTURE END LIST*
D10*
X170249326Y-100464219D02*
X170249326Y-99797552D01*
X170249326Y-99988028D02*
X170201707Y-99892790D01*
X170201707Y-99892790D02*
X170154088Y-99845171D01*
X170154088Y-99845171D02*
X170058850Y-99797552D01*
X170058850Y-99797552D02*
X169963612Y-99797552D01*
X169249326Y-100416600D02*
X169344564Y-100464219D01*
X169344564Y-100464219D02*
X169535040Y-100464219D01*
X169535040Y-100464219D02*
X169630278Y-100416600D01*
X169630278Y-100416600D02*
X169677897Y-100321361D01*
X169677897Y-100321361D02*
X169677897Y-99940409D01*
X169677897Y-99940409D02*
X169630278Y-99845171D01*
X169630278Y-99845171D02*
X169535040Y-99797552D01*
X169535040Y-99797552D02*
X169344564Y-99797552D01*
X169344564Y-99797552D02*
X169249326Y-99845171D01*
X169249326Y-99845171D02*
X169201707Y-99940409D01*
X169201707Y-99940409D02*
X169201707Y-100035647D01*
X169201707Y-100035647D02*
X169677897Y-100130885D01*
X168868373Y-99797552D02*
X168630278Y-100464219D01*
X168630278Y-100464219D02*
X168392183Y-99797552D01*
X166725516Y-100464219D02*
X167296944Y-100464219D01*
X167011230Y-100464219D02*
X167011230Y-99464219D01*
X167011230Y-99464219D02*
X167106468Y-99607076D01*
X167106468Y-99607076D02*
X167201706Y-99702314D01*
X167201706Y-99702314D02*
X167296944Y-99749933D01*
X166296944Y-100368980D02*
X166249325Y-100416600D01*
X166249325Y-100416600D02*
X166296944Y-100464219D01*
X166296944Y-100464219D02*
X166344563Y-100416600D01*
X166344563Y-100416600D02*
X166296944Y-100368980D01*
X166296944Y-100368980D02*
X166296944Y-100464219D01*
X165630278Y-99464219D02*
X165535040Y-99464219D01*
X165535040Y-99464219D02*
X165439802Y-99511838D01*
X165439802Y-99511838D02*
X165392183Y-99559457D01*
X165392183Y-99559457D02*
X165344564Y-99654695D01*
X165344564Y-99654695D02*
X165296945Y-99845171D01*
X165296945Y-99845171D02*
X165296945Y-100083266D01*
X165296945Y-100083266D02*
X165344564Y-100273742D01*
X165344564Y-100273742D02*
X165392183Y-100368980D01*
X165392183Y-100368980D02*
X165439802Y-100416600D01*
X165439802Y-100416600D02*
X165535040Y-100464219D01*
X165535040Y-100464219D02*
X165630278Y-100464219D01*
X165630278Y-100464219D02*
X165725516Y-100416600D01*
X165725516Y-100416600D02*
X165773135Y-100368980D01*
X165773135Y-100368980D02*
X165820754Y-100273742D01*
X165820754Y-100273742D02*
X165868373Y-100083266D01*
X165868373Y-100083266D02*
X165868373Y-99845171D01*
X165868373Y-99845171D02*
X165820754Y-99654695D01*
X165820754Y-99654695D02*
X165773135Y-99559457D01*
X165773135Y-99559457D02*
X165725516Y-99511838D01*
X165725516Y-99511838D02*
X165630278Y-99464219D01*
X164868373Y-100368980D02*
X164820754Y-100416600D01*
X164820754Y-100416600D02*
X164868373Y-100464219D01*
X164868373Y-100464219D02*
X164915992Y-100416600D01*
X164915992Y-100416600D02*
X164868373Y-100368980D01*
X164868373Y-100368980D02*
X164868373Y-100464219D01*
X163868374Y-100464219D02*
X164439802Y-100464219D01*
X164154088Y-100464219D02*
X164154088Y-99464219D01*
X164154088Y-99464219D02*
X164249326Y-99607076D01*
X164249326Y-99607076D02*
X164344564Y-99702314D01*
X164344564Y-99702314D02*
X164439802Y-99749933D01*
X162677897Y-100083266D02*
X161915993Y-100083266D01*
X160725516Y-99559457D02*
X160677897Y-99511838D01*
X160677897Y-99511838D02*
X160582659Y-99464219D01*
X160582659Y-99464219D02*
X160344564Y-99464219D01*
X160344564Y-99464219D02*
X160249326Y-99511838D01*
X160249326Y-99511838D02*
X160201707Y-99559457D01*
X160201707Y-99559457D02*
X160154088Y-99654695D01*
X160154088Y-99654695D02*
X160154088Y-99749933D01*
X160154088Y-99749933D02*
X160201707Y-99892790D01*
X160201707Y-99892790D02*
X160773135Y-100464219D01*
X160773135Y-100464219D02*
X160154088Y-100464219D01*
X159535040Y-99464219D02*
X159439802Y-99464219D01*
X159439802Y-99464219D02*
X159344564Y-99511838D01*
X159344564Y-99511838D02*
X159296945Y-99559457D01*
X159296945Y-99559457D02*
X159249326Y-99654695D01*
X159249326Y-99654695D02*
X159201707Y-99845171D01*
X159201707Y-99845171D02*
X159201707Y-100083266D01*
X159201707Y-100083266D02*
X159249326Y-100273742D01*
X159249326Y-100273742D02*
X159296945Y-100368980D01*
X159296945Y-100368980D02*
X159344564Y-100416600D01*
X159344564Y-100416600D02*
X159439802Y-100464219D01*
X159439802Y-100464219D02*
X159535040Y-100464219D01*
X159535040Y-100464219D02*
X159630278Y-100416600D01*
X159630278Y-100416600D02*
X159677897Y-100368980D01*
X159677897Y-100368980D02*
X159725516Y-100273742D01*
X159725516Y-100273742D02*
X159773135Y-100083266D01*
X159773135Y-100083266D02*
X159773135Y-99845171D01*
X159773135Y-99845171D02*
X159725516Y-99654695D01*
X159725516Y-99654695D02*
X159677897Y-99559457D01*
X159677897Y-99559457D02*
X159630278Y-99511838D01*
X159630278Y-99511838D02*
X159535040Y-99464219D01*
X158820754Y-99559457D02*
X158773135Y-99511838D01*
X158773135Y-99511838D02*
X158677897Y-99464219D01*
X158677897Y-99464219D02*
X158439802Y-99464219D01*
X158439802Y-99464219D02*
X158344564Y-99511838D01*
X158344564Y-99511838D02*
X158296945Y-99559457D01*
X158296945Y-99559457D02*
X158249326Y-99654695D01*
X158249326Y-99654695D02*
X158249326Y-99749933D01*
X158249326Y-99749933D02*
X158296945Y-99892790D01*
X158296945Y-99892790D02*
X158868373Y-100464219D01*
X158868373Y-100464219D02*
X158249326Y-100464219D01*
X157392183Y-99464219D02*
X157582659Y-99464219D01*
X157582659Y-99464219D02*
X157677897Y-99511838D01*
X157677897Y-99511838D02*
X157725516Y-99559457D01*
X157725516Y-99559457D02*
X157820754Y-99702314D01*
X157820754Y-99702314D02*
X157868373Y-99892790D01*
X157868373Y-99892790D02*
X157868373Y-100273742D01*
X157868373Y-100273742D02*
X157820754Y-100368980D01*
X157820754Y-100368980D02*
X157773135Y-100416600D01*
X157773135Y-100416600D02*
X157677897Y-100464219D01*
X157677897Y-100464219D02*
X157487421Y-100464219D01*
X157487421Y-100464219D02*
X157392183Y-100416600D01*
X157392183Y-100416600D02*
X157344564Y-100368980D01*
X157344564Y-100368980D02*
X157296945Y-100273742D01*
X157296945Y-100273742D02*
X157296945Y-100035647D01*
X157296945Y-100035647D02*
X157344564Y-99940409D01*
X157344564Y-99940409D02*
X157392183Y-99892790D01*
X157392183Y-99892790D02*
X157487421Y-99845171D01*
X157487421Y-99845171D02*
X157677897Y-99845171D01*
X157677897Y-99845171D02*
X157773135Y-99892790D01*
X157773135Y-99892790D02*
X157820754Y-99940409D01*
X157820754Y-99940409D02*
X157868373Y-100035647D01*
X156868373Y-100083266D02*
X156106469Y-100083266D01*
X155439802Y-99464219D02*
X155344564Y-99464219D01*
X155344564Y-99464219D02*
X155249326Y-99511838D01*
X155249326Y-99511838D02*
X155201707Y-99559457D01*
X155201707Y-99559457D02*
X155154088Y-99654695D01*
X155154088Y-99654695D02*
X155106469Y-99845171D01*
X155106469Y-99845171D02*
X155106469Y-100083266D01*
X155106469Y-100083266D02*
X155154088Y-100273742D01*
X155154088Y-100273742D02*
X155201707Y-100368980D01*
X155201707Y-100368980D02*
X155249326Y-100416600D01*
X155249326Y-100416600D02*
X155344564Y-100464219D01*
X155344564Y-100464219D02*
X155439802Y-100464219D01*
X155439802Y-100464219D02*
X155535040Y-100416600D01*
X155535040Y-100416600D02*
X155582659Y-100368980D01*
X155582659Y-100368980D02*
X155630278Y-100273742D01*
X155630278Y-100273742D02*
X155677897Y-100083266D01*
X155677897Y-100083266D02*
X155677897Y-99845171D01*
X155677897Y-99845171D02*
X155630278Y-99654695D01*
X155630278Y-99654695D02*
X155582659Y-99559457D01*
X155582659Y-99559457D02*
X155535040Y-99511838D01*
X155535040Y-99511838D02*
X155439802Y-99464219D01*
X154201707Y-99464219D02*
X154677897Y-99464219D01*
X154677897Y-99464219D02*
X154725516Y-99940409D01*
X154725516Y-99940409D02*
X154677897Y-99892790D01*
X154677897Y-99892790D02*
X154582659Y-99845171D01*
X154582659Y-99845171D02*
X154344564Y-99845171D01*
X154344564Y-99845171D02*
X154249326Y-99892790D01*
X154249326Y-99892790D02*
X154201707Y-99940409D01*
X154201707Y-99940409D02*
X154154088Y-100035647D01*
X154154088Y-100035647D02*
X154154088Y-100273742D01*
X154154088Y-100273742D02*
X154201707Y-100368980D01*
X154201707Y-100368980D02*
X154249326Y-100416600D01*
X154249326Y-100416600D02*
X154344564Y-100464219D01*
X154344564Y-100464219D02*
X154582659Y-100464219D01*
X154582659Y-100464219D02*
X154677897Y-100416600D01*
X154677897Y-100416600D02*
X154725516Y-100368980D01*
X153725516Y-100083266D02*
X152963612Y-100083266D01*
X152535040Y-99559457D02*
X152487421Y-99511838D01*
X152487421Y-99511838D02*
X152392183Y-99464219D01*
X152392183Y-99464219D02*
X152154088Y-99464219D01*
X152154088Y-99464219D02*
X152058850Y-99511838D01*
X152058850Y-99511838D02*
X152011231Y-99559457D01*
X152011231Y-99559457D02*
X151963612Y-99654695D01*
X151963612Y-99654695D02*
X151963612Y-99749933D01*
X151963612Y-99749933D02*
X152011231Y-99892790D01*
X152011231Y-99892790D02*
X152582659Y-100464219D01*
X152582659Y-100464219D02*
X151963612Y-100464219D01*
X151392183Y-99892790D02*
X151487421Y-99845171D01*
X151487421Y-99845171D02*
X151535040Y-99797552D01*
X151535040Y-99797552D02*
X151582659Y-99702314D01*
X151582659Y-99702314D02*
X151582659Y-99654695D01*
X151582659Y-99654695D02*
X151535040Y-99559457D01*
X151535040Y-99559457D02*
X151487421Y-99511838D01*
X151487421Y-99511838D02*
X151392183Y-99464219D01*
X151392183Y-99464219D02*
X151201707Y-99464219D01*
X151201707Y-99464219D02*
X151106469Y-99511838D01*
X151106469Y-99511838D02*
X151058850Y-99559457D01*
X151058850Y-99559457D02*
X151011231Y-99654695D01*
X151011231Y-99654695D02*
X151011231Y-99702314D01*
X151011231Y-99702314D02*
X151058850Y-99797552D01*
X151058850Y-99797552D02*
X151106469Y-99845171D01*
X151106469Y-99845171D02*
X151201707Y-99892790D01*
X151201707Y-99892790D02*
X151392183Y-99892790D01*
X151392183Y-99892790D02*
X151487421Y-99940409D01*
X151487421Y-99940409D02*
X151535040Y-99988028D01*
X151535040Y-99988028D02*
X151582659Y-100083266D01*
X151582659Y-100083266D02*
X151582659Y-100273742D01*
X151582659Y-100273742D02*
X151535040Y-100368980D01*
X151535040Y-100368980D02*
X151487421Y-100416600D01*
X151487421Y-100416600D02*
X151392183Y-100464219D01*
X151392183Y-100464219D02*
X151201707Y-100464219D01*
X151201707Y-100464219D02*
X151106469Y-100416600D01*
X151106469Y-100416600D02*
X151058850Y-100368980D01*
X151058850Y-100368980D02*
X151011231Y-100273742D01*
X151011231Y-100273742D02*
X151011231Y-100083266D01*
X151011231Y-100083266D02*
X151058850Y-99988028D01*
X151058850Y-99988028D02*
X151106469Y-99940409D01*
X151106469Y-99940409D02*
X151201707Y-99892790D01*
D11*
X136038094Y-72900663D02*
X136038094Y-71900663D01*
X136038094Y-71900663D02*
X135799999Y-71900663D01*
X135799999Y-71900663D02*
X135657142Y-71948282D01*
X135657142Y-71948282D02*
X135561904Y-72043520D01*
X135561904Y-72043520D02*
X135514285Y-72138758D01*
X135514285Y-72138758D02*
X135466666Y-72329234D01*
X135466666Y-72329234D02*
X135466666Y-72472091D01*
X135466666Y-72472091D02*
X135514285Y-72662567D01*
X135514285Y-72662567D02*
X135561904Y-72757805D01*
X135561904Y-72757805D02*
X135657142Y-72853044D01*
X135657142Y-72853044D02*
X135799999Y-72900663D01*
X135799999Y-72900663D02*
X136038094Y-72900663D01*
X135133332Y-71900663D02*
X134466666Y-71900663D01*
X134466666Y-71900663D02*
X134895237Y-72900663D01*
X133383332Y-92244044D02*
X133240475Y-92291663D01*
X133240475Y-92291663D02*
X133002380Y-92291663D01*
X133002380Y-92291663D02*
X132907142Y-92244044D01*
X132907142Y-92244044D02*
X132859523Y-92196424D01*
X132859523Y-92196424D02*
X132811904Y-92101186D01*
X132811904Y-92101186D02*
X132811904Y-92005948D01*
X132811904Y-92005948D02*
X132859523Y-91910710D01*
X132859523Y-91910710D02*
X132907142Y-91863091D01*
X132907142Y-91863091D02*
X133002380Y-91815472D01*
X133002380Y-91815472D02*
X133192856Y-91767853D01*
X133192856Y-91767853D02*
X133288094Y-91720234D01*
X133288094Y-91720234D02*
X133335713Y-91672615D01*
X133335713Y-91672615D02*
X133383332Y-91577377D01*
X133383332Y-91577377D02*
X133383332Y-91482139D01*
X133383332Y-91482139D02*
X133335713Y-91386901D01*
X133335713Y-91386901D02*
X133288094Y-91339282D01*
X133288094Y-91339282D02*
X133192856Y-91291663D01*
X133192856Y-91291663D02*
X132954761Y-91291663D01*
X132954761Y-91291663D02*
X132811904Y-91339282D01*
X132478570Y-91291663D02*
X132240475Y-92291663D01*
X132240475Y-92291663D02*
X132049999Y-91577377D01*
X132049999Y-91577377D02*
X131859523Y-92291663D01*
X131859523Y-92291663D02*
X131621428Y-91291663D01*
X131335713Y-91291663D02*
X130716666Y-91291663D01*
X130716666Y-91291663D02*
X131049999Y-91672615D01*
X131049999Y-91672615D02*
X130907142Y-91672615D01*
X130907142Y-91672615D02*
X130811904Y-91720234D01*
X130811904Y-91720234D02*
X130764285Y-91767853D01*
X130764285Y-91767853D02*
X130716666Y-91863091D01*
X130716666Y-91863091D02*
X130716666Y-92101186D01*
X130716666Y-92101186D02*
X130764285Y-92196424D01*
X130764285Y-92196424D02*
X130811904Y-92244044D01*
X130811904Y-92244044D02*
X130907142Y-92291663D01*
X130907142Y-92291663D02*
X131192856Y-92291663D01*
X131192856Y-92291663D02*
X131288094Y-92244044D01*
X131288094Y-92244044D02*
X131335713Y-92196424D01*
X156014285Y-72930663D02*
X156014285Y-71930663D01*
X156014285Y-71930663D02*
X155776190Y-71930663D01*
X155776190Y-71930663D02*
X155633333Y-71978282D01*
X155633333Y-71978282D02*
X155538095Y-72073520D01*
X155538095Y-72073520D02*
X155490476Y-72168758D01*
X155490476Y-72168758D02*
X155442857Y-72359234D01*
X155442857Y-72359234D02*
X155442857Y-72502091D01*
X155442857Y-72502091D02*
X155490476Y-72692567D01*
X155490476Y-72692567D02*
X155538095Y-72787805D01*
X155538095Y-72787805D02*
X155633333Y-72883044D01*
X155633333Y-72883044D02*
X155776190Y-72930663D01*
X155776190Y-72930663D02*
X156014285Y-72930663D01*
X154490476Y-72930663D02*
X155061904Y-72930663D01*
X154776190Y-72930663D02*
X154776190Y-71930663D01*
X154776190Y-71930663D02*
X154871428Y-72073520D01*
X154871428Y-72073520D02*
X154966666Y-72168758D01*
X154966666Y-72168758D02*
X155061904Y-72216377D01*
X153871428Y-71930663D02*
X153776190Y-71930663D01*
X153776190Y-71930663D02*
X153680952Y-71978282D01*
X153680952Y-71978282D02*
X153633333Y-72025901D01*
X153633333Y-72025901D02*
X153585714Y-72121139D01*
X153585714Y-72121139D02*
X153538095Y-72311615D01*
X153538095Y-72311615D02*
X153538095Y-72549710D01*
X153538095Y-72549710D02*
X153585714Y-72740186D01*
X153585714Y-72740186D02*
X153633333Y-72835424D01*
X153633333Y-72835424D02*
X153680952Y-72883044D01*
X153680952Y-72883044D02*
X153776190Y-72930663D01*
X153776190Y-72930663D02*
X153871428Y-72930663D01*
X153871428Y-72930663D02*
X153966666Y-72883044D01*
X153966666Y-72883044D02*
X154014285Y-72835424D01*
X154014285Y-72835424D02*
X154061904Y-72740186D01*
X154061904Y-72740186D02*
X154109523Y-72549710D01*
X154109523Y-72549710D02*
X154109523Y-72311615D01*
X154109523Y-72311615D02*
X154061904Y-72121139D01*
X154061904Y-72121139D02*
X154014285Y-72025901D01*
X154014285Y-72025901D02*
X153966666Y-71978282D01*
X153966666Y-71978282D02*
X153871428Y-71930663D01*
X169014285Y-72900663D02*
X169014285Y-71900663D01*
X169014285Y-71900663D02*
X168776190Y-71900663D01*
X168776190Y-71900663D02*
X168633333Y-71948282D01*
X168633333Y-71948282D02*
X168538095Y-72043520D01*
X168538095Y-72043520D02*
X168490476Y-72138758D01*
X168490476Y-72138758D02*
X168442857Y-72329234D01*
X168442857Y-72329234D02*
X168442857Y-72472091D01*
X168442857Y-72472091D02*
X168490476Y-72662567D01*
X168490476Y-72662567D02*
X168538095Y-72757805D01*
X168538095Y-72757805D02*
X168633333Y-72853044D01*
X168633333Y-72853044D02*
X168776190Y-72900663D01*
X168776190Y-72900663D02*
X169014285Y-72900663D01*
X167490476Y-72900663D02*
X168061904Y-72900663D01*
X167776190Y-72900663D02*
X167776190Y-71900663D01*
X167776190Y-71900663D02*
X167871428Y-72043520D01*
X167871428Y-72043520D02*
X167966666Y-72138758D01*
X167966666Y-72138758D02*
X168061904Y-72186377D01*
X167109523Y-71995901D02*
X167061904Y-71948282D01*
X167061904Y-71948282D02*
X166966666Y-71900663D01*
X166966666Y-71900663D02*
X166728571Y-71900663D01*
X166728571Y-71900663D02*
X166633333Y-71948282D01*
X166633333Y-71948282D02*
X166585714Y-71995901D01*
X166585714Y-71995901D02*
X166538095Y-72091139D01*
X166538095Y-72091139D02*
X166538095Y-72186377D01*
X166538095Y-72186377D02*
X166585714Y-72329234D01*
X166585714Y-72329234D02*
X167157142Y-72900663D01*
X167157142Y-72900663D02*
X166538095Y-72900663D01*
X146383332Y-92244044D02*
X146240475Y-92291663D01*
X146240475Y-92291663D02*
X146002380Y-92291663D01*
X146002380Y-92291663D02*
X145907142Y-92244044D01*
X145907142Y-92244044D02*
X145859523Y-92196424D01*
X145859523Y-92196424D02*
X145811904Y-92101186D01*
X145811904Y-92101186D02*
X145811904Y-92005948D01*
X145811904Y-92005948D02*
X145859523Y-91910710D01*
X145859523Y-91910710D02*
X145907142Y-91863091D01*
X145907142Y-91863091D02*
X146002380Y-91815472D01*
X146002380Y-91815472D02*
X146192856Y-91767853D01*
X146192856Y-91767853D02*
X146288094Y-91720234D01*
X146288094Y-91720234D02*
X146335713Y-91672615D01*
X146335713Y-91672615D02*
X146383332Y-91577377D01*
X146383332Y-91577377D02*
X146383332Y-91482139D01*
X146383332Y-91482139D02*
X146335713Y-91386901D01*
X146335713Y-91386901D02*
X146288094Y-91339282D01*
X146288094Y-91339282D02*
X146192856Y-91291663D01*
X146192856Y-91291663D02*
X145954761Y-91291663D01*
X145954761Y-91291663D02*
X145811904Y-91339282D01*
X145478570Y-91291663D02*
X145240475Y-92291663D01*
X145240475Y-92291663D02*
X145049999Y-91577377D01*
X145049999Y-91577377D02*
X144859523Y-92291663D01*
X144859523Y-92291663D02*
X144621428Y-91291663D01*
X143811904Y-91624996D02*
X143811904Y-92291663D01*
X144049999Y-91244044D02*
X144288094Y-91958329D01*
X144288094Y-91958329D02*
X143669047Y-91958329D01*
X129538094Y-72900663D02*
X129538094Y-71900663D01*
X129538094Y-71900663D02*
X129299999Y-71900663D01*
X129299999Y-71900663D02*
X129157142Y-71948282D01*
X129157142Y-71948282D02*
X129061904Y-72043520D01*
X129061904Y-72043520D02*
X129014285Y-72138758D01*
X129014285Y-72138758D02*
X128966666Y-72329234D01*
X128966666Y-72329234D02*
X128966666Y-72472091D01*
X128966666Y-72472091D02*
X129014285Y-72662567D01*
X129014285Y-72662567D02*
X129061904Y-72757805D01*
X129061904Y-72757805D02*
X129157142Y-72853044D01*
X129157142Y-72853044D02*
X129299999Y-72900663D01*
X129299999Y-72900663D02*
X129538094Y-72900663D01*
X128109523Y-71900663D02*
X128299999Y-71900663D01*
X128299999Y-71900663D02*
X128395237Y-71948282D01*
X128395237Y-71948282D02*
X128442856Y-71995901D01*
X128442856Y-71995901D02*
X128538094Y-72138758D01*
X128538094Y-72138758D02*
X128585713Y-72329234D01*
X128585713Y-72329234D02*
X128585713Y-72710186D01*
X128585713Y-72710186D02*
X128538094Y-72805424D01*
X128538094Y-72805424D02*
X128490475Y-72853044D01*
X128490475Y-72853044D02*
X128395237Y-72900663D01*
X128395237Y-72900663D02*
X128204761Y-72900663D01*
X128204761Y-72900663D02*
X128109523Y-72853044D01*
X128109523Y-72853044D02*
X128061904Y-72805424D01*
X128061904Y-72805424D02*
X128014285Y-72710186D01*
X128014285Y-72710186D02*
X128014285Y-72472091D01*
X128014285Y-72472091D02*
X128061904Y-72376853D01*
X128061904Y-72376853D02*
X128109523Y-72329234D01*
X128109523Y-72329234D02*
X128204761Y-72281615D01*
X128204761Y-72281615D02*
X128395237Y-72281615D01*
X128395237Y-72281615D02*
X128490475Y-72329234D01*
X128490475Y-72329234D02*
X128538094Y-72376853D01*
X128538094Y-72376853D02*
X128585713Y-72472091D01*
X162514285Y-72900663D02*
X162514285Y-71900663D01*
X162514285Y-71900663D02*
X162276190Y-71900663D01*
X162276190Y-71900663D02*
X162133333Y-71948282D01*
X162133333Y-71948282D02*
X162038095Y-72043520D01*
X162038095Y-72043520D02*
X161990476Y-72138758D01*
X161990476Y-72138758D02*
X161942857Y-72329234D01*
X161942857Y-72329234D02*
X161942857Y-72472091D01*
X161942857Y-72472091D02*
X161990476Y-72662567D01*
X161990476Y-72662567D02*
X162038095Y-72757805D01*
X162038095Y-72757805D02*
X162133333Y-72853044D01*
X162133333Y-72853044D02*
X162276190Y-72900663D01*
X162276190Y-72900663D02*
X162514285Y-72900663D01*
X160990476Y-72900663D02*
X161561904Y-72900663D01*
X161276190Y-72900663D02*
X161276190Y-71900663D01*
X161276190Y-71900663D02*
X161371428Y-72043520D01*
X161371428Y-72043520D02*
X161466666Y-72138758D01*
X161466666Y-72138758D02*
X161561904Y-72186377D01*
X160038095Y-72900663D02*
X160609523Y-72900663D01*
X160323809Y-72900663D02*
X160323809Y-71900663D01*
X160323809Y-71900663D02*
X160419047Y-72043520D01*
X160419047Y-72043520D02*
X160514285Y-72138758D01*
X160514285Y-72138758D02*
X160609523Y-72186377D01*
X164115336Y-61040085D02*
X165115336Y-61040085D01*
X165115336Y-61040085D02*
X165115336Y-60801990D01*
X165115336Y-60801990D02*
X165067717Y-60659133D01*
X165067717Y-60659133D02*
X164972479Y-60563895D01*
X164972479Y-60563895D02*
X164877241Y-60516276D01*
X164877241Y-60516276D02*
X164686765Y-60468657D01*
X164686765Y-60468657D02*
X164543908Y-60468657D01*
X164543908Y-60468657D02*
X164353432Y-60516276D01*
X164353432Y-60516276D02*
X164258194Y-60563895D01*
X164258194Y-60563895D02*
X164162956Y-60659133D01*
X164162956Y-60659133D02*
X164115336Y-60801990D01*
X164115336Y-60801990D02*
X164115336Y-61040085D01*
X164115336Y-59516276D02*
X164115336Y-60087704D01*
X164115336Y-59801990D02*
X165115336Y-59801990D01*
X165115336Y-59801990D02*
X164972479Y-59897228D01*
X164972479Y-59897228D02*
X164877241Y-59992466D01*
X164877241Y-59992466D02*
X164829622Y-60087704D01*
X164782003Y-58659133D02*
X164115336Y-58659133D01*
X165162956Y-58897228D02*
X164448670Y-59135323D01*
X164448670Y-59135323D02*
X164448670Y-58516276D01*
X116648094Y-72900663D02*
X116648094Y-71900663D01*
X116648094Y-71900663D02*
X116409999Y-71900663D01*
X116409999Y-71900663D02*
X116267142Y-71948282D01*
X116267142Y-71948282D02*
X116171904Y-72043520D01*
X116171904Y-72043520D02*
X116124285Y-72138758D01*
X116124285Y-72138758D02*
X116076666Y-72329234D01*
X116076666Y-72329234D02*
X116076666Y-72472091D01*
X116076666Y-72472091D02*
X116124285Y-72662567D01*
X116124285Y-72662567D02*
X116171904Y-72757805D01*
X116171904Y-72757805D02*
X116267142Y-72853044D01*
X116267142Y-72853044D02*
X116409999Y-72900663D01*
X116409999Y-72900663D02*
X116648094Y-72900663D01*
X115219523Y-72233996D02*
X115219523Y-72900663D01*
X115457618Y-71853044D02*
X115695713Y-72567329D01*
X115695713Y-72567329D02*
X115076666Y-72567329D01*
X164075336Y-54960085D02*
X165075336Y-54960085D01*
X165075336Y-54960085D02*
X165075336Y-54721990D01*
X165075336Y-54721990D02*
X165027717Y-54579133D01*
X165027717Y-54579133D02*
X164932479Y-54483895D01*
X164932479Y-54483895D02*
X164837241Y-54436276D01*
X164837241Y-54436276D02*
X164646765Y-54388657D01*
X164646765Y-54388657D02*
X164503908Y-54388657D01*
X164503908Y-54388657D02*
X164313432Y-54436276D01*
X164313432Y-54436276D02*
X164218194Y-54483895D01*
X164218194Y-54483895D02*
X164122956Y-54579133D01*
X164122956Y-54579133D02*
X164075336Y-54721990D01*
X164075336Y-54721990D02*
X164075336Y-54960085D01*
X164075336Y-53436276D02*
X164075336Y-54007704D01*
X164075336Y-53721990D02*
X165075336Y-53721990D01*
X165075336Y-53721990D02*
X164932479Y-53817228D01*
X164932479Y-53817228D02*
X164837241Y-53912466D01*
X164837241Y-53912466D02*
X164789622Y-54007704D01*
X165075336Y-53102942D02*
X165075336Y-52483895D01*
X165075336Y-52483895D02*
X164694384Y-52817228D01*
X164694384Y-52817228D02*
X164694384Y-52674371D01*
X164694384Y-52674371D02*
X164646765Y-52579133D01*
X164646765Y-52579133D02*
X164599146Y-52531514D01*
X164599146Y-52531514D02*
X164503908Y-52483895D01*
X164503908Y-52483895D02*
X164265813Y-52483895D01*
X164265813Y-52483895D02*
X164170575Y-52531514D01*
X164170575Y-52531514D02*
X164122956Y-52579133D01*
X164122956Y-52579133D02*
X164075336Y-52674371D01*
X164075336Y-52674371D02*
X164075336Y-52960085D01*
X164075336Y-52960085D02*
X164122956Y-53055323D01*
X164122956Y-53055323D02*
X164170575Y-53102942D01*
X159383332Y-92244044D02*
X159240475Y-92291663D01*
X159240475Y-92291663D02*
X159002380Y-92291663D01*
X159002380Y-92291663D02*
X158907142Y-92244044D01*
X158907142Y-92244044D02*
X158859523Y-92196424D01*
X158859523Y-92196424D02*
X158811904Y-92101186D01*
X158811904Y-92101186D02*
X158811904Y-92005948D01*
X158811904Y-92005948D02*
X158859523Y-91910710D01*
X158859523Y-91910710D02*
X158907142Y-91863091D01*
X158907142Y-91863091D02*
X159002380Y-91815472D01*
X159002380Y-91815472D02*
X159192856Y-91767853D01*
X159192856Y-91767853D02*
X159288094Y-91720234D01*
X159288094Y-91720234D02*
X159335713Y-91672615D01*
X159335713Y-91672615D02*
X159383332Y-91577377D01*
X159383332Y-91577377D02*
X159383332Y-91482139D01*
X159383332Y-91482139D02*
X159335713Y-91386901D01*
X159335713Y-91386901D02*
X159288094Y-91339282D01*
X159288094Y-91339282D02*
X159192856Y-91291663D01*
X159192856Y-91291663D02*
X158954761Y-91291663D01*
X158954761Y-91291663D02*
X158811904Y-91339282D01*
X158478570Y-91291663D02*
X158240475Y-92291663D01*
X158240475Y-92291663D02*
X158049999Y-91577377D01*
X158049999Y-91577377D02*
X157859523Y-92291663D01*
X157859523Y-92291663D02*
X157621428Y-91291663D01*
X156764285Y-91291663D02*
X157240475Y-91291663D01*
X157240475Y-91291663D02*
X157288094Y-91767853D01*
X157288094Y-91767853D02*
X157240475Y-91720234D01*
X157240475Y-91720234D02*
X157145237Y-91672615D01*
X157145237Y-91672615D02*
X156907142Y-91672615D01*
X156907142Y-91672615D02*
X156811904Y-91720234D01*
X156811904Y-91720234D02*
X156764285Y-91767853D01*
X156764285Y-91767853D02*
X156716666Y-91863091D01*
X156716666Y-91863091D02*
X156716666Y-92101186D01*
X156716666Y-92101186D02*
X156764285Y-92196424D01*
X156764285Y-92196424D02*
X156811904Y-92244044D01*
X156811904Y-92244044D02*
X156907142Y-92291663D01*
X156907142Y-92291663D02*
X157145237Y-92291663D01*
X157145237Y-92291663D02*
X157240475Y-92244044D01*
X157240475Y-92244044D02*
X157288094Y-92196424D01*
X107383332Y-92244044D02*
X107240475Y-92291663D01*
X107240475Y-92291663D02*
X107002380Y-92291663D01*
X107002380Y-92291663D02*
X106907142Y-92244044D01*
X106907142Y-92244044D02*
X106859523Y-92196424D01*
X106859523Y-92196424D02*
X106811904Y-92101186D01*
X106811904Y-92101186D02*
X106811904Y-92005948D01*
X106811904Y-92005948D02*
X106859523Y-91910710D01*
X106859523Y-91910710D02*
X106907142Y-91863091D01*
X106907142Y-91863091D02*
X107002380Y-91815472D01*
X107002380Y-91815472D02*
X107192856Y-91767853D01*
X107192856Y-91767853D02*
X107288094Y-91720234D01*
X107288094Y-91720234D02*
X107335713Y-91672615D01*
X107335713Y-91672615D02*
X107383332Y-91577377D01*
X107383332Y-91577377D02*
X107383332Y-91482139D01*
X107383332Y-91482139D02*
X107335713Y-91386901D01*
X107335713Y-91386901D02*
X107288094Y-91339282D01*
X107288094Y-91339282D02*
X107192856Y-91291663D01*
X107192856Y-91291663D02*
X106954761Y-91291663D01*
X106954761Y-91291663D02*
X106811904Y-91339282D01*
X106478570Y-91291663D02*
X106240475Y-92291663D01*
X106240475Y-92291663D02*
X106049999Y-91577377D01*
X106049999Y-91577377D02*
X105859523Y-92291663D01*
X105859523Y-92291663D02*
X105621428Y-91291663D01*
X104716666Y-92291663D02*
X105288094Y-92291663D01*
X105002380Y-92291663D02*
X105002380Y-91291663D01*
X105002380Y-91291663D02*
X105097618Y-91434520D01*
X105097618Y-91434520D02*
X105192856Y-91529758D01*
X105192856Y-91529758D02*
X105288094Y-91577377D01*
X97038094Y-72900663D02*
X97038094Y-71900663D01*
X97038094Y-71900663D02*
X96799999Y-71900663D01*
X96799999Y-71900663D02*
X96657142Y-71948282D01*
X96657142Y-71948282D02*
X96561904Y-72043520D01*
X96561904Y-72043520D02*
X96514285Y-72138758D01*
X96514285Y-72138758D02*
X96466666Y-72329234D01*
X96466666Y-72329234D02*
X96466666Y-72472091D01*
X96466666Y-72472091D02*
X96514285Y-72662567D01*
X96514285Y-72662567D02*
X96561904Y-72757805D01*
X96561904Y-72757805D02*
X96657142Y-72853044D01*
X96657142Y-72853044D02*
X96799999Y-72900663D01*
X96799999Y-72900663D02*
X97038094Y-72900663D01*
X95514285Y-72900663D02*
X96085713Y-72900663D01*
X95799999Y-72900663D02*
X95799999Y-71900663D01*
X95799999Y-71900663D02*
X95895237Y-72043520D01*
X95895237Y-72043520D02*
X95990475Y-72138758D01*
X95990475Y-72138758D02*
X96085713Y-72186377D01*
X110038094Y-72900663D02*
X110038094Y-71900663D01*
X110038094Y-71900663D02*
X109799999Y-71900663D01*
X109799999Y-71900663D02*
X109657142Y-71948282D01*
X109657142Y-71948282D02*
X109561904Y-72043520D01*
X109561904Y-72043520D02*
X109514285Y-72138758D01*
X109514285Y-72138758D02*
X109466666Y-72329234D01*
X109466666Y-72329234D02*
X109466666Y-72472091D01*
X109466666Y-72472091D02*
X109514285Y-72662567D01*
X109514285Y-72662567D02*
X109561904Y-72757805D01*
X109561904Y-72757805D02*
X109657142Y-72853044D01*
X109657142Y-72853044D02*
X109799999Y-72900663D01*
X109799999Y-72900663D02*
X110038094Y-72900663D01*
X109133332Y-71900663D02*
X108514285Y-71900663D01*
X108514285Y-71900663D02*
X108847618Y-72281615D01*
X108847618Y-72281615D02*
X108704761Y-72281615D01*
X108704761Y-72281615D02*
X108609523Y-72329234D01*
X108609523Y-72329234D02*
X108561904Y-72376853D01*
X108561904Y-72376853D02*
X108514285Y-72472091D01*
X108514285Y-72472091D02*
X108514285Y-72710186D01*
X108514285Y-72710186D02*
X108561904Y-72805424D01*
X108561904Y-72805424D02*
X108609523Y-72853044D01*
X108609523Y-72853044D02*
X108704761Y-72900663D01*
X108704761Y-72900663D02*
X108990475Y-72900663D01*
X108990475Y-72900663D02*
X109085713Y-72853044D01*
X109085713Y-72853044D02*
X109133332Y-72805424D01*
X164075336Y-67120085D02*
X165075336Y-67120085D01*
X165075336Y-67120085D02*
X165075336Y-66881990D01*
X165075336Y-66881990D02*
X165027717Y-66739133D01*
X165027717Y-66739133D02*
X164932479Y-66643895D01*
X164932479Y-66643895D02*
X164837241Y-66596276D01*
X164837241Y-66596276D02*
X164646765Y-66548657D01*
X164646765Y-66548657D02*
X164503908Y-66548657D01*
X164503908Y-66548657D02*
X164313432Y-66596276D01*
X164313432Y-66596276D02*
X164218194Y-66643895D01*
X164218194Y-66643895D02*
X164122956Y-66739133D01*
X164122956Y-66739133D02*
X164075336Y-66881990D01*
X164075336Y-66881990D02*
X164075336Y-67120085D01*
X164075336Y-65596276D02*
X164075336Y-66167704D01*
X164075336Y-65881990D02*
X165075336Y-65881990D01*
X165075336Y-65881990D02*
X164932479Y-65977228D01*
X164932479Y-65977228D02*
X164837241Y-66072466D01*
X164837241Y-66072466D02*
X164789622Y-66167704D01*
X165075336Y-64691514D02*
X165075336Y-65167704D01*
X165075336Y-65167704D02*
X164599146Y-65215323D01*
X164599146Y-65215323D02*
X164646765Y-65167704D01*
X164646765Y-65167704D02*
X164694384Y-65072466D01*
X164694384Y-65072466D02*
X164694384Y-64834371D01*
X164694384Y-64834371D02*
X164646765Y-64739133D01*
X164646765Y-64739133D02*
X164599146Y-64691514D01*
X164599146Y-64691514D02*
X164503908Y-64643895D01*
X164503908Y-64643895D02*
X164265813Y-64643895D01*
X164265813Y-64643895D02*
X164170575Y-64691514D01*
X164170575Y-64691514D02*
X164122956Y-64739133D01*
X164122956Y-64739133D02*
X164075336Y-64834371D01*
X164075336Y-64834371D02*
X164075336Y-65072466D01*
X164075336Y-65072466D02*
X164122956Y-65167704D01*
X164122956Y-65167704D02*
X164170575Y-65215323D01*
X120383332Y-92244044D02*
X120240475Y-92291663D01*
X120240475Y-92291663D02*
X120002380Y-92291663D01*
X120002380Y-92291663D02*
X119907142Y-92244044D01*
X119907142Y-92244044D02*
X119859523Y-92196424D01*
X119859523Y-92196424D02*
X119811904Y-92101186D01*
X119811904Y-92101186D02*
X119811904Y-92005948D01*
X119811904Y-92005948D02*
X119859523Y-91910710D01*
X119859523Y-91910710D02*
X119907142Y-91863091D01*
X119907142Y-91863091D02*
X120002380Y-91815472D01*
X120002380Y-91815472D02*
X120192856Y-91767853D01*
X120192856Y-91767853D02*
X120288094Y-91720234D01*
X120288094Y-91720234D02*
X120335713Y-91672615D01*
X120335713Y-91672615D02*
X120383332Y-91577377D01*
X120383332Y-91577377D02*
X120383332Y-91482139D01*
X120383332Y-91482139D02*
X120335713Y-91386901D01*
X120335713Y-91386901D02*
X120288094Y-91339282D01*
X120288094Y-91339282D02*
X120192856Y-91291663D01*
X120192856Y-91291663D02*
X119954761Y-91291663D01*
X119954761Y-91291663D02*
X119811904Y-91339282D01*
X119478570Y-91291663D02*
X119240475Y-92291663D01*
X119240475Y-92291663D02*
X119049999Y-91577377D01*
X119049999Y-91577377D02*
X118859523Y-92291663D01*
X118859523Y-92291663D02*
X118621428Y-91291663D01*
X118288094Y-91386901D02*
X118240475Y-91339282D01*
X118240475Y-91339282D02*
X118145237Y-91291663D01*
X118145237Y-91291663D02*
X117907142Y-91291663D01*
X117907142Y-91291663D02*
X117811904Y-91339282D01*
X117811904Y-91339282D02*
X117764285Y-91386901D01*
X117764285Y-91386901D02*
X117716666Y-91482139D01*
X117716666Y-91482139D02*
X117716666Y-91577377D01*
X117716666Y-91577377D02*
X117764285Y-91720234D01*
X117764285Y-91720234D02*
X118335713Y-92291663D01*
X118335713Y-92291663D02*
X117716666Y-92291663D01*
X123038094Y-72915663D02*
X123038094Y-71915663D01*
X123038094Y-71915663D02*
X122799999Y-71915663D01*
X122799999Y-71915663D02*
X122657142Y-71963282D01*
X122657142Y-71963282D02*
X122561904Y-72058520D01*
X122561904Y-72058520D02*
X122514285Y-72153758D01*
X122514285Y-72153758D02*
X122466666Y-72344234D01*
X122466666Y-72344234D02*
X122466666Y-72487091D01*
X122466666Y-72487091D02*
X122514285Y-72677567D01*
X122514285Y-72677567D02*
X122561904Y-72772805D01*
X122561904Y-72772805D02*
X122657142Y-72868044D01*
X122657142Y-72868044D02*
X122799999Y-72915663D01*
X122799999Y-72915663D02*
X123038094Y-72915663D01*
X121561904Y-71915663D02*
X122038094Y-71915663D01*
X122038094Y-71915663D02*
X122085713Y-72391853D01*
X122085713Y-72391853D02*
X122038094Y-72344234D01*
X122038094Y-72344234D02*
X121942856Y-72296615D01*
X121942856Y-72296615D02*
X121704761Y-72296615D01*
X121704761Y-72296615D02*
X121609523Y-72344234D01*
X121609523Y-72344234D02*
X121561904Y-72391853D01*
X121561904Y-72391853D02*
X121514285Y-72487091D01*
X121514285Y-72487091D02*
X121514285Y-72725186D01*
X121514285Y-72725186D02*
X121561904Y-72820424D01*
X121561904Y-72820424D02*
X121609523Y-72868044D01*
X121609523Y-72868044D02*
X121704761Y-72915663D01*
X121704761Y-72915663D02*
X121942856Y-72915663D01*
X121942856Y-72915663D02*
X122038094Y-72868044D01*
X122038094Y-72868044D02*
X122085713Y-72820424D01*
X149038094Y-72900663D02*
X149038094Y-71900663D01*
X149038094Y-71900663D02*
X148799999Y-71900663D01*
X148799999Y-71900663D02*
X148657142Y-71948282D01*
X148657142Y-71948282D02*
X148561904Y-72043520D01*
X148561904Y-72043520D02*
X148514285Y-72138758D01*
X148514285Y-72138758D02*
X148466666Y-72329234D01*
X148466666Y-72329234D02*
X148466666Y-72472091D01*
X148466666Y-72472091D02*
X148514285Y-72662567D01*
X148514285Y-72662567D02*
X148561904Y-72757805D01*
X148561904Y-72757805D02*
X148657142Y-72853044D01*
X148657142Y-72853044D02*
X148799999Y-72900663D01*
X148799999Y-72900663D02*
X149038094Y-72900663D01*
X147990475Y-72900663D02*
X147799999Y-72900663D01*
X147799999Y-72900663D02*
X147704761Y-72853044D01*
X147704761Y-72853044D02*
X147657142Y-72805424D01*
X147657142Y-72805424D02*
X147561904Y-72662567D01*
X147561904Y-72662567D02*
X147514285Y-72472091D01*
X147514285Y-72472091D02*
X147514285Y-72091139D01*
X147514285Y-72091139D02*
X147561904Y-71995901D01*
X147561904Y-71995901D02*
X147609523Y-71948282D01*
X147609523Y-71948282D02*
X147704761Y-71900663D01*
X147704761Y-71900663D02*
X147895237Y-71900663D01*
X147895237Y-71900663D02*
X147990475Y-71948282D01*
X147990475Y-71948282D02*
X148038094Y-71995901D01*
X148038094Y-71995901D02*
X148085713Y-72091139D01*
X148085713Y-72091139D02*
X148085713Y-72329234D01*
X148085713Y-72329234D02*
X148038094Y-72424472D01*
X148038094Y-72424472D02*
X147990475Y-72472091D01*
X147990475Y-72472091D02*
X147895237Y-72519710D01*
X147895237Y-72519710D02*
X147704761Y-72519710D01*
X147704761Y-72519710D02*
X147609523Y-72472091D01*
X147609523Y-72472091D02*
X147561904Y-72424472D01*
X147561904Y-72424472D02*
X147514285Y-72329234D01*
X142538094Y-72900663D02*
X142538094Y-71900663D01*
X142538094Y-71900663D02*
X142299999Y-71900663D01*
X142299999Y-71900663D02*
X142157142Y-71948282D01*
X142157142Y-71948282D02*
X142061904Y-72043520D01*
X142061904Y-72043520D02*
X142014285Y-72138758D01*
X142014285Y-72138758D02*
X141966666Y-72329234D01*
X141966666Y-72329234D02*
X141966666Y-72472091D01*
X141966666Y-72472091D02*
X142014285Y-72662567D01*
X142014285Y-72662567D02*
X142061904Y-72757805D01*
X142061904Y-72757805D02*
X142157142Y-72853044D01*
X142157142Y-72853044D02*
X142299999Y-72900663D01*
X142299999Y-72900663D02*
X142538094Y-72900663D01*
X141395237Y-72329234D02*
X141490475Y-72281615D01*
X141490475Y-72281615D02*
X141538094Y-72233996D01*
X141538094Y-72233996D02*
X141585713Y-72138758D01*
X141585713Y-72138758D02*
X141585713Y-72091139D01*
X141585713Y-72091139D02*
X141538094Y-71995901D01*
X141538094Y-71995901D02*
X141490475Y-71948282D01*
X141490475Y-71948282D02*
X141395237Y-71900663D01*
X141395237Y-71900663D02*
X141204761Y-71900663D01*
X141204761Y-71900663D02*
X141109523Y-71948282D01*
X141109523Y-71948282D02*
X141061904Y-71995901D01*
X141061904Y-71995901D02*
X141014285Y-72091139D01*
X141014285Y-72091139D02*
X141014285Y-72138758D01*
X141014285Y-72138758D02*
X141061904Y-72233996D01*
X141061904Y-72233996D02*
X141109523Y-72281615D01*
X141109523Y-72281615D02*
X141204761Y-72329234D01*
X141204761Y-72329234D02*
X141395237Y-72329234D01*
X141395237Y-72329234D02*
X141490475Y-72376853D01*
X141490475Y-72376853D02*
X141538094Y-72424472D01*
X141538094Y-72424472D02*
X141585713Y-72519710D01*
X141585713Y-72519710D02*
X141585713Y-72710186D01*
X141585713Y-72710186D02*
X141538094Y-72805424D01*
X141538094Y-72805424D02*
X141490475Y-72853044D01*
X141490475Y-72853044D02*
X141395237Y-72900663D01*
X141395237Y-72900663D02*
X141204761Y-72900663D01*
X141204761Y-72900663D02*
X141109523Y-72853044D01*
X141109523Y-72853044D02*
X141061904Y-72805424D01*
X141061904Y-72805424D02*
X141014285Y-72710186D01*
X141014285Y-72710186D02*
X141014285Y-72519710D01*
X141014285Y-72519710D02*
X141061904Y-72424472D01*
X141061904Y-72424472D02*
X141109523Y-72376853D01*
X141109523Y-72376853D02*
X141204761Y-72329234D01*
X103538094Y-72900663D02*
X103538094Y-71900663D01*
X103538094Y-71900663D02*
X103299999Y-71900663D01*
X103299999Y-71900663D02*
X103157142Y-71948282D01*
X103157142Y-71948282D02*
X103061904Y-72043520D01*
X103061904Y-72043520D02*
X103014285Y-72138758D01*
X103014285Y-72138758D02*
X102966666Y-72329234D01*
X102966666Y-72329234D02*
X102966666Y-72472091D01*
X102966666Y-72472091D02*
X103014285Y-72662567D01*
X103014285Y-72662567D02*
X103061904Y-72757805D01*
X103061904Y-72757805D02*
X103157142Y-72853044D01*
X103157142Y-72853044D02*
X103299999Y-72900663D01*
X103299999Y-72900663D02*
X103538094Y-72900663D01*
X102585713Y-71995901D02*
X102538094Y-71948282D01*
X102538094Y-71948282D02*
X102442856Y-71900663D01*
X102442856Y-71900663D02*
X102204761Y-71900663D01*
X102204761Y-71900663D02*
X102109523Y-71948282D01*
X102109523Y-71948282D02*
X102061904Y-71995901D01*
X102061904Y-71995901D02*
X102014285Y-72091139D01*
X102014285Y-72091139D02*
X102014285Y-72186377D01*
X102014285Y-72186377D02*
X102061904Y-72329234D01*
X102061904Y-72329234D02*
X102633332Y-72900663D01*
X102633332Y-72900663D02*
X102014285Y-72900663D01*
X121706666Y-56514663D02*
X122039999Y-56038472D01*
X122278094Y-56514663D02*
X122278094Y-55514663D01*
X122278094Y-55514663D02*
X121897142Y-55514663D01*
X121897142Y-55514663D02*
X121801904Y-55562282D01*
X121801904Y-55562282D02*
X121754285Y-55609901D01*
X121754285Y-55609901D02*
X121706666Y-55705139D01*
X121706666Y-55705139D02*
X121706666Y-55847996D01*
X121706666Y-55847996D02*
X121754285Y-55943234D01*
X121754285Y-55943234D02*
X121801904Y-55990853D01*
X121801904Y-55990853D02*
X121897142Y-56038472D01*
X121897142Y-56038472D02*
X122278094Y-56038472D01*
X121373332Y-55514663D02*
X120754285Y-55514663D01*
X120754285Y-55514663D02*
X121087618Y-55895615D01*
X121087618Y-55895615D02*
X120944761Y-55895615D01*
X120944761Y-55895615D02*
X120849523Y-55943234D01*
X120849523Y-55943234D02*
X120801904Y-55990853D01*
X120801904Y-55990853D02*
X120754285Y-56086091D01*
X120754285Y-56086091D02*
X120754285Y-56324186D01*
X120754285Y-56324186D02*
X120801904Y-56419424D01*
X120801904Y-56419424D02*
X120849523Y-56467044D01*
X120849523Y-56467044D02*
X120944761Y-56514663D01*
X120944761Y-56514663D02*
X121230475Y-56514663D01*
X121230475Y-56514663D02*
X121325713Y-56467044D01*
X121325713Y-56467044D02*
X121373332Y-56419424D01*
X122112857Y-49654663D02*
X122446190Y-49178472D01*
X122684285Y-49654663D02*
X122684285Y-48654663D01*
X122684285Y-48654663D02*
X122303333Y-48654663D01*
X122303333Y-48654663D02*
X122208095Y-48702282D01*
X122208095Y-48702282D02*
X122160476Y-48749901D01*
X122160476Y-48749901D02*
X122112857Y-48845139D01*
X122112857Y-48845139D02*
X122112857Y-48987996D01*
X122112857Y-48987996D02*
X122160476Y-49083234D01*
X122160476Y-49083234D02*
X122208095Y-49130853D01*
X122208095Y-49130853D02*
X122303333Y-49178472D01*
X122303333Y-49178472D02*
X122684285Y-49178472D01*
X121160476Y-49654663D02*
X121731904Y-49654663D01*
X121446190Y-49654663D02*
X121446190Y-48654663D01*
X121446190Y-48654663D02*
X121541428Y-48797520D01*
X121541428Y-48797520D02*
X121636666Y-48892758D01*
X121636666Y-48892758D02*
X121731904Y-48940377D01*
X120255714Y-48654663D02*
X120731904Y-48654663D01*
X120731904Y-48654663D02*
X120779523Y-49130853D01*
X120779523Y-49130853D02*
X120731904Y-49083234D01*
X120731904Y-49083234D02*
X120636666Y-49035615D01*
X120636666Y-49035615D02*
X120398571Y-49035615D01*
X120398571Y-49035615D02*
X120303333Y-49083234D01*
X120303333Y-49083234D02*
X120255714Y-49130853D01*
X120255714Y-49130853D02*
X120208095Y-49226091D01*
X120208095Y-49226091D02*
X120208095Y-49464186D01*
X120208095Y-49464186D02*
X120255714Y-49559424D01*
X120255714Y-49559424D02*
X120303333Y-49607044D01*
X120303333Y-49607044D02*
X120398571Y-49654663D01*
X120398571Y-49654663D02*
X120636666Y-49654663D01*
X120636666Y-49654663D02*
X120731904Y-49607044D01*
X120731904Y-49607044D02*
X120779523Y-49559424D01*
X124706666Y-52394663D02*
X125039999Y-51918472D01*
X125278094Y-52394663D02*
X125278094Y-51394663D01*
X125278094Y-51394663D02*
X124897142Y-51394663D01*
X124897142Y-51394663D02*
X124801904Y-51442282D01*
X124801904Y-51442282D02*
X124754285Y-51489901D01*
X124754285Y-51489901D02*
X124706666Y-51585139D01*
X124706666Y-51585139D02*
X124706666Y-51727996D01*
X124706666Y-51727996D02*
X124754285Y-51823234D01*
X124754285Y-51823234D02*
X124801904Y-51870853D01*
X124801904Y-51870853D02*
X124897142Y-51918472D01*
X124897142Y-51918472D02*
X125278094Y-51918472D01*
X124325713Y-51489901D02*
X124278094Y-51442282D01*
X124278094Y-51442282D02*
X124182856Y-51394663D01*
X124182856Y-51394663D02*
X123944761Y-51394663D01*
X123944761Y-51394663D02*
X123849523Y-51442282D01*
X123849523Y-51442282D02*
X123801904Y-51489901D01*
X123801904Y-51489901D02*
X123754285Y-51585139D01*
X123754285Y-51585139D02*
X123754285Y-51680377D01*
X123754285Y-51680377D02*
X123801904Y-51823234D01*
X123801904Y-51823234D02*
X124373332Y-52394663D01*
X124373332Y-52394663D02*
X123754285Y-52394663D01*
X164122336Y-89388666D02*
X164598527Y-89721999D01*
X164122336Y-89960094D02*
X165122336Y-89960094D01*
X165122336Y-89960094D02*
X165122336Y-89579142D01*
X165122336Y-89579142D02*
X165074717Y-89483904D01*
X165074717Y-89483904D02*
X165027098Y-89436285D01*
X165027098Y-89436285D02*
X164931860Y-89388666D01*
X164931860Y-89388666D02*
X164789003Y-89388666D01*
X164789003Y-89388666D02*
X164693765Y-89436285D01*
X164693765Y-89436285D02*
X164646146Y-89483904D01*
X164646146Y-89483904D02*
X164598527Y-89579142D01*
X164598527Y-89579142D02*
X164598527Y-89960094D01*
X164693765Y-88817237D02*
X164741384Y-88912475D01*
X164741384Y-88912475D02*
X164789003Y-88960094D01*
X164789003Y-88960094D02*
X164884241Y-89007713D01*
X164884241Y-89007713D02*
X164931860Y-89007713D01*
X164931860Y-89007713D02*
X165027098Y-88960094D01*
X165027098Y-88960094D02*
X165074717Y-88912475D01*
X165074717Y-88912475D02*
X165122336Y-88817237D01*
X165122336Y-88817237D02*
X165122336Y-88626761D01*
X165122336Y-88626761D02*
X165074717Y-88531523D01*
X165074717Y-88531523D02*
X165027098Y-88483904D01*
X165027098Y-88483904D02*
X164931860Y-88436285D01*
X164931860Y-88436285D02*
X164884241Y-88436285D01*
X164884241Y-88436285D02*
X164789003Y-88483904D01*
X164789003Y-88483904D02*
X164741384Y-88531523D01*
X164741384Y-88531523D02*
X164693765Y-88626761D01*
X164693765Y-88626761D02*
X164693765Y-88817237D01*
X164693765Y-88817237D02*
X164646146Y-88912475D01*
X164646146Y-88912475D02*
X164598527Y-88960094D01*
X164598527Y-88960094D02*
X164503289Y-89007713D01*
X164503289Y-89007713D02*
X164312813Y-89007713D01*
X164312813Y-89007713D02*
X164217575Y-88960094D01*
X164217575Y-88960094D02*
X164169956Y-88912475D01*
X164169956Y-88912475D02*
X164122336Y-88817237D01*
X164122336Y-88817237D02*
X164122336Y-88626761D01*
X164122336Y-88626761D02*
X164169956Y-88531523D01*
X164169956Y-88531523D02*
X164217575Y-88483904D01*
X164217575Y-88483904D02*
X164312813Y-88436285D01*
X164312813Y-88436285D02*
X164503289Y-88436285D01*
X164503289Y-88436285D02*
X164598527Y-88483904D01*
X164598527Y-88483904D02*
X164646146Y-88531523D01*
X164646146Y-88531523D02*
X164693765Y-88626761D01*
X139806666Y-52334663D02*
X140139999Y-51858472D01*
X140378094Y-52334663D02*
X140378094Y-51334663D01*
X140378094Y-51334663D02*
X139997142Y-51334663D01*
X139997142Y-51334663D02*
X139901904Y-51382282D01*
X139901904Y-51382282D02*
X139854285Y-51429901D01*
X139854285Y-51429901D02*
X139806666Y-51525139D01*
X139806666Y-51525139D02*
X139806666Y-51667996D01*
X139806666Y-51667996D02*
X139854285Y-51763234D01*
X139854285Y-51763234D02*
X139901904Y-51810853D01*
X139901904Y-51810853D02*
X139997142Y-51858472D01*
X139997142Y-51858472D02*
X140378094Y-51858472D01*
X138949523Y-51334663D02*
X139139999Y-51334663D01*
X139139999Y-51334663D02*
X139235237Y-51382282D01*
X139235237Y-51382282D02*
X139282856Y-51429901D01*
X139282856Y-51429901D02*
X139378094Y-51572758D01*
X139378094Y-51572758D02*
X139425713Y-51763234D01*
X139425713Y-51763234D02*
X139425713Y-52144186D01*
X139425713Y-52144186D02*
X139378094Y-52239424D01*
X139378094Y-52239424D02*
X139330475Y-52287044D01*
X139330475Y-52287044D02*
X139235237Y-52334663D01*
X139235237Y-52334663D02*
X139044761Y-52334663D01*
X139044761Y-52334663D02*
X138949523Y-52287044D01*
X138949523Y-52287044D02*
X138901904Y-52239424D01*
X138901904Y-52239424D02*
X138854285Y-52144186D01*
X138854285Y-52144186D02*
X138854285Y-51906091D01*
X138854285Y-51906091D02*
X138901904Y-51810853D01*
X138901904Y-51810853D02*
X138949523Y-51763234D01*
X138949523Y-51763234D02*
X139044761Y-51715615D01*
X139044761Y-51715615D02*
X139235237Y-51715615D01*
X139235237Y-51715615D02*
X139330475Y-51763234D01*
X139330475Y-51763234D02*
X139378094Y-51810853D01*
X139378094Y-51810853D02*
X139425713Y-51906091D01*
X139821578Y-68527837D02*
X139869197Y-68575457D01*
X139869197Y-68575457D02*
X140012054Y-68623076D01*
X140012054Y-68623076D02*
X140107292Y-68623076D01*
X140107292Y-68623076D02*
X140250149Y-68575457D01*
X140250149Y-68575457D02*
X140345387Y-68480218D01*
X140345387Y-68480218D02*
X140393006Y-68384980D01*
X140393006Y-68384980D02*
X140440625Y-68194504D01*
X140440625Y-68194504D02*
X140440625Y-68051647D01*
X140440625Y-68051647D02*
X140393006Y-67861171D01*
X140393006Y-67861171D02*
X140345387Y-67765933D01*
X140345387Y-67765933D02*
X140250149Y-67670695D01*
X140250149Y-67670695D02*
X140107292Y-67623076D01*
X140107292Y-67623076D02*
X140012054Y-67623076D01*
X140012054Y-67623076D02*
X139869197Y-67670695D01*
X139869197Y-67670695D02*
X139821578Y-67718314D01*
X139440625Y-67718314D02*
X139393006Y-67670695D01*
X139393006Y-67670695D02*
X139297768Y-67623076D01*
X139297768Y-67623076D02*
X139059673Y-67623076D01*
X139059673Y-67623076D02*
X138964435Y-67670695D01*
X138964435Y-67670695D02*
X138916816Y-67718314D01*
X138916816Y-67718314D02*
X138869197Y-67813552D01*
X138869197Y-67813552D02*
X138869197Y-67908790D01*
X138869197Y-67908790D02*
X138916816Y-68051647D01*
X138916816Y-68051647D02*
X139488244Y-68623076D01*
X139488244Y-68623076D02*
X138869197Y-68623076D01*
X124706666Y-62484663D02*
X125039999Y-62008472D01*
X125278094Y-62484663D02*
X125278094Y-61484663D01*
X125278094Y-61484663D02*
X124897142Y-61484663D01*
X124897142Y-61484663D02*
X124801904Y-61532282D01*
X124801904Y-61532282D02*
X124754285Y-61579901D01*
X124754285Y-61579901D02*
X124706666Y-61675139D01*
X124706666Y-61675139D02*
X124706666Y-61817996D01*
X124706666Y-61817996D02*
X124754285Y-61913234D01*
X124754285Y-61913234D02*
X124801904Y-61960853D01*
X124801904Y-61960853D02*
X124897142Y-62008472D01*
X124897142Y-62008472D02*
X125278094Y-62008472D01*
X123849523Y-61817996D02*
X123849523Y-62484663D01*
X124087618Y-61437044D02*
X124325713Y-62151329D01*
X124325713Y-62151329D02*
X123706666Y-62151329D01*
X119303333Y-51054663D02*
X119303333Y-51768948D01*
X119303333Y-51768948D02*
X119350952Y-51911805D01*
X119350952Y-51911805D02*
X119446190Y-52007044D01*
X119446190Y-52007044D02*
X119589047Y-52054663D01*
X119589047Y-52054663D02*
X119684285Y-52054663D01*
X118874761Y-51149901D02*
X118827142Y-51102282D01*
X118827142Y-51102282D02*
X118731904Y-51054663D01*
X118731904Y-51054663D02*
X118493809Y-51054663D01*
X118493809Y-51054663D02*
X118398571Y-51102282D01*
X118398571Y-51102282D02*
X118350952Y-51149901D01*
X118350952Y-51149901D02*
X118303333Y-51245139D01*
X118303333Y-51245139D02*
X118303333Y-51340377D01*
X118303333Y-51340377D02*
X118350952Y-51483234D01*
X118350952Y-51483234D02*
X118922380Y-52054663D01*
X118922380Y-52054663D02*
X118303333Y-52054663D01*
X151070336Y-89351666D02*
X151546527Y-89684999D01*
X151070336Y-89923094D02*
X152070336Y-89923094D01*
X152070336Y-89923094D02*
X152070336Y-89542142D01*
X152070336Y-89542142D02*
X152022717Y-89446904D01*
X152022717Y-89446904D02*
X151975098Y-89399285D01*
X151975098Y-89399285D02*
X151879860Y-89351666D01*
X151879860Y-89351666D02*
X151737003Y-89351666D01*
X151737003Y-89351666D02*
X151641765Y-89399285D01*
X151641765Y-89399285D02*
X151594146Y-89446904D01*
X151594146Y-89446904D02*
X151546527Y-89542142D01*
X151546527Y-89542142D02*
X151546527Y-89923094D01*
X151070336Y-88875475D02*
X151070336Y-88684999D01*
X151070336Y-88684999D02*
X151117956Y-88589761D01*
X151117956Y-88589761D02*
X151165575Y-88542142D01*
X151165575Y-88542142D02*
X151308432Y-88446904D01*
X151308432Y-88446904D02*
X151498908Y-88399285D01*
X151498908Y-88399285D02*
X151879860Y-88399285D01*
X151879860Y-88399285D02*
X151975098Y-88446904D01*
X151975098Y-88446904D02*
X152022717Y-88494523D01*
X152022717Y-88494523D02*
X152070336Y-88589761D01*
X152070336Y-88589761D02*
X152070336Y-88780237D01*
X152070336Y-88780237D02*
X152022717Y-88875475D01*
X152022717Y-88875475D02*
X151975098Y-88923094D01*
X151975098Y-88923094D02*
X151879860Y-88970713D01*
X151879860Y-88970713D02*
X151641765Y-88970713D01*
X151641765Y-88970713D02*
X151546527Y-88923094D01*
X151546527Y-88923094D02*
X151498908Y-88875475D01*
X151498908Y-88875475D02*
X151451289Y-88780237D01*
X151451289Y-88780237D02*
X151451289Y-88589761D01*
X151451289Y-88589761D02*
X151498908Y-88494523D01*
X151498908Y-88494523D02*
X151546527Y-88446904D01*
X151546527Y-88446904D02*
X151641765Y-88399285D01*
X138070336Y-89827857D02*
X138546527Y-90161190D01*
X138070336Y-90399285D02*
X139070336Y-90399285D01*
X139070336Y-90399285D02*
X139070336Y-90018333D01*
X139070336Y-90018333D02*
X139022717Y-89923095D01*
X139022717Y-89923095D02*
X138975098Y-89875476D01*
X138975098Y-89875476D02*
X138879860Y-89827857D01*
X138879860Y-89827857D02*
X138737003Y-89827857D01*
X138737003Y-89827857D02*
X138641765Y-89875476D01*
X138641765Y-89875476D02*
X138594146Y-89923095D01*
X138594146Y-89923095D02*
X138546527Y-90018333D01*
X138546527Y-90018333D02*
X138546527Y-90399285D01*
X138070336Y-88875476D02*
X138070336Y-89446904D01*
X138070336Y-89161190D02*
X139070336Y-89161190D01*
X139070336Y-89161190D02*
X138927479Y-89256428D01*
X138927479Y-89256428D02*
X138832241Y-89351666D01*
X138832241Y-89351666D02*
X138784622Y-89446904D01*
X139070336Y-88256428D02*
X139070336Y-88161190D01*
X139070336Y-88161190D02*
X139022717Y-88065952D01*
X139022717Y-88065952D02*
X138975098Y-88018333D01*
X138975098Y-88018333D02*
X138879860Y-87970714D01*
X138879860Y-87970714D02*
X138689384Y-87923095D01*
X138689384Y-87923095D02*
X138451289Y-87923095D01*
X138451289Y-87923095D02*
X138260813Y-87970714D01*
X138260813Y-87970714D02*
X138165575Y-88018333D01*
X138165575Y-88018333D02*
X138117956Y-88065952D01*
X138117956Y-88065952D02*
X138070336Y-88161190D01*
X138070336Y-88161190D02*
X138070336Y-88256428D01*
X138070336Y-88256428D02*
X138117956Y-88351666D01*
X138117956Y-88351666D02*
X138165575Y-88399285D01*
X138165575Y-88399285D02*
X138260813Y-88446904D01*
X138260813Y-88446904D02*
X138451289Y-88494523D01*
X138451289Y-88494523D02*
X138689384Y-88494523D01*
X138689384Y-88494523D02*
X138879860Y-88446904D01*
X138879860Y-88446904D02*
X138975098Y-88399285D01*
X138975098Y-88399285D02*
X139022717Y-88351666D01*
X139022717Y-88351666D02*
X139070336Y-88256428D01*
X121706666Y-59164663D02*
X122039999Y-58688472D01*
X122278094Y-59164663D02*
X122278094Y-58164663D01*
X122278094Y-58164663D02*
X121897142Y-58164663D01*
X121897142Y-58164663D02*
X121801904Y-58212282D01*
X121801904Y-58212282D02*
X121754285Y-58259901D01*
X121754285Y-58259901D02*
X121706666Y-58355139D01*
X121706666Y-58355139D02*
X121706666Y-58497996D01*
X121706666Y-58497996D02*
X121754285Y-58593234D01*
X121754285Y-58593234D02*
X121801904Y-58640853D01*
X121801904Y-58640853D02*
X121897142Y-58688472D01*
X121897142Y-58688472D02*
X122278094Y-58688472D01*
X120754285Y-59164663D02*
X121325713Y-59164663D01*
X121039999Y-59164663D02*
X121039999Y-58164663D01*
X121039999Y-58164663D02*
X121135237Y-58307520D01*
X121135237Y-58307520D02*
X121230475Y-58402758D01*
X121230475Y-58402758D02*
X121325713Y-58450377D01*
X111095666Y-55109424D02*
X111143285Y-55157044D01*
X111143285Y-55157044D02*
X111286142Y-55204663D01*
X111286142Y-55204663D02*
X111381380Y-55204663D01*
X111381380Y-55204663D02*
X111524237Y-55157044D01*
X111524237Y-55157044D02*
X111619475Y-55061805D01*
X111619475Y-55061805D02*
X111667094Y-54966567D01*
X111667094Y-54966567D02*
X111714713Y-54776091D01*
X111714713Y-54776091D02*
X111714713Y-54633234D01*
X111714713Y-54633234D02*
X111667094Y-54442758D01*
X111667094Y-54442758D02*
X111619475Y-54347520D01*
X111619475Y-54347520D02*
X111524237Y-54252282D01*
X111524237Y-54252282D02*
X111381380Y-54204663D01*
X111381380Y-54204663D02*
X111286142Y-54204663D01*
X111286142Y-54204663D02*
X111143285Y-54252282D01*
X111143285Y-54252282D02*
X111095666Y-54299901D01*
X110762332Y-54204663D02*
X110143285Y-54204663D01*
X110143285Y-54204663D02*
X110476618Y-54585615D01*
X110476618Y-54585615D02*
X110333761Y-54585615D01*
X110333761Y-54585615D02*
X110238523Y-54633234D01*
X110238523Y-54633234D02*
X110190904Y-54680853D01*
X110190904Y-54680853D02*
X110143285Y-54776091D01*
X110143285Y-54776091D02*
X110143285Y-55014186D01*
X110143285Y-55014186D02*
X110190904Y-55109424D01*
X110190904Y-55109424D02*
X110238523Y-55157044D01*
X110238523Y-55157044D02*
X110333761Y-55204663D01*
X110333761Y-55204663D02*
X110619475Y-55204663D01*
X110619475Y-55204663D02*
X110714713Y-55157044D01*
X110714713Y-55157044D02*
X110762332Y-55109424D01*
X112120336Y-89827857D02*
X112596527Y-90161190D01*
X112120336Y-90399285D02*
X113120336Y-90399285D01*
X113120336Y-90399285D02*
X113120336Y-90018333D01*
X113120336Y-90018333D02*
X113072717Y-89923095D01*
X113072717Y-89923095D02*
X113025098Y-89875476D01*
X113025098Y-89875476D02*
X112929860Y-89827857D01*
X112929860Y-89827857D02*
X112787003Y-89827857D01*
X112787003Y-89827857D02*
X112691765Y-89875476D01*
X112691765Y-89875476D02*
X112644146Y-89923095D01*
X112644146Y-89923095D02*
X112596527Y-90018333D01*
X112596527Y-90018333D02*
X112596527Y-90399285D01*
X112120336Y-88875476D02*
X112120336Y-89446904D01*
X112120336Y-89161190D02*
X113120336Y-89161190D01*
X113120336Y-89161190D02*
X112977479Y-89256428D01*
X112977479Y-89256428D02*
X112882241Y-89351666D01*
X112882241Y-89351666D02*
X112834622Y-89446904D01*
X113025098Y-88494523D02*
X113072717Y-88446904D01*
X113072717Y-88446904D02*
X113120336Y-88351666D01*
X113120336Y-88351666D02*
X113120336Y-88113571D01*
X113120336Y-88113571D02*
X113072717Y-88018333D01*
X113072717Y-88018333D02*
X113025098Y-87970714D01*
X113025098Y-87970714D02*
X112929860Y-87923095D01*
X112929860Y-87923095D02*
X112834622Y-87923095D01*
X112834622Y-87923095D02*
X112691765Y-87970714D01*
X112691765Y-87970714D02*
X112120336Y-88542142D01*
X112120336Y-88542142D02*
X112120336Y-87923095D01*
X125070336Y-89827857D02*
X125546527Y-90161190D01*
X125070336Y-90399285D02*
X126070336Y-90399285D01*
X126070336Y-90399285D02*
X126070336Y-90018333D01*
X126070336Y-90018333D02*
X126022717Y-89923095D01*
X126022717Y-89923095D02*
X125975098Y-89875476D01*
X125975098Y-89875476D02*
X125879860Y-89827857D01*
X125879860Y-89827857D02*
X125737003Y-89827857D01*
X125737003Y-89827857D02*
X125641765Y-89875476D01*
X125641765Y-89875476D02*
X125594146Y-89923095D01*
X125594146Y-89923095D02*
X125546527Y-90018333D01*
X125546527Y-90018333D02*
X125546527Y-90399285D01*
X125070336Y-88875476D02*
X125070336Y-89446904D01*
X125070336Y-89161190D02*
X126070336Y-89161190D01*
X126070336Y-89161190D02*
X125927479Y-89256428D01*
X125927479Y-89256428D02*
X125832241Y-89351666D01*
X125832241Y-89351666D02*
X125784622Y-89446904D01*
X125070336Y-87923095D02*
X125070336Y-88494523D01*
X125070336Y-88208809D02*
X126070336Y-88208809D01*
X126070336Y-88208809D02*
X125927479Y-88304047D01*
X125927479Y-88304047D02*
X125832241Y-88399285D01*
X125832241Y-88399285D02*
X125784622Y-88494523D01*
X107562857Y-49654663D02*
X107896190Y-49178472D01*
X108134285Y-49654663D02*
X108134285Y-48654663D01*
X108134285Y-48654663D02*
X107753333Y-48654663D01*
X107753333Y-48654663D02*
X107658095Y-48702282D01*
X107658095Y-48702282D02*
X107610476Y-48749901D01*
X107610476Y-48749901D02*
X107562857Y-48845139D01*
X107562857Y-48845139D02*
X107562857Y-48987996D01*
X107562857Y-48987996D02*
X107610476Y-49083234D01*
X107610476Y-49083234D02*
X107658095Y-49130853D01*
X107658095Y-49130853D02*
X107753333Y-49178472D01*
X107753333Y-49178472D02*
X108134285Y-49178472D01*
X106610476Y-49654663D02*
X107181904Y-49654663D01*
X106896190Y-49654663D02*
X106896190Y-48654663D01*
X106896190Y-48654663D02*
X106991428Y-48797520D01*
X106991428Y-48797520D02*
X107086666Y-48892758D01*
X107086666Y-48892758D02*
X107181904Y-48940377D01*
X105753333Y-48987996D02*
X105753333Y-49654663D01*
X105991428Y-48607044D02*
X106229523Y-49321329D01*
X106229523Y-49321329D02*
X105610476Y-49321329D01*
X132078163Y-49638445D02*
X132125782Y-49686065D01*
X132125782Y-49686065D02*
X132268639Y-49733684D01*
X132268639Y-49733684D02*
X132363877Y-49733684D01*
X132363877Y-49733684D02*
X132506734Y-49686065D01*
X132506734Y-49686065D02*
X132601972Y-49590826D01*
X132601972Y-49590826D02*
X132649591Y-49495588D01*
X132649591Y-49495588D02*
X132697210Y-49305112D01*
X132697210Y-49305112D02*
X132697210Y-49162255D01*
X132697210Y-49162255D02*
X132649591Y-48971779D01*
X132649591Y-48971779D02*
X132601972Y-48876541D01*
X132601972Y-48876541D02*
X132506734Y-48781303D01*
X132506734Y-48781303D02*
X132363877Y-48733684D01*
X132363877Y-48733684D02*
X132268639Y-48733684D01*
X132268639Y-48733684D02*
X132125782Y-48781303D01*
X132125782Y-48781303D02*
X132078163Y-48828922D01*
X131125782Y-49733684D02*
X131697210Y-49733684D01*
X131411496Y-49733684D02*
X131411496Y-48733684D01*
X131411496Y-48733684D02*
X131506734Y-48876541D01*
X131506734Y-48876541D02*
X131601972Y-48971779D01*
X131601972Y-48971779D02*
X131697210Y-49019398D01*
X125206666Y-68714663D02*
X125539999Y-68238472D01*
X125778094Y-68714663D02*
X125778094Y-67714663D01*
X125778094Y-67714663D02*
X125397142Y-67714663D01*
X125397142Y-67714663D02*
X125301904Y-67762282D01*
X125301904Y-67762282D02*
X125254285Y-67809901D01*
X125254285Y-67809901D02*
X125206666Y-67905139D01*
X125206666Y-67905139D02*
X125206666Y-68047996D01*
X125206666Y-68047996D02*
X125254285Y-68143234D01*
X125254285Y-68143234D02*
X125301904Y-68190853D01*
X125301904Y-68190853D02*
X125397142Y-68238472D01*
X125397142Y-68238472D02*
X125778094Y-68238472D01*
X124301904Y-67714663D02*
X124778094Y-67714663D01*
X124778094Y-67714663D02*
X124825713Y-68190853D01*
X124825713Y-68190853D02*
X124778094Y-68143234D01*
X124778094Y-68143234D02*
X124682856Y-68095615D01*
X124682856Y-68095615D02*
X124444761Y-68095615D01*
X124444761Y-68095615D02*
X124349523Y-68143234D01*
X124349523Y-68143234D02*
X124301904Y-68190853D01*
X124301904Y-68190853D02*
X124254285Y-68286091D01*
X124254285Y-68286091D02*
X124254285Y-68524186D01*
X124254285Y-68524186D02*
X124301904Y-68619424D01*
X124301904Y-68619424D02*
X124349523Y-68667044D01*
X124349523Y-68667044D02*
X124444761Y-68714663D01*
X124444761Y-68714663D02*
X124682856Y-68714663D01*
X124682856Y-68714663D02*
X124778094Y-68667044D01*
X124778094Y-68667044D02*
X124825713Y-68619424D01*
X139806666Y-62724663D02*
X140139999Y-62248472D01*
X140378094Y-62724663D02*
X140378094Y-61724663D01*
X140378094Y-61724663D02*
X139997142Y-61724663D01*
X139997142Y-61724663D02*
X139901904Y-61772282D01*
X139901904Y-61772282D02*
X139854285Y-61819901D01*
X139854285Y-61819901D02*
X139806666Y-61915139D01*
X139806666Y-61915139D02*
X139806666Y-62057996D01*
X139806666Y-62057996D02*
X139854285Y-62153234D01*
X139854285Y-62153234D02*
X139901904Y-62200853D01*
X139901904Y-62200853D02*
X139997142Y-62248472D01*
X139997142Y-62248472D02*
X140378094Y-62248472D01*
X139473332Y-61724663D02*
X138806666Y-61724663D01*
X138806666Y-61724663D02*
X139235237Y-62724663D01*
X151265832Y-51577044D02*
X151122975Y-51624663D01*
X151122975Y-51624663D02*
X150884880Y-51624663D01*
X150884880Y-51624663D02*
X150789642Y-51577044D01*
X150789642Y-51577044D02*
X150742023Y-51529424D01*
X150742023Y-51529424D02*
X150694404Y-51434186D01*
X150694404Y-51434186D02*
X150694404Y-51338948D01*
X150694404Y-51338948D02*
X150742023Y-51243710D01*
X150742023Y-51243710D02*
X150789642Y-51196091D01*
X150789642Y-51196091D02*
X150884880Y-51148472D01*
X150884880Y-51148472D02*
X151075356Y-51100853D01*
X151075356Y-51100853D02*
X151170594Y-51053234D01*
X151170594Y-51053234D02*
X151218213Y-51005615D01*
X151218213Y-51005615D02*
X151265832Y-50910377D01*
X151265832Y-50910377D02*
X151265832Y-50815139D01*
X151265832Y-50815139D02*
X151218213Y-50719901D01*
X151218213Y-50719901D02*
X151170594Y-50672282D01*
X151170594Y-50672282D02*
X151075356Y-50624663D01*
X151075356Y-50624663D02*
X150837261Y-50624663D01*
X150837261Y-50624663D02*
X150694404Y-50672282D01*
X150361070Y-50624663D02*
X150122975Y-51624663D01*
X150122975Y-51624663D02*
X149932499Y-50910377D01*
X149932499Y-50910377D02*
X149742023Y-51624663D01*
X149742023Y-51624663D02*
X149503928Y-50624663D01*
X148694404Y-50624663D02*
X148884880Y-50624663D01*
X148884880Y-50624663D02*
X148980118Y-50672282D01*
X148980118Y-50672282D02*
X149027737Y-50719901D01*
X149027737Y-50719901D02*
X149122975Y-50862758D01*
X149122975Y-50862758D02*
X149170594Y-51053234D01*
X149170594Y-51053234D02*
X149170594Y-51434186D01*
X149170594Y-51434186D02*
X149122975Y-51529424D01*
X149122975Y-51529424D02*
X149075356Y-51577044D01*
X149075356Y-51577044D02*
X148980118Y-51624663D01*
X148980118Y-51624663D02*
X148789642Y-51624663D01*
X148789642Y-51624663D02*
X148694404Y-51577044D01*
X148694404Y-51577044D02*
X148646785Y-51529424D01*
X148646785Y-51529424D02*
X148599166Y-51434186D01*
X148599166Y-51434186D02*
X148599166Y-51196091D01*
X148599166Y-51196091D02*
X148646785Y-51100853D01*
X148646785Y-51100853D02*
X148694404Y-51053234D01*
X148694404Y-51053234D02*
X148789642Y-51005615D01*
X148789642Y-51005615D02*
X148980118Y-51005615D01*
X148980118Y-51005615D02*
X149075356Y-51053234D01*
X149075356Y-51053234D02*
X149122975Y-51100853D01*
X149122975Y-51100853D02*
X149170594Y-51196091D01*
D12*
%TO.C,R3*%
X124767064Y-55325000D02*
X124312936Y-55325000D01*
X124767064Y-56795000D02*
X124312936Y-56795000D01*
%TO.C,R15*%
X120735000Y-46172936D02*
X120735000Y-46627064D01*
X122205000Y-46172936D02*
X122205000Y-46627064D01*
%TO.C,R2*%
X124767064Y-53035000D02*
X124312936Y-53035000D01*
X124767064Y-54505000D02*
X124312936Y-54505000D01*
%TO.C,R8*%
X163842000Y-85449064D02*
X163842000Y-84994936D01*
X165312000Y-85449064D02*
X165312000Y-84994936D01*
%TO.C,R6*%
X139412936Y-52975000D02*
X139867064Y-52975000D01*
X139412936Y-54445000D02*
X139867064Y-54445000D01*
%TO.C,C2*%
X139393660Y-65603413D02*
X139916164Y-65603413D01*
X139393660Y-67073413D02*
X139916164Y-67073413D01*
%TO.C,R4*%
X124767064Y-63125000D02*
X124312936Y-63125000D01*
X124767064Y-64595000D02*
X124312936Y-64595000D01*
%TO.C,J2*%
X109497500Y-42250000D02*
X118897500Y-42250000D01*
X109497500Y-44150000D02*
X109497500Y-42250000D01*
X109497500Y-48050000D02*
X109497500Y-46050000D01*
X118897500Y-44150000D02*
X118897500Y-42250000D01*
X118897500Y-48050000D02*
X118897500Y-46050000D01*
%TO.C,R9*%
X150790000Y-84957936D02*
X150790000Y-85412064D01*
X152260000Y-84957936D02*
X152260000Y-85412064D01*
%TO.C,R10*%
X137790000Y-84957936D02*
X137790000Y-85412064D01*
X139260000Y-84957936D02*
X139260000Y-85412064D01*
%TO.C,R1*%
X124312936Y-57975000D02*
X124767064Y-57975000D01*
X124312936Y-59445000D02*
X124767064Y-59445000D01*
%TO.C,C3*%
X114559752Y-53749000D02*
X114037248Y-53749000D01*
X114559752Y-55219000D02*
X114037248Y-55219000D01*
%TO.C,R12*%
X111840000Y-84957936D02*
X111840000Y-85412064D01*
X113310000Y-84957936D02*
X113310000Y-85412064D01*
%TO.C,R11*%
X124790000Y-84957936D02*
X124790000Y-85412064D01*
X126260000Y-84957936D02*
X126260000Y-85412064D01*
%TO.C,R14*%
X106185000Y-46172936D02*
X106185000Y-46627064D01*
X107655000Y-46172936D02*
X107655000Y-46627064D01*
%TO.C,C1*%
X131650245Y-50344021D02*
X132172749Y-50344021D01*
X131650245Y-51814021D02*
X132172749Y-51814021D01*
%TO.C,R5*%
X124767064Y-65695000D02*
X124312936Y-65695000D01*
X124767064Y-67165000D02*
X124312936Y-67165000D01*
%TO.C,R7*%
X139867064Y-63365000D02*
X139412936Y-63365000D01*
X139867064Y-64835000D02*
X139412936Y-64835000D01*
%TO.C,SW6*%
X144822500Y-49990000D02*
X155042500Y-49990000D01*
X155042500Y-43120000D01*
X144822500Y-43120000D01*
X144822500Y-49990000D01*
%TD*%
M02*
