%TF.GenerationSoftware,KiCad,Pcbnew,9.0.2*%
%TF.CreationDate,2026-05-28T17:54:45+02:00*%
%TF.ProjectId,sotpotatis_pomodoro_timer,736f7470-6f74-4617-9469-735f706f6d6f,rev?*%
%TF.SameCoordinates,Original*%
%TF.FileFunction,Paste,Bot*%
%TF.FilePolarity,Positive*%
%FSLAX46Y46*%
G04 Gerber Fmt 4.6, Leading zero omitted, Abs format (unit mm)*
G04 Created by KiCad (PCBNEW 9.0.2) date 2026-05-28 17:54:45*
%MOMM*%
%LPD*%
G01*
G04 APERTURE LIST*
G04 Aperture macros list*
%AMRoundRect*
0 Rectangle with rounded corners*
0 $1 Rounding radius*
0 $2 $3 $4 $5 $6 $7 $8 $9 X,Y pos of 4 corners*
0 Add a 4 corners polygon primitive as box body*
4,1,4,$2,$3,$4,$5,$6,$7,$8,$9,$2,$3,0*
0 Add four circle primitives for the rounded corners*
1,1,$1+$1,$2,$3*
1,1,$1+$1,$4,$5*
1,1,$1+$1,$6,$7*
1,1,$1+$1,$8,$9*
0 Add four rect primitives between the rounded corners*
20,1,$1+$1,$2,$3,$4,$5,0*
20,1,$1+$1,$4,$5,$6,$7,0*
20,1,$1+$1,$6,$7,$8,$9,0*
20,1,$1+$1,$8,$9,$2,$3,0*%
G04 Aperture macros list end*
%ADD10RoundRect,0.250000X0.350000X0.450000X-0.350000X0.450000X-0.350000X-0.450000X0.350000X-0.450000X0*%
%ADD11RoundRect,0.250000X-0.450000X0.350000X-0.450000X-0.350000X0.450000X-0.350000X0.450000X0.350000X0*%
%ADD12RoundRect,0.250000X0.450000X-0.350000X0.450000X0.350000X-0.450000X0.350000X-0.450000X-0.350000X0*%
%ADD13RoundRect,0.250000X-0.350000X-0.450000X0.350000X-0.450000X0.350000X0.450000X-0.350000X0.450000X0*%
%ADD14RoundRect,0.250000X-0.337500X-0.475000X0.337500X-0.475000X0.337500X0.475000X-0.337500X0.475000X0*%
%ADD15R,0.600000X1.450000*%
%ADD16R,0.300000X1.450000*%
%ADD17RoundRect,0.250000X0.337500X0.475000X-0.337500X0.475000X-0.337500X-0.475000X0.337500X-0.475000X0*%
G04 APERTURE END LIST*
D10*
%TO.C,R3*%
X125540000Y-56060000D03*
X123540000Y-56060000D03*
%TD*%
D11*
%TO.C,R15*%
X121470000Y-45400000D03*
X121470000Y-47400000D03*
%TD*%
D10*
%TO.C,R2*%
X125540000Y-53770000D03*
X123540000Y-53770000D03*
%TD*%
D12*
%TO.C,R8*%
X164577000Y-86222000D03*
X164577000Y-84222000D03*
%TD*%
D13*
%TO.C,R6*%
X138640000Y-53710000D03*
X140640000Y-53710000D03*
%TD*%
D14*
%TO.C,C2*%
X138617412Y-66338413D03*
X140692412Y-66338413D03*
%TD*%
D10*
%TO.C,R4*%
X125540000Y-63860000D03*
X123540000Y-63860000D03*
%TD*%
D15*
%TO.C,J2*%
X110947500Y-50195000D03*
X111747500Y-50195000D03*
D16*
X112947500Y-50195000D03*
X113947500Y-50195000D03*
X114447500Y-50195000D03*
X115447500Y-50195000D03*
D15*
X116647500Y-50195000D03*
X117447500Y-50195000D03*
X117447500Y-50195000D03*
X116647500Y-50195000D03*
D16*
X115947500Y-50195000D03*
X114947500Y-50195000D03*
X113447500Y-50195000D03*
X112447500Y-50195000D03*
D15*
X111747500Y-50195000D03*
X110947500Y-50195000D03*
%TD*%
D11*
%TO.C,R9*%
X151525000Y-84185000D03*
X151525000Y-86185000D03*
%TD*%
%TO.C,R10*%
X138525000Y-84185000D03*
X138525000Y-86185000D03*
%TD*%
D13*
%TO.C,R1*%
X123540000Y-58710000D03*
X125540000Y-58710000D03*
%TD*%
D17*
%TO.C,C3*%
X115336000Y-54484000D03*
X113261000Y-54484000D03*
%TD*%
D11*
%TO.C,R12*%
X112575000Y-84185000D03*
X112575000Y-86185000D03*
%TD*%
%TO.C,R11*%
X125525000Y-84185000D03*
X125525000Y-86185000D03*
%TD*%
%TO.C,R14*%
X106920000Y-45400000D03*
X106920000Y-47400000D03*
%TD*%
D14*
%TO.C,C1*%
X130873997Y-51079021D03*
X132948997Y-51079021D03*
%TD*%
D10*
%TO.C,R5*%
X125540000Y-66430000D03*
X123540000Y-66430000D03*
%TD*%
%TO.C,R7*%
X140640000Y-64100000D03*
X138640000Y-64100000D03*
%TD*%
M02*
