%TF.GenerationSoftware,KiCad,Pcbnew,9.0.2*%
%TF.CreationDate,2026-05-28T17:54:45+02:00*%
%TF.ProjectId,sotpotatis_pomodoro_timer,736f7470-6f74-4617-9469-735f706f6d6f,rev?*%
%TF.SameCoordinates,Original*%
%TF.FileFunction,Copper,L4,Bot*%
%TF.FilePolarity,Positive*%
%FSLAX46Y46*%
G04 Gerber Fmt 4.6, Leading zero omitted, Abs format (unit mm)*
G04 Created by KiCad (PCBNEW 9.0.2) date 2026-05-28 17:54:45*
%MOMM*%
%LPD*%
G01*
G04 APERTURE LIST*
G04 Aperture macros list*
%AMRoundRect*
0 Rectangle with rounded corners*
0 $1 Rounding radius*
0 $2 $3 $4 $5 $6 $7 $8 $9 X,Y pos of 4 corners*
0 Add a 4 corners polygon primitive as box body*
4,1,4,$2,$3,$4,$5,$6,$7,$8,$9,$2,$3,0*
0 Add four circle primitives for the rounded corners*
1,1,$1+$1,$2,$3*
1,1,$1+$1,$4,$5*
1,1,$1+$1,$6,$7*
1,1,$1+$1,$8,$9*
0 Add four rect primitives between the rounded corners*
20,1,$1+$1,$2,$3,$4,$5,0*
20,1,$1+$1,$4,$5,$6,$7,0*
20,1,$1+$1,$6,$7,$8,$9,0*
20,1,$1+$1,$8,$9,$2,$3,0*%
G04 Aperture macros list end*
%TA.AperFunction,ComponentPad*%
%ADD10R,1.800000X1.800000*%
%TD*%
%TA.AperFunction,ComponentPad*%
%ADD11C,1.800000*%
%TD*%
%TA.AperFunction,ComponentPad*%
%ADD12C,2.000000*%
%TD*%
%TA.AperFunction,ComponentPad*%
%ADD13RoundRect,0.250000X-0.550000X-0.550000X0.550000X-0.550000X0.550000X0.550000X-0.550000X0.550000X0*%
%TD*%
%TA.AperFunction,ComponentPad*%
%ADD14C,1.600000*%
%TD*%
%TA.AperFunction,ComponentPad*%
%ADD15C,1.440000*%
%TD*%
%TA.AperFunction,ComponentPad*%
%ADD16R,2.000000X2.000000*%
%TD*%
%TA.AperFunction,SMDPad,CuDef*%
%ADD17RoundRect,0.250000X0.350000X0.450000X-0.350000X0.450000X-0.350000X-0.450000X0.350000X-0.450000X0*%
%TD*%
%TA.AperFunction,SMDPad,CuDef*%
%ADD18RoundRect,0.250000X-0.450000X0.350000X-0.450000X-0.350000X0.450000X-0.350000X0.450000X0.350000X0*%
%TD*%
%TA.AperFunction,SMDPad,CuDef*%
%ADD19RoundRect,0.250000X0.450000X-0.350000X0.450000X0.350000X-0.450000X0.350000X-0.450000X-0.350000X0*%
%TD*%
%TA.AperFunction,SMDPad,CuDef*%
%ADD20RoundRect,0.250000X-0.350000X-0.450000X0.350000X-0.450000X0.350000X0.450000X-0.350000X0.450000X0*%
%TD*%
%TA.AperFunction,SMDPad,CuDef*%
%ADD21RoundRect,0.250000X-0.337500X-0.475000X0.337500X-0.475000X0.337500X0.475000X-0.337500X0.475000X0*%
%TD*%
%TA.AperFunction,SMDPad,CuDef*%
%ADD22R,0.600000X1.450000*%
%TD*%
%TA.AperFunction,SMDPad,CuDef*%
%ADD23R,0.300000X1.450000*%
%TD*%
%TA.AperFunction,HeatsinkPad*%
%ADD24O,1.000000X1.600000*%
%TD*%
%TA.AperFunction,HeatsinkPad*%
%ADD25O,1.000000X2.100000*%
%TD*%
%TA.AperFunction,SMDPad,CuDef*%
%ADD26RoundRect,0.250000X0.337500X0.475000X-0.337500X0.475000X-0.337500X-0.475000X0.337500X-0.475000X0*%
%TD*%
%TA.AperFunction,ComponentPad*%
%ADD27R,1.700000X1.700000*%
%TD*%
%TA.AperFunction,ViaPad*%
%ADD28C,0.700000*%
%TD*%
%TA.AperFunction,Conductor*%
%ADD29C,0.400000*%
%TD*%
%TA.AperFunction,Conductor*%
%ADD30C,0.300000*%
%TD*%
G04 APERTURE END LIST*
D10*
%TO.P,D7,1,K*%
%TO.N,Net-(D11-A)*%
X134030000Y-74446000D03*
D11*
%TO.P,D7,2,A*%
%TO.N,Net-(D1-K)*%
X136570000Y-74446000D03*
%TD*%
D12*
%TO.P,SW3,1,1*%
%TO.N,Net-(R10-Pad2)*%
X128800000Y-84837000D03*
X135300000Y-84837000D03*
%TO.P,SW3,2,2*%
%TO.N,GND*%
X128800000Y-89337000D03*
X135300000Y-89337000D03*
%TD*%
D10*
%TO.P,D10,1,K*%
%TO.N,Net-(D1-K)*%
X153530000Y-74476000D03*
D11*
%TO.P,D10,2,A*%
%TO.N,Net-(D10-A)*%
X156070000Y-74476000D03*
%TD*%
D10*
%TO.P,D12,1,K*%
%TO.N,Net-(D11-A)*%
X166530000Y-74446000D03*
D11*
%TO.P,D12,2,A*%
%TO.N,Net-(D10-A)*%
X169070000Y-74446000D03*
%TD*%
D12*
%TO.P,SW4,1,1*%
%TO.N,Net-(R10-Pad1)*%
X141800000Y-84837000D03*
X148300000Y-84837000D03*
%TO.P,SW4,2,2*%
%TO.N,GND*%
X141800000Y-89337000D03*
X148300000Y-89337000D03*
%TD*%
D10*
%TO.P,D6,1,K*%
%TO.N,Net-(D1-A)*%
X130070000Y-74446000D03*
D11*
%TO.P,D6,2,A*%
%TO.N,Net-(D10-A)*%
X127530000Y-74446000D03*
%TD*%
D10*
%TO.P,D11,1,K*%
%TO.N,Net-(D10-A)*%
X160030000Y-74446000D03*
D11*
%TO.P,D11,2,A*%
%TO.N,Net-(D11-A)*%
X162570000Y-74446000D03*
%TD*%
D10*
%TO.P,D14,1,K*%
%TO.N,Net-(D10-A)*%
X169070000Y-59825800D03*
D11*
%TO.P,D14,2,A*%
%TO.N,Net-(D13-K)*%
X166530000Y-59825800D03*
%TD*%
D10*
%TO.P,D4,1,K*%
%TO.N,Net-(D1-A)*%
X117070000Y-74446000D03*
D11*
%TO.P,D4,2,A*%
%TO.N,Net-(D11-A)*%
X114530000Y-74446000D03*
%TD*%
D10*
%TO.P,D13,1,K*%
%TO.N,Net-(D13-K)*%
X166530000Y-53745800D03*
D11*
%TO.P,D13,2,A*%
%TO.N,Net-(D10-A)*%
X169070000Y-53745800D03*
%TD*%
D12*
%TO.P,SW5,1,1*%
%TO.N,Net-(R8-Pad1)*%
X154800000Y-84837000D03*
X161300000Y-84837000D03*
%TO.P,SW5,2,2*%
%TO.N,GND*%
X154800000Y-89337000D03*
X161300000Y-89337000D03*
%TD*%
%TO.P,SW1,1,1*%
%TO.N,Net-(R12-Pad2)*%
X102800000Y-84837000D03*
X109300000Y-84837000D03*
%TO.P,SW1,2,2*%
%TO.N,GND*%
X102800000Y-89337000D03*
X109300000Y-89337000D03*
%TD*%
D10*
%TO.P,D1,1,K*%
%TO.N,Net-(D1-K)*%
X95030000Y-74446000D03*
D11*
%TO.P,D1,2,A*%
%TO.N,Net-(D1-A)*%
X97570000Y-74446000D03*
%TD*%
D10*
%TO.P,D3,1,K*%
%TO.N,Net-(D11-A)*%
X110570000Y-74446000D03*
D11*
%TO.P,D3,2,A*%
%TO.N,Net-(D1-A)*%
X108030000Y-74446000D03*
%TD*%
D10*
%TO.P,D15,1,K*%
%TO.N,Net-(D13-K)*%
X166530000Y-65905800D03*
D11*
%TO.P,D15,2,A*%
%TO.N,Net-(D11-A)*%
X169070000Y-65905800D03*
%TD*%
D12*
%TO.P,SW2,1,1*%
%TO.N,Net-(R11-Pad2)*%
X115800000Y-84837000D03*
X122300000Y-84837000D03*
%TO.P,SW2,2,2*%
%TO.N,GND*%
X115800000Y-89337000D03*
X122300000Y-89337000D03*
%TD*%
D13*
%TO.P,U1,1,VCC*%
%TO.N,VCC*%
X128090000Y-51084000D03*
D14*
%TO.P,U1,2,XTAL1/PB0*%
%TO.N,PB0*%
X128090000Y-53624000D03*
%TO.P,U1,3,XTAL2/PB1*%
%TO.N,PB1*%
X128090000Y-56164000D03*
%TO.P,U1,4,~{RESET}/PB3*%
%TO.N,Net-(U1-~{RESET}{slash}PB3)*%
X128090000Y-58704000D03*
%TO.P,U1,5,PB2*%
%TO.N,PB2*%
X128090000Y-61244000D03*
%TO.P,U1,6,PA7*%
%TO.N,PA7*%
X128090000Y-63784000D03*
%TO.P,U1,7,PA6*%
%TO.N,PA6*%
X128090000Y-66324000D03*
%TO.P,U1,8,PA5*%
%TO.N,PA5*%
X135710000Y-66324000D03*
%TO.P,U1,9,PA4*%
%TO.N,unconnected-(U1-PA4-Pad9)*%
X135710000Y-63784000D03*
%TO.P,U1,10,PA3*%
%TO.N,unconnected-(U1-PA3-Pad10)*%
X135710000Y-61244000D03*
%TO.P,U1,11,PA2*%
%TO.N,unconnected-(U1-PA2-Pad11)*%
X135710000Y-58704000D03*
%TO.P,U1,12,PA1*%
%TO.N,unconnected-(U1-PA1-Pad12)*%
X135710000Y-56164000D03*
%TO.P,U1,13,AREF/PA0*%
%TO.N,PA0*%
X135710000Y-53624000D03*
%TO.P,U1,14,GND*%
%TO.N,GND*%
X135710000Y-51084000D03*
%TD*%
D10*
%TO.P,D5,1,K*%
%TO.N,Net-(D10-A)*%
X123570000Y-74461000D03*
D11*
%TO.P,D5,2,A*%
%TO.N,Net-(D1-A)*%
X121030000Y-74461000D03*
%TD*%
D10*
%TO.P,D9,1,K*%
%TO.N,Net-(D10-A)*%
X147030000Y-74446000D03*
D11*
%TO.P,D9,2,A*%
%TO.N,Net-(D1-K)*%
X149570000Y-74446000D03*
%TD*%
D15*
%TO.P,RV1,1,1*%
%TO.N,GND*%
X116798000Y-60322000D03*
%TO.P,RV1,2,2*%
%TO.N,Net-(BZ1-+)*%
X114258000Y-57782000D03*
%TO.P,RV1,3,3*%
%TO.N,PB2*%
X111718000Y-60322000D03*
%TD*%
D16*
%TO.P,BZ1,1,+*%
%TO.N,Net-(BZ1-+)*%
X97008500Y-59306000D03*
D12*
%TO.P,BZ1,2,-*%
%TO.N,GND*%
X103508500Y-59306000D03*
%TD*%
D10*
%TO.P,D8,1,K*%
%TO.N,Net-(D1-K)*%
X140530000Y-74446000D03*
D11*
%TO.P,D8,2,A*%
%TO.N,Net-(D11-A)*%
X143070000Y-74446000D03*
%TD*%
D10*
%TO.P,D2,1,K*%
%TO.N,Net-(D1-A)*%
X101530000Y-74446000D03*
D11*
%TO.P,D2,2,A*%
%TO.N,Net-(D1-K)*%
X104070000Y-74446000D03*
%TD*%
D17*
%TO.P,R3,1*%
%TO.N,PB1*%
X125540000Y-56060000D03*
%TO.P,R3,2*%
%TO.N,Net-(D1-K)*%
X123540000Y-56060000D03*
%TD*%
D18*
%TO.P,R15,1*%
%TO.N,GND*%
X121470000Y-45400000D03*
%TO.P,R15,2*%
%TO.N,Net-(J2-CC2)*%
X121470000Y-47400000D03*
%TD*%
D17*
%TO.P,R2,1*%
%TO.N,PB0*%
X125540000Y-53770000D03*
%TO.P,R2,2*%
%TO.N,Net-(D1-A)*%
X123540000Y-53770000D03*
%TD*%
D19*
%TO.P,R8,1*%
%TO.N,Net-(R8-Pad1)*%
X164577000Y-86222000D03*
%TO.P,R8,2*%
%TO.N,PA5*%
X164577000Y-84222000D03*
%TD*%
D20*
%TO.P,R6,1*%
%TO.N,PA0*%
X138640000Y-53710000D03*
%TO.P,R6,2*%
%TO.N,Net-(D13-K)*%
X140640000Y-53710000D03*
%TD*%
D21*
%TO.P,C2,1*%
%TO.N,PA5*%
X138617412Y-66338413D03*
%TO.P,C2,2*%
%TO.N,GND*%
X140692412Y-66338413D03*
%TD*%
D17*
%TO.P,R4,1*%
%TO.N,PA7*%
X125540000Y-63860000D03*
%TO.P,R4,2*%
%TO.N,Net-(D11-A)*%
X123540000Y-63860000D03*
%TD*%
D22*
%TO.P,J2,A1,GND*%
%TO.N,GND*%
X110947500Y-50195000D03*
%TO.P,J2,A4,VBUS*%
%TO.N,+5V*%
X111747500Y-50195000D03*
D23*
%TO.P,J2,A5,CC1*%
%TO.N,Net-(J2-CC1)*%
X112947500Y-50195000D03*
%TO.P,J2,A6,D+*%
%TO.N,unconnected-(J2-D+-PadA6)*%
X113947500Y-50195000D03*
%TO.P,J2,A7,D-*%
%TO.N,unconnected-(J2-D--PadA7)*%
X114447500Y-50195000D03*
%TO.P,J2,A8,SBU1*%
%TO.N,unconnected-(J2-SBU1-PadA8)*%
X115447500Y-50195000D03*
D22*
%TO.P,J2,A9,VBUS*%
%TO.N,+5V*%
X116647500Y-50195000D03*
%TO.P,J2,A12,GND*%
%TO.N,GND*%
X117447500Y-50195000D03*
%TO.P,J2,B1,GND*%
X117447500Y-50195000D03*
%TO.P,J2,B4,VBUS*%
%TO.N,+5V*%
X116647500Y-50195000D03*
D23*
%TO.P,J2,B5,CC2*%
%TO.N,Net-(J2-CC2)*%
X115947500Y-50195000D03*
%TO.P,J2,B6,D+*%
%TO.N,unconnected-(J2-D+-PadB6)*%
X114947500Y-50195000D03*
%TO.P,J2,B7,D-*%
%TO.N,unconnected-(J2-D--PadB7)*%
X113447500Y-50195000D03*
%TO.P,J2,B8,SBU2*%
%TO.N,unconnected-(J2-SBU2-PadB8)*%
X112447500Y-50195000D03*
D22*
%TO.P,J2,B9,VBUS*%
%TO.N,+5V*%
X111747500Y-50195000D03*
%TO.P,J2,B12,GND*%
%TO.N,GND*%
X110947500Y-50195000D03*
D24*
%TO.P,J2,S1,SHIELD*%
X109877500Y-45100000D03*
D25*
X109877500Y-49280000D03*
D24*
X118517500Y-45100000D03*
D25*
X118517500Y-49280000D03*
%TD*%
D18*
%TO.P,R9,1*%
%TO.N,PA5*%
X151525000Y-84185000D03*
%TO.P,R9,2*%
%TO.N,Net-(R10-Pad1)*%
X151525000Y-86185000D03*
%TD*%
%TO.P,R10,1*%
%TO.N,Net-(R10-Pad1)*%
X138525000Y-84185000D03*
%TO.P,R10,2*%
%TO.N,Net-(R10-Pad2)*%
X138525000Y-86185000D03*
%TD*%
D20*
%TO.P,R1,1*%
%TO.N,VCC*%
X123540000Y-58710000D03*
%TO.P,R1,2*%
%TO.N,Net-(U1-~{RESET}{slash}PB3)*%
X125540000Y-58710000D03*
%TD*%
D26*
%TO.P,C3,1*%
%TO.N,+5V*%
X115336000Y-54484000D03*
%TO.P,C3,2*%
%TO.N,GND*%
X113261000Y-54484000D03*
%TD*%
D18*
%TO.P,R12,1*%
%TO.N,Net-(R11-Pad2)*%
X112575000Y-84185000D03*
%TO.P,R12,2*%
%TO.N,Net-(R12-Pad2)*%
X112575000Y-86185000D03*
%TD*%
%TO.P,R11,1*%
%TO.N,Net-(R10-Pad2)*%
X125525000Y-84185000D03*
%TO.P,R11,2*%
%TO.N,Net-(R11-Pad2)*%
X125525000Y-86185000D03*
%TD*%
%TO.P,R14,1*%
%TO.N,GND*%
X106920000Y-45400000D03*
%TO.P,R14,2*%
%TO.N,Net-(J2-CC1)*%
X106920000Y-47400000D03*
%TD*%
D21*
%TO.P,C1,1*%
%TO.N,VCC*%
X130873997Y-51079021D03*
%TO.P,C1,2*%
%TO.N,GND*%
X132948997Y-51079021D03*
%TD*%
D17*
%TO.P,R5,1*%
%TO.N,PA6*%
X125540000Y-66430000D03*
%TO.P,R5,2*%
%TO.N,Net-(D10-A)*%
X123540000Y-66430000D03*
%TD*%
%TO.P,R7,1*%
%TO.N,VCC*%
X140640000Y-64100000D03*
%TO.P,R7,2*%
%TO.N,PA5*%
X138640000Y-64100000D03*
%TD*%
D27*
%TO.P,SW6,1,B*%
%TO.N,+5V*%
X149932500Y-48630000D03*
D11*
%TO.P,SW6,2,C*%
%TO.N,VCC*%
X147392500Y-48630000D03*
%TO.P,SW6,3,A*%
%TO.N,unconnected-(SW6-A-Pad3)*%
X152472500Y-48630000D03*
%TD*%
D28*
%TO.N,GND*%
X117487556Y-52254944D03*
X105264860Y-45405127D03*
X142170613Y-66325420D03*
X110970000Y-52254944D03*
X123092641Y-45390524D03*
X132900000Y-52388883D03*
X112173600Y-56324800D03*
%TO.N,VCC*%
X130915428Y-52399895D03*
X142170613Y-64132000D03*
X123580123Y-60298805D03*
%TO.N,Net-(D1-K)*%
X119320000Y-65300000D03*
X147632000Y-71006000D03*
%TO.N,Net-(D11-A)*%
X121570000Y-68550000D03*
%TO.N,Net-(D10-A)*%
X123570000Y-69800000D03*
%TD*%
D29*
%TO.N,GND*%
X112173600Y-56324800D02*
X112224400Y-56274000D01*
X105264860Y-45405127D02*
X105356371Y-45405127D01*
X117447500Y-52214888D02*
X117447500Y-50195000D01*
X112920464Y-56274000D02*
X113314232Y-55880232D01*
X121470000Y-45400000D02*
X121479656Y-45390344D01*
X106913053Y-45406947D02*
X105266680Y-45406947D01*
X112449000Y-54384000D02*
X113261000Y-54384000D01*
X105266680Y-45406947D02*
X105264860Y-45405127D01*
X113314232Y-55880232D02*
X113314232Y-54367792D01*
X105356371Y-45405127D02*
X105393298Y-45368200D01*
X140745325Y-66325600D02*
X142170433Y-66325600D01*
X106920000Y-45400000D02*
X106913053Y-45406947D01*
X123092461Y-45390344D02*
X123092641Y-45390524D01*
X132948997Y-51079021D02*
X135705021Y-51079021D01*
X112224400Y-56274000D02*
X112920464Y-56274000D01*
X121479656Y-45390344D02*
X123092461Y-45390344D01*
X117487556Y-52254944D02*
X117447500Y-52214888D01*
X111319944Y-53254944D02*
X112449000Y-54384000D01*
X132899820Y-50963595D02*
X132899820Y-52388703D01*
X110947500Y-52902388D02*
X110947500Y-50195000D01*
X135705021Y-51079021D02*
X135710000Y-51084000D01*
X111300056Y-53254944D02*
X110947500Y-52902388D01*
%TO.N,VCC*%
X130873997Y-51079021D02*
X128094979Y-51079021D01*
X123570000Y-58740000D02*
X123570000Y-60288682D01*
X130915248Y-50974607D02*
X130915248Y-52399715D01*
X128094979Y-51079021D02*
X128090000Y-51084000D01*
X140610712Y-64132180D02*
X142170433Y-64132180D01*
X123540000Y-58710000D02*
X123570000Y-58740000D01*
D30*
%TO.N,PA0*%
X138640000Y-53710000D02*
X135796000Y-53710000D01*
%TO.N,Net-(D1-K)*%
X148599497Y-71006000D02*
X149570000Y-71976503D01*
X95030000Y-75698500D02*
X95927423Y-76595923D01*
X95030000Y-74446000D02*
X95030000Y-75698500D01*
X149570000Y-71976503D02*
X149570000Y-74446000D01*
X119320000Y-65300000D02*
X119094800Y-65300000D01*
X135226524Y-70706524D02*
X120997853Y-70706524D01*
X136570000Y-72050000D02*
X135226524Y-70706524D01*
X119320000Y-65300000D02*
X121415133Y-63204867D01*
X104071000Y-75705000D02*
X104071000Y-74447000D01*
X95927423Y-76595923D02*
X103180077Y-76595923D01*
X103180077Y-76595923D02*
X104071000Y-75705000D01*
X122162121Y-56060000D02*
X123540000Y-56060000D01*
X136570000Y-74446000D02*
X140530000Y-74446000D01*
X104071000Y-74447000D02*
X104070000Y-74446000D01*
X121415133Y-56806988D02*
X122162121Y-56060000D01*
X147632000Y-71006000D02*
X148599497Y-71006000D01*
X136570000Y-74446000D02*
X136570000Y-72050000D01*
X119320000Y-69028671D02*
X119320000Y-65300000D01*
X120997853Y-70706524D02*
X119320000Y-69028671D01*
X153530000Y-74476000D02*
X149600000Y-74476000D01*
X121415133Y-63204867D02*
X121415133Y-56806988D01*
%TO.N,Net-(D1-A)*%
X117070000Y-65503000D02*
X117081000Y-65514000D01*
X119820000Y-56400000D02*
X122450000Y-53770000D01*
X108030000Y-74446000D02*
X108030000Y-71080000D01*
X104861000Y-71082000D02*
X104871000Y-71092000D01*
X117052000Y-71092000D02*
X117040000Y-71080000D01*
X117081000Y-65514000D02*
X119820000Y-62775000D01*
X111945000Y-71080000D02*
X104863000Y-71080000D01*
X129619000Y-76594000D02*
X121597000Y-76594000D01*
X119820000Y-62775000D02*
X119820000Y-56400000D01*
X103616000Y-71080000D02*
X101530000Y-73166000D01*
X117070000Y-74446000D02*
X117070000Y-65503000D01*
X122450000Y-53770000D02*
X123500000Y-53770000D01*
X104871000Y-71092000D02*
X110042000Y-71092000D01*
X130106000Y-76107000D02*
X129619000Y-76594000D01*
X117040000Y-71080000D02*
X111945000Y-71080000D01*
X121597000Y-76594000D02*
X121030000Y-76027000D01*
X130106000Y-74541000D02*
X130106000Y-76107000D01*
X121030000Y-76027000D02*
X121030000Y-74461000D01*
X104849000Y-71080000D02*
X103616000Y-71080000D01*
X104863000Y-71080000D02*
X104861000Y-71082000D01*
X108030000Y-71080000D02*
X111945000Y-71080000D01*
X101530000Y-73166000D02*
X101530000Y-74446000D01*
%TO.N,Net-(D11-A)*%
X143070000Y-74446000D02*
X143070000Y-75822000D01*
X143070000Y-75822000D02*
X142298000Y-76594000D01*
X142298000Y-76594000D02*
X134805000Y-76594000D01*
X121570000Y-64741924D02*
X122451924Y-63860000D01*
X122451924Y-63860000D02*
X123540000Y-63860000D01*
X134030000Y-75819000D02*
X134030000Y-74446000D01*
X134805000Y-76594000D02*
X134030000Y-75819000D01*
X121570000Y-68550000D02*
X121570000Y-64741924D01*
%TO.N,Net-(D10-A)*%
X160030000Y-75911000D02*
X160688369Y-76569369D01*
X123570000Y-66460000D02*
X123540000Y-66430000D01*
X169070000Y-75797227D02*
X169070000Y-74446000D01*
X169070000Y-74446000D02*
X169070000Y-73126500D01*
X171235381Y-63240381D02*
X169070000Y-61075000D01*
X123570000Y-69800000D02*
X123570000Y-66460000D01*
X168297858Y-76569369D02*
X169070000Y-75797227D01*
X123585000Y-74446000D02*
X123570000Y-74461000D01*
X171235381Y-70961119D02*
X171235381Y-63240381D01*
X127530000Y-74446000D02*
X123585000Y-74446000D01*
X169070000Y-74446000D02*
X169070000Y-73825000D01*
X169070000Y-73126500D02*
X171235381Y-70961119D01*
X169070000Y-61075000D02*
X169070000Y-59825800D01*
X160030000Y-74446000D02*
X160030000Y-75911000D01*
X160688369Y-76569369D02*
X168297858Y-76569369D01*
%TO.N,Net-(D13-K)*%
X142170613Y-53710000D02*
X166494200Y-53710000D01*
X142170613Y-53710000D02*
X140640000Y-53710000D01*
X166530000Y-59825800D02*
X166530000Y-65905800D01*
X166530000Y-53745800D02*
X166530000Y-59825800D01*
%TO.N,Net-(U1-~{RESET}{slash}PB3)*%
X125540000Y-58710000D02*
X128084000Y-58710000D01*
%TO.N,PB0*%
X127944000Y-53770000D02*
X128090000Y-53624000D01*
X125540000Y-53770000D02*
X127944000Y-53770000D01*
%TO.N,PB1*%
X127986000Y-56060000D02*
X128090000Y-56164000D01*
X125540000Y-56060000D02*
X127986000Y-56060000D01*
%TO.N,PA7*%
X128014000Y-63860000D02*
X128090000Y-63784000D01*
X125540000Y-63860000D02*
X128014000Y-63860000D01*
%TO.N,PA6*%
X125700000Y-66430000D02*
X127984000Y-66430000D01*
%TO.N,PA5*%
X164167400Y-82563000D02*
X164577000Y-82972600D01*
X138640000Y-66315825D02*
X138617412Y-66338413D01*
X151525000Y-82567151D02*
X151529151Y-82563000D01*
X150896462Y-82563000D02*
X151529151Y-82563000D01*
X138117412Y-66338413D02*
X135724413Y-66338413D01*
X145085000Y-72396000D02*
X145085000Y-76751538D01*
X138640000Y-64100000D02*
X138640000Y-66315825D01*
X135710000Y-66324000D02*
X135710000Y-67593000D01*
X164577000Y-82972600D02*
X164577000Y-84222000D01*
X145085000Y-76751538D02*
X150896462Y-82563000D01*
X135710000Y-67593000D02*
X139123000Y-71006000D01*
X139123000Y-71006000D02*
X143695000Y-71006000D01*
X143695000Y-71006000D02*
X145085000Y-72396000D01*
X151525000Y-84185000D02*
X151525000Y-82567151D01*
X151529151Y-82563000D02*
X164167400Y-82563000D01*
%TO.N,Net-(R10-Pad1)*%
X140381000Y-84837000D02*
X139729000Y-84185000D01*
X151363000Y-87564000D02*
X149585000Y-87564000D01*
X149585000Y-87564000D02*
X148267000Y-86246000D01*
X139729000Y-84185000D02*
X138525000Y-84185000D01*
X141800000Y-84837000D02*
X148300000Y-84837000D01*
X141800000Y-84837000D02*
X140381000Y-84837000D01*
X151544000Y-87383000D02*
X151363000Y-87564000D01*
X148267000Y-86246000D02*
X148267000Y-84885000D01*
X151544000Y-86270000D02*
X151544000Y-87383000D01*
%TO.N,Net-(R10-Pad2)*%
X127300000Y-84837000D02*
X126648000Y-84185000D01*
X126648000Y-84185000D02*
X125457516Y-84185000D01*
X128732516Y-84837000D02*
X127300000Y-84837000D01*
X138578500Y-87298500D02*
X138397500Y-87479500D01*
X128800000Y-84837000D02*
X135300000Y-84837000D01*
X135301500Y-86161500D02*
X135301500Y-84800500D01*
X138397500Y-87479500D02*
X136619500Y-87479500D01*
X136619500Y-87479500D02*
X135301500Y-86161500D01*
X138578500Y-86185500D02*
X138578500Y-87298500D01*
%TO.N,Net-(R11-Pad2)*%
X125576380Y-87296610D02*
X125395380Y-87477610D01*
X115822341Y-84837000D02*
X114374672Y-84837000D01*
X115800000Y-84837000D02*
X122300000Y-84837000D01*
X113722672Y-84185000D02*
X112547341Y-84185000D01*
X123617380Y-87477610D02*
X122299380Y-86159610D01*
X125395380Y-87477610D02*
X123617380Y-87477610D01*
X125576380Y-86183610D02*
X125576380Y-87296610D01*
X114374672Y-84837000D02*
X113722672Y-84185000D01*
X122299380Y-86159610D02*
X122299380Y-84798610D01*
%TO.N,Net-(R8-Pad1)*%
X161291162Y-86198000D02*
X161291162Y-84837000D01*
X164387162Y-87516000D02*
X162609162Y-87516000D01*
X162609162Y-87516000D02*
X161291162Y-86198000D01*
X154800000Y-84837000D02*
X161300000Y-84837000D01*
X164568162Y-86222000D02*
X164568162Y-87335000D01*
X164568162Y-87335000D02*
X164387162Y-87516000D01*
%TO.N,Net-(R12-Pad2)*%
X112429868Y-87446967D02*
X110651868Y-87446967D01*
X110651868Y-87446967D02*
X109333868Y-86128967D01*
X109333868Y-86128967D02*
X109333868Y-84767967D01*
X112610868Y-86152967D02*
X112610868Y-87265967D01*
X102800002Y-84837000D02*
X109300002Y-84837000D01*
X112610866Y-87265967D02*
X112429866Y-87446967D01*
%TO.N,Net-(J2-CC2)*%
X115947500Y-48022500D02*
X116570000Y-47400000D01*
X115947500Y-50195000D02*
X115947500Y-48022500D01*
X116570000Y-47400000D02*
X121470000Y-47400000D01*
%TO.N,Net-(J2-CC1)*%
X112947500Y-48009800D02*
X112337700Y-47400000D01*
X112947500Y-50195000D02*
X112947500Y-48009800D01*
X112337700Y-47400000D02*
X106920000Y-47400000D01*
D29*
%TO.N,+5V*%
X115336000Y-54369000D02*
X118330500Y-54369000D01*
X115082000Y-53080000D02*
X115336000Y-53334000D01*
X125950500Y-46749000D02*
X149410000Y-46749000D01*
X149932500Y-47271500D02*
X149932500Y-48630000D01*
X149410000Y-46749000D02*
X149932500Y-47271500D01*
X115336000Y-53334000D02*
X115336000Y-54369000D01*
X111747500Y-50195000D02*
X111767811Y-50215311D01*
X118330500Y-54369000D02*
X125950500Y-46749000D01*
X116647500Y-53903500D02*
X116186000Y-54365000D01*
X111767811Y-50215311D02*
X111767811Y-52520616D01*
X111767811Y-52520616D02*
X112327195Y-53080000D01*
X112327195Y-53080000D02*
X115082000Y-53080000D01*
X116647500Y-50195000D02*
X116647500Y-53903500D01*
%TD*%
M02*
