M48
INCH
T1C0.0118
T2C0.0236
T3C0.0315
T4C0.0354
T5C0.0394
T6C0.0433
%
G90
G05
T1
X4.1443Y-1.7876
X4.3689Y-2.0573
X4.4163Y-2.2175
X4.6255Y-2.0573
X4.6976Y-2.5709
X4.7862Y-2.6988
X4.8462Y-1.787
X4.865Y-2.748
X4.8654Y-2.374
X5.1542Y-2.063
X5.2323Y-2.0626
X5.5973Y-2.5249
X5.5973Y-2.6112
X5.8123Y-2.7955
T3
X4.3983Y-2.3749
X4.4983Y-2.2749
X4.5983Y-2.3749
X5.0429Y-2.0112
X5.0429Y-2.1112
X5.0429Y-2.2112
X5.0429Y-2.3112
X5.0429Y-2.4112
X5.0429Y-2.5112
X5.0429Y-2.6112
X5.3429Y-2.0112
X5.3429Y-2.1112
X5.3429Y-2.2112
X5.3429Y-2.3112
X5.3429Y-2.4112
X5.3429Y-2.5112
X5.3429Y-2.6112
T4
X3.7413Y-2.9309
X3.8413Y-2.9309
X3.9972Y-2.9309
X4.0972Y-2.9309
X4.2531Y-2.9309
X4.3531Y-2.9309
X4.5091Y-2.9309
X4.6091Y-2.9309
X4.765Y-2.9315
X4.865Y-2.9315
X5.0209Y-2.9309
X5.1209Y-2.9309
X5.2768Y-2.9309
X5.3768Y-2.9309
X5.5327Y-2.9309
X5.6327Y-2.9309
X5.7886Y-2.9309
X5.8029Y-1.9146
X5.8886Y-2.9309
X5.9029Y-1.9146
X6.0029Y-1.9146
X6.0445Y-2.9321
X6.1445Y-2.9321
X6.3004Y-2.9309
X6.4004Y-2.9309
X6.5563Y-2.116
X6.5563Y-2.3553
X6.5563Y-2.5947
X6.5563Y-2.9309
X6.6563Y-2.116
X6.6563Y-2.3553
X6.6563Y-2.5947
X6.6563Y-2.9309
T5
X3.8192Y-2.3349
X4.0751Y-2.3349
T6
X4.0472Y-3.34
X4.0472Y-3.5172
X4.3031Y-3.34
X4.3031Y-3.5172
X4.5591Y-3.34
X4.5591Y-3.5172
X4.815Y-3.34
X4.815Y-3.5172
X5.0709Y-3.34
X5.0709Y-3.5172
X5.3268Y-3.34
X5.3268Y-3.5172
X5.5827Y-3.34
X5.5827Y-3.5172
X5.8386Y-3.34
X5.8386Y-3.5172
X6.0945Y-3.34
X6.0945Y-3.5172
X6.3504Y-3.34
X6.3504Y-3.5172
T2
G00X4.3259Y-1.7638
M15
G01X4.3259Y-1.7874
M16
G05
G00X4.3259Y-1.9185
M15
G01X4.3259Y-1.9618
M16
G05
G00X4.666Y-1.7638
M15
G01X4.666Y-1.7874
M16
G05
G00X4.666Y-1.9185
M15
G01X4.666Y-1.9618
M16
G05
M30
